<?xml version="1.0" encoding="UTF-8" standalone="no"?><!DOCTYPE svg PUBLIC "-//W3C//DTD SVG 1.1//EN" "http://www.w3.org/Graphics/SVG/1.1/DTD/svg11.dtd"><!-- Generated by graphviz version 2.40.1 (20161225.0304)
 --><!-- Title: Java Pages: 1 --><svg xmlns="http://www.w3.org/2000/svg" xmlns:xlink="http://www.w3.org/1999/xlink" width="732pt" height="146pt" viewBox="0.00 0.00 732.00 146.40">
<g id="graph0" class="graph" transform="scale(1 1) rotate(0) translate(4 142.4)">
<title>Java</title>
<polygon fill="#ffffff" stroke="transparent" points="-4,4 -4,-142.4 728,-142.4 728,4 -4,4"/>
<!-- n1 -->
<g id="node1" class="node">
<title>n1</title>
<polygon fill="none" stroke="#000000" points="274,-90.4 274,-134.4 398,-134.4 398,-90.4 274,-90.4"/>
<text text-anchor="start" x="276.9151" y="-108.2" font-family="Times,serif" font-size="14.00" fill="#000000">java.util.ArrayDeque</text>
<polygon fill="none" stroke="#000000" points="398,-112.4 398,-134.4 451,-134.4 451,-112.4 398,-112.4"/>
<text text-anchor="start" x="400.5901" y="-118.8" font-family="Times,serif" font-size="14.00" fill="#000000">head: 18</text>
<polygon fill="none" stroke="#000000" points="398,-90.4 398,-112.4 451,-112.4 451,-90.4 398,-90.4"/>
<text text-anchor="start" x="408.3615" y="-96.8" font-family="Times,serif" font-size="14.00" fill="#000000">tail: 4</text>
</g>
<!-- n2 -->
<g id="node2" class="node">
<title>n2</title>
<polygon fill="none" stroke="#000000" points="8,-7 8,-29 28,-29 28,-7 8,-7"/>
<text text-anchor="start" x="11" y="-13.4" font-family="Times,serif" font-size="14.00" fill="#000000">16</text>
<polygon fill="none" stroke="#000000" points="28,-7 28,-29 48,-29 48,-7 28,-7"/>
<text text-anchor="start" x="31" y="-13.4" font-family="Times,serif" font-size="14.00" fill="#000000">17</text>
<polygon fill="none" stroke="#000000" points="48,-7 48,-29 68,-29 68,-7 48,-7"/>
<text text-anchor="start" x="51" y="-13.4" font-family="Times,serif" font-size="14.00" fill="#000000">18</text>
<polygon fill="none" stroke="#000000" points="68,-7 68,-29 88,-29 88,-7 68,-7"/>
<text text-anchor="start" x="71" y="-13.4" font-family="Times,serif" font-size="14.00" fill="#000000">19</text>
<polygon fill="none" stroke="#000000" points="88,-7 88,-29 115,-29 115,-7 88,-7"/>
<text text-anchor="start" x="90.6094" y="-13.4" font-family="Times,serif" font-size="14.00" fill="#000000">null</text>
<polygon fill="none" stroke="#000000" points="115,-7 115,-29 142,-29 142,-7 115,-7"/>
<text text-anchor="start" x="117.6094" y="-13.4" font-family="Times,serif" font-size="14.00" fill="#000000">null</text>
<polygon fill="none" stroke="#000000" points="142,-7 142,-29 169,-29 169,-7 142,-7"/>
<text text-anchor="start" x="144.6094" y="-13.4" font-family="Times,serif" font-size="14.00" fill="#000000">null</text>
<polygon fill="none" stroke="#000000" points="169,-7 169,-29 196,-29 196,-7 169,-7"/>
<text text-anchor="start" x="171.6094" y="-13.4" font-family="Times,serif" font-size="14.00" fill="#000000">null</text>
<polygon fill="none" stroke="#000000" points="196,-7 196,-29 223,-29 223,-7 196,-7"/>
<text text-anchor="start" x="198.6094" y="-13.4" font-family="Times,serif" font-size="14.00" fill="#000000">null</text>
<polygon fill="none" stroke="#000000" points="223,-7 223,-29 250,-29 250,-7 223,-7"/>
<text text-anchor="start" x="225.6094" y="-13.4" font-family="Times,serif" font-size="14.00" fill="#000000">null</text>
<polygon fill="none" stroke="#000000" points="250,-7 250,-29 277,-29 277,-7 250,-7"/>
<text text-anchor="start" x="252.6094" y="-13.4" font-family="Times,serif" font-size="14.00" fill="#000000">null</text>
<polygon fill="none" stroke="#000000" points="277,-7 277,-29 304,-29 304,-7 277,-7"/>
<text text-anchor="start" x="279.6094" y="-13.4" font-family="Times,serif" font-size="14.00" fill="#000000">null</text>
<polygon fill="none" stroke="#000000" points="304,-7 304,-29 331,-29 331,-7 304,-7"/>
<text text-anchor="start" x="306.6094" y="-13.4" font-family="Times,serif" font-size="14.00" fill="#000000">null</text>
<polygon fill="none" stroke="#000000" points="331,-7 331,-29 358,-29 358,-7 331,-7"/>
<text text-anchor="start" x="333.6094" y="-13.4" font-family="Times,serif" font-size="14.00" fill="#000000">null</text>
<polygon fill="none" stroke="#000000" points="358,-7 358,-29 385,-29 385,-7 358,-7"/>
<text text-anchor="start" x="360.6094" y="-13.4" font-family="Times,serif" font-size="14.00" fill="#000000">null</text>
<polygon fill="none" stroke="#000000" points="385,-7 385,-29 412,-29 412,-7 385,-7"/>
<text text-anchor="start" x="387.6094" y="-13.4" font-family="Times,serif" font-size="14.00" fill="#000000">null</text>
<polygon fill="none" stroke="#000000" points="412,-7 412,-29 439,-29 439,-7 412,-7"/>
<text text-anchor="start" x="414.6094" y="-13.4" font-family="Times,serif" font-size="14.00" fill="#000000">null</text>
<polygon fill="none" stroke="#000000" points="439,-7 439,-29 466,-29 466,-7 439,-7"/>
<text text-anchor="start" x="441.6094" y="-13.4" font-family="Times,serif" font-size="14.00" fill="#000000">null</text>
<polygon fill="none" stroke="#000000" points="466,-7 466,-29 479,-29 479,-7 466,-7"/>
<text text-anchor="start" x="469" y="-13.4" font-family="Times,serif" font-size="14.00" fill="#000000">0</text>
<polygon fill="none" stroke="#000000" points="479,-7 479,-29 492,-29 492,-7 479,-7"/>
<text text-anchor="start" x="482" y="-13.4" font-family="Times,serif" font-size="14.00" fill="#000000">1</text>
<polygon fill="none" stroke="#000000" points="492,-7 492,-29 505,-29 505,-7 492,-7"/>
<text text-anchor="start" x="495" y="-13.4" font-family="Times,serif" font-size="14.00" fill="#000000">2</text>
<polygon fill="none" stroke="#000000" points="505,-7 505,-29 518,-29 518,-7 505,-7"/>
<text text-anchor="start" x="508" y="-13.4" font-family="Times,serif" font-size="14.00" fill="#000000">3</text>
<polygon fill="none" stroke="#000000" points="518,-7 518,-29 531,-29 531,-7 518,-7"/>
<text text-anchor="start" x="521" y="-13.4" font-family="Times,serif" font-size="14.00" fill="#000000">4</text>
<polygon fill="none" stroke="#000000" points="531,-7 531,-29 544,-29 544,-7 531,-7"/>
<text text-anchor="start" x="534" y="-13.4" font-family="Times,serif" font-size="14.00" fill="#000000">5</text>
<polygon fill="none" stroke="#000000" points="544,-7 544,-29 557,-29 557,-7 544,-7"/>
<text text-anchor="start" x="547" y="-13.4" font-family="Times,serif" font-size="14.00" fill="#000000">6</text>
<polygon fill="none" stroke="#000000" points="557,-7 557,-29 570,-29 570,-7 557,-7"/>
<text text-anchor="start" x="560" y="-13.4" font-family="Times,serif" font-size="14.00" fill="#000000">7</text>
<polygon fill="none" stroke="#000000" points="570,-7 570,-29 583,-29 583,-7 570,-7"/>
<text text-anchor="start" x="573" y="-13.4" font-family="Times,serif" font-size="14.00" fill="#000000">8</text>
<polygon fill="none" stroke="#000000" points="583,-7 583,-29 596,-29 596,-7 583,-7"/>
<text text-anchor="start" x="586" y="-13.4" font-family="Times,serif" font-size="14.00" fill="#000000">9</text>
<polygon fill="none" stroke="#000000" points="596,-7 596,-29 616,-29 616,-7 596,-7"/>
<text text-anchor="start" x="599" y="-13.4" font-family="Times,serif" font-size="14.00" fill="#000000">10</text>
<polygon fill="none" stroke="#000000" points="616,-7 616,-29 636,-29 636,-7 616,-7"/>
<text text-anchor="start" x="619" y="-13.4" font-family="Times,serif" font-size="14.00" fill="#000000">11</text>
<polygon fill="none" stroke="#000000" points="636,-7 636,-29 656,-29 656,-7 636,-7"/>
<text text-anchor="start" x="639" y="-13.4" font-family="Times,serif" font-size="14.00" fill="#000000">12</text>
<polygon fill="none" stroke="#000000" points="656,-7 656,-29 676,-29 676,-7 656,-7"/>
<text text-anchor="start" x="659" y="-13.4" font-family="Times,serif" font-size="14.00" fill="#000000">13</text>
<polygon fill="none" stroke="#000000" points="676,-7 676,-29 696,-29 696,-7 676,-7"/>
<text text-anchor="start" x="679" y="-13.4" font-family="Times,serif" font-size="14.00" fill="#000000">14</text>
<polygon fill="none" stroke="#000000" points="696,-7 696,-29 716,-29 716,-7 696,-7"/>
<text text-anchor="start" x="699" y="-13.4" font-family="Times,serif" font-size="14.00" fill="#000000">15</text>
</g>
<!-- n1&#45;&gt;n2 -->
<g id="edge1" class="edge">
<title>n1-&gt;n2</title>
<path fill="none" stroke="#000000" d="M362,-86.3549C362,-73.9052 362,-58.9798 362,-46.2562"/>
<polygon fill="#000000" stroke="#000000" points="365.5001,-46.189 362,-36.189 358.5001,-46.1891 365.5001,-46.189"/>
<text text-anchor="middle" x="383.3258" y="-57.6" font-family="Times,serif" font-size="12.00" fill="#000000">elements</text>
</g>
</g>
</svg>