<?xml version="1.0" encoding="UTF-8" standalone="no"?><!DOCTYPE svg PUBLIC "-//W3C//DTD SVG 1.1//EN" "http://www.w3.org/Graphics/SVG/1.1/DTD/svg11.dtd"><!-- Generated by graphviz version 2.40.1 (20161225.0304)
 --><!-- Title: Java Pages: 1 --><svg xmlns="http://www.w3.org/2000/svg" xmlns:xlink="http://www.w3.org/1999/xlink" width="428pt" height="146pt" viewBox="0.00 0.00 428.00 146.40">
<g id="graph0" class="graph" transform="scale(1 1) rotate(0) translate(4 142.4)">
<title>Java</title>
<polygon fill="#ffffff" stroke="transparent" points="-4,4 -4,-142.4 424,-142.4 424,4 -4,4"/>
<!-- n1 -->
<g id="node1" class="node">
<title>n1</title>
<polygon fill="none" stroke="#000000" points="125,-90.4 125,-134.4 249,-134.4 249,-90.4 125,-90.4"/>
<text text-anchor="start" x="127.9151" y="-108.2" font-family="Times,serif" font-size="14.00" fill="#000000">java.util.ArrayDeque</text>
<polygon fill="none" stroke="#000000" points="249,-112.4 249,-134.4 295,-134.4 295,-112.4 249,-112.4"/>
<text text-anchor="start" x="251.5901" y="-118.8" font-family="Times,serif" font-size="14.00" fill="#000000">head: 0</text>
<polygon fill="none" stroke="#000000" points="249,-90.4 249,-112.4 295,-112.4 295,-90.4 249,-90.4"/>
<text text-anchor="start" x="255.8615" y="-96.8" font-family="Times,serif" font-size="14.00" fill="#000000">tail: 2</text>
</g>
<!-- n2 -->
<g id="node2" class="node">
<title>n2</title>
<polygon fill="none" stroke="#000000" points="8,-7 8,-29 21,-29 21,-7 8,-7"/>
<text text-anchor="start" x="11" y="-13.4" font-family="Times,serif" font-size="14.00" fill="#000000">1</text>
<polygon fill="none" stroke="#000000" points="21,-7 21,-29 34,-29 34,-7 21,-7"/>
<text text-anchor="start" x="24" y="-13.4" font-family="Times,serif" font-size="14.00" fill="#000000">2</text>
<polygon fill="none" stroke="#000000" points="34,-7 34,-29 61,-29 61,-7 34,-7"/>
<text text-anchor="start" x="36.6094" y="-13.4" font-family="Times,serif" font-size="14.00" fill="#000000">null</text>
<polygon fill="none" stroke="#000000" points="61,-7 61,-29 88,-29 88,-7 61,-7"/>
<text text-anchor="start" x="63.6094" y="-13.4" font-family="Times,serif" font-size="14.00" fill="#000000">null</text>
<polygon fill="none" stroke="#000000" points="88,-7 88,-29 115,-29 115,-7 88,-7"/>
<text text-anchor="start" x="90.6094" y="-13.4" font-family="Times,serif" font-size="14.00" fill="#000000">null</text>
<polygon fill="none" stroke="#000000" points="115,-7 115,-29 142,-29 142,-7 115,-7"/>
<text text-anchor="start" x="117.6094" y="-13.4" font-family="Times,serif" font-size="14.00" fill="#000000">null</text>
<polygon fill="none" stroke="#000000" points="142,-7 142,-29 169,-29 169,-7 142,-7"/>
<text text-anchor="start" x="144.6094" y="-13.4" font-family="Times,serif" font-size="14.00" fill="#000000">null</text>
<polygon fill="none" stroke="#000000" points="169,-7 169,-29 196,-29 196,-7 169,-7"/>
<text text-anchor="start" x="171.6094" y="-13.4" font-family="Times,serif" font-size="14.00" fill="#000000">null</text>
<polygon fill="none" stroke="#000000" points="196,-7 196,-29 223,-29 223,-7 196,-7"/>
<text text-anchor="start" x="198.6094" y="-13.4" font-family="Times,serif" font-size="14.00" fill="#000000">null</text>
<polygon fill="none" stroke="#000000" points="223,-7 223,-29 250,-29 250,-7 223,-7"/>
<text text-anchor="start" x="225.6094" y="-13.4" font-family="Times,serif" font-size="14.00" fill="#000000">null</text>
<polygon fill="none" stroke="#000000" points="250,-7 250,-29 277,-29 277,-7 250,-7"/>
<text text-anchor="start" x="252.6094" y="-13.4" font-family="Times,serif" font-size="14.00" fill="#000000">null</text>
<polygon fill="none" stroke="#000000" points="277,-7 277,-29 304,-29 304,-7 277,-7"/>
<text text-anchor="start" x="279.6094" y="-13.4" font-family="Times,serif" font-size="14.00" fill="#000000">null</text>
<polygon fill="none" stroke="#000000" points="304,-7 304,-29 331,-29 331,-7 304,-7"/>
<text text-anchor="start" x="306.6094" y="-13.4" font-family="Times,serif" font-size="14.00" fill="#000000">null</text>
<polygon fill="none" stroke="#000000" points="331,-7 331,-29 358,-29 358,-7 331,-7"/>
<text text-anchor="start" x="333.6094" y="-13.4" font-family="Times,serif" font-size="14.00" fill="#000000">null</text>
<polygon fill="none" stroke="#000000" points="358,-7 358,-29 385,-29 385,-7 358,-7"/>
<text text-anchor="start" x="360.6094" y="-13.4" font-family="Times,serif" font-size="14.00" fill="#000000">null</text>
<polygon fill="none" stroke="#000000" points="385,-7 385,-29 412,-29 412,-7 385,-7"/>
<text text-anchor="start" x="387.6094" y="-13.4" font-family="Times,serif" font-size="14.00" fill="#000000">null</text>
</g>
<!-- n1&#45;&gt;n2 -->
<g id="edge1" class="edge">
<title>n1-&gt;n2</title>
<path fill="none" stroke="#000000" d="M210,-86.3549C210,-73.9052 210,-58.9798 210,-46.2562"/>
<polygon fill="#000000" stroke="#000000" points="213.5001,-46.189 210,-36.189 206.5001,-46.1891 213.5001,-46.189"/>
<text text-anchor="middle" x="231.3258" y="-57.6" font-family="Times,serif" font-size="12.00" fill="#000000">elements</text>
</g>
</g>
</svg>