<?xml version="1.0" encoding="UTF-8" standalone="no"?><!DOCTYPE svg PUBLIC "-//W3C//DTD SVG 1.1//EN" "http://www.w3.org/Graphics/SVG/1.1/DTD/svg11.dtd"><!-- Generated by graphviz version 2.40.1 (20161225.0304)
 --><!-- Title: Java Pages: 1 --><svg xmlns="http://www.w3.org/2000/svg" xmlns:xlink="http://www.w3.org/1999/xlink" width="928pt" height="146pt" viewBox="0.00 0.00 928.00 146.40">
<g id="graph0" class="graph" transform="scale(1 1) rotate(0) translate(4 142.4)">
<title>Java</title>
<polygon fill="#ffffff" stroke="transparent" points="-4,4 -4,-142.4 924,-142.4 924,4 -4,4"/>
<!-- n1 -->
<g id="node1" class="node">
<title>n1</title>
<polygon fill="none" stroke="#000000" points="375,-90.4 375,-134.4 499,-134.4 499,-90.4 375,-90.4"/>
<text text-anchor="start" x="377.9151" y="-108.2" font-family="Times,serif" font-size="14.00" fill="#000000">java.util.ArrayDeque</text>
<polygon fill="none" stroke="#000000" points="499,-112.4 499,-134.4 545,-134.4 545,-112.4 499,-112.4"/>
<text text-anchor="start" x="501.5901" y="-118.8" font-family="Times,serif" font-size="14.00" fill="#000000">head: 2</text>
<polygon fill="none" stroke="#000000" points="499,-90.4 499,-112.4 545,-112.4 545,-90.4 499,-90.4"/>
<text text-anchor="start" x="505.8615" y="-96.8" font-family="Times,serif" font-size="14.00" fill="#000000">tail: 4</text>
</g>
<!-- n2 -->
<g id="node2" class="node">
<title>n2</title>
<polygon fill="none" stroke="#000000" points="8,-7 8,-29 35,-29 35,-7 8,-7"/>
<text text-anchor="start" x="10.6094" y="-13.4" font-family="Times,serif" font-size="14.00" fill="#000000">null</text>
<polygon fill="none" stroke="#000000" points="35,-7 35,-29 62,-29 62,-7 35,-7"/>
<text text-anchor="start" x="37.6094" y="-13.4" font-family="Times,serif" font-size="14.00" fill="#000000">null</text>
<polygon fill="none" stroke="#000000" points="62,-7 62,-29 82,-29 82,-7 62,-7"/>
<text text-anchor="start" x="65" y="-13.4" font-family="Times,serif" font-size="14.00" fill="#000000">18</text>
<polygon fill="none" stroke="#000000" points="82,-7 82,-29 102,-29 102,-7 82,-7"/>
<text text-anchor="start" x="85" y="-13.4" font-family="Times,serif" font-size="14.00" fill="#000000">19</text>
<polygon fill="none" stroke="#000000" points="102,-7 102,-29 129,-29 129,-7 102,-7"/>
<text text-anchor="start" x="104.6094" y="-13.4" font-family="Times,serif" font-size="14.00" fill="#000000">null</text>
<polygon fill="none" stroke="#000000" points="129,-7 129,-29 156,-29 156,-7 129,-7"/>
<text text-anchor="start" x="131.6094" y="-13.4" font-family="Times,serif" font-size="14.00" fill="#000000">null</text>
<polygon fill="none" stroke="#000000" points="156,-7 156,-29 183,-29 183,-7 156,-7"/>
<text text-anchor="start" x="158.6094" y="-13.4" font-family="Times,serif" font-size="14.00" fill="#000000">null</text>
<polygon fill="none" stroke="#000000" points="183,-7 183,-29 210,-29 210,-7 183,-7"/>
<text text-anchor="start" x="185.6094" y="-13.4" font-family="Times,serif" font-size="14.00" fill="#000000">null</text>
<polygon fill="none" stroke="#000000" points="210,-7 210,-29 237,-29 237,-7 210,-7"/>
<text text-anchor="start" x="212.6094" y="-13.4" font-family="Times,serif" font-size="14.00" fill="#000000">null</text>
<polygon fill="none" stroke="#000000" points="237,-7 237,-29 264,-29 264,-7 237,-7"/>
<text text-anchor="start" x="239.6094" y="-13.4" font-family="Times,serif" font-size="14.00" fill="#000000">null</text>
<polygon fill="none" stroke="#000000" points="264,-7 264,-29 291,-29 291,-7 264,-7"/>
<text text-anchor="start" x="266.6094" y="-13.4" font-family="Times,serif" font-size="14.00" fill="#000000">null</text>
<polygon fill="none" stroke="#000000" points="291,-7 291,-29 318,-29 318,-7 291,-7"/>
<text text-anchor="start" x="293.6094" y="-13.4" font-family="Times,serif" font-size="14.00" fill="#000000">null</text>
<polygon fill="none" stroke="#000000" points="318,-7 318,-29 345,-29 345,-7 318,-7"/>
<text text-anchor="start" x="320.6094" y="-13.4" font-family="Times,serif" font-size="14.00" fill="#000000">null</text>
<polygon fill="none" stroke="#000000" points="345,-7 345,-29 372,-29 372,-7 345,-7"/>
<text text-anchor="start" x="347.6094" y="-13.4" font-family="Times,serif" font-size="14.00" fill="#000000">null</text>
<polygon fill="none" stroke="#000000" points="372,-7 372,-29 399,-29 399,-7 372,-7"/>
<text text-anchor="start" x="374.6094" y="-13.4" font-family="Times,serif" font-size="14.00" fill="#000000">null</text>
<polygon fill="none" stroke="#000000" points="399,-7 399,-29 426,-29 426,-7 399,-7"/>
<text text-anchor="start" x="401.6094" y="-13.4" font-family="Times,serif" font-size="14.00" fill="#000000">null</text>
<polygon fill="none" stroke="#000000" points="426,-7 426,-29 453,-29 453,-7 426,-7"/>
<text text-anchor="start" x="428.6094" y="-13.4" font-family="Times,serif" font-size="14.00" fill="#000000">null</text>
<polygon fill="none" stroke="#000000" points="453,-7 453,-29 480,-29 480,-7 453,-7"/>
<text text-anchor="start" x="455.6094" y="-13.4" font-family="Times,serif" font-size="14.00" fill="#000000">null</text>
<polygon fill="none" stroke="#000000" points="480,-7 480,-29 507,-29 507,-7 480,-7"/>
<text text-anchor="start" x="482.6094" y="-13.4" font-family="Times,serif" font-size="14.00" fill="#000000">null</text>
<polygon fill="none" stroke="#000000" points="507,-7 507,-29 534,-29 534,-7 507,-7"/>
<text text-anchor="start" x="509.6094" y="-13.4" font-family="Times,serif" font-size="14.00" fill="#000000">null</text>
<polygon fill="none" stroke="#000000" points="534,-7 534,-29 561,-29 561,-7 534,-7"/>
<text text-anchor="start" x="536.6094" y="-13.4" font-family="Times,serif" font-size="14.00" fill="#000000">null</text>
<polygon fill="none" stroke="#000000" points="561,-7 561,-29 588,-29 588,-7 561,-7"/>
<text text-anchor="start" x="563.6094" y="-13.4" font-family="Times,serif" font-size="14.00" fill="#000000">null</text>
<polygon fill="none" stroke="#000000" points="588,-7 588,-29 615,-29 615,-7 588,-7"/>
<text text-anchor="start" x="590.6094" y="-13.4" font-family="Times,serif" font-size="14.00" fill="#000000">null</text>
<polygon fill="none" stroke="#000000" points="615,-7 615,-29 642,-29 642,-7 615,-7"/>
<text text-anchor="start" x="617.6094" y="-13.4" font-family="Times,serif" font-size="14.00" fill="#000000">null</text>
<polygon fill="none" stroke="#000000" points="642,-7 642,-29 669,-29 669,-7 642,-7"/>
<text text-anchor="start" x="644.6094" y="-13.4" font-family="Times,serif" font-size="14.00" fill="#000000">null</text>
<polygon fill="none" stroke="#000000" points="669,-7 669,-29 696,-29 696,-7 669,-7"/>
<text text-anchor="start" x="671.6094" y="-13.4" font-family="Times,serif" font-size="14.00" fill="#000000">null</text>
<polygon fill="none" stroke="#000000" points="696,-7 696,-29 723,-29 723,-7 696,-7"/>
<text text-anchor="start" x="698.6094" y="-13.4" font-family="Times,serif" font-size="14.00" fill="#000000">null</text>
<polygon fill="none" stroke="#000000" points="723,-7 723,-29 750,-29 750,-7 723,-7"/>
<text text-anchor="start" x="725.6094" y="-13.4" font-family="Times,serif" font-size="14.00" fill="#000000">null</text>
<polygon fill="none" stroke="#000000" points="750,-7 750,-29 777,-29 777,-7 750,-7"/>
<text text-anchor="start" x="752.6094" y="-13.4" font-family="Times,serif" font-size="14.00" fill="#000000">null</text>
<polygon fill="none" stroke="#000000" points="777,-7 777,-29 804,-29 804,-7 777,-7"/>
<text text-anchor="start" x="779.6094" y="-13.4" font-family="Times,serif" font-size="14.00" fill="#000000">null</text>
<polygon fill="none" stroke="#000000" points="804,-7 804,-29 831,-29 831,-7 804,-7"/>
<text text-anchor="start" x="806.6094" y="-13.4" font-family="Times,serif" font-size="14.00" fill="#000000">null</text>
<polygon fill="none" stroke="#000000" points="831,-7 831,-29 858,-29 858,-7 831,-7"/>
<text text-anchor="start" x="833.6094" y="-13.4" font-family="Times,serif" font-size="14.00" fill="#000000">null</text>
<polygon fill="none" stroke="#000000" points="858,-7 858,-29 885,-29 885,-7 858,-7"/>
<text text-anchor="start" x="860.6094" y="-13.4" font-family="Times,serif" font-size="14.00" fill="#000000">null</text>
<polygon fill="none" stroke="#000000" points="885,-7 885,-29 912,-29 912,-7 885,-7"/>
<text text-anchor="start" x="887.6094" y="-13.4" font-family="Times,serif" font-size="14.00" fill="#000000">null</text>
</g>
<!-- n1&#45;&gt;n2 -->
<g id="edge1" class="edge">
<title>n1-&gt;n2</title>
<path fill="none" stroke="#000000" d="M460,-86.3549C460,-73.9052 460,-58.9798 460,-46.2562"/>
<polygon fill="#000000" stroke="#000000" points="463.5001,-46.189 460,-36.189 456.5001,-46.1891 463.5001,-46.189"/>
<text text-anchor="middle" x="481.3258" y="-57.6" font-family="Times,serif" font-size="12.00" fill="#000000">elements</text>
</g>
</g>
</svg>