<?xml version="1.0" encoding="UTF-8" standalone="no"?><!DOCTYPE svg PUBLIC "-//W3C//DTD SVG 1.1//EN" "http://www.w3.org/Graphics/SVG/1.1/DTD/svg11.dtd"><!-- Generated by graphviz version 2.40.1 (20161225.0304)
 --><!-- Title: Java Pages: 1 --><svg xmlns="http://www.w3.org/2000/svg" xmlns:xlink="http://www.w3.org/1999/xlink" width="456pt" height="146pt" viewBox="0.00 0.00 456.00 146.40">
<g id="graph0" class="graph" transform="scale(1 1) rotate(0) translate(4 142.4)">
<title>Java</title>
<polygon fill="#ffffff" stroke="transparent" points="-4,4 -4,-142.4 452,-142.4 452,4 -4,4"/>
<!-- n1 -->
<g id="node1" class="node">
<title>n1</title>
<polygon fill="none" stroke="#000000" points="139,-90.4 139,-134.4 263,-134.4 263,-90.4 139,-90.4"/>
<text text-anchor="start" x="141.9151" y="-108.2" font-family="Times,serif" font-size="14.00" fill="#000000">java.util.ArrayDeque</text>
<polygon fill="none" stroke="#000000" points="263,-112.4 263,-134.4 309,-134.4 309,-112.4 263,-112.4"/>
<text text-anchor="start" x="265.5901" y="-118.8" font-family="Times,serif" font-size="14.00" fill="#000000">head: 0</text>
<polygon fill="none" stroke="#000000" points="263,-90.4 263,-112.4 309,-112.4 309,-90.4 263,-90.4"/>
<text text-anchor="start" x="269.8615" y="-96.8" font-family="Times,serif" font-size="14.00" fill="#000000">tail: 0</text>
</g>
<!-- n2 -->
<g id="node2" class="node">
<title>n2</title>
<polygon fill="none" stroke="#000000" points="8,-7 8,-29 35,-29 35,-7 8,-7"/>
<text text-anchor="start" x="10.6094" y="-13.4" font-family="Times,serif" font-size="14.00" fill="#000000">null</text>
<polygon fill="none" stroke="#000000" points="35,-7 35,-29 62,-29 62,-7 35,-7"/>
<text text-anchor="start" x="37.6094" y="-13.4" font-family="Times,serif" font-size="14.00" fill="#000000">null</text>
<polygon fill="none" stroke="#000000" points="62,-7 62,-29 89,-29 89,-7 62,-7"/>
<text text-anchor="start" x="64.6094" y="-13.4" font-family="Times,serif" font-size="14.00" fill="#000000">null</text>
<polygon fill="none" stroke="#000000" points="89,-7 89,-29 116,-29 116,-7 89,-7"/>
<text text-anchor="start" x="91.6094" y="-13.4" font-family="Times,serif" font-size="14.00" fill="#000000">null</text>
<polygon fill="none" stroke="#000000" points="116,-7 116,-29 143,-29 143,-7 116,-7"/>
<text text-anchor="start" x="118.6094" y="-13.4" font-family="Times,serif" font-size="14.00" fill="#000000">null</text>
<polygon fill="none" stroke="#000000" points="143,-7 143,-29 170,-29 170,-7 143,-7"/>
<text text-anchor="start" x="145.6094" y="-13.4" font-family="Times,serif" font-size="14.00" fill="#000000">null</text>
<polygon fill="none" stroke="#000000" points="170,-7 170,-29 197,-29 197,-7 170,-7"/>
<text text-anchor="start" x="172.6094" y="-13.4" font-family="Times,serif" font-size="14.00" fill="#000000">null</text>
<polygon fill="none" stroke="#000000" points="197,-7 197,-29 224,-29 224,-7 197,-7"/>
<text text-anchor="start" x="199.6094" y="-13.4" font-family="Times,serif" font-size="14.00" fill="#000000">null</text>
<polygon fill="none" stroke="#000000" points="224,-7 224,-29 251,-29 251,-7 224,-7"/>
<text text-anchor="start" x="226.6094" y="-13.4" font-family="Times,serif" font-size="14.00" fill="#000000">null</text>
<polygon fill="none" stroke="#000000" points="251,-7 251,-29 278,-29 278,-7 251,-7"/>
<text text-anchor="start" x="253.6094" y="-13.4" font-family="Times,serif" font-size="14.00" fill="#000000">null</text>
<polygon fill="none" stroke="#000000" points="278,-7 278,-29 305,-29 305,-7 278,-7"/>
<text text-anchor="start" x="280.6094" y="-13.4" font-family="Times,serif" font-size="14.00" fill="#000000">null</text>
<polygon fill="none" stroke="#000000" points="305,-7 305,-29 332,-29 332,-7 305,-7"/>
<text text-anchor="start" x="307.6094" y="-13.4" font-family="Times,serif" font-size="14.00" fill="#000000">null</text>
<polygon fill="none" stroke="#000000" points="332,-7 332,-29 359,-29 359,-7 332,-7"/>
<text text-anchor="start" x="334.6094" y="-13.4" font-family="Times,serif" font-size="14.00" fill="#000000">null</text>
<polygon fill="none" stroke="#000000" points="359,-7 359,-29 386,-29 386,-7 359,-7"/>
<text text-anchor="start" x="361.6094" y="-13.4" font-family="Times,serif" font-size="14.00" fill="#000000">null</text>
<polygon fill="none" stroke="#000000" points="386,-7 386,-29 413,-29 413,-7 386,-7"/>
<text text-anchor="start" x="388.6094" y="-13.4" font-family="Times,serif" font-size="14.00" fill="#000000">null</text>
<polygon fill="none" stroke="#000000" points="413,-7 413,-29 440,-29 440,-7 413,-7"/>
<text text-anchor="start" x="415.6094" y="-13.4" font-family="Times,serif" font-size="14.00" fill="#000000">null</text>
</g>
<!-- n1&#45;&gt;n2 -->
<g id="edge1" class="edge">
<title>n1-&gt;n2</title>
<path fill="none" stroke="#000000" d="M224,-86.3549C224,-73.9052 224,-58.9798 224,-46.2562"/>
<polygon fill="#000000" stroke="#000000" points="227.5001,-46.189 224,-36.189 220.5001,-46.1891 227.5001,-46.189"/>
<text text-anchor="middle" x="245.3258" y="-57.6" font-family="Times,serif" font-size="12.00" fill="#000000">elements</text>
</g>
</g>
</svg>