<?xml version="1.0" encoding="UTF-8" standalone="no"?><!DOCTYPE svg PUBLIC "-//W3C//DTD SVG 1.1//EN" "http://www.w3.org/Graphics/SVG/1.1/DTD/svg11.dtd"><!-- Generated by graphviz version 2.40.1 (20161225.0304)
 --><!-- Title: Java Pages: 1 --><svg xmlns="http://www.w3.org/2000/svg" xmlns:xlink="http://www.w3.org/1999/xlink" width="136pt" height="130pt" viewBox="0.00 0.00 135.50 130.40">
<g id="graph0" class="graph" transform="scale(1 1) rotate(0) translate(4 126.4)">
<title>Java</title>
<polygon fill="#ffffff" stroke="transparent" points="-4,4 -4,-126.4 131.5,-126.4 131.5,4 -4,4"/>
<!-- n1 -->
<g id="node1" class="node">
<title>n1</title>
<polygon fill="none" stroke="#000000" points="43,-94.4 43,-114.4 63,-114.4 63,-94.4 43,-94.4"/>
<polygon fill="none" stroke="#000000" points="63,-94.4 63,-114.4 83,-114.4 83,-94.4 63,-94.4"/>
</g>
<!-- n2 -->
<g id="node2" class="node">
<title>n2</title>
<polygon fill="none" stroke="#000000" points="9,-7 9,-29 21,-29 21,-7 9,-7"/>
<text text-anchor="start" x="11.8927" y="-13.4" font-family="Times,serif" font-size="14.00" fill="#000000">a</text>
<polygon fill="none" stroke="#000000" points="21,-7 21,-29 34,-29 34,-7 21,-7"/>
<text text-anchor="start" x="24" y="-13.4" font-family="Times,serif" font-size="14.00" fill="#000000">b</text>
<polygon fill="none" stroke="#000000" points="34,-7 34,-29 46,-29 46,-7 34,-7"/>
<text text-anchor="start" x="36.8927" y="-13.4" font-family="Times,serif" font-size="14.00" fill="#000000">c</text>
</g>
<!-- n1&#45;&gt;n2 -->
<g id="edge1" class="edge">
<title>n1:f0-&gt;n2</title>
<path fill="none" stroke="#000000" d="M53,-94.4C53,-77.5519 47.2633,-59.6746 41.1792,-45.4525"/>
<polygon fill="#000000" stroke="#000000" points="44.3143,-43.8918 36.9779,-36.248 37.9462,-46.7985 44.3143,-43.8918"/>
<text text-anchor="middle" x="53" y="-57.6" font-family="Times,serif" font-size="12.00" fill="#000000">0</text>
</g>
<!-- n3 -->
<g id="node3" class="node">
<title>n3</title>
<polygon fill="none" stroke="#000000" points="81,-7 81,-29 94,-29 94,-7 81,-7"/>
<text text-anchor="start" x="84" y="-13.4" font-family="Times,serif" font-size="14.00" fill="#000000">1</text>
<polygon fill="none" stroke="#000000" points="94,-7 94,-29 107,-29 107,-7 94,-7"/>
<text text-anchor="start" x="97" y="-13.4" font-family="Times,serif" font-size="14.00" fill="#000000">2</text>
<polygon fill="none" stroke="#000000" points="107,-7 107,-29 120,-29 120,-7 107,-7"/>
<text text-anchor="start" x="110" y="-13.4" font-family="Times,serif" font-size="14.00" fill="#000000">3</text>
</g>
<!-- n1&#45;&gt;n3 -->
<g id="edge2" class="edge">
<title>n1:f1-&gt;n3</title>
<path fill="none" stroke="#000000" d="M73,-94.4C73,-77.4835 78.9574,-59.6021 85.2754,-45.3948"/>
<polygon fill="#000000" stroke="#000000" points="88.5122,-46.7378 89.6383,-36.203 82.1884,-43.7362 88.5122,-46.7378"/>
<text text-anchor="middle" x="83" y="-57.6" font-family="Times,serif" font-size="12.00" fill="#000000">1</text>
</g>
</g>
</svg>