<?xml version="1.0" encoding="UTF-8" standalone="no"?><!DOCTYPE svg PUBLIC "-//W3C//DTD SVG 1.1//EN" "http://www.w3.org/Graphics/SVG/1.1/DTD/svg11.dtd"><!-- Generated by graphviz version 2.40.1 (20161225.0304)
 --><!-- Title: Java Pages: 1 --><svg xmlns="http://www.w3.org/2000/svg" xmlns:xlink="http://www.w3.org/1999/xlink" width="791pt" height="505pt" viewBox="0.00 0.00 791.00 505.20">
<g id="graph0" class="graph" transform="scale(1 1) rotate(0) translate(4 501.2)">
<title>Java</title>
<polygon fill="#ffffff" stroke="transparent" points="-4,4 -4,-501.2 787,-501.2 787,4 -4,4"/>
<!-- n1 -->
<g id="node1" class="node">
<title>n1</title>
<polygon fill="none" stroke="#000000" points="297,-383.2 297,-493.2 406,-493.2 406,-383.2 297,-383.2"/>
<text text-anchor="start" x="299.7917" y="-434" font-family="Times,serif" font-size="14.00" fill="#000000">java.util.HashMap</text>
<polygon fill="none" stroke="#000000" points="406,-471.2 406,-493.2 503,-493.2 503,-471.2 406,-471.2"/>
<text text-anchor="start" x="416.5873" y="-477.6" font-family="Times,serif" font-size="14.00" fill="#000000">entrySet: null</text>
<polygon fill="none" stroke="#000000" points="406,-449.2 406,-471.2 503,-471.2 503,-449.2 406,-449.2"/>
<text text-anchor="start" x="436.4225" y="-455.6" font-family="Times,serif" font-size="14.00" fill="#000000">size: 4</text>
<polygon fill="none" stroke="#000000" points="406,-427.2 406,-449.2 503,-449.2 503,-427.2 406,-427.2"/>
<text text-anchor="start" x="417.7458" y="-433.6" font-family="Times,serif" font-size="14.00" fill="#000000">modCount: 4</text>
<polygon fill="none" stroke="#000000" points="406,-405.2 406,-427.2 503,-427.2 503,-405.2 406,-405.2"/>
<text text-anchor="start" x="417.7542" y="-411.6" font-family="Times,serif" font-size="14.00" fill="#000000">threshold: 12</text>
<polygon fill="none" stroke="#000000" points="406,-383.2 406,-405.2 503,-405.2 503,-383.2 406,-383.2"/>
<text text-anchor="start" x="408.6206" y="-389.6" font-family="Times,serif" font-size="14.00" fill="#000000">loadFactor: 0.75</text>
</g>
<!-- n2 -->
<g id="node2" class="node">
<title>n2</title>
<polygon fill="none" stroke="#000000" points="240,-300.8 240,-320.8 260,-320.8 260,-300.8 240,-300.8"/>
<polygon fill="none" stroke="#000000" points="260,-300.8 260,-320.8 280,-320.8 280,-300.8 260,-300.8"/>
<polygon fill="none" stroke="#000000" points="280,-300.8 280,-320.8 300,-320.8 300,-300.8 280,-300.8"/>
<polygon fill="none" stroke="#000000" points="300,-300.8 300,-320.8 320,-320.8 320,-300.8 300,-300.8"/>
<polygon fill="none" stroke="#000000" points="320,-300.8 320,-320.8 340,-320.8 340,-300.8 320,-300.8"/>
<polygon fill="none" stroke="#000000" points="340,-300.8 340,-320.8 360,-320.8 360,-300.8 340,-300.8"/>
<polygon fill="none" stroke="#000000" points="360,-300.8 360,-320.8 380,-320.8 380,-300.8 360,-300.8"/>
<polygon fill="none" stroke="#000000" points="380,-300.8 380,-320.8 400,-320.8 400,-300.8 380,-300.8"/>
<polygon fill="none" stroke="#000000" points="400,-300.8 400,-320.8 420,-320.8 420,-300.8 400,-300.8"/>
<polygon fill="none" stroke="#000000" points="420,-300.8 420,-320.8 440,-320.8 440,-300.8 420,-300.8"/>
<polygon fill="none" stroke="#000000" points="440,-300.8 440,-320.8 460,-320.8 460,-300.8 440,-300.8"/>
<polygon fill="none" stroke="#000000" points="460,-300.8 460,-320.8 480,-320.8 480,-300.8 460,-300.8"/>
<polygon fill="none" stroke="#000000" points="480,-300.8 480,-320.8 500,-320.8 500,-300.8 480,-300.8"/>
<polygon fill="none" stroke="#000000" points="500,-300.8 500,-320.8 520,-320.8 520,-300.8 500,-300.8"/>
<polygon fill="none" stroke="#000000" points="520,-300.8 520,-320.8 540,-320.8 540,-300.8 520,-300.8"/>
<polygon fill="none" stroke="#000000" points="540,-300.8 540,-320.8 560,-320.8 560,-300.8 540,-300.8"/>
</g>
<!-- n1&#45;&gt;n2 -->
<g id="edge5" class="edge">
<title>n1-&gt;n2</title>
<path fill="none" stroke="#000000" d="M400,-378.9756C400,-365.0456 400,-350.8287 400,-339.0072"/>
<polygon fill="#000000" stroke="#000000" points="403.5001,-338.9011 400,-328.9011 396.5001,-338.9012 403.5001,-338.9011"/>
<text text-anchor="middle" x="411.6616" y="-350.4" font-family="Times,serif" font-size="12.00" fill="#000000">table</text>
</g>
<!-- n3 -->
<g id="node3" class="node">
<title>n3</title>
<polygon fill="none" stroke="#000000" points="8,-150.4 8,-238.4 154,-238.4 154,-150.4 8,-150.4"/>
<text text-anchor="start" x="10.6311" y="-190.2" font-family="Times,serif" font-size="14.00" fill="#000000">java.util.HashMap$Node</text>
<polygon fill="none" stroke="#000000" points="154,-216.4 154,-238.4 242,-238.4 242,-216.4 154,-216.4"/>
<text text-anchor="start" x="156.9751" y="-222.8" font-family="Times,serif" font-size="14.00" fill="#000000">hash: 3149078</text>
<polygon fill="none" stroke="#000000" points="154,-194.4 154,-216.4 242,-216.4 242,-194.4 154,-194.4"/>
<text text-anchor="start" x="172.5368" y="-200.8" font-family="Times,serif" font-size="14.00" fill="#000000">key: four</text>
<polygon fill="none" stroke="#000000" points="154,-172.4 154,-194.4 242,-194.4 242,-172.4 154,-172.4"/>
<text text-anchor="start" x="175.6448" y="-178.8" font-family="Times,serif" font-size="14.00" fill="#000000">value: 4</text>
<polygon fill="none" stroke="#000000" points="154,-150.4 154,-172.4 242,-172.4 242,-150.4 154,-150.4"/>
<text text-anchor="start" x="171.3615" y="-156.8" font-family="Times,serif" font-size="14.00" fill="#000000">next: null</text>
</g>
<!-- n2&#45;&gt;n3 -->
<g id="edge1" class="edge">
<title>n2:f6-&gt;n3</title>
<path fill="none" stroke="#000000" d="M370,-300.8C370,-293.8128 315.6818,-269.816 258.1977,-246.3768"/>
<polygon fill="#000000" stroke="#000000" points="259.1588,-242.9896 248.5766,-242.4704 256.5253,-249.4754 259.1588,-242.9896"/>
<text text-anchor="middle" x="326" y="-264" font-family="Times,serif" font-size="12.00" fill="#000000">6</text>
</g>
<!-- n4 -->
<g id="node4" class="node">
<title>n4</title>
<polygon fill="none" stroke="#000000" points="277,-150.4 277,-238.4 423,-238.4 423,-150.4 277,-150.4"/>
<text text-anchor="start" x="279.6311" y="-190.2" font-family="Times,serif" font-size="14.00" fill="#000000">java.util.HashMap$Node</text>
<polygon fill="none" stroke="#000000" points="423,-216.4 423,-238.4 504,-238.4 504,-216.4 423,-216.4"/>
<text text-anchor="start" x="425.9751" y="-222.8" font-family="Times,serif" font-size="14.00" fill="#000000">hash: 110183</text>
<polygon fill="none" stroke="#000000" points="423,-194.4 423,-216.4 504,-216.4 504,-194.4 423,-194.4"/>
<text text-anchor="start" x="439.5901" y="-200.8" font-family="Times,serif" font-size="14.00" fill="#000000">key: one</text>
<polygon fill="none" stroke="#000000" points="423,-172.4 423,-194.4 504,-194.4 504,-172.4 423,-172.4"/>
<text text-anchor="start" x="441.1448" y="-178.8" font-family="Times,serif" font-size="14.00" fill="#000000">value: 1</text>
<polygon fill="none" stroke="#000000" points="423,-150.4 423,-172.4 504,-172.4 504,-150.4 423,-150.4"/>
<text text-anchor="start" x="436.8615" y="-156.8" font-family="Times,serif" font-size="14.00" fill="#000000">next: null</text>
</g>
<!-- n2&#45;&gt;n4 -->
<g id="edge2" class="edge">
<title>n2:f7-&gt;n4</title>
<path fill="none" stroke="#000000" d="M390,-300.8C390,-285.1924 390,-268.297 390,-252.664"/>
<polygon fill="#000000" stroke="#000000" points="393.5001,-252.5994 390,-242.5995 386.5001,-252.5995 393.5001,-252.5994"/>
<text text-anchor="middle" x="393" y="-264" font-family="Times,serif" font-size="12.00" fill="#000000">7</text>
</g>
<!-- n5 -->
<g id="node5" class="node">
<title>n5</title>
<polygon fill="none" stroke="#000000" points="538,-161.4 538,-227.4 684,-227.4 684,-161.4 538,-161.4"/>
<text text-anchor="start" x="540.6311" y="-190.2" font-family="Times,serif" font-size="14.00" fill="#000000">java.util.HashMap$Node</text>
<polygon fill="none" stroke="#000000" points="684,-205.4 684,-227.4 765,-227.4 765,-205.4 684,-205.4"/>
<text text-anchor="start" x="686.9751" y="-211.8" font-family="Times,serif" font-size="14.00" fill="#000000">hash: 115277</text>
<polygon fill="none" stroke="#000000" points="684,-183.4 684,-205.4 765,-205.4 765,-183.4 684,-183.4"/>
<text text-anchor="start" x="700.1988" y="-189.8" font-family="Times,serif" font-size="14.00" fill="#000000">key: two</text>
<polygon fill="none" stroke="#000000" points="684,-161.4 684,-183.4 765,-183.4 765,-161.4 684,-161.4"/>
<text text-anchor="start" x="702.1448" y="-167.8" font-family="Times,serif" font-size="14.00" fill="#000000">value: 2</text>
</g>
<!-- n2&#45;&gt;n5 -->
<g id="edge4" class="edge">
<title>n2:f13-&gt;n5</title>
<path fill="none" stroke="#000000" d="M510,-300.8C510,-274.151 526.2466,-253.334 547.7101,-237.4603"/>
<polygon fill="#000000" stroke="#000000" points="549.9305,-240.1804 556.1687,-231.6167 545.9517,-234.4211 549.9305,-240.1804"/>
<text text-anchor="middle" x="528" y="-264" font-family="Times,serif" font-size="12.00" fill="#000000">13</text>
</g>
<!-- n6 -->
<g id="node6" class="node">
<title>n6</title>
<polygon fill="none" stroke="#000000" points="527,-4 527,-92 673,-92 673,-4 527,-4"/>
<text text-anchor="start" x="529.6311" y="-43.8" font-family="Times,serif" font-size="14.00" fill="#000000">java.util.HashMap$Node</text>
<polygon fill="none" stroke="#000000" points="673,-70 673,-92 775,-92 775,-70 673,-70"/>
<text text-anchor="start" x="675.9751" y="-76.4" font-family="Times,serif" font-size="14.00" fill="#000000">hash: 110338829</text>
<polygon fill="none" stroke="#000000" points="673,-48 673,-70 775,-70 775,-48 673,-48"/>
<text text-anchor="start" x="696.2072" y="-54.4" font-family="Times,serif" font-size="14.00" fill="#000000">key: three</text>
<polygon fill="none" stroke="#000000" points="673,-26 673,-48 775,-48 775,-26 673,-26"/>
<text text-anchor="start" x="701.6448" y="-32.4" font-family="Times,serif" font-size="14.00" fill="#000000">value: 3</text>
<polygon fill="none" stroke="#000000" points="673,-4 673,-26 775,-26 775,-4 673,-4"/>
<text text-anchor="start" x="697.3615" y="-10.4" font-family="Times,serif" font-size="14.00" fill="#000000">next: null</text>
</g>
<!-- n5&#45;&gt;n6 -->
<g id="edge3" class="edge">
<title>n5-&gt;n6</title>
<path fill="none" stroke="#000000" d="M651,-157.0783C651,-141.7142 651,-123.5485 651,-106.4937"/>
<polygon fill="#000000" stroke="#000000" points="654.5001,-106.0532 651,-96.0532 647.5001,-106.0533 654.5001,-106.0532"/>
<text text-anchor="middle" x="661.3308" y="-117.6" font-family="Times,serif" font-size="12.00" fill="#000000">next</text>
</g>
</g>
</svg>