<?xml version="1.0" encoding="UTF-8" standalone="no"?>
<!DOCTYPE svg PUBLIC "-//W3C//DTD SVG 1.1//EN" "http://www.w3.org/Graphics/SVG/1.1/DTD/svg11.dtd">
<!-- Generated by graphviz version 2.40.1 (20161225.0304)
 -->
<!-- Title: Java Pages: 1 -->
<svg width="1489pt" height="658pt" viewBox="0.00 0.00 1489.00 658.40" xmlns="http://www.w3.org/2000/svg" xmlns:xlink="http://www.w3.org/1999/xlink">
<g id="graph0" class="graph" transform="scale(1 1) rotate(0) translate(4 654.4)">
<title>Java</title>
<polygon fill="#ffffff" stroke="transparent" points="-4,4 -4,-654.4 1485,-654.4 1485,4 -4,4"/>
<!-- n1 -->
<g id="node1" class="node">
<title>n1</title>
<polygon fill="none" stroke="#000000" points="452,-624.4 452,-646.4 844,-646.4 844,-624.4 452,-624.4"/>
<text text-anchor="start" x="596.2917" y="-630.8" font-family="Times,serif" font-size="14.00" fill="#000000">java.util.HashMap</text>
<polygon fill="none" stroke="#000000" points="452,-602.4 452,-624.4 533,-624.4 533,-602.4 452,-602.4"/>
<text text-anchor="start" x="454.5873" y="-608.8" font-family="Times,serif" font-size="14.00" fill="#000000">entrySet: null</text>
<polygon fill="none" stroke="#000000" points="533,-602.4 533,-624.4 582,-624.4 582,-602.4 533,-602.4"/>
<text text-anchor="start" x="535.9225" y="-608.8" font-family="Times,serif" font-size="14.00" fill="#000000">size: 13</text>
<polygon fill="none" stroke="#000000" points="582,-602.4 582,-624.4 668,-624.4 668,-602.4 582,-602.4"/>
<text text-anchor="start" x="584.7458" y="-608.8" font-family="Times,serif" font-size="14.00" fill="#000000">modCount: 13</text>
<polygon fill="none" stroke="#000000" points="668,-602.4 668,-624.4 747,-624.4 747,-602.4 668,-602.4"/>
<text text-anchor="start" x="670.7542" y="-608.8" font-family="Times,serif" font-size="14.00" fill="#000000">threshold: 48</text>
<polygon fill="none" stroke="#000000" points="747,-602.4 747,-624.4 844,-624.4 844,-602.4 747,-602.4"/>
<text text-anchor="start" x="749.6206" y="-608.8" font-family="Times,serif" font-size="14.00" fill="#000000">loadFactor: 0.75</text>
</g>
<!-- n2 -->
<g id="node2" class="node">
<title>n2</title>
<polygon fill="none" stroke="#000000" points="8,-520 8,-540 28,-540 28,-520 8,-520"/>
<polygon fill="none" stroke="#000000" points="28,-520 28,-540 48,-540 48,-520 28,-520"/>
<polygon fill="none" stroke="#000000" points="48,-520 48,-540 68,-540 68,-520 48,-520"/>
<polygon fill="none" stroke="#000000" points="68,-520 68,-540 88,-540 88,-520 68,-520"/>
<polygon fill="none" stroke="#000000" points="88,-520 88,-540 108,-540 108,-520 88,-520"/>
<polygon fill="none" stroke="#000000" points="108,-520 108,-540 128,-540 128,-520 108,-520"/>
<polygon fill="none" stroke="#000000" points="128,-520 128,-540 148,-540 148,-520 128,-520"/>
<polygon fill="none" stroke="#000000" points="148,-520 148,-540 168,-540 168,-520 148,-520"/>
<polygon fill="none" stroke="#000000" points="168,-520 168,-540 188,-540 188,-520 168,-520"/>
<polygon fill="none" stroke="#000000" points="188,-520 188,-540 208,-540 208,-520 188,-520"/>
<polygon fill="none" stroke="#000000" points="208,-520 208,-540 228,-540 228,-520 208,-520"/>
<polygon fill="none" stroke="#000000" points="228,-520 228,-540 248,-540 248,-520 228,-520"/>
<polygon fill="none" stroke="#000000" points="248,-520 248,-540 268,-540 268,-520 248,-520"/>
<polygon fill="none" stroke="#000000" points="268,-520 268,-540 288,-540 288,-520 268,-520"/>
<polygon fill="none" stroke="#000000" points="288,-520 288,-540 308,-540 308,-520 288,-520"/>
<polygon fill="none" stroke="#000000" points="308,-520 308,-540 328,-540 328,-520 308,-520"/>
<polygon fill="none" stroke="#000000" points="328,-520 328,-540 348,-540 348,-520 328,-520"/>
<polygon fill="none" stroke="#000000" points="348,-520 348,-540 368,-540 368,-520 348,-520"/>
<polygon fill="none" stroke="#000000" points="368,-520 368,-540 388,-540 388,-520 368,-520"/>
<polygon fill="none" stroke="#000000" points="388,-520 388,-540 408,-540 408,-520 388,-520"/>
<polygon fill="none" stroke="#000000" points="408,-520 408,-540 428,-540 428,-520 408,-520"/>
<polygon fill="none" stroke="#000000" points="428,-520 428,-540 448,-540 448,-520 428,-520"/>
<polygon fill="none" stroke="#000000" points="448,-520 448,-540 468,-540 468,-520 448,-520"/>
<polygon fill="none" stroke="#000000" points="468,-520 468,-540 488,-540 488,-520 468,-520"/>
<polygon fill="none" stroke="#000000" points="488,-520 488,-540 508,-540 508,-520 488,-520"/>
<polygon fill="none" stroke="#000000" points="508,-520 508,-540 528,-540 528,-520 508,-520"/>
<polygon fill="none" stroke="#000000" points="528,-520 528,-540 548,-540 548,-520 528,-520"/>
<polygon fill="none" stroke="#000000" points="548,-520 548,-540 568,-540 568,-520 548,-520"/>
<polygon fill="none" stroke="#000000" points="568,-520 568,-540 588,-540 588,-520 568,-520"/>
<polygon fill="none" stroke="#000000" points="588,-520 588,-540 608,-540 608,-520 588,-520"/>
<polygon fill="none" stroke="#000000" points="608,-520 608,-540 628,-540 628,-520 608,-520"/>
<polygon fill="none" stroke="#000000" points="628,-520 628,-540 648,-540 648,-520 628,-520"/>
<polygon fill="none" stroke="#000000" points="648,-520 648,-540 668,-540 668,-520 648,-520"/>
<polygon fill="none" stroke="#000000" points="668,-520 668,-540 688,-540 688,-520 668,-520"/>
<polygon fill="none" stroke="#000000" points="688,-520 688,-540 708,-540 708,-520 688,-520"/>
<polygon fill="none" stroke="#000000" points="708,-520 708,-540 728,-540 728,-520 708,-520"/>
<polygon fill="none" stroke="#000000" points="728,-520 728,-540 748,-540 748,-520 728,-520"/>
<polygon fill="none" stroke="#000000" points="748,-520 748,-540 768,-540 768,-520 748,-520"/>
<polygon fill="none" stroke="#000000" points="768,-520 768,-540 788,-540 788,-520 768,-520"/>
<polygon fill="none" stroke="#000000" points="788,-520 788,-540 808,-540 808,-520 788,-520"/>
<polygon fill="none" stroke="#000000" points="808,-520 808,-540 828,-540 828,-520 808,-520"/>
<polygon fill="none" stroke="#000000" points="828,-520 828,-540 848,-540 848,-520 828,-520"/>
<polygon fill="none" stroke="#000000" points="848,-520 848,-540 868,-540 868,-520 848,-520"/>
<polygon fill="none" stroke="#000000" points="868,-520 868,-540 888,-540 888,-520 868,-520"/>
<polygon fill="none" stroke="#000000" points="888,-520 888,-540 908,-540 908,-520 888,-520"/>
<polygon fill="none" stroke="#000000" points="908,-520 908,-540 928,-540 928,-520 908,-520"/>
<polygon fill="none" stroke="#000000" points="928,-520 928,-540 948,-540 948,-520 928,-520"/>
<polygon fill="none" stroke="#000000" points="948,-520 948,-540 968,-540 968,-520 948,-520"/>
<polygon fill="none" stroke="#000000" points="968,-520 968,-540 988,-540 988,-520 968,-520"/>
<polygon fill="none" stroke="#000000" points="988,-520 988,-540 1008,-540 1008,-520 988,-520"/>
<polygon fill="none" stroke="#000000" points="1008,-520 1008,-540 1028,-540 1028,-520 1008,-520"/>
<polygon fill="none" stroke="#000000" points="1028,-520 1028,-540 1048,-540 1048,-520 1028,-520"/>
<polygon fill="none" stroke="#000000" points="1048,-520 1048,-540 1068,-540 1068,-520 1048,-520"/>
<polygon fill="none" stroke="#000000" points="1068,-520 1068,-540 1088,-540 1088,-520 1068,-520"/>
<polygon fill="none" stroke="#000000" points="1088,-520 1088,-540 1108,-540 1108,-520 1088,-520"/>
<polygon fill="none" stroke="#000000" points="1108,-520 1108,-540 1128,-540 1128,-520 1108,-520"/>
<polygon fill="none" stroke="#000000" points="1128,-520 1128,-540 1148,-540 1148,-520 1128,-520"/>
<polygon fill="none" stroke="#000000" points="1148,-520 1148,-540 1168,-540 1168,-520 1148,-520"/>
<polygon fill="none" stroke="#000000" points="1168,-520 1168,-540 1188,-540 1188,-520 1168,-520"/>
<polygon fill="none" stroke="#000000" points="1188,-520 1188,-540 1208,-540 1208,-520 1188,-520"/>
<polygon fill="none" stroke="#000000" points="1208,-520 1208,-540 1228,-540 1228,-520 1208,-520"/>
<polygon fill="none" stroke="#000000" points="1228,-520 1228,-540 1248,-540 1248,-520 1228,-520"/>
<polygon fill="none" stroke="#000000" points="1248,-520 1248,-540 1268,-540 1268,-520 1248,-520"/>
<polygon fill="none" stroke="#000000" points="1268,-520 1268,-540 1288,-540 1288,-520 1268,-520"/>
</g>
<!-- n1&#45;&gt;n2 -->
<g id="edge38" class="edge">
<title>n1-&gt;n2</title>
<path fill="none" stroke="#000000" d="M648,-598.3549C648,-585.9052 648,-570.9798 648,-558.2562"/>
<polygon fill="#000000" stroke="#000000" points="651.5001,-558.189 648,-548.189 644.5001,-558.1891 651.5001,-558.189"/>
<text text-anchor="middle" x="659.6616" y="-569.6" font-family="Times,serif" font-size="12.00" fill="#000000">table</text>
</g>
<!-- n3 -->
<g id="node3" class="node">
<title>n3</title>
<polygon fill="none" stroke="#000000" points="465,-435.6 465,-457.6 652,-457.6 652,-435.6 465,-435.6"/>
<text text-anchor="start" x="475.3099" y="-442" font-family="Times,serif" font-size="14.00" fill="#000000">java.util.HashMap$TreeNode</text>
<polygon fill="none" stroke="#000000" points="465,-413.6 465,-435.6 535,-435.6 535,-413.6 465,-413.6"/>
<text text-anchor="start" x="467.9239" y="-420" font-family="Times,serif" font-size="14.00" fill="#000000">parent: null</text>
<polygon fill="none" stroke="#000000" points="535,-413.6 535,-435.6 595,-435.6 595,-413.6 535,-413.6"/>
<text text-anchor="start" x="537.9765" y="-420" font-family="Times,serif" font-size="14.00" fill="#000000">prev: null</text>
<polygon fill="none" stroke="#000000" points="595,-413.6 595,-435.6 652,-435.6 652,-413.6 595,-413.6"/>
<text text-anchor="start" x="597.6546" y="-420" font-family="Times,serif" font-size="14.00" fill="#000000">red: false</text>
</g>
<!-- n2&#45;&gt;n3 -->
<g id="edge37" class="edge">
<title>n2:f27-&gt;n3</title>
<path fill="none" stroke="#000000" d="M558,-520C558,-504.3181 558,-486.9972 558,-472.1485"/>
<polygon fill="#000000" stroke="#000000" points="561.5001,-471.832 558,-461.832 554.5001,-471.8321 561.5001,-471.832"/>
<text text-anchor="middle" x="564" y="-483.2" font-family="Times,serif" font-size="12.00" fill="#000000">27</text>
</g>
<!-- n4 -->
<g id="node4" class="node">
<title>n4</title>
<polygon fill="none" stroke="#000000" points="419,-333.2 419,-355.2 591,-355.2 591,-333.2 419,-333.2"/>
<text text-anchor="start" x="421.8099" y="-339.6" font-family="Times,serif" font-size="14.00" fill="#000000">java.util.HashMap$TreeNode</text>
<polygon fill="none" stroke="#000000" points="419,-311.2 419,-333.2 591,-333.2 591,-311.2 419,-311.2"/>
<text text-anchor="start" x="479.1546" y="-317.6" font-family="Times,serif" font-size="14.00" fill="#000000">red: false</text>
</g>
<!-- n3&#45;&gt;n4 -->
<g id="edge9" class="edge">
<title>n3-&gt;n4</title>
<path fill="none" stroke="#000000" d="M549.7278,-409.3994C546.0703,-399.1062 541.3747,-387.3492 536,-377.2 534.3765,-374.1342 532.5719,-371.0323 530.6729,-367.9692"/>
<polygon fill="#000000" stroke="#000000" points="533.5415,-365.9606 525.1431,-359.5017 527.6805,-369.7882 533.5415,-365.9606"/>
<text text-anchor="middle" x="550.9956" y="-380.8" font-family="Times,serif" font-size="12.00" fill="#000000">left</text>
</g>
<!-- n7 -->
<g id="node7" class="node">
<title>n7</title>
<polygon fill="none" stroke="#000000" points="858,-333.2 858,-355.2 1030,-355.2 1030,-333.2 858,-333.2"/>
<text text-anchor="start" x="860.8099" y="-339.6" font-family="Times,serif" font-size="14.00" fill="#000000">java.util.HashMap$TreeNode</text>
<polygon fill="none" stroke="#000000" points="858,-311.2 858,-333.2 1030,-333.2 1030,-311.2 858,-311.2"/>
<text text-anchor="start" x="918.1546" y="-317.6" font-family="Times,serif" font-size="14.00" fill="#000000">red: false</text>
</g>
<!-- n3&#45;&gt;n7 -->
<g id="edge36" class="edge">
<title>n3-&gt;n7</title>
<path fill="none" stroke="#000000" d="M659.715,-423.3115C705.8673,-416.3282 760.7905,-406.0341 809,-391.6 833.6188,-384.229 859.7438,-373.6286 882.3865,-363.4767"/>
<polygon fill="#000000" stroke="#000000" points="883.8806,-366.6422 891.534,-359.3158 880.9823,-360.2704 883.8806,-366.6422"/>
<text text-anchor="middle" x="858.3322" y="-380.8" font-family="Times,serif" font-size="12.00" fill="#000000">right</text>
</g>
<!-- n4&#45;&gt;n3 -->
<g id="edge1" class="edge">
<title>n4-&gt;n3</title>
<path fill="none" stroke="#000000" d="M500.9206,-359.2665C500.4091,-369.765 501.3234,-381.705 506.0168,-391.6 507.7349,-395.2222 509.9097,-398.6567 512.3902,-401.8898"/>
<polygon fill="#000000" stroke="#000000" points="509.8622,-404.3149 519.0996,-409.5034 515.114,-399.6868 509.8622,-404.3149"/>
<text text-anchor="middle" x="521.9916" y="-380.8" font-family="Times,serif" font-size="12.00" fill="#000000">parent</text>
</g>
<!-- n5 -->
<g id="node5" class="node">
<title>n5</title>
<polygon fill="none" stroke="#000000" points="294,-230.8 294,-252.8 466,-252.8 466,-230.8 294,-230.8"/>
<text text-anchor="start" x="296.8099" y="-237.2" font-family="Times,serif" font-size="14.00" fill="#000000">java.util.HashMap$TreeNode</text>
<polygon fill="none" stroke="#000000" points="294,-208.8 294,-230.8 347,-230.8 347,-208.8 294,-208.8"/>
<text text-anchor="start" x="296.5859" y="-215.2" font-family="Times,serif" font-size="14.00" fill="#000000">left: null</text>
<polygon fill="none" stroke="#000000" points="347,-208.8 347,-230.8 408,-230.8 408,-208.8 347,-208.8"/>
<text text-anchor="start" x="349.6932" y="-215.2" font-family="Times,serif" font-size="14.00" fill="#000000">right: null</text>
<polygon fill="none" stroke="#000000" points="408,-208.8 408,-230.8 466,-230.8 466,-208.8 408,-208.8"/>
<text text-anchor="start" x="411.1546" y="-215.2" font-family="Times,serif" font-size="14.00" fill="#000000">red: false</text>
</g>
<!-- n4&#45;&gt;n5 -->
<g id="edge4" class="edge">
<title>n4-&gt;n5</title>
<path fill="none" stroke="#000000" d="M410.9838,-308.649C395.5669,-302.7871 382.9815,-296.1857 378.0088,-289.2 373.4682,-282.8213 371.8464,-274.9807 371.7962,-267.1394"/>
<polygon fill="#000000" stroke="#000000" points="375.3023,-267.1772 372.5221,-256.9537 368.32,-266.6795 375.3023,-267.1772"/>
<text text-anchor="middle" x="386.9956" y="-278.4" font-family="Times,serif" font-size="12.00" fill="#000000">left</text>
</g>
<!-- n4&#45;&gt;n5 -->
<g id="edge8" class="edge">
<title>n4-&gt;n5</title>
<path fill="none" stroke="#000000" d="M437.2866,-307.0411C428.435,-301.9259 419.9353,-295.9971 412.6784,-289.2 405.704,-282.6674 399.8379,-274.3041 395.0878,-265.9608"/>
<polygon fill="#000000" stroke="#000000" points="398.1274,-264.2211 390.372,-257.0028 391.9333,-267.482 398.1274,-264.2211"/>
<text text-anchor="middle" x="423.6608" y="-278.4" font-family="Times,serif" font-size="12.00" fill="#000000">prev</text>
</g>
<!-- n6 -->
<g id="node6" class="node">
<title>n6</title>
<polygon fill="none" stroke="#000000" points="482,-26 482,-48 654,-48 654,-26 482,-26"/>
<text text-anchor="start" x="484.8099" y="-32.4" font-family="Times,serif" font-size="14.00" fill="#000000">java.util.HashMap$TreeNode</text>
<polygon fill="none" stroke="#000000" points="482,-4 482,-26 535,-26 535,-4 482,-4"/>
<text text-anchor="start" x="484.5859" y="-10.4" font-family="Times,serif" font-size="14.00" fill="#000000">left: null</text>
<polygon fill="none" stroke="#000000" points="535,-4 535,-26 596,-26 596,-4 535,-4"/>
<text text-anchor="start" x="537.6932" y="-10.4" font-family="Times,serif" font-size="14.00" fill="#000000">right: null</text>
<polygon fill="none" stroke="#000000" points="596,-4 596,-26 654,-26 654,-4 596,-4"/>
<text text-anchor="start" x="599.1546" y="-10.4" font-family="Times,serif" font-size="14.00" fill="#000000">red: false</text>
</g>
<!-- n4&#45;&gt;n6 -->
<g id="edge7" class="edge">
<title>n4-&gt;n6</title>
<path fill="none" stroke="#000000" d="M504.4433,-306.9989C504.2732,-274.9212 505.6378,-219.0998 515.3356,-172.4 523.4524,-133.3133 539.75,-90.5631 552.0773,-61.4068"/>
<polygon fill="#000000" stroke="#000000" points="555.359,-62.6348 556.0881,-52.0651 548.9268,-59.8731 555.359,-62.6348"/>
<text text-anchor="middle" x="527.3322" y="-176" font-family="Times,serif" font-size="12.00" fill="#000000">right</text>
</g>
<!-- n5&#45;&gt;n3 -->
<g id="edge3" class="edge">
<title>n5-&gt;n3</title>
<path fill="none" stroke="#000000" d="M371.5965,-256.9635C364.2681,-285.2768 357.9922,-330.2477 380.6784,-359.2 397.6189,-380.8196 421.8807,-396.4264 447.0417,-407.6546"/>
<polygon fill="#000000" stroke="#000000" points="445.7673,-410.9159 456.3403,-411.5963 448.4993,-404.471 445.7673,-410.9159"/>
<text text-anchor="middle" x="391.6608" y="-329.6" font-family="Times,serif" font-size="12.00" fill="#000000">prev</text>
</g>
<!-- n5&#45;&gt;n4 -->
<g id="edge2" class="edge">
<title>n5-&gt;n4</title>
<path fill="none" stroke="#000000" d="M415.2619,-256.9459C422.8378,-262.7308 430.7449,-268.8974 438,-274.8 448.0114,-282.945 458.6329,-292.0017 468.3973,-300.5049"/>
<polygon fill="#000000" stroke="#000000" points="466.1875,-303.2221 476.0163,-307.1777 470.7995,-297.9562 466.1875,-303.2221"/>
<text text-anchor="middle" x="469.9916" y="-278.4" font-family="Times,serif" font-size="12.00" fill="#000000">parent</text>
</g>
<!-- n6&#45;&gt;n4 -->
<g id="edge5" class="edge">
<title>n6-&gt;n4</title>
<path fill="none" stroke="#000000" d="M564.254,-52.0079C557.1701,-99.5095 540.5677,-203.3233 519,-289.2 518.3453,-291.807 517.6219,-294.4859 516.859,-297.1732"/>
<polygon fill="#000000" stroke="#000000" points="513.4837,-296.2444 513.9759,-306.8278 520.191,-298.2474 513.4837,-296.2444"/>
<text text-anchor="middle" x="558.9916" y="-176" font-family="Times,serif" font-size="12.00" fill="#000000">parent</text>
</g>
<!-- n6&#45;&gt;n4 -->
<g id="edge6" class="edge">
<title>n6-&gt;n4</title>
<path fill="none" stroke="#000000" d="M573.0995,-52.1691C578.4766,-84.215 585.0201,-140.0046 576,-186.8 566.7212,-234.9374 558.0558,-245.9364 535,-289.2 533.3857,-292.2291 531.6088,-295.305 529.7502,-298.3504"/>
<polygon fill="#000000" stroke="#000000" points="526.7945,-296.4759 524.3638,-306.7882 532.6947,-300.2425 526.7945,-296.4759"/>
<text text-anchor="middle" x="589.6608" y="-176" font-family="Times,serif" font-size="12.00" fill="#000000">prev</text>
</g>
<!-- n7&#45;&gt;n3 -->
<g id="edge10" class="edge">
<title>n7-&gt;n3</title>
<path fill="none" stroke="#000000" d="M849.7705,-358.1977C794.3301,-372.9052 724.0043,-391.5616 666.2878,-406.8729"/>
<polygon fill="#000000" stroke="#000000" points="665.171,-403.548 656.4028,-409.4952 666.966,-410.314 665.171,-403.548"/>
<text text-anchor="middle" x="789.9916" y="-380.8" font-family="Times,serif" font-size="12.00" fill="#000000">parent</text>
</g>
<!-- n8 -->
<g id="node8" class="node">
<title>n8</title>
<polygon fill="none" stroke="#000000" points="754,-230.8 754,-252.8 926,-252.8 926,-230.8 754,-230.8"/>
<text text-anchor="start" x="756.8099" y="-237.2" font-family="Times,serif" font-size="14.00" fill="#000000">java.util.HashMap$TreeNode</text>
<polygon fill="none" stroke="#000000" points="754,-208.8 754,-230.8 926,-230.8 926,-208.8 754,-208.8"/>
<text text-anchor="start" x="816.4842" y="-215.2" font-family="Times,serif" font-size="14.00" fill="#000000">red: true</text>
</g>
<!-- n7&#45;&gt;n8 -->
<g id="edge19" class="edge">
<title>n7-&gt;n8</title>
<path fill="none" stroke="#000000" d="M886.2755,-307.0888C878.4932,-301.9197 871.1048,-295.9627 865.0088,-289.2 859.1172,-282.664 854.4689,-274.5299 850.8611,-266.4285"/>
<polygon fill="#000000" stroke="#000000" points="854.0629,-265.0092 847.0917,-257.0309 847.5661,-267.6151 854.0629,-265.0092"/>
<text text-anchor="middle" x="872.9956" y="-278.4" font-family="Times,serif" font-size="12.00" fill="#000000">left</text>
</g>
<!-- n10 -->
<g id="node10" class="node">
<title>n10</title>
<polygon fill="none" stroke="#000000" points="832,-128.4 832,-150.4 1004,-150.4 1004,-128.4 832,-128.4"/>
<text text-anchor="start" x="834.8099" y="-134.8" font-family="Times,serif" font-size="14.00" fill="#000000">java.util.HashMap$TreeNode</text>
<polygon fill="none" stroke="#000000" points="832,-106.4 832,-128.4 885,-128.4 885,-106.4 832,-106.4"/>
<text text-anchor="start" x="834.5859" y="-112.8" font-family="Times,serif" font-size="14.00" fill="#000000">left: null</text>
<polygon fill="none" stroke="#000000" points="885,-106.4 885,-128.4 946,-128.4 946,-106.4 885,-106.4"/>
<text text-anchor="start" x="887.6932" y="-112.8" font-family="Times,serif" font-size="14.00" fill="#000000">right: null</text>
<polygon fill="none" stroke="#000000" points="946,-106.4 946,-128.4 1004,-128.4 1004,-106.4 946,-106.4"/>
<text text-anchor="start" x="949.1546" y="-112.8" font-family="Times,serif" font-size="14.00" fill="#000000">red: false</text>
</g>
<!-- n7&#45;&gt;n10 -->
<g id="edge35" class="edge">
<title>n7-&gt;n10</title>
<path fill="none" stroke="#000000" d="M948.5478,-306.9847C953.1681,-274.6546 957.9721,-218.3422 945,-172.4 944.2009,-169.5699 943.1631,-166.7424 941.9608,-163.9633"/>
<polygon fill="#000000" stroke="#000000" points="944.9604,-162.137 937.348,-154.768 938.7036,-165.2758 944.9604,-162.137"/>
<text text-anchor="middle" x="963.6608" y="-227.2" font-family="Times,serif" font-size="12.00" fill="#000000">prev</text>
</g>
<!-- n11 -->
<g id="node11" class="node">
<title>n11</title>
<polygon fill="none" stroke="#000000" points="1080,-230.8 1080,-252.8 1252,-252.8 1252,-230.8 1080,-230.8"/>
<text text-anchor="start" x="1082.8099" y="-237.2" font-family="Times,serif" font-size="14.00" fill="#000000">java.util.HashMap$TreeNode</text>
<polygon fill="none" stroke="#000000" points="1080,-208.8 1080,-230.8 1252,-230.8 1252,-208.8 1080,-208.8"/>
<text text-anchor="start" x="1142.4842" y="-215.2" font-family="Times,serif" font-size="14.00" fill="#000000">red: true</text>
</g>
<!-- n7&#45;&gt;n11 -->
<g id="edge34" class="edge">
<title>n7-&gt;n11</title>
<path fill="none" stroke="#000000" d="M1038.3383,-314.6892C1060.0258,-308.3509 1082.4447,-300.0267 1102,-289.2 1114.0594,-282.5233 1125.6862,-273.1432 1135.6447,-263.8507"/>
<polygon fill="#000000" stroke="#000000" points="1138.1674,-266.2799 1142.9144,-256.808 1133.2967,-261.2523 1138.1674,-266.2799"/>
<text text-anchor="middle" x="1132.3322" y="-278.4" font-family="Times,serif" font-size="12.00" fill="#000000">right</text>
</g>
<!-- n8&#45;&gt;n7 -->
<g id="edge11" class="edge">
<title>n8-&gt;n7</title>
<path fill="none" stroke="#000000" d="M866.4643,-256.8571C879.7815,-269.9695 896.0711,-286.0084 910.2759,-299.9947"/>
<polygon fill="#000000" stroke="#000000" points="907.906,-302.5731 917.4873,-307.0952 912.8172,-297.5851 907.906,-302.5731"/>
<text text-anchor="middle" x="912.9916" y="-278.4" font-family="Times,serif" font-size="12.00" fill="#000000">parent</text>
</g>
<!-- n9 -->
<g id="node9" class="node">
<title>n9</title>
<polygon fill="none" stroke="#000000" points="626,-128.4 626,-150.4 798,-150.4 798,-128.4 626,-128.4"/>
<text text-anchor="start" x="628.8099" y="-134.8" font-family="Times,serif" font-size="14.00" fill="#000000">java.util.HashMap$TreeNode</text>
<polygon fill="none" stroke="#000000" points="626,-106.4 626,-128.4 679,-128.4 679,-106.4 626,-106.4"/>
<text text-anchor="start" x="628.5859" y="-112.8" font-family="Times,serif" font-size="14.00" fill="#000000">left: null</text>
<polygon fill="none" stroke="#000000" points="679,-106.4 679,-128.4 740,-128.4 740,-106.4 679,-106.4"/>
<text text-anchor="start" x="681.6932" y="-112.8" font-family="Times,serif" font-size="14.00" fill="#000000">right: null</text>
<polygon fill="none" stroke="#000000" points="740,-106.4 740,-128.4 798,-128.4 798,-106.4 740,-106.4"/>
<text text-anchor="start" x="743.1546" y="-112.8" font-family="Times,serif" font-size="14.00" fill="#000000">red: false</text>
</g>
<!-- n8&#45;&gt;n9 -->
<g id="edge14" class="edge">
<title>n8-&gt;n9</title>
<path fill="none" stroke="#000000" d="M813.0064,-204.6484C801.8543,-194.2511 788.6055,-182.407 776,-172.4 771.0101,-168.4388 765.682,-164.4409 760.3104,-160.5548"/>
<polygon fill="#000000" stroke="#000000" points="762.055,-157.5008 751.8761,-154.5615 758.0003,-163.207 762.055,-157.5008"/>
<text text-anchor="middle" x="799.9956" y="-176" font-family="Times,serif" font-size="12.00" fill="#000000">left</text>
</g>
<!-- n8&#45;&gt;n9 -->
<g id="edge18" class="edge">
<title>n8-&gt;n9</title>
<path fill="none" stroke="#000000" d="M745.7669,-207.6047C728.4862,-201.4696 714.1556,-194.4116 708.6784,-186.8 704.1005,-180.4381 702.5848,-172.6041 702.701,-164.7639"/>
<polygon fill="#000000" stroke="#000000" points="706.2073,-164.8643 703.6735,-154.5769 699.239,-164.1989 706.2073,-164.8643"/>
<text text-anchor="middle" x="719.6608" y="-176" font-family="Times,serif" font-size="12.00" fill="#000000">prev</text>
</g>
<!-- n8&#45;&gt;n10 -->
<g id="edge17" class="edge">
<title>n8-&gt;n10</title>
<path fill="none" stroke="#000000" d="M855.9712,-204.6287C862.5589,-194.3395 870.4814,-182.5776 878.3356,-172.4 880.8803,-169.1025 883.6126,-165.7471 886.4094,-162.4346"/>
<polygon fill="#000000" stroke="#000000" points="889.0936,-164.6816 892.9946,-154.831 883.8022,-160.0989 889.0936,-164.6816"/>
<text text-anchor="middle" x="889.3322" y="-176" font-family="Times,serif" font-size="12.00" fill="#000000">right</text>
</g>
<!-- n9&#45;&gt;n6 -->
<g id="edge13" class="edge">
<title>n9-&gt;n6</title>
<path fill="none" stroke="#000000" d="M675.2901,-102.2952C656.3332,-88.8147 633.0399,-72.2506 613.0068,-58.0048"/>
<polygon fill="#000000" stroke="#000000" points="614.8208,-55.0001 604.6428,-52.0571 610.7641,-60.7048 614.8208,-55.0001"/>
<text text-anchor="middle" x="659.6608" y="-73.6" font-family="Times,serif" font-size="12.00" fill="#000000">prev</text>
</g>
<!-- n9&#45;&gt;n8 -->
<g id="edge12" class="edge">
<title>n9-&gt;n8</title>
<path fill="none" stroke="#000000" d="M722.9742,-154.6297C728.5942,-165.6464 736.3176,-177.9329 746.0168,-186.8 751.0198,-191.3738 756.5823,-195.5535 762.4318,-199.3563"/>
<polygon fill="#000000" stroke="#000000" points="760.8103,-202.4663 771.1756,-204.6601 764.4407,-196.4813 760.8103,-202.4663"/>
<text text-anchor="middle" x="761.9916" y="-176" font-family="Times,serif" font-size="12.00" fill="#000000">parent</text>
</g>
<!-- n10&#45;&gt;n8 -->
<g id="edge15" class="edge">
<title>n10-&gt;n8</title>
<path fill="none" stroke="#000000" d="M916.4089,-154.5007C914.7307,-165.2421 911.4267,-177.353 905,-186.8 902.3149,-190.747 899.1475,-194.4377 895.6801,-197.8683"/>
<polygon fill="#000000" stroke="#000000" points="893.3305,-195.274 888.1998,-204.5437 897.9913,-200.4968 893.3305,-195.274"/>
<text text-anchor="middle" x="925.9916" y="-176" font-family="Times,serif" font-size="12.00" fill="#000000">parent</text>
</g>
<!-- n10&#45;&gt;n8 -->
<g id="edge16" class="edge">
<title>n10-&gt;n8</title>
<path fill="none" stroke="#000000" d="M853.9227,-154.4357C847.4855,-159.4802 841.8114,-165.4234 837.6784,-172.4 833.7588,-179.0164 832.3634,-186.8337 832.3413,-194.561"/>
<polygon fill="#000000" stroke="#000000" points="828.8503,-194.8133 833.0064,-204.5589 835.8348,-194.3486 828.8503,-194.8133"/>
<text text-anchor="middle" x="847.6608" y="-176" font-family="Times,serif" font-size="12.00" fill="#000000">prev</text>
</g>
<!-- n11&#45;&gt;n7 -->
<g id="edge20" class="edge">
<title>n11-&gt;n7</title>
<path fill="none" stroke="#000000" d="M1109.509,-256.8571C1079.1258,-270.8717 1041.4947,-288.2295 1009.7956,-302.851"/>
<polygon fill="#000000" stroke="#000000" points="1008.2089,-299.7284 1000.5944,-307.0952 1011.1409,-306.0848 1008.2089,-299.7284"/>
<text text-anchor="middle" x="1082.9916" y="-278.4" font-family="Times,serif" font-size="12.00" fill="#000000">parent</text>
</g>
<!-- n12 -->
<g id="node12" class="node">
<title>n12</title>
<polygon fill="none" stroke="#000000" points="1301,-128.4 1301,-150.4 1473,-150.4 1473,-128.4 1301,-128.4"/>
<text text-anchor="start" x="1303.8099" y="-134.8" font-family="Times,serif" font-size="14.00" fill="#000000">java.util.HashMap$TreeNode</text>
<polygon fill="none" stroke="#000000" points="1301,-106.4 1301,-128.4 1354,-128.4 1354,-106.4 1301,-106.4"/>
<text text-anchor="start" x="1303.5859" y="-112.8" font-family="Times,serif" font-size="14.00" fill="#000000">left: null</text>
<polygon fill="none" stroke="#000000" points="1354,-106.4 1354,-128.4 1415,-128.4 1415,-106.4 1354,-106.4"/>
<text text-anchor="start" x="1356.6932" y="-112.8" font-family="Times,serif" font-size="14.00" fill="#000000">right: null</text>
<polygon fill="none" stroke="#000000" points="1415,-106.4 1415,-128.4 1473,-128.4 1473,-106.4 1415,-106.4"/>
<text text-anchor="start" x="1418.1546" y="-112.8" font-family="Times,serif" font-size="14.00" fill="#000000">red: false</text>
</g>
<!-- n11&#45;&gt;n12 -->
<g id="edge23" class="edge">
<title>n11-&gt;n12</title>
<path fill="none" stroke="#000000" d="M1241.3314,-204.7517C1255.6684,-199.2224 1270.4265,-193.1298 1284,-186.8 1286.767,-185.5096 1309.1545,-172.8361 1332.353,-159.6242"/>
<polygon fill="#000000" stroke="#000000" points="1334.2895,-162.5492 1341.2446,-154.5569 1330.8234,-156.4675 1334.2895,-162.5492"/>
<text text-anchor="middle" x="1315.9956" y="-176" font-family="Times,serif" font-size="12.00" fill="#000000">left</text>
</g>
<!-- n11&#45;&gt;n12 -->
<g id="edge33" class="edge">
<title>n11-&gt;n12</title>
<path fill="none" stroke="#000000" d="M1260.0465,-213.2492C1282.5217,-206.8396 1305.8282,-198.2426 1326,-186.8 1337.5718,-180.2358 1348.6043,-170.9876 1358.0259,-161.7828"/>
<polygon fill="#000000" stroke="#000000" points="1360.7058,-164.0492 1365.216,-154.4622 1355.7117,-159.1441 1360.7058,-164.0492"/>
<text text-anchor="middle" x="1354.6608" y="-176" font-family="Times,serif" font-size="12.00" fill="#000000">prev</text>
</g>
<!-- n13 -->
<g id="node13" class="node">
<title>n13</title>
<polygon fill="none" stroke="#000000" points="1095,-128.4 1095,-150.4 1267,-150.4 1267,-128.4 1095,-128.4"/>
<text text-anchor="start" x="1097.8099" y="-134.8" font-family="Times,serif" font-size="14.00" fill="#000000">java.util.HashMap$TreeNode</text>
<polygon fill="none" stroke="#000000" points="1095,-106.4 1095,-128.4 1267,-128.4 1267,-106.4 1095,-106.4"/>
<text text-anchor="start" x="1155.1546" y="-112.8" font-family="Times,serif" font-size="14.00" fill="#000000">red: false</text>
</g>
<!-- n11&#45;&gt;n13 -->
<g id="edge32" class="edge">
<title>n11-&gt;n13</title>
<path fill="none" stroke="#000000" d="M1148.8445,-204.6338C1144.3094,-194.5577 1141.5995,-182.9427 1145.3356,-172.4 1146.4523,-169.2488 1147.9015,-166.1585 1149.5752,-163.1685"/>
<polygon fill="#000000" stroke="#000000" points="1152.6653,-164.8355 1155.1614,-154.5389 1146.7891,-161.0316 1152.6653,-164.8355"/>
<text text-anchor="middle" x="1156.3322" y="-176" font-family="Times,serif" font-size="12.00" fill="#000000">right</text>
</g>
<!-- n12&#45;&gt;n7 -->
<g id="edge22" class="edge">
<title>n12-&gt;n7</title>
<path fill="none" stroke="#000000" d="M1382.8187,-154.514C1380.1608,-165.2576 1375.8711,-177.3666 1369,-186.8 1337.0589,-230.6518 1318.172,-233.88 1269,-256.8 1198.9175,-289.4669 1113.6226,-308.8344 1048.0003,-319.8926"/>
<polygon fill="#000000" stroke="#000000" points="1047.3528,-316.452 1038.0545,-321.5306 1048.4903,-323.359 1047.3528,-316.452"/>
<text text-anchor="middle" x="1363.6608" y="-227.2" font-family="Times,serif" font-size="12.00" fill="#000000">prev</text>
</g>
<!-- n12&#45;&gt;n11 -->
<g id="edge21" class="edge">
<title>n12-&gt;n11</title>
<path fill="none" stroke="#000000" d="M1297.3525,-154.419C1282.6056,-159.7282 1267.6849,-165.7524 1254.0168,-172.4 1238.721,-179.8392 1222.9552,-189.5537 1209.0678,-198.9184"/>
<polygon fill="#000000" stroke="#000000" points="1206.9431,-196.1317 1200.6846,-204.6805 1210.9082,-201.9004 1206.9431,-196.1317"/>
<text text-anchor="middle" x="1268.9916" y="-176" font-family="Times,serif" font-size="12.00" fill="#000000">parent</text>
</g>
<!-- n13&#45;&gt;n11 -->
<g id="edge24" class="edge">
<title>n13-&gt;n11</title>
<path fill="none" stroke="#000000" d="M1177.183,-154.4571C1175.4033,-166.6071 1173.2554,-181.2698 1171.3197,-194.484"/>
<polygon fill="#000000" stroke="#000000" points="1167.8104,-194.2935 1169.8239,-204.6952 1174.7364,-195.3081 1167.8104,-194.2935"/>
<text text-anchor="middle" x="1188.9916" y="-176" font-family="Times,serif" font-size="12.00" fill="#000000">parent</text>
</g>
<!-- n14 -->
<g id="node14" class="node">
<title>n14</title>
<polygon fill="none" stroke="#000000" points="995,-26 995,-48 1167,-48 1167,-26 995,-26"/>
<text text-anchor="start" x="997.8099" y="-32.4" font-family="Times,serif" font-size="14.00" fill="#000000">java.util.HashMap$TreeNode</text>
<polygon fill="none" stroke="#000000" points="995,-4 995,-26 1050,-26 1050,-4 995,-4"/>
<text text-anchor="start" x="998.5859" y="-10.4" font-family="Times,serif" font-size="14.00" fill="#000000">left: null</text>
<polygon fill="none" stroke="#000000" points="1050,-4 1050,-26 1112,-26 1112,-4 1050,-4"/>
<text text-anchor="start" x="1053.1932" y="-10.4" font-family="Times,serif" font-size="14.00" fill="#000000">right: null</text>
<polygon fill="none" stroke="#000000" points="1112,-4 1112,-26 1167,-26 1167,-4 1112,-4"/>
<text text-anchor="start" x="1115.9842" y="-10.4" font-family="Times,serif" font-size="14.00" fill="#000000">red: true</text>
</g>
<!-- n13&#45;&gt;n14 -->
<g id="edge27" class="edge">
<title>n13-&gt;n14</title>
<path fill="none" stroke="#000000" d="M1153.0087,-102.1453C1147.0033,-96.3672 1140.7418,-90.2308 1135.0088,-84.4 1127.2252,-76.4836 1119.0042,-67.7801 1111.3881,-59.5646"/>
<polygon fill="#000000" stroke="#000000" points="1113.9447,-57.1742 1104.5936,-52.1935 1108.7977,-61.9185 1113.9447,-57.1742"/>
<text text-anchor="middle" x="1142.9956" y="-73.6" font-family="Times,serif" font-size="12.00" fill="#000000">left</text>
</g>
<!-- n13&#45;&gt;n14 -->
<g id="edge31" class="edge">
<title>n13-&gt;n14</title>
<path fill="none" stroke="#000000" d="M1171.2589,-102.3923C1166.3265,-91.5434 1159.5508,-79.3254 1151,-70 1147.2409,-65.9003 1143.0159,-62.0336 1138.5523,-58.4233"/>
<polygon fill="#000000" stroke="#000000" points="1140.4006,-55.4334 1130.3091,-52.2067 1136.1857,-61.0223 1140.4006,-55.4334"/>
<text text-anchor="middle" x="1171.6608" y="-73.6" font-family="Times,serif" font-size="12.00" fill="#000000">prev</text>
</g>
<!-- n15 -->
<g id="node15" class="node">
<title>n15</title>
<polygon fill="none" stroke="#000000" points="1201,-26 1201,-48 1373,-48 1373,-26 1201,-26"/>
<text text-anchor="start" x="1203.8099" y="-32.4" font-family="Times,serif" font-size="14.00" fill="#000000">java.util.HashMap$TreeNode</text>
<polygon fill="none" stroke="#000000" points="1201,-4 1201,-26 1256,-26 1256,-4 1201,-4"/>
<text text-anchor="start" x="1204.5859" y="-10.4" font-family="Times,serif" font-size="14.00" fill="#000000">left: null</text>
<polygon fill="none" stroke="#000000" points="1256,-4 1256,-26 1318,-26 1318,-4 1256,-4"/>
<text text-anchor="start" x="1259.1932" y="-10.4" font-family="Times,serif" font-size="14.00" fill="#000000">right: null</text>
<polygon fill="none" stroke="#000000" points="1318,-4 1318,-26 1373,-26 1373,-4 1318,-4"/>
<text text-anchor="start" x="1321.9842" y="-10.4" font-family="Times,serif" font-size="14.00" fill="#000000">red: true</text>
</g>
<!-- n13&#45;&gt;n15 -->
<g id="edge30" class="edge">
<title>n13-&gt;n15</title>
<path fill="none" stroke="#000000" d="M1265.8453,-102.2887C1272.8486,-97.3213 1279.1042,-91.4167 1284,-84.4 1288.4836,-77.9741 1290.5364,-70.1147 1291.2165,-62.2702"/>
<polygon fill="#000000" stroke="#000000" points="1294.7193,-62.1527 1291.409,-52.0883 1287.7205,-62.0203 1294.7193,-62.1527"/>
<text text-anchor="middle" x="1301.3322" y="-73.6" font-family="Times,serif" font-size="12.00" fill="#000000">right</text>
</g>
<!-- n14&#45;&gt;n11 -->
<g id="edge26" class="edge">
<title>n14-&gt;n11</title>
<path fill="none" stroke="#000000" d="M1066.7,-52.0383C1053.9438,-79.0457 1039.6922,-121.8059 1056.6784,-154.4 1066.2885,-172.8403 1082.6093,-187.7447 1099.7499,-199.3248"/>
<polygon fill="#000000" stroke="#000000" points="1097.8967,-202.2941 1108.2045,-204.7434 1101.6739,-196.4006 1097.8967,-202.2941"/>
<text text-anchor="middle" x="1066.6608" y="-124.8" font-family="Times,serif" font-size="12.00" fill="#000000">prev</text>
</g>
<!-- n14&#45;&gt;n13 -->
<g id="edge25" class="edge">
<title>n14-&gt;n13</title>
<path fill="none" stroke="#000000" d="M1075.6051,-52.2443C1074.8038,-63.0099 1075.8577,-75.1001 1082.0168,-84.4 1084.7913,-88.5893 1088.0648,-92.3834 1091.7031,-95.8192"/>
<polygon fill="#000000" stroke="#000000" points="1089.7026,-98.7065 1099.6402,-102.3801 1094.1625,-93.3112 1089.7026,-98.7065"/>
<text text-anchor="middle" x="1096.9916" y="-73.6" font-family="Times,serif" font-size="12.00" fill="#000000">parent</text>
</g>
<!-- n15&#45;&gt;n13 -->
<g id="edge28" class="edge">
<title>n15-&gt;n13</title>
<path fill="none" stroke="#000000" d="M1239.9877,-52.0121C1232.1926,-57.4072 1224.5364,-63.4618 1218.0168,-70 1211.1697,-76.8666 1204.958,-85.2147 1199.6624,-93.4256"/>
<polygon fill="#000000" stroke="#000000" points="1196.5242,-91.8485 1194.289,-102.2049 1202.4946,-95.5028 1196.5242,-91.8485"/>
<text text-anchor="middle" x="1232.9916" y="-73.6" font-family="Times,serif" font-size="12.00" fill="#000000">parent</text>
</g>
<!-- n15&#45;&gt;n13 -->
<g id="edge29" class="edge">
<title>n15-&gt;n13</title>
<path fill="none" stroke="#000000" d="M1272.7027,-52.1013C1266.0588,-62.8427 1257.5195,-74.9536 1248,-84.4 1243.8235,-88.5444 1239.1989,-92.5201 1234.3882,-96.2697"/>
<polygon fill="#000000" stroke="#000000" points="1232.1193,-93.5946 1226.1627,-102.3565 1236.2832,-99.2216 1232.1193,-93.5946"/>
<text text-anchor="middle" x="1269.6608" y="-73.6" font-family="Times,serif" font-size="12.00" fill="#000000">prev</text>
</g>
</g>
</svg>