<?xml version="1.0" encoding="UTF-8" standalone="no"?><!DOCTYPE svg PUBLIC "-//W3C//DTD SVG 1.1//EN" "http://www.w3.org/Graphics/SVG/1.1/DTD/svg11.dtd"><!-- Generated by graphviz version 2.40.1 (20161225.0304)
 --><!-- Title: Java Pages: 1 --><svg xmlns="http://www.w3.org/2000/svg" xmlns:xlink="http://www.w3.org/1999/xlink" width="444pt" height="608pt" viewBox="0.00 0.00 444.00 607.60">
<g id="graph0" class="graph" transform="scale(1 1) rotate(0) translate(4 603.6)">
<title>Java</title>
<polygon fill="#ffffff" stroke="transparent" points="-4,4 -4,-603.6 440,-603.6 440,4 -4,4"/>
<!-- n1 -->
<g id="node1" class="node">
<title>n1</title>
<polygon fill="none" stroke="#000000" points="165,-485.6 165,-595.6 274,-595.6 274,-485.6 165,-485.6"/>
<text text-anchor="start" x="167.7917" y="-536.4" font-family="Times,serif" font-size="14.00" fill="#000000">java.util.HashMap</text>
<polygon fill="none" stroke="#000000" points="274,-573.6 274,-595.6 371,-595.6 371,-573.6 274,-573.6"/>
<text text-anchor="start" x="284.5873" y="-580" font-family="Times,serif" font-size="14.00" fill="#000000">entrySet: null</text>
<polygon fill="none" stroke="#000000" points="274,-551.6 274,-573.6 371,-573.6 371,-551.6 274,-551.6"/>
<text text-anchor="start" x="304.4225" y="-558" font-family="Times,serif" font-size="14.00" fill="#000000">size: 3</text>
<polygon fill="none" stroke="#000000" points="274,-529.6 274,-551.6 371,-551.6 371,-529.6 274,-529.6"/>
<text text-anchor="start" x="285.7458" y="-536" font-family="Times,serif" font-size="14.00" fill="#000000">modCount: 3</text>
<polygon fill="none" stroke="#000000" points="274,-507.6 274,-529.6 371,-529.6 371,-507.6 274,-507.6"/>
<text text-anchor="start" x="285.7542" y="-514" font-family="Times,serif" font-size="14.00" fill="#000000">threshold: 12</text>
<polygon fill="none" stroke="#000000" points="274,-485.6 274,-507.6 371,-507.6 371,-485.6 274,-485.6"/>
<text text-anchor="start" x="276.6206" y="-492" font-family="Times,serif" font-size="14.00" fill="#000000">loadFactor: 0.75</text>
</g>
<!-- n2 -->
<g id="node2" class="node">
<title>n2</title>
<polygon fill="none" stroke="#000000" points="108,-403.2 108,-423.2 128,-423.2 128,-403.2 108,-403.2"/>
<polygon fill="none" stroke="#000000" points="128,-403.2 128,-423.2 148,-423.2 148,-403.2 128,-403.2"/>
<polygon fill="none" stroke="#000000" points="148,-403.2 148,-423.2 168,-423.2 168,-403.2 148,-403.2"/>
<polygon fill="none" stroke="#000000" points="168,-403.2 168,-423.2 188,-423.2 188,-403.2 168,-403.2"/>
<polygon fill="none" stroke="#000000" points="188,-403.2 188,-423.2 208,-423.2 208,-403.2 188,-403.2"/>
<polygon fill="none" stroke="#000000" points="208,-403.2 208,-423.2 228,-423.2 228,-403.2 208,-403.2"/>
<polygon fill="none" stroke="#000000" points="228,-403.2 228,-423.2 248,-423.2 248,-403.2 228,-403.2"/>
<polygon fill="none" stroke="#000000" points="248,-403.2 248,-423.2 268,-423.2 268,-403.2 248,-403.2"/>
<polygon fill="none" stroke="#000000" points="268,-403.2 268,-423.2 288,-423.2 288,-403.2 268,-403.2"/>
<polygon fill="none" stroke="#000000" points="288,-403.2 288,-423.2 308,-423.2 308,-403.2 288,-403.2"/>
<polygon fill="none" stroke="#000000" points="308,-403.2 308,-423.2 328,-423.2 328,-403.2 308,-403.2"/>
<polygon fill="none" stroke="#000000" points="328,-403.2 328,-423.2 348,-423.2 348,-403.2 328,-403.2"/>
<polygon fill="none" stroke="#000000" points="348,-403.2 348,-423.2 368,-423.2 368,-403.2 348,-403.2"/>
<polygon fill="none" stroke="#000000" points="368,-403.2 368,-423.2 388,-423.2 388,-403.2 368,-403.2"/>
<polygon fill="none" stroke="#000000" points="388,-403.2 388,-423.2 408,-423.2 408,-403.2 388,-403.2"/>
<polygon fill="none" stroke="#000000" points="408,-403.2 408,-423.2 428,-423.2 428,-403.2 408,-403.2"/>
</g>
<!-- n1&#45;&gt;n2 -->
<g id="edge4" class="edge">
<title>n1-&gt;n2</title>
<path fill="none" stroke="#000000" d="M268,-481.3756C268,-467.4456 268,-453.2287 268,-441.4072"/>
<polygon fill="#000000" stroke="#000000" points="271.5001,-441.3011 268,-431.3011 264.5001,-441.3012 271.5001,-441.3011"/>
<text text-anchor="middle" x="279.6616" y="-452.8" font-family="Times,serif" font-size="12.00" fill="#000000">table</text>
</g>
<!-- n3 -->
<g id="node3" class="node">
<title>n3</title>
<polygon fill="none" stroke="#000000" points="8,-274.8 8,-340.8 154,-340.8 154,-274.8 8,-274.8"/>
<text text-anchor="start" x="10.6311" y="-303.6" font-family="Times,serif" font-size="14.00" fill="#000000">java.util.HashMap$Node</text>
<polygon fill="none" stroke="#000000" points="154,-318.8 154,-340.8 228,-340.8 228,-318.8 154,-318.8"/>
<text text-anchor="start" x="156.9751" y="-325.2" font-family="Times,serif" font-size="14.00" fill="#000000">hash: 96320</text>
<polygon fill="none" stroke="#000000" points="154,-296.8 154,-318.8 228,-318.8 228,-296.8 154,-296.8"/>
<text text-anchor="start" x="167.8755" y="-303.2" font-family="Times,serif" font-size="14.00" fill="#000000">key: aaa</text>
<polygon fill="none" stroke="#000000" points="154,-274.8 154,-296.8 228,-296.8 228,-274.8 154,-274.8"/>
<text text-anchor="start" x="168.6448" y="-281.2" font-family="Times,serif" font-size="14.00" fill="#000000">value: 0</text>
</g>
<!-- n2&#45;&gt;n3 -->
<g id="edge3" class="edge">
<title>n2:f0-&gt;n3</title>
<path fill="none" stroke="#000000" d="M118,-403.2C118,-387.5898 118,-370.5429 118,-355.233"/>
<polygon fill="#000000" stroke="#000000" points="121.5001,-354.9503 118,-344.9504 114.5001,-354.9504 121.5001,-354.9503"/>
<text text-anchor="middle" x="121" y="-366.4" font-family="Times,serif" font-size="12.00" fill="#000000">0</text>
</g>
<!-- n4 -->
<g id="node4" class="node">
<title>n4</title>
<polygon fill="none" stroke="#000000" points="8,-150.4 8,-216.4 154,-216.4 154,-150.4 8,-150.4"/>
<text text-anchor="start" x="10.6311" y="-179.2" font-family="Times,serif" font-size="14.00" fill="#000000">java.util.HashMap$Node</text>
<polygon fill="none" stroke="#000000" points="154,-194.4 154,-216.4 228,-216.4 228,-194.4 154,-194.4"/>
<text text-anchor="start" x="156.9751" y="-200.8" font-family="Times,serif" font-size="14.00" fill="#000000">hash: 96320</text>
<polygon fill="none" stroke="#000000" points="154,-172.4 154,-194.4 228,-194.4 228,-172.4 154,-172.4"/>
<text text-anchor="start" x="165.9218" y="-178.8" font-family="Times,serif" font-size="14.00" fill="#000000">key: abB</text>
<polygon fill="none" stroke="#000000" points="154,-150.4 154,-172.4 228,-172.4 228,-150.4 154,-150.4"/>
<text text-anchor="start" x="168.6448" y="-156.8" font-family="Times,serif" font-size="14.00" fill="#000000">value: 1</text>
</g>
<!-- n3&#45;&gt;n4 -->
<g id="edge2" class="edge">
<title>n3-&gt;n4</title>
<path fill="none" stroke="#000000" d="M118,-270.4759C118,-258.0521 118,-244.0431 118,-230.952"/>
<polygon fill="#000000" stroke="#000000" points="121.5001,-230.6977 118,-220.6978 114.5001,-230.6978 121.5001,-230.6977"/>
<text text-anchor="middle" x="128.3308" y="-242" font-family="Times,serif" font-size="12.00" fill="#000000">next</text>
</g>
<!-- n5 -->
<g id="node5" class="node">
<title>n5</title>
<polygon fill="none" stroke="#000000" points="8,-4 8,-92 154,-92 154,-4 8,-4"/>
<text text-anchor="start" x="10.6311" y="-43.8" font-family="Times,serif" font-size="14.00" fill="#000000">java.util.HashMap$Node</text>
<polygon fill="none" stroke="#000000" points="154,-70 154,-92 228,-92 228,-70 154,-70"/>
<text text-anchor="start" x="156.9751" y="-76.4" font-family="Times,serif" font-size="14.00" fill="#000000">hash: 96320</text>
<polygon fill="none" stroke="#000000" points="154,-48 154,-70 228,-70 228,-48 154,-48"/>
<text text-anchor="start" x="165.9218" y="-54.4" font-family="Times,serif" font-size="14.00" fill="#000000">key: bBa</text>
<polygon fill="none" stroke="#000000" points="154,-26 154,-48 228,-48 228,-26 154,-26"/>
<text text-anchor="start" x="168.6448" y="-32.4" font-family="Times,serif" font-size="14.00" fill="#000000">value: 2</text>
<polygon fill="none" stroke="#000000" points="154,-4 154,-26 228,-26 228,-4 154,-4"/>
<text text-anchor="start" x="164.3615" y="-10.4" font-family="Times,serif" font-size="14.00" fill="#000000">next: null</text>
</g>
<!-- n4&#45;&gt;n5 -->
<g id="edge1" class="edge">
<title>n4-&gt;n5</title>
<path fill="none" stroke="#000000" d="M118,-146.0429C118,-133.8171 118,-119.9267 118,-106.525"/>
<polygon fill="#000000" stroke="#000000" points="121.5001,-106.4075 118,-96.4075 114.5001,-106.4076 121.5001,-106.4075"/>
<text text-anchor="middle" x="128.3308" y="-117.6" font-family="Times,serif" font-size="12.00" fill="#000000">next</text>
</g>
</g>
</svg>