<?xml version="1.0" encoding="UTF-8" standalone="no"?>
<!DOCTYPE svg PUBLIC "-//W3C//DTD SVG 1.1//EN" "http://www.w3.org/Graphics/SVG/1.1/DTD/svg11.dtd">
<!-- Generated by graphviz version 2.40.1 (20161225.0304)
 -->
<!-- Title: Java Pages: 1 -->
<svg width="1113pt" height="540pt" viewBox="0.00 0.00 1112.50 540.00" xmlns="http://www.w3.org/2000/svg" xmlns:xlink="http://www.w3.org/1999/xlink">
<g id="graph0" class="graph" transform="scale(1 1) rotate(0) translate(4 536)">
<title>Java</title>
<polygon fill="#ffffff" stroke="transparent" points="-4,4 -4,-536 1108.5,-536 1108.5,4 -4,4"/>
<!-- n1 -->
<g id="node1" class="node">
<title>n1</title>
<polygon fill="none" stroke="#000000" points="292.5,-506 292.5,-528 670.5,-528 670.5,-506 292.5,-506"/>
<text text-anchor="start" x="429.7917" y="-512.4" font-family="Times,serif" font-size="14.00" fill="#000000">java.util.HashMap</text>
<polygon fill="none" stroke="#000000" points="292.5,-484 292.5,-506 373.5,-506 373.5,-484 292.5,-484"/>
<text text-anchor="start" x="295.0873" y="-490.4" font-family="Times,serif" font-size="14.00" fill="#000000">entrySet: null</text>
<polygon fill="none" stroke="#000000" points="373.5,-484 373.5,-506 415.5,-506 415.5,-484 373.5,-484"/>
<text text-anchor="start" x="376.4225" y="-490.4" font-family="Times,serif" font-size="14.00" fill="#000000">size: 4</text>
<polygon fill="none" stroke="#000000" points="415.5,-484 415.5,-506 494.5,-506 494.5,-484 415.5,-484"/>
<text text-anchor="start" x="418.2458" y="-490.4" font-family="Times,serif" font-size="14.00" fill="#000000">modCount: 4</text>
<polygon fill="none" stroke="#000000" points="494.5,-484 494.5,-506 573.5,-506 573.5,-484 494.5,-484"/>
<text text-anchor="start" x="497.2542" y="-490.4" font-family="Times,serif" font-size="14.00" fill="#000000">threshold: 12</text>
<polygon fill="none" stroke="#000000" points="573.5,-484 573.5,-506 670.5,-506 670.5,-484 573.5,-484"/>
<text text-anchor="start" x="576.1206" y="-490.4" font-family="Times,serif" font-size="14.00" fill="#000000">loadFactor: 0.75</text>
</g>
<!-- n2 -->
<g id="node2" class="node">
<title>n2</title>
<polygon fill="none" stroke="#000000" points="321.5,-401.6 321.5,-421.6 341.5,-421.6 341.5,-401.6 321.5,-401.6"/>
<polygon fill="none" stroke="#000000" points="341.5,-401.6 341.5,-421.6 361.5,-421.6 361.5,-401.6 341.5,-401.6"/>
<polygon fill="none" stroke="#000000" points="361.5,-401.6 361.5,-421.6 381.5,-421.6 381.5,-401.6 361.5,-401.6"/>
<polygon fill="none" stroke="#000000" points="381.5,-401.6 381.5,-421.6 401.5,-421.6 401.5,-401.6 381.5,-401.6"/>
<polygon fill="none" stroke="#000000" points="401.5,-401.6 401.5,-421.6 421.5,-421.6 421.5,-401.6 401.5,-401.6"/>
<polygon fill="none" stroke="#000000" points="421.5,-401.6 421.5,-421.6 441.5,-421.6 441.5,-401.6 421.5,-401.6"/>
<polygon fill="none" stroke="#000000" points="441.5,-401.6 441.5,-421.6 461.5,-421.6 461.5,-401.6 441.5,-401.6"/>
<polygon fill="none" stroke="#000000" points="461.5,-401.6 461.5,-421.6 481.5,-421.6 481.5,-401.6 461.5,-401.6"/>
<polygon fill="none" stroke="#000000" points="481.5,-401.6 481.5,-421.6 501.5,-421.6 501.5,-401.6 481.5,-401.6"/>
<polygon fill="none" stroke="#000000" points="501.5,-401.6 501.5,-421.6 521.5,-421.6 521.5,-401.6 501.5,-401.6"/>
<polygon fill="none" stroke="#000000" points="521.5,-401.6 521.5,-421.6 541.5,-421.6 541.5,-401.6 521.5,-401.6"/>
<polygon fill="none" stroke="#000000" points="541.5,-401.6 541.5,-421.6 561.5,-421.6 561.5,-401.6 541.5,-401.6"/>
<polygon fill="none" stroke="#000000" points="561.5,-401.6 561.5,-421.6 581.5,-421.6 581.5,-401.6 561.5,-401.6"/>
<polygon fill="none" stroke="#000000" points="581.5,-401.6 581.5,-421.6 601.5,-421.6 601.5,-401.6 581.5,-401.6"/>
<polygon fill="none" stroke="#000000" points="601.5,-401.6 601.5,-421.6 621.5,-421.6 621.5,-401.6 601.5,-401.6"/>
<polygon fill="none" stroke="#000000" points="621.5,-401.6 621.5,-421.6 641.5,-421.6 641.5,-401.6 621.5,-401.6"/>
</g>
<!-- n1&#45;&gt;n2 -->
<g id="edge17" class="edge">
<title>n1-&gt;n2</title>
<path fill="none" stroke="#000000" d="M481.5,-479.9549C481.5,-467.5052 481.5,-452.5798 481.5,-439.8562"/>
<polygon fill="#000000" stroke="#000000" points="485.0001,-439.789 481.5,-429.789 478.0001,-439.7891 485.0001,-439.789"/>
<text text-anchor="middle" x="493.1616" y="-451.2" font-family="Times,serif" font-size="12.00" fill="#000000">table</text>
</g>
<!-- n3 -->
<g id="node3" class="node">
<title>n3</title>
<polygon fill="none" stroke="#000000" points="158.5,-317.2 158.5,-339.2 305.5,-339.2 305.5,-317.2 158.5,-317.2"/>
<text text-anchor="start" x="161.6311" y="-323.6" font-family="Times,serif" font-size="14.00" fill="#000000">java.util.HashMap$Node</text>
<polygon fill="none" stroke="#000000" points="158.5,-295.2 158.5,-317.2 246.5,-317.2 246.5,-295.2 158.5,-295.2"/>
<text text-anchor="start" x="161.4751" y="-301.6" font-family="Times,serif" font-size="14.00" fill="#000000">hash: 3149078</text>
<polygon fill="none" stroke="#000000" points="246.5,-295.2 246.5,-317.2 305.5,-317.2 305.5,-295.2 246.5,-295.2"/>
<text text-anchor="start" x="249.3615" y="-301.6" font-family="Times,serif" font-size="14.00" fill="#000000">next: null</text>
</g>
<!-- n2&#45;&gt;n3 -->
<g id="edge4" class="edge">
<title>n2:f6-&gt;n3</title>
<path fill="none" stroke="#000000" d="M451.5,-401.6C451.5,-372.488 383.499,-349.6588 323.1092,-335.1247"/>
<polygon fill="#000000" stroke="#000000" points="323.6427,-331.6548 313.1072,-332.7749 322.0417,-338.4693 323.6427,-331.6548"/>
<text text-anchor="middle" x="436.5" y="-364.8" font-family="Times,serif" font-size="12.00" fill="#000000">6</text>
</g>
<!-- n7 -->
<g id="node7" class="node">
<title>n7</title>
<polygon fill="none" stroke="#000000" points="398.5,-317.2 398.5,-339.2 544.5,-339.2 544.5,-317.2 398.5,-317.2"/>
<text text-anchor="start" x="401.1311" y="-323.6" font-family="Times,serif" font-size="14.00" fill="#000000">java.util.HashMap$Node</text>
<polygon fill="none" stroke="#000000" points="398.5,-295.2 398.5,-317.2 482.5,-317.2 482.5,-295.2 398.5,-295.2"/>
<text text-anchor="start" x="402.9751" y="-301.6" font-family="Times,serif" font-size="14.00" fill="#000000">hash: 110183</text>
<polygon fill="none" stroke="#000000" points="482.5,-295.2 482.5,-317.2 544.5,-317.2 544.5,-295.2 482.5,-295.2"/>
<text text-anchor="start" x="486.8615" y="-301.6" font-family="Times,serif" font-size="14.00" fill="#000000">next: null</text>
</g>
<!-- n2&#45;&gt;n7 -->
<g id="edge8" class="edge">
<title>n2:f7-&gt;n7</title>
<path fill="none" stroke="#000000" d="M471.5,-401.6C471.5,-385.9181 471.5,-368.5972 471.5,-353.7485"/>
<polygon fill="#000000" stroke="#000000" points="475.0001,-353.432 471.5,-343.432 468.0001,-353.4321 475.0001,-353.432"/>
<text text-anchor="middle" x="474.5" y="-364.8" font-family="Times,serif" font-size="12.00" fill="#000000">7</text>
</g>
<!-- n11 -->
<g id="node11" class="node">
<title>n11</title>
<polygon fill="none" stroke="#000000" points="698.5,-317.2 698.5,-339.2 844.5,-339.2 844.5,-317.2 698.5,-317.2"/>
<text text-anchor="start" x="701.1311" y="-323.6" font-family="Times,serif" font-size="14.00" fill="#000000">java.util.HashMap$Node</text>
<polygon fill="none" stroke="#000000" points="698.5,-295.2 698.5,-317.2 844.5,-317.2 844.5,-295.2 698.5,-295.2"/>
<text text-anchor="start" x="733.9751" y="-301.6" font-family="Times,serif" font-size="14.00" fill="#000000">hash: 115277</text>
</g>
<!-- n2&#45;&gt;n11 -->
<g id="edge16" class="edge">
<title>n2:f13-&gt;n11</title>
<path fill="none" stroke="#000000" d="M591.5,-401.6C591.5,-379.608 636.104,-358.5967 680.9047,-343.0393"/>
<polygon fill="#000000" stroke="#000000" points="682.1041,-346.3285 690.4517,-339.804 679.8573,-339.6988 682.1041,-346.3285"/>
<text text-anchor="middle" x="641.5" y="-364.8" font-family="Times,serif" font-size="12.00" fill="#000000">13</text>
</g>
<!-- n4 -->
<g id="node4" class="node">
<title>n4</title>
<polygon fill="none" stroke="#000000" points="8.5,-214.8 8.5,-236.8 147.5,-236.8 147.5,-214.8 8.5,-214.8"/>
<text text-anchor="start" x="33.6753" y="-221.2" font-family="Times,serif" font-size="14.00" fill="#000000">java.lang.String</text>
<polygon fill="none" stroke="#000000" points="8.5,-192.8 8.5,-214.8 59.5,-214.8 59.5,-192.8 8.5,-192.8"/>
<text text-anchor="start" x="11.2598" y="-199.2" font-family="Times,serif" font-size="14.00" fill="#000000">coder: 0</text>
<polygon fill="none" stroke="#000000" points="59.5,-192.8 59.5,-214.8 147.5,-214.8 147.5,-192.8 59.5,-192.8"/>
<text text-anchor="start" x="62.4751" y="-199.2" font-family="Times,serif" font-size="14.00" fill="#000000">hash: 3149094</text>
</g>
<!-- n3&#45;&gt;n4 -->
<g id="edge2" class="edge">
<title>n3-&gt;n4</title>
<path fill="none" stroke="#000000" d="M192.2408,-291.0952C171.7864,-277.4943 146.6114,-260.7546 125.0592,-246.4238"/>
<polygon fill="#000000" stroke="#000000" points="126.9526,-243.4797 116.6875,-240.8571 123.0767,-249.3087 126.9526,-243.4797"/>
<text text-anchor="middle" x="173.1634" y="-262.4" font-family="Times,serif" font-size="12.00" fill="#000000">key</text>
</g>
<!-- n6 -->
<g id="node6" class="node">
<title>n6</title>
<polygon fill="none" stroke="#000000" points="181.5,-214.8 181.5,-236.8 281.5,-236.8 281.5,-214.8 181.5,-214.8"/>
<text text-anchor="start" x="184.467" y="-221.2" font-family="Times,serif" font-size="14.00" fill="#000000">java.lang.Integer</text>
<polygon fill="none" stroke="#000000" points="181.5,-192.8 181.5,-214.8 281.5,-214.8 281.5,-192.8 181.5,-192.8"/>
<text text-anchor="start" x="209.1448" y="-199.2" font-family="Times,serif" font-size="14.00" fill="#000000">value: 4</text>
</g>
<!-- n3&#45;&gt;n6 -->
<g id="edge3" class="edge">
<title>n3-&gt;n6</title>
<path fill="none" stroke="#000000" d="M231.5,-291.0952C231.5,-278.9387 231.5,-264.2745 231.5,-251.0642"/>
<polygon fill="#000000" stroke="#000000" points="235.0001,-250.8571 231.5,-240.8571 228.0001,-250.8572 235.0001,-250.8571"/>
<text text-anchor="middle" x="244.4942" y="-262.4" font-family="Times,serif" font-size="12.00" fill="#000000">value</text>
</g>
<!-- n5 -->
<g id="node5" class="node">
<title>n5</title>
<polygon fill="none" stroke="#000000" points="23.5,-101.4 23.5,-123.4 50.5,-123.4 50.5,-101.4 23.5,-101.4"/>
<text text-anchor="start" x="26.5" y="-107.8" font-family="Times,serif" font-size="14.00" fill="#000000">102</text>
<polygon fill="none" stroke="#000000" points="50.5,-101.4 50.5,-123.4 77.5,-123.4 77.5,-101.4 50.5,-101.4"/>
<text text-anchor="start" x="53.5" y="-107.8" font-family="Times,serif" font-size="14.00" fill="#000000">111</text>
<polygon fill="none" stroke="#000000" points="77.5,-101.4 77.5,-123.4 104.5,-123.4 104.5,-101.4 77.5,-101.4"/>
<text text-anchor="start" x="80.5" y="-107.8" font-family="Times,serif" font-size="14.00" fill="#000000">117</text>
<polygon fill="none" stroke="#000000" points="104.5,-101.4 104.5,-123.4 131.5,-123.4 131.5,-101.4 104.5,-101.4"/>
<text text-anchor="start" x="107.5" y="-107.8" font-family="Times,serif" font-size="14.00" fill="#000000">114</text>
</g>
<!-- n4&#45;&gt;n5 -->
<g id="edge1" class="edge">
<title>n4-&gt;n5</title>
<path fill="none" stroke="#000000" d="M77.5,-188.6952C77.5,-174.1046 77.5,-155.9017 77.5,-140.9356"/>
<polygon fill="#000000" stroke="#000000" points="81.0001,-140.708 77.5,-130.708 74.0001,-140.708 81.0001,-140.708"/>
<text text-anchor="middle" x="90.4942" y="-160" font-family="Times,serif" font-size="12.00" fill="#000000">value</text>
</g>
<!-- n8 -->
<g id="node8" class="node">
<title>n8</title>
<polygon fill="none" stroke="#000000" points="315.5,-214.8 315.5,-236.8 447.5,-236.8 447.5,-214.8 315.5,-214.8"/>
<text text-anchor="start" x="337.1753" y="-221.2" font-family="Times,serif" font-size="14.00" fill="#000000">java.lang.String</text>
<polygon fill="none" stroke="#000000" points="315.5,-192.8 315.5,-214.8 366.5,-214.8 366.5,-192.8 315.5,-192.8"/>
<text text-anchor="start" x="318.2598" y="-199.2" font-family="Times,serif" font-size="14.00" fill="#000000">coder: 0</text>
<polygon fill="none" stroke="#000000" points="366.5,-192.8 366.5,-214.8 447.5,-214.8 447.5,-192.8 366.5,-192.8"/>
<text text-anchor="start" x="369.4751" y="-199.2" font-family="Times,serif" font-size="14.00" fill="#000000">hash: 110182</text>
</g>
<!-- n7&#45;&gt;n8 -->
<g id="edge6" class="edge">
<title>n7-&gt;n8</title>
<path fill="none" stroke="#000000" d="M448.5563,-291.0952C437.2372,-278.2165 423.4444,-262.5234 411.3179,-248.7261"/>
<polygon fill="#000000" stroke="#000000" points="413.6324,-246.0578 404.4018,-240.8571 408.3745,-250.6789 413.6324,-246.0578"/>
<text text-anchor="middle" x="441.1634" y="-262.4" font-family="Times,serif" font-size="12.00" fill="#000000">key</text>
</g>
<!-- n10 -->
<g id="node10" class="node">
<title>n10</title>
<polygon fill="none" stroke="#000000" points="481.5,-214.8 481.5,-236.8 581.5,-236.8 581.5,-214.8 481.5,-214.8"/>
<text text-anchor="start" x="484.467" y="-221.2" font-family="Times,serif" font-size="14.00" fill="#000000">java.lang.Integer</text>
<polygon fill="none" stroke="#000000" points="481.5,-192.8 481.5,-214.8 581.5,-214.8 581.5,-192.8 481.5,-192.8"/>
<text text-anchor="start" x="509.1448" y="-199.2" font-family="Times,serif" font-size="14.00" fill="#000000">value: 1</text>
</g>
<!-- n7&#45;&gt;n10 -->
<g id="edge7" class="edge">
<title>n7-&gt;n10</title>
<path fill="none" stroke="#000000" d="M486.7958,-291.0952C494.2008,-278.4572 503.1939,-263.1091 511.1669,-249.5017"/>
<polygon fill="#000000" stroke="#000000" points="514.1964,-251.2546 516.2322,-240.8571 508.1568,-247.7157 514.1964,-251.2546"/>
<text text-anchor="middle" x="518.4942" y="-262.4" font-family="Times,serif" font-size="12.00" fill="#000000">value</text>
</g>
<!-- n9 -->
<g id="node9" class="node">
<title>n9</title>
<polygon fill="none" stroke="#000000" points="341.5,-101.4 341.5,-123.4 368.5,-123.4 368.5,-101.4 341.5,-101.4"/>
<text text-anchor="start" x="344.5" y="-107.8" font-family="Times,serif" font-size="14.00" fill="#000000">111</text>
<polygon fill="none" stroke="#000000" points="368.5,-101.4 368.5,-123.4 395.5,-123.4 395.5,-101.4 368.5,-101.4"/>
<text text-anchor="start" x="371.5" y="-107.8" font-family="Times,serif" font-size="14.00" fill="#000000">110</text>
<polygon fill="none" stroke="#000000" points="395.5,-101.4 395.5,-123.4 422.5,-123.4 422.5,-101.4 395.5,-101.4"/>
<text text-anchor="start" x="398.5" y="-107.8" font-family="Times,serif" font-size="14.00" fill="#000000">101</text>
</g>
<!-- n8&#45;&gt;n9 -->
<g id="edge5" class="edge">
<title>n8-&gt;n9</title>
<path fill="none" stroke="#000000" d="M381.5,-188.6952C381.5,-174.1046 381.5,-155.9017 381.5,-140.9356"/>
<polygon fill="#000000" stroke="#000000" points="385.0001,-140.708 381.5,-130.708 378.0001,-140.708 385.0001,-140.708"/>
<text text-anchor="middle" x="394.4942" y="-160" font-family="Times,serif" font-size="12.00" fill="#000000">value</text>
</g>
<!-- n12 -->
<g id="node12" class="node">
<title>n12</title>
<polygon fill="none" stroke="#000000" points="615.5,-214.8 615.5,-236.8 747.5,-236.8 747.5,-214.8 615.5,-214.8"/>
<text text-anchor="start" x="637.1753" y="-221.2" font-family="Times,serif" font-size="14.00" fill="#000000">java.lang.String</text>
<polygon fill="none" stroke="#000000" points="615.5,-192.8 615.5,-214.8 666.5,-214.8 666.5,-192.8 615.5,-192.8"/>
<text text-anchor="start" x="618.2598" y="-199.2" font-family="Times,serif" font-size="14.00" fill="#000000">coder: 0</text>
<polygon fill="none" stroke="#000000" points="666.5,-192.8 666.5,-214.8 747.5,-214.8 747.5,-192.8 666.5,-192.8"/>
<text text-anchor="start" x="669.4751" y="-199.2" font-family="Times,serif" font-size="14.00" fill="#000000">hash: 115276</text>
</g>
<!-- n11&#45;&gt;n12 -->
<g id="edge10" class="edge">
<title>n11-&gt;n12</title>
<path fill="none" stroke="#000000" d="M748.5563,-291.0952C737.2372,-278.2165 723.4444,-262.5234 711.3179,-248.7261"/>
<polygon fill="#000000" stroke="#000000" points="713.6324,-246.0578 704.4018,-240.8571 708.3745,-250.6789 713.6324,-246.0578"/>
<text text-anchor="middle" x="741.1634" y="-262.4" font-family="Times,serif" font-size="12.00" fill="#000000">key</text>
</g>
<!-- n14 -->
<g id="node14" class="node">
<title>n14</title>
<polygon fill="none" stroke="#000000" points="781.5,-214.8 781.5,-236.8 881.5,-236.8 881.5,-214.8 781.5,-214.8"/>
<text text-anchor="start" x="784.467" y="-221.2" font-family="Times,serif" font-size="14.00" fill="#000000">java.lang.Integer</text>
<polygon fill="none" stroke="#000000" points="781.5,-192.8 781.5,-214.8 881.5,-214.8 881.5,-192.8 781.5,-192.8"/>
<text text-anchor="start" x="809.1448" y="-199.2" font-family="Times,serif" font-size="14.00" fill="#000000">value: 2</text>
</g>
<!-- n11&#45;&gt;n14 -->
<g id="edge11" class="edge">
<title>n11-&gt;n14</title>
<path fill="none" stroke="#000000" d="M786.7958,-291.0952C794.2008,-278.4572 803.1939,-263.1091 811.1669,-249.5017"/>
<polygon fill="#000000" stroke="#000000" points="814.1964,-251.2546 816.2322,-240.8571 808.1568,-247.7157 814.1964,-251.2546"/>
<text text-anchor="middle" x="818.4942" y="-262.4" font-family="Times,serif" font-size="12.00" fill="#000000">value</text>
</g>
<!-- n15 -->
<g id="node15" class="node">
<title>n15</title>
<polygon fill="none" stroke="#000000" points="916.5,-214.8 916.5,-236.8 1077.5,-236.8 1077.5,-214.8 916.5,-214.8"/>
<text text-anchor="start" x="926.6311" y="-221.2" font-family="Times,serif" font-size="14.00" fill="#000000">java.util.HashMap$Node</text>
<polygon fill="none" stroke="#000000" points="916.5,-192.8 916.5,-214.8 1018.5,-214.8 1018.5,-192.8 916.5,-192.8"/>
<text text-anchor="start" x="919.4751" y="-199.2" font-family="Times,serif" font-size="14.00" fill="#000000">hash: 110338829</text>
<polygon fill="none" stroke="#000000" points="1018.5,-192.8 1018.5,-214.8 1077.5,-214.8 1077.5,-192.8 1018.5,-192.8"/>
<text text-anchor="start" x="1021.3615" y="-199.2" font-family="Times,serif" font-size="14.00" fill="#000000">next: null</text>
</g>
<!-- n11&#45;&gt;n15 -->
<g id="edge15" class="edge">
<title>n11-&gt;n15</title>
<path fill="none" stroke="#000000" d="M828.8592,-291.0952C859.6695,-277.0731 897.8107,-259.7146 929.9245,-245.0992"/>
<polygon fill="#000000" stroke="#000000" points="931.5937,-248.1851 939.2456,-240.8571 928.694,-241.8139 931.5937,-248.1851"/>
<text text-anchor="middle" x="907.8308" y="-262.4" font-family="Times,serif" font-size="12.00" fill="#000000">next</text>
</g>
<!-- n13 -->
<g id="node13" class="node">
<title>n13</title>
<polygon fill="none" stroke="#000000" points="641.5,-101.4 641.5,-123.4 668.5,-123.4 668.5,-101.4 641.5,-101.4"/>
<text text-anchor="start" x="644.5" y="-107.8" font-family="Times,serif" font-size="14.00" fill="#000000">116</text>
<polygon fill="none" stroke="#000000" points="668.5,-101.4 668.5,-123.4 695.5,-123.4 695.5,-101.4 668.5,-101.4"/>
<text text-anchor="start" x="671.5" y="-107.8" font-family="Times,serif" font-size="14.00" fill="#000000">119</text>
<polygon fill="none" stroke="#000000" points="695.5,-101.4 695.5,-123.4 722.5,-123.4 722.5,-101.4 695.5,-101.4"/>
<text text-anchor="start" x="698.5" y="-107.8" font-family="Times,serif" font-size="14.00" fill="#000000">111</text>
</g>
<!-- n12&#45;&gt;n13 -->
<g id="edge9" class="edge">
<title>n12-&gt;n13</title>
<path fill="none" stroke="#000000" d="M681.5,-188.6952C681.5,-174.1046 681.5,-155.9017 681.5,-140.9356"/>
<polygon fill="#000000" stroke="#000000" points="685.0001,-140.708 681.5,-130.708 678.0001,-140.708 685.0001,-140.708"/>
<text text-anchor="middle" x="694.4942" y="-160" font-family="Times,serif" font-size="12.00" fill="#000000">value</text>
</g>
<!-- n16 -->
<g id="node16" class="node">
<title>n16</title>
<polygon fill="none" stroke="#000000" points="810.5,-112.4 810.5,-134.4 963.5,-134.4 963.5,-112.4 810.5,-112.4"/>
<text text-anchor="start" x="842.6753" y="-118.8" font-family="Times,serif" font-size="14.00" fill="#000000">java.lang.String</text>
<polygon fill="none" stroke="#000000" points="810.5,-90.4 810.5,-112.4 861.5,-112.4 861.5,-90.4 810.5,-90.4"/>
<text text-anchor="start" x="813.2598" y="-96.8" font-family="Times,serif" font-size="14.00" fill="#000000">coder: 0</text>
<polygon fill="none" stroke="#000000" points="861.5,-90.4 861.5,-112.4 963.5,-112.4 963.5,-90.4 861.5,-90.4"/>
<text text-anchor="start" x="864.4751" y="-96.8" font-family="Times,serif" font-size="14.00" fill="#000000">hash: 110339486</text>
</g>
<!-- n15&#45;&gt;n16 -->
<g id="edge13" class="edge">
<title>n15-&gt;n16</title>
<path fill="none" stroke="#000000" d="M968.4577,-188.6952C954.3646,-175.5758 937.1341,-159.5358 922.1151,-145.5544"/>
<polygon fill="#000000" stroke="#000000" points="924.1953,-142.7091 914.4911,-138.4571 919.4257,-147.8327 924.1953,-142.7091"/>
<text text-anchor="middle" x="957.1634" y="-160" font-family="Times,serif" font-size="12.00" fill="#000000">key</text>
</g>
<!-- n18 -->
<g id="node18" class="node">
<title>n18</title>
<polygon fill="none" stroke="#000000" points="996.5,-112.4 996.5,-134.4 1096.5,-134.4 1096.5,-112.4 996.5,-112.4"/>
<text text-anchor="start" x="999.467" y="-118.8" font-family="Times,serif" font-size="14.00" fill="#000000">java.lang.Integer</text>
<polygon fill="none" stroke="#000000" points="996.5,-90.4 996.5,-112.4 1096.5,-112.4 1096.5,-90.4 996.5,-90.4"/>
<text text-anchor="start" x="1024.1448" y="-96.8" font-family="Times,serif" font-size="14.00" fill="#000000">value: 3</text>
</g>
<!-- n15&#45;&gt;n18 -->
<g id="edge14" class="edge">
<title>n15-&gt;n18</title>
<path fill="none" stroke="#000000" d="M1009.2465,-188.6952C1015.3586,-176.1776 1022.7689,-161.0012 1029.3657,-147.491"/>
<polygon fill="#000000" stroke="#000000" points="1032.5341,-148.9788 1033.7768,-138.4571 1026.2439,-145.9074 1032.5341,-148.9788"/>
<text text-anchor="middle" x="1037.4942" y="-160" font-family="Times,serif" font-size="12.00" fill="#000000">value</text>
</g>
<!-- n17 -->
<g id="node17" class="node">
<title>n17</title>
<polygon fill="none" stroke="#000000" points="819.5,-7 819.5,-29 846.5,-29 846.5,-7 819.5,-7"/>
<text text-anchor="start" x="822.5" y="-13.4" font-family="Times,serif" font-size="14.00" fill="#000000">116</text>
<polygon fill="none" stroke="#000000" points="846.5,-7 846.5,-29 873.5,-29 873.5,-7 846.5,-7"/>
<text text-anchor="start" x="849.5" y="-13.4" font-family="Times,serif" font-size="14.00" fill="#000000">104</text>
<polygon fill="none" stroke="#000000" points="873.5,-7 873.5,-29 900.5,-29 900.5,-7 873.5,-7"/>
<text text-anchor="start" x="876.5" y="-13.4" font-family="Times,serif" font-size="14.00" fill="#000000">114</text>
<polygon fill="none" stroke="#000000" points="900.5,-7 900.5,-29 927.5,-29 927.5,-7 900.5,-7"/>
<text text-anchor="start" x="903.5" y="-13.4" font-family="Times,serif" font-size="14.00" fill="#000000">101</text>
<polygon fill="none" stroke="#000000" points="927.5,-7 927.5,-29 954.5,-29 954.5,-7 927.5,-7"/>
<text text-anchor="start" x="930.5" y="-13.4" font-family="Times,serif" font-size="14.00" fill="#000000">101</text>
</g>
<!-- n16&#45;&gt;n17 -->
<g id="edge12" class="edge">
<title>n16-&gt;n17</title>
<path fill="none" stroke="#000000" d="M886.5,-86.3549C886.5,-73.9052 886.5,-58.9798 886.5,-46.2562"/>
<polygon fill="#000000" stroke="#000000" points="890.0001,-46.189 886.5,-36.189 883.0001,-46.1891 890.0001,-46.189"/>
<text text-anchor="middle" x="899.4942" y="-57.6" font-family="Times,serif" font-size="12.00" fill="#000000">value</text>
</g>
</g>
</svg>