<?xml version="1.0" encoding="UTF-8" standalone="no"?>
<!DOCTYPE svg PUBLIC "-//W3C//DTD SVG 1.1//EN" "http://www.w3.org/Graphics/SVG/1.1/DTD/svg11.dtd">
<!-- Generated by graphviz version 2.40.1 (20161225.0304)
 -->
<!-- Title: Java Pages: 1 -->
<svg width="1446pt" height="1154pt" viewBox="0.00 0.00 1445.50 1154.40" xmlns="http://www.w3.org/2000/svg" xmlns:xlink="http://www.w3.org/1999/xlink">
<g id="graph0" class="graph" transform="scale(1 1) rotate(0) translate(4 1150.4)">
<title>Java</title>
<polygon fill="#ffffff" stroke="transparent" points="-4,4 -4,-1150.4 1441.5,-1150.4 1441.5,4 -4,4"/>
<!-- n1 -->
<g id="node1" class="node">
<title>n1</title>
<polygon fill="none" stroke="#000000" points="172.5,-1120.4 172.5,-1142.4 550.5,-1142.4 550.5,-1120.4 172.5,-1120.4"/>
<text text-anchor="start" x="309.7917" y="-1126.8" font-family="Times,serif" font-size="14.00" fill="#000000">java.util.HashMap</text>
<polygon fill="none" stroke="#000000" points="172.5,-1098.4 172.5,-1120.4 253.5,-1120.4 253.5,-1098.4 172.5,-1098.4"/>
<text text-anchor="start" x="175.0873" y="-1104.8" font-family="Times,serif" font-size="14.00" fill="#000000">entrySet: null</text>
<polygon fill="none" stroke="#000000" points="253.5,-1098.4 253.5,-1120.4 295.5,-1120.4 295.5,-1098.4 253.5,-1098.4"/>
<text text-anchor="start" x="256.4225" y="-1104.8" font-family="Times,serif" font-size="14.00" fill="#000000">size: 8</text>
<polygon fill="none" stroke="#000000" points="295.5,-1098.4 295.5,-1120.4 374.5,-1120.4 374.5,-1098.4 295.5,-1098.4"/>
<text text-anchor="start" x="298.2458" y="-1104.8" font-family="Times,serif" font-size="14.00" fill="#000000">modCount: 8</text>
<polygon fill="none" stroke="#000000" points="374.5,-1098.4 374.5,-1120.4 453.5,-1120.4 453.5,-1098.4 374.5,-1098.4"/>
<text text-anchor="start" x="377.2542" y="-1104.8" font-family="Times,serif" font-size="14.00" fill="#000000">threshold: 12</text>
<polygon fill="none" stroke="#000000" points="453.5,-1098.4 453.5,-1120.4 550.5,-1120.4 550.5,-1098.4 453.5,-1098.4"/>
<text text-anchor="start" x="456.1206" y="-1104.8" font-family="Times,serif" font-size="14.00" fill="#000000">loadFactor: 0.75</text>
</g>
<!-- n2 -->
<g id="node2" class="node">
<title>n2</title>
<polygon fill="none" stroke="#000000" points="201.5,-1016 201.5,-1036 221.5,-1036 221.5,-1016 201.5,-1016"/>
<polygon fill="none" stroke="#000000" points="221.5,-1016 221.5,-1036 241.5,-1036 241.5,-1016 221.5,-1016"/>
<polygon fill="none" stroke="#000000" points="241.5,-1016 241.5,-1036 261.5,-1036 261.5,-1016 241.5,-1016"/>
<polygon fill="none" stroke="#000000" points="261.5,-1016 261.5,-1036 281.5,-1036 281.5,-1016 261.5,-1016"/>
<polygon fill="none" stroke="#000000" points="281.5,-1016 281.5,-1036 301.5,-1036 301.5,-1016 281.5,-1016"/>
<polygon fill="none" stroke="#000000" points="301.5,-1016 301.5,-1036 321.5,-1036 321.5,-1016 301.5,-1016"/>
<polygon fill="none" stroke="#000000" points="321.5,-1016 321.5,-1036 341.5,-1036 341.5,-1016 321.5,-1016"/>
<polygon fill="none" stroke="#000000" points="341.5,-1016 341.5,-1036 361.5,-1036 361.5,-1016 341.5,-1016"/>
<polygon fill="none" stroke="#000000" points="361.5,-1016 361.5,-1036 381.5,-1036 381.5,-1016 361.5,-1016"/>
<polygon fill="none" stroke="#000000" points="381.5,-1016 381.5,-1036 401.5,-1036 401.5,-1016 381.5,-1016"/>
<polygon fill="none" stroke="#000000" points="401.5,-1016 401.5,-1036 421.5,-1036 421.5,-1016 401.5,-1016"/>
<polygon fill="none" stroke="#000000" points="421.5,-1016 421.5,-1036 441.5,-1036 441.5,-1016 421.5,-1016"/>
<polygon fill="none" stroke="#000000" points="441.5,-1016 441.5,-1036 461.5,-1036 461.5,-1016 441.5,-1016"/>
<polygon fill="none" stroke="#000000" points="461.5,-1016 461.5,-1036 481.5,-1036 481.5,-1016 461.5,-1016"/>
<polygon fill="none" stroke="#000000" points="481.5,-1016 481.5,-1036 501.5,-1036 501.5,-1016 481.5,-1016"/>
<polygon fill="none" stroke="#000000" points="501.5,-1016 501.5,-1036 521.5,-1036 521.5,-1016 501.5,-1016"/>
</g>
<!-- n1&#45;&gt;n2 -->
<g id="edge33" class="edge">
<title>n1-&gt;n2</title>
<path fill="none" stroke="#000000" d="M361.5,-1094.3549C361.5,-1081.9052 361.5,-1066.9798 361.5,-1054.2562"/>
<polygon fill="#000000" stroke="#000000" points="365.0001,-1054.189 361.5,-1044.189 358.0001,-1054.1891 365.0001,-1054.189"/>
<text text-anchor="middle" x="373.1616" y="-1065.6" font-family="Times,serif" font-size="12.00" fill="#000000">table</text>
</g>
<!-- n3 -->
<g id="node3" class="node">
<title>n3</title>
<polygon fill="none" stroke="#000000" points="158.5,-931.6 158.5,-953.6 304.5,-953.6 304.5,-931.6 158.5,-931.6"/>
<text text-anchor="start" x="161.1311" y="-938" font-family="Times,serif" font-size="14.00" fill="#000000">java.util.HashMap$Node</text>
<polygon fill="none" stroke="#000000" points="158.5,-909.6 158.5,-931.6 304.5,-931.6 304.5,-909.6 158.5,-909.6"/>
<text text-anchor="start" x="190.4751" y="-916" font-family="Times,serif" font-size="14.00" fill="#000000">hash: 2097153</text>
</g>
<!-- n2&#45;&gt;n3 -->
<g id="edge32" class="edge">
<title>n2:f1-&gt;n3</title>
<path fill="none" stroke="#000000" d="M231.5,-1016C231.5,-1000.3181 231.5,-982.9972 231.5,-968.1485"/>
<polygon fill="#000000" stroke="#000000" points="235.0001,-967.832 231.5,-957.832 228.0001,-967.8321 235.0001,-967.832"/>
<text text-anchor="middle" x="234.5" y="-979.2" font-family="Times,serif" font-size="12.00" fill="#000000">1</text>
</g>
<!-- n4 -->
<g id="node4" class="node">
<title>n4</title>
<polygon fill="none" stroke="#000000" points="8.5,-829.2 8.5,-851.2 147.5,-851.2 147.5,-829.2 8.5,-829.2"/>
<text text-anchor="start" x="33.6753" y="-835.6" font-family="Times,serif" font-size="14.00" fill="#000000">java.lang.String</text>
<polygon fill="none" stroke="#000000" points="8.5,-807.2 8.5,-829.2 59.5,-829.2 59.5,-807.2 8.5,-807.2"/>
<text text-anchor="start" x="11.2598" y="-813.6" font-family="Times,serif" font-size="14.00" fill="#000000">coder: 0</text>
<polygon fill="none" stroke="#000000" points="59.5,-807.2 59.5,-829.2 147.5,-829.2 147.5,-807.2 59.5,-807.2"/>
<text text-anchor="start" x="62.4751" y="-813.6" font-family="Times,serif" font-size="14.00" fill="#000000">hash: 2097185</text>
</g>
<!-- n3&#45;&gt;n4 -->
<g id="edge2" class="edge">
<title>n3-&gt;n4</title>
<path fill="none" stroke="#000000" d="M192.2408,-905.4952C171.7864,-891.8943 146.6114,-875.1546 125.0592,-860.8238"/>
<polygon fill="#000000" stroke="#000000" points="126.9526,-857.8797 116.6875,-855.2571 123.0767,-863.7087 126.9526,-857.8797"/>
<text text-anchor="middle" x="173.1634" y="-876.8" font-family="Times,serif" font-size="12.00" fill="#000000">key</text>
</g>
<!-- n6 -->
<g id="node6" class="node">
<title>n6</title>
<polygon fill="none" stroke="#000000" points="181.5,-829.2 181.5,-851.2 281.5,-851.2 281.5,-829.2 181.5,-829.2"/>
<text text-anchor="start" x="184.467" y="-835.6" font-family="Times,serif" font-size="14.00" fill="#000000">java.lang.Integer</text>
<polygon fill="none" stroke="#000000" points="181.5,-807.2 181.5,-829.2 281.5,-829.2 281.5,-807.2 181.5,-807.2"/>
<text text-anchor="start" x="209.1448" y="-813.6" font-family="Times,serif" font-size="14.00" fill="#000000">value: 0</text>
</g>
<!-- n3&#45;&gt;n6 -->
<g id="edge3" class="edge">
<title>n3-&gt;n6</title>
<path fill="none" stroke="#000000" d="M231.5,-905.4952C231.5,-893.3387 231.5,-878.6745 231.5,-865.4642"/>
<polygon fill="#000000" stroke="#000000" points="235.0001,-865.2571 231.5,-855.2571 228.0001,-865.2572 235.0001,-865.2571"/>
<text text-anchor="middle" x="244.4942" y="-876.8" font-family="Times,serif" font-size="12.00" fill="#000000">value</text>
</g>
<!-- n7 -->
<g id="node7" class="node">
<title>n7</title>
<polygon fill="none" stroke="#000000" points="315.5,-829.2 315.5,-851.2 461.5,-851.2 461.5,-829.2 315.5,-829.2"/>
<text text-anchor="start" x="318.1311" y="-835.6" font-family="Times,serif" font-size="14.00" fill="#000000">java.util.HashMap$Node</text>
<polygon fill="none" stroke="#000000" points="315.5,-807.2 315.5,-829.2 461.5,-829.2 461.5,-807.2 315.5,-807.2"/>
<text text-anchor="start" x="347.4751" y="-813.6" font-family="Times,serif" font-size="14.00" fill="#000000">hash: 2097153</text>
</g>
<!-- n3&#45;&gt;n7 -->
<g id="edge31" class="edge">
<title>n3-&gt;n7</title>
<path fill="none" stroke="#000000" d="M271.524,-905.4952C292.3769,-891.8943 318.0423,-875.1546 340.0143,-860.8238"/>
<polygon fill="#000000" stroke="#000000" points="342.0853,-863.6517 348.5491,-855.2571 338.2612,-857.7886 342.0853,-863.6517"/>
<text text-anchor="middle" x="329.8308" y="-876.8" font-family="Times,serif" font-size="12.00" fill="#000000">next</text>
</g>
<!-- n5 -->
<g id="node5" class="node">
<title>n5</title>
<polygon fill="none" stroke="#000000" points="34.5,-715.8 34.5,-737.8 54.5,-737.8 54.5,-715.8 34.5,-715.8"/>
<text text-anchor="start" x="37.5" y="-722.2" font-family="Times,serif" font-size="14.00" fill="#000000">67</text>
<polygon fill="none" stroke="#000000" points="54.5,-715.8 54.5,-737.8 81.5,-737.8 81.5,-715.8 54.5,-715.8"/>
<text text-anchor="start" x="57.5" y="-722.2" font-family="Times,serif" font-size="14.00" fill="#000000">102</text>
<polygon fill="none" stroke="#000000" points="81.5,-715.8 81.5,-737.8 101.5,-737.8 101.5,-715.8 81.5,-715.8"/>
<text text-anchor="start" x="84.5" y="-722.2" font-family="Times,serif" font-size="14.00" fill="#000000">99</text>
<polygon fill="none" stroke="#000000" points="101.5,-715.8 101.5,-737.8 121.5,-737.8 121.5,-715.8 101.5,-715.8"/>
<text text-anchor="start" x="104.5" y="-722.2" font-family="Times,serif" font-size="14.00" fill="#000000">97</text>
</g>
<!-- n4&#45;&gt;n5 -->
<g id="edge1" class="edge">
<title>n4-&gt;n5</title>
<path fill="none" stroke="#000000" d="M77.5,-803.0952C77.5,-788.5046 77.5,-770.3017 77.5,-755.3356"/>
<polygon fill="#000000" stroke="#000000" points="81.0001,-755.108 77.5,-745.108 74.0001,-755.108 81.0001,-755.108"/>
<text text-anchor="middle" x="90.4942" y="-774.4" font-family="Times,serif" font-size="12.00" fill="#000000">value</text>
</g>
<!-- n8 -->
<g id="node8" class="node">
<title>n8</title>
<polygon fill="none" stroke="#000000" points="165.5,-726.8 165.5,-748.8 304.5,-748.8 304.5,-726.8 165.5,-726.8"/>
<text text-anchor="start" x="190.6753" y="-733.2" font-family="Times,serif" font-size="14.00" fill="#000000">java.lang.String</text>
<polygon fill="none" stroke="#000000" points="165.5,-704.8 165.5,-726.8 216.5,-726.8 216.5,-704.8 165.5,-704.8"/>
<text text-anchor="start" x="168.2598" y="-711.2" font-family="Times,serif" font-size="14.00" fill="#000000">coder: 0</text>
<polygon fill="none" stroke="#000000" points="216.5,-704.8 216.5,-726.8 304.5,-726.8 304.5,-704.8 216.5,-704.8"/>
<text text-anchor="start" x="219.4751" y="-711.2" font-family="Times,serif" font-size="14.00" fill="#000000">hash: 2097185</text>
</g>
<!-- n7&#45;&gt;n8 -->
<g id="edge5" class="edge">
<title>n7-&gt;n8</title>
<path fill="none" stroke="#000000" d="M349.2408,-803.0952C328.7864,-789.4943 303.6114,-772.7546 282.0592,-758.4238"/>
<polygon fill="#000000" stroke="#000000" points="283.9526,-755.4797 273.6875,-752.8571 280.0767,-761.3087 283.9526,-755.4797"/>
<text text-anchor="middle" x="330.1634" y="-774.4" font-family="Times,serif" font-size="12.00" fill="#000000">key</text>
</g>
<!-- n10 -->
<g id="node10" class="node">
<title>n10</title>
<polygon fill="none" stroke="#000000" points="338.5,-726.8 338.5,-748.8 438.5,-748.8 438.5,-726.8 338.5,-726.8"/>
<text text-anchor="start" x="341.467" y="-733.2" font-family="Times,serif" font-size="14.00" fill="#000000">java.lang.Integer</text>
<polygon fill="none" stroke="#000000" points="338.5,-704.8 338.5,-726.8 438.5,-726.8 438.5,-704.8 338.5,-704.8"/>
<text text-anchor="start" x="366.1448" y="-711.2" font-family="Times,serif" font-size="14.00" fill="#000000">value: 1</text>
</g>
<!-- n7&#45;&gt;n10 -->
<g id="edge6" class="edge">
<title>n7-&gt;n10</title>
<path fill="none" stroke="#000000" d="M388.5,-803.0952C388.5,-790.9387 388.5,-776.2745 388.5,-763.0642"/>
<polygon fill="#000000" stroke="#000000" points="392.0001,-762.8571 388.5,-752.8571 385.0001,-762.8572 392.0001,-762.8571"/>
<text text-anchor="middle" x="401.4942" y="-774.4" font-family="Times,serif" font-size="12.00" fill="#000000">value</text>
</g>
<!-- n11 -->
<g id="node11" class="node">
<title>n11</title>
<polygon fill="none" stroke="#000000" points="472.5,-726.8 472.5,-748.8 618.5,-748.8 618.5,-726.8 472.5,-726.8"/>
<text text-anchor="start" x="475.1311" y="-733.2" font-family="Times,serif" font-size="14.00" fill="#000000">java.util.HashMap$Node</text>
<polygon fill="none" stroke="#000000" points="472.5,-704.8 472.5,-726.8 618.5,-726.8 618.5,-704.8 472.5,-704.8"/>
<text text-anchor="start" x="504.4751" y="-711.2" font-family="Times,serif" font-size="14.00" fill="#000000">hash: 2097153</text>
</g>
<!-- n7&#45;&gt;n11 -->
<g id="edge30" class="edge">
<title>n7-&gt;n11</title>
<path fill="none" stroke="#000000" d="M428.524,-803.0952C449.3769,-789.4943 475.0423,-772.7546 497.0143,-758.4238"/>
<polygon fill="#000000" stroke="#000000" points="499.0853,-761.2517 505.5491,-752.8571 495.2612,-755.3886 499.0853,-761.2517"/>
<text text-anchor="middle" x="486.8308" y="-774.4" font-family="Times,serif" font-size="12.00" fill="#000000">next</text>
</g>
<!-- n9 -->
<g id="node9" class="node">
<title>n9</title>
<polygon fill="none" stroke="#000000" points="187.5,-613.4 187.5,-635.4 207.5,-635.4 207.5,-613.4 187.5,-613.4"/>
<text text-anchor="start" x="190.5" y="-619.8" font-family="Times,serif" font-size="14.00" fill="#000000">67</text>
<polygon fill="none" stroke="#000000" points="207.5,-613.4 207.5,-635.4 234.5,-635.4 234.5,-613.4 207.5,-613.4"/>
<text text-anchor="start" x="210.5" y="-619.8" font-family="Times,serif" font-size="14.00" fill="#000000">102</text>
<polygon fill="none" stroke="#000000" points="234.5,-613.4 234.5,-635.4 261.5,-635.4 261.5,-613.4 234.5,-613.4"/>
<text text-anchor="start" x="237.5" y="-619.8" font-family="Times,serif" font-size="14.00" fill="#000000">100</text>
<polygon fill="none" stroke="#000000" points="261.5,-613.4 261.5,-635.4 281.5,-635.4 281.5,-613.4 261.5,-613.4"/>
<text text-anchor="start" x="264.5" y="-619.8" font-family="Times,serif" font-size="14.00" fill="#000000">66</text>
</g>
<!-- n8&#45;&gt;n9 -->
<g id="edge4" class="edge">
<title>n8-&gt;n9</title>
<path fill="none" stroke="#000000" d="M234.5,-700.6952C234.5,-686.1046 234.5,-667.9017 234.5,-652.9356"/>
<polygon fill="#000000" stroke="#000000" points="238.0001,-652.708 234.5,-642.708 231.0001,-652.708 238.0001,-652.708"/>
<text text-anchor="middle" x="247.4942" y="-672" font-family="Times,serif" font-size="12.00" fill="#000000">value</text>
</g>
<!-- n12 -->
<g id="node12" class="node">
<title>n12</title>
<polygon fill="none" stroke="#000000" points="322.5,-624.4 322.5,-646.4 461.5,-646.4 461.5,-624.4 322.5,-624.4"/>
<text text-anchor="start" x="347.6753" y="-630.8" font-family="Times,serif" font-size="14.00" fill="#000000">java.lang.String</text>
<polygon fill="none" stroke="#000000" points="322.5,-602.4 322.5,-624.4 373.5,-624.4 373.5,-602.4 322.5,-602.4"/>
<text text-anchor="start" x="325.2598" y="-608.8" font-family="Times,serif" font-size="14.00" fill="#000000">coder: 0</text>
<polygon fill="none" stroke="#000000" points="373.5,-602.4 373.5,-624.4 461.5,-624.4 461.5,-602.4 373.5,-602.4"/>
<text text-anchor="start" x="376.4751" y="-608.8" font-family="Times,serif" font-size="14.00" fill="#000000">hash: 2097185</text>
</g>
<!-- n11&#45;&gt;n12 -->
<g id="edge8" class="edge">
<title>n11-&gt;n12</title>
<path fill="none" stroke="#000000" d="M506.2408,-700.6952C485.7864,-687.0943 460.6114,-670.3546 439.0592,-656.0238"/>
<polygon fill="#000000" stroke="#000000" points="440.9526,-653.0797 430.6875,-650.4571 437.0767,-658.9087 440.9526,-653.0797"/>
<text text-anchor="middle" x="487.1634" y="-672" font-family="Times,serif" font-size="12.00" fill="#000000">key</text>
</g>
<!-- n14 -->
<g id="node14" class="node">
<title>n14</title>
<polygon fill="none" stroke="#000000" points="495.5,-624.4 495.5,-646.4 595.5,-646.4 595.5,-624.4 495.5,-624.4"/>
<text text-anchor="start" x="498.467" y="-630.8" font-family="Times,serif" font-size="14.00" fill="#000000">java.lang.Integer</text>
<polygon fill="none" stroke="#000000" points="495.5,-602.4 495.5,-624.4 595.5,-624.4 595.5,-602.4 495.5,-602.4"/>
<text text-anchor="start" x="523.1448" y="-608.8" font-family="Times,serif" font-size="14.00" fill="#000000">value: 2</text>
</g>
<!-- n11&#45;&gt;n14 -->
<g id="edge9" class="edge">
<title>n11-&gt;n14</title>
<path fill="none" stroke="#000000" d="M545.5,-700.6952C545.5,-688.5387 545.5,-673.8745 545.5,-660.6642"/>
<polygon fill="#000000" stroke="#000000" points="549.0001,-660.4571 545.5,-650.4571 542.0001,-660.4572 549.0001,-660.4571"/>
<text text-anchor="middle" x="558.4942" y="-672" font-family="Times,serif" font-size="12.00" fill="#000000">value</text>
</g>
<!-- n15 -->
<g id="node15" class="node">
<title>n15</title>
<polygon fill="none" stroke="#000000" points="629.5,-624.4 629.5,-646.4 775.5,-646.4 775.5,-624.4 629.5,-624.4"/>
<text text-anchor="start" x="632.1311" y="-630.8" font-family="Times,serif" font-size="14.00" fill="#000000">java.util.HashMap$Node</text>
<polygon fill="none" stroke="#000000" points="629.5,-602.4 629.5,-624.4 775.5,-624.4 775.5,-602.4 629.5,-602.4"/>
<text text-anchor="start" x="661.4751" y="-608.8" font-family="Times,serif" font-size="14.00" fill="#000000">hash: 2097153</text>
</g>
<!-- n11&#45;&gt;n15 -->
<g id="edge29" class="edge">
<title>n11-&gt;n15</title>
<path fill="none" stroke="#000000" d="M585.524,-700.6952C606.3769,-687.0943 632.0423,-670.3546 654.0143,-656.0238"/>
<polygon fill="#000000" stroke="#000000" points="656.0853,-658.8517 662.5491,-650.4571 652.2612,-652.9886 656.0853,-658.8517"/>
<text text-anchor="middle" x="643.8308" y="-672" font-family="Times,serif" font-size="12.00" fill="#000000">next</text>
</g>
<!-- n13 -->
<g id="node13" class="node">
<title>n13</title>
<polygon fill="none" stroke="#000000" points="348.5,-511 348.5,-533 368.5,-533 368.5,-511 348.5,-511"/>
<text text-anchor="start" x="351.5" y="-517.4" font-family="Times,serif" font-size="14.00" fill="#000000">67</text>
<polygon fill="none" stroke="#000000" points="368.5,-511 368.5,-533 395.5,-533 395.5,-511 368.5,-511"/>
<text text-anchor="start" x="371.5" y="-517.4" font-family="Times,serif" font-size="14.00" fill="#000000">103</text>
<polygon fill="none" stroke="#000000" points="395.5,-511 395.5,-533 415.5,-533 415.5,-511 395.5,-511"/>
<text text-anchor="start" x="398.5" y="-517.4" font-family="Times,serif" font-size="14.00" fill="#000000">68</text>
<polygon fill="none" stroke="#000000" points="415.5,-511 415.5,-533 435.5,-533 435.5,-511 415.5,-511"/>
<text text-anchor="start" x="418.5" y="-517.4" font-family="Times,serif" font-size="14.00" fill="#000000">97</text>
</g>
<!-- n12&#45;&gt;n13 -->
<g id="edge7" class="edge">
<title>n12-&gt;n13</title>
<path fill="none" stroke="#000000" d="M391.5,-598.2952C391.5,-583.7046 391.5,-565.5017 391.5,-550.5356"/>
<polygon fill="#000000" stroke="#000000" points="395.0001,-550.308 391.5,-540.308 388.0001,-550.308 395.0001,-550.308"/>
<text text-anchor="middle" x="404.4942" y="-569.6" font-family="Times,serif" font-size="12.00" fill="#000000">value</text>
</g>
<!-- n16 -->
<g id="node16" class="node">
<title>n16</title>
<polygon fill="none" stroke="#000000" points="479.5,-522 479.5,-544 618.5,-544 618.5,-522 479.5,-522"/>
<text text-anchor="start" x="504.6753" y="-528.4" font-family="Times,serif" font-size="14.00" fill="#000000">java.lang.String</text>
<polygon fill="none" stroke="#000000" points="479.5,-500 479.5,-522 530.5,-522 530.5,-500 479.5,-500"/>
<text text-anchor="start" x="482.2598" y="-506.4" font-family="Times,serif" font-size="14.00" fill="#000000">coder: 0</text>
<polygon fill="none" stroke="#000000" points="530.5,-500 530.5,-522 618.5,-522 618.5,-500 530.5,-500"/>
<text text-anchor="start" x="533.4751" y="-506.4" font-family="Times,serif" font-size="14.00" fill="#000000">hash: 2097185</text>
</g>
<!-- n15&#45;&gt;n16 -->
<g id="edge11" class="edge">
<title>n15-&gt;n16</title>
<path fill="none" stroke="#000000" d="M663.2408,-598.2952C642.7864,-584.6943 617.6114,-567.9546 596.0592,-553.6238"/>
<polygon fill="#000000" stroke="#000000" points="597.9526,-550.6797 587.6875,-548.0571 594.0767,-556.5087 597.9526,-550.6797"/>
<text text-anchor="middle" x="644.1634" y="-569.6" font-family="Times,serif" font-size="12.00" fill="#000000">key</text>
</g>
<!-- n18 -->
<g id="node18" class="node">
<title>n18</title>
<polygon fill="none" stroke="#000000" points="652.5,-522 652.5,-544 752.5,-544 752.5,-522 652.5,-522"/>
<text text-anchor="start" x="655.467" y="-528.4" font-family="Times,serif" font-size="14.00" fill="#000000">java.lang.Integer</text>
<polygon fill="none" stroke="#000000" points="652.5,-500 652.5,-522 752.5,-522 752.5,-500 652.5,-500"/>
<text text-anchor="start" x="680.1448" y="-506.4" font-family="Times,serif" font-size="14.00" fill="#000000">value: 3</text>
</g>
<!-- n15&#45;&gt;n18 -->
<g id="edge12" class="edge">
<title>n15-&gt;n18</title>
<path fill="none" stroke="#000000" d="M702.5,-598.2952C702.5,-586.1387 702.5,-571.4745 702.5,-558.2642"/>
<polygon fill="#000000" stroke="#000000" points="706.0001,-558.0571 702.5,-548.0571 699.0001,-558.0572 706.0001,-558.0571"/>
<text text-anchor="middle" x="715.4942" y="-569.6" font-family="Times,serif" font-size="12.00" fill="#000000">value</text>
</g>
<!-- n19 -->
<g id="node19" class="node">
<title>n19</title>
<polygon fill="none" stroke="#000000" points="786.5,-522 786.5,-544 932.5,-544 932.5,-522 786.5,-522"/>
<text text-anchor="start" x="789.1311" y="-528.4" font-family="Times,serif" font-size="14.00" fill="#000000">java.util.HashMap$Node</text>
<polygon fill="none" stroke="#000000" points="786.5,-500 786.5,-522 932.5,-522 932.5,-500 786.5,-500"/>
<text text-anchor="start" x="818.4751" y="-506.4" font-family="Times,serif" font-size="14.00" fill="#000000">hash: 2097153</text>
</g>
<!-- n15&#45;&gt;n19 -->
<g id="edge28" class="edge">
<title>n15-&gt;n19</title>
<path fill="none" stroke="#000000" d="M742.524,-598.2952C763.3769,-584.6943 789.0423,-567.9546 811.0143,-553.6238"/>
<polygon fill="#000000" stroke="#000000" points="813.0853,-556.4517 819.5491,-548.0571 809.2612,-550.5886 813.0853,-556.4517"/>
<text text-anchor="middle" x="800.8308" y="-569.6" font-family="Times,serif" font-size="12.00" fill="#000000">next</text>
</g>
<!-- n17 -->
<g id="node17" class="node">
<title>n17</title>
<polygon fill="none" stroke="#000000" points="505.5,-408.6 505.5,-430.6 525.5,-430.6 525.5,-408.6 505.5,-408.6"/>
<text text-anchor="start" x="508.5" y="-415" font-family="Times,serif" font-size="14.00" fill="#000000">67</text>
<polygon fill="none" stroke="#000000" points="525.5,-408.6 525.5,-430.6 552.5,-430.6 552.5,-408.6 525.5,-408.6"/>
<text text-anchor="start" x="528.5" y="-415" font-family="Times,serif" font-size="14.00" fill="#000000">103</text>
<polygon fill="none" stroke="#000000" points="552.5,-408.6 552.5,-430.6 572.5,-430.6 572.5,-408.6 552.5,-408.6"/>
<text text-anchor="start" x="555.5" y="-415" font-family="Times,serif" font-size="14.00" fill="#000000">69</text>
<polygon fill="none" stroke="#000000" points="572.5,-408.6 572.5,-430.6 592.5,-430.6 592.5,-408.6 572.5,-408.6"/>
<text text-anchor="start" x="575.5" y="-415" font-family="Times,serif" font-size="14.00" fill="#000000">66</text>
</g>
<!-- n16&#45;&gt;n17 -->
<g id="edge10" class="edge">
<title>n16-&gt;n17</title>
<path fill="none" stroke="#000000" d="M548.5,-495.8952C548.5,-481.3046 548.5,-463.1017 548.5,-448.1356"/>
<polygon fill="#000000" stroke="#000000" points="552.0001,-447.908 548.5,-437.908 545.0001,-447.908 552.0001,-447.908"/>
<text text-anchor="middle" x="561.4942" y="-467.2" font-family="Times,serif" font-size="12.00" fill="#000000">value</text>
</g>
<!-- n20 -->
<g id="node20" class="node">
<title>n20</title>
<polygon fill="none" stroke="#000000" points="636.5,-419.6 636.5,-441.6 775.5,-441.6 775.5,-419.6 636.5,-419.6"/>
<text text-anchor="start" x="661.6753" y="-426" font-family="Times,serif" font-size="14.00" fill="#000000">java.lang.String</text>
<polygon fill="none" stroke="#000000" points="636.5,-397.6 636.5,-419.6 687.5,-419.6 687.5,-397.6 636.5,-397.6"/>
<text text-anchor="start" x="639.2598" y="-404" font-family="Times,serif" font-size="14.00" fill="#000000">coder: 0</text>
<polygon fill="none" stroke="#000000" points="687.5,-397.6 687.5,-419.6 775.5,-419.6 775.5,-397.6 687.5,-397.6"/>
<text text-anchor="start" x="690.4751" y="-404" font-family="Times,serif" font-size="14.00" fill="#000000">hash: 2097185</text>
</g>
<!-- n19&#45;&gt;n20 -->
<g id="edge14" class="edge">
<title>n19-&gt;n20</title>
<path fill="none" stroke="#000000" d="M820.2408,-495.8952C799.7864,-482.2943 774.6114,-465.5546 753.0592,-451.2238"/>
<polygon fill="#000000" stroke="#000000" points="754.9526,-448.2797 744.6875,-445.6571 751.0767,-454.1087 754.9526,-448.2797"/>
<text text-anchor="middle" x="801.1634" y="-467.2" font-family="Times,serif" font-size="12.00" fill="#000000">key</text>
</g>
<!-- n22 -->
<g id="node22" class="node">
<title>n22</title>
<polygon fill="none" stroke="#000000" points="809.5,-419.6 809.5,-441.6 909.5,-441.6 909.5,-419.6 809.5,-419.6"/>
<text text-anchor="start" x="812.467" y="-426" font-family="Times,serif" font-size="14.00" fill="#000000">java.lang.Integer</text>
<polygon fill="none" stroke="#000000" points="809.5,-397.6 809.5,-419.6 909.5,-419.6 909.5,-397.6 809.5,-397.6"/>
<text text-anchor="start" x="837.1448" y="-404" font-family="Times,serif" font-size="14.00" fill="#000000">value: 4</text>
</g>
<!-- n19&#45;&gt;n22 -->
<g id="edge15" class="edge">
<title>n19-&gt;n22</title>
<path fill="none" stroke="#000000" d="M859.5,-495.8952C859.5,-483.7387 859.5,-469.0745 859.5,-455.8642"/>
<polygon fill="#000000" stroke="#000000" points="863.0001,-455.6571 859.5,-445.6571 856.0001,-455.6572 863.0001,-455.6571"/>
<text text-anchor="middle" x="872.4942" y="-467.2" font-family="Times,serif" font-size="12.00" fill="#000000">value</text>
</g>
<!-- n23 -->
<g id="node23" class="node">
<title>n23</title>
<polygon fill="none" stroke="#000000" points="943.5,-419.6 943.5,-441.6 1089.5,-441.6 1089.5,-419.6 943.5,-419.6"/>
<text text-anchor="start" x="946.1311" y="-426" font-family="Times,serif" font-size="14.00" fill="#000000">java.util.HashMap$Node</text>
<polygon fill="none" stroke="#000000" points="943.5,-397.6 943.5,-419.6 1089.5,-419.6 1089.5,-397.6 943.5,-397.6"/>
<text text-anchor="start" x="975.4751" y="-404" font-family="Times,serif" font-size="14.00" fill="#000000">hash: 2097153</text>
</g>
<!-- n19&#45;&gt;n23 -->
<g id="edge27" class="edge">
<title>n19-&gt;n23</title>
<path fill="none" stroke="#000000" d="M899.524,-495.8952C920.3769,-482.2943 946.0423,-465.5546 968.0143,-451.2238"/>
<polygon fill="#000000" stroke="#000000" points="970.0853,-454.0517 976.5491,-445.6571 966.2612,-448.1886 970.0853,-454.0517"/>
<text text-anchor="middle" x="957.8308" y="-467.2" font-family="Times,serif" font-size="12.00" fill="#000000">next</text>
</g>
<!-- n21 -->
<g id="node21" class="node">
<title>n21</title>
<polygon fill="none" stroke="#000000" points="665.5,-306.2 665.5,-328.2 685.5,-328.2 685.5,-306.2 665.5,-306.2"/>
<text text-anchor="start" x="668.5" y="-312.6" font-family="Times,serif" font-size="14.00" fill="#000000">68</text>
<polygon fill="none" stroke="#000000" points="685.5,-306.2 685.5,-328.2 705.5,-328.2 705.5,-306.2 685.5,-306.2"/>
<text text-anchor="start" x="688.5" y="-312.6" font-family="Times,serif" font-size="14.00" fill="#000000">71</text>
<polygon fill="none" stroke="#000000" points="705.5,-306.2 705.5,-328.2 725.5,-328.2 725.5,-306.2 705.5,-306.2"/>
<text text-anchor="start" x="708.5" y="-312.6" font-family="Times,serif" font-size="14.00" fill="#000000">99</text>
<polygon fill="none" stroke="#000000" points="725.5,-306.2 725.5,-328.2 745.5,-328.2 745.5,-306.2 725.5,-306.2"/>
<text text-anchor="start" x="728.5" y="-312.6" font-family="Times,serif" font-size="14.00" fill="#000000">97</text>
</g>
<!-- n20&#45;&gt;n21 -->
<g id="edge13" class="edge">
<title>n20-&gt;n21</title>
<path fill="none" stroke="#000000" d="M705.5,-393.4952C705.5,-378.9046 705.5,-360.7017 705.5,-345.7356"/>
<polygon fill="#000000" stroke="#000000" points="709.0001,-345.508 705.5,-335.508 702.0001,-345.508 709.0001,-345.508"/>
<text text-anchor="middle" x="718.4942" y="-364.8" font-family="Times,serif" font-size="12.00" fill="#000000">value</text>
</g>
<!-- n24 -->
<g id="node24" class="node">
<title>n24</title>
<polygon fill="none" stroke="#000000" points="793.5,-317.2 793.5,-339.2 932.5,-339.2 932.5,-317.2 793.5,-317.2"/>
<text text-anchor="start" x="818.6753" y="-323.6" font-family="Times,serif" font-size="14.00" fill="#000000">java.lang.String</text>
<polygon fill="none" stroke="#000000" points="793.5,-295.2 793.5,-317.2 844.5,-317.2 844.5,-295.2 793.5,-295.2"/>
<text text-anchor="start" x="796.2598" y="-301.6" font-family="Times,serif" font-size="14.00" fill="#000000">coder: 0</text>
<polygon fill="none" stroke="#000000" points="844.5,-295.2 844.5,-317.2 932.5,-317.2 932.5,-295.2 844.5,-295.2"/>
<text text-anchor="start" x="847.4751" y="-301.6" font-family="Times,serif" font-size="14.00" fill="#000000">hash: 2097185</text>
</g>
<!-- n23&#45;&gt;n24 -->
<g id="edge17" class="edge">
<title>n23-&gt;n24</title>
<path fill="none" stroke="#000000" d="M977.2408,-393.4952C956.7864,-379.8943 931.6114,-363.1546 910.0592,-348.8238"/>
<polygon fill="#000000" stroke="#000000" points="911.9526,-345.8797 901.6875,-343.2571 908.0767,-351.7087 911.9526,-345.8797"/>
<text text-anchor="middle" x="958.1634" y="-364.8" font-family="Times,serif" font-size="12.00" fill="#000000">key</text>
</g>
<!-- n26 -->
<g id="node26" class="node">
<title>n26</title>
<polygon fill="none" stroke="#000000" points="966.5,-317.2 966.5,-339.2 1066.5,-339.2 1066.5,-317.2 966.5,-317.2"/>
<text text-anchor="start" x="969.467" y="-323.6" font-family="Times,serif" font-size="14.00" fill="#000000">java.lang.Integer</text>
<polygon fill="none" stroke="#000000" points="966.5,-295.2 966.5,-317.2 1066.5,-317.2 1066.5,-295.2 966.5,-295.2"/>
<text text-anchor="start" x="994.1448" y="-301.6" font-family="Times,serif" font-size="14.00" fill="#000000">value: 5</text>
</g>
<!-- n23&#45;&gt;n26 -->
<g id="edge18" class="edge">
<title>n23-&gt;n26</title>
<path fill="none" stroke="#000000" d="M1016.5,-393.4952C1016.5,-381.3387 1016.5,-366.6745 1016.5,-353.4642"/>
<polygon fill="#000000" stroke="#000000" points="1020.0001,-353.2571 1016.5,-343.2571 1013.0001,-353.2572 1020.0001,-353.2571"/>
<text text-anchor="middle" x="1029.4942" y="-364.8" font-family="Times,serif" font-size="12.00" fill="#000000">value</text>
</g>
<!-- n27 -->
<g id="node27" class="node">
<title>n27</title>
<polygon fill="none" stroke="#000000" points="1100.5,-317.2 1100.5,-339.2 1246.5,-339.2 1246.5,-317.2 1100.5,-317.2"/>
<text text-anchor="start" x="1103.1311" y="-323.6" font-family="Times,serif" font-size="14.00" fill="#000000">java.util.HashMap$Node</text>
<polygon fill="none" stroke="#000000" points="1100.5,-295.2 1100.5,-317.2 1246.5,-317.2 1246.5,-295.2 1100.5,-295.2"/>
<text text-anchor="start" x="1132.4751" y="-301.6" font-family="Times,serif" font-size="14.00" fill="#000000">hash: 2097153</text>
</g>
<!-- n23&#45;&gt;n27 -->
<g id="edge26" class="edge">
<title>n23-&gt;n27</title>
<path fill="none" stroke="#000000" d="M1056.524,-393.4952C1077.3769,-379.8943 1103.0423,-363.1546 1125.0143,-348.8238"/>
<polygon fill="#000000" stroke="#000000" points="1127.0853,-351.6517 1133.5491,-343.2571 1123.2612,-345.7886 1127.0853,-351.6517"/>
<text text-anchor="middle" x="1114.8308" y="-364.8" font-family="Times,serif" font-size="12.00" fill="#000000">next</text>
</g>
<!-- n25 -->
<g id="node25" class="node">
<title>n25</title>
<polygon fill="none" stroke="#000000" points="819.5,-203.8 819.5,-225.8 839.5,-225.8 839.5,-203.8 819.5,-203.8"/>
<text text-anchor="start" x="822.5" y="-210.2" font-family="Times,serif" font-size="14.00" fill="#000000">68</text>
<polygon fill="none" stroke="#000000" points="839.5,-203.8 839.5,-225.8 859.5,-225.8 859.5,-203.8 839.5,-203.8"/>
<text text-anchor="start" x="842.5" y="-210.2" font-family="Times,serif" font-size="14.00" fill="#000000">71</text>
<polygon fill="none" stroke="#000000" points="859.5,-203.8 859.5,-225.8 886.5,-225.8 886.5,-203.8 859.5,-203.8"/>
<text text-anchor="start" x="862.5" y="-210.2" font-family="Times,serif" font-size="14.00" fill="#000000">100</text>
<polygon fill="none" stroke="#000000" points="886.5,-203.8 886.5,-225.8 906.5,-225.8 906.5,-203.8 886.5,-203.8"/>
<text text-anchor="start" x="889.5" y="-210.2" font-family="Times,serif" font-size="14.00" fill="#000000">66</text>
</g>
<!-- n24&#45;&gt;n25 -->
<g id="edge16" class="edge">
<title>n24-&gt;n25</title>
<path fill="none" stroke="#000000" d="M862.5,-291.0952C862.5,-276.5046 862.5,-258.3017 862.5,-243.3356"/>
<polygon fill="#000000" stroke="#000000" points="866.0001,-243.108 862.5,-233.108 859.0001,-243.108 866.0001,-243.108"/>
<text text-anchor="middle" x="875.4942" y="-262.4" font-family="Times,serif" font-size="12.00" fill="#000000">value</text>
</g>
<!-- n28 -->
<g id="node28" class="node">
<title>n28</title>
<polygon fill="none" stroke="#000000" points="950.5,-214.8 950.5,-236.8 1089.5,-236.8 1089.5,-214.8 950.5,-214.8"/>
<text text-anchor="start" x="975.6753" y="-221.2" font-family="Times,serif" font-size="14.00" fill="#000000">java.lang.String</text>
<polygon fill="none" stroke="#000000" points="950.5,-192.8 950.5,-214.8 1001.5,-214.8 1001.5,-192.8 950.5,-192.8"/>
<text text-anchor="start" x="953.2598" y="-199.2" font-family="Times,serif" font-size="14.00" fill="#000000">coder: 0</text>
<polygon fill="none" stroke="#000000" points="1001.5,-192.8 1001.5,-214.8 1089.5,-214.8 1089.5,-192.8 1001.5,-192.8"/>
<text text-anchor="start" x="1004.4751" y="-199.2" font-family="Times,serif" font-size="14.00" fill="#000000">hash: 2097185</text>
</g>
<!-- n27&#45;&gt;n28 -->
<g id="edge20" class="edge">
<title>n27-&gt;n28</title>
<path fill="none" stroke="#000000" d="M1134.2408,-291.0952C1113.7864,-277.4943 1088.6114,-260.7546 1067.0592,-246.4238"/>
<polygon fill="#000000" stroke="#000000" points="1068.9526,-243.4797 1058.6875,-240.8571 1065.0767,-249.3087 1068.9526,-243.4797"/>
<text text-anchor="middle" x="1115.1634" y="-262.4" font-family="Times,serif" font-size="12.00" fill="#000000">key</text>
</g>
<!-- n30 -->
<g id="node30" class="node">
<title>n30</title>
<polygon fill="none" stroke="#000000" points="1123.5,-214.8 1123.5,-236.8 1223.5,-236.8 1223.5,-214.8 1123.5,-214.8"/>
<text text-anchor="start" x="1126.467" y="-221.2" font-family="Times,serif" font-size="14.00" fill="#000000">java.lang.Integer</text>
<polygon fill="none" stroke="#000000" points="1123.5,-192.8 1123.5,-214.8 1223.5,-214.8 1223.5,-192.8 1123.5,-192.8"/>
<text text-anchor="start" x="1151.1448" y="-199.2" font-family="Times,serif" font-size="14.00" fill="#000000">value: 6</text>
</g>
<!-- n27&#45;&gt;n30 -->
<g id="edge21" class="edge">
<title>n27-&gt;n30</title>
<path fill="none" stroke="#000000" d="M1173.5,-291.0952C1173.5,-278.9387 1173.5,-264.2745 1173.5,-251.0642"/>
<polygon fill="#000000" stroke="#000000" points="1177.0001,-250.8571 1173.5,-240.8571 1170.0001,-250.8572 1177.0001,-250.8571"/>
<text text-anchor="middle" x="1186.4942" y="-262.4" font-family="Times,serif" font-size="12.00" fill="#000000">value</text>
</g>
<!-- n31 -->
<g id="node31" class="node">
<title>n31</title>
<polygon fill="none" stroke="#000000" points="1258.5,-214.8 1258.5,-236.8 1405.5,-236.8 1405.5,-214.8 1258.5,-214.8"/>
<text text-anchor="start" x="1261.6311" y="-221.2" font-family="Times,serif" font-size="14.00" fill="#000000">java.util.HashMap$Node</text>
<polygon fill="none" stroke="#000000" points="1258.5,-192.8 1258.5,-214.8 1346.5,-214.8 1346.5,-192.8 1258.5,-192.8"/>
<text text-anchor="start" x="1261.4751" y="-199.2" font-family="Times,serif" font-size="14.00" fill="#000000">hash: 2097153</text>
<polygon fill="none" stroke="#000000" points="1346.5,-192.8 1346.5,-214.8 1405.5,-214.8 1405.5,-192.8 1346.5,-192.8"/>
<text text-anchor="start" x="1349.3615" y="-199.2" font-family="Times,serif" font-size="14.00" fill="#000000">next: null</text>
</g>
<!-- n27&#45;&gt;n31 -->
<g id="edge25" class="edge">
<title>n27-&gt;n31</title>
<path fill="none" stroke="#000000" d="M1213.7789,-291.0952C1234.7646,-277.4943 1260.5935,-260.7546 1282.7055,-246.4238"/>
<polygon fill="#000000" stroke="#000000" points="1284.8065,-249.233 1291.2947,-240.8571 1280.9994,-243.3587 1284.8065,-249.233"/>
<text text-anchor="middle" x="1272.8308" y="-262.4" font-family="Times,serif" font-size="12.00" fill="#000000">next</text>
</g>
<!-- n29 -->
<g id="node29" class="node">
<title>n29</title>
<polygon fill="none" stroke="#000000" points="979.5,-101.4 979.5,-123.4 999.5,-123.4 999.5,-101.4 979.5,-101.4"/>
<text text-anchor="start" x="982.5" y="-107.8" font-family="Times,serif" font-size="14.00" fill="#000000">68</text>
<polygon fill="none" stroke="#000000" points="999.5,-101.4 999.5,-123.4 1019.5,-123.4 1019.5,-101.4 999.5,-101.4"/>
<text text-anchor="start" x="1002.5" y="-107.8" font-family="Times,serif" font-size="14.00" fill="#000000">72</text>
<polygon fill="none" stroke="#000000" points="1019.5,-101.4 1019.5,-123.4 1039.5,-123.4 1039.5,-101.4 1019.5,-101.4"/>
<text text-anchor="start" x="1022.5" y="-107.8" font-family="Times,serif" font-size="14.00" fill="#000000">68</text>
<polygon fill="none" stroke="#000000" points="1039.5,-101.4 1039.5,-123.4 1059.5,-123.4 1059.5,-101.4 1039.5,-101.4"/>
<text text-anchor="start" x="1042.5" y="-107.8" font-family="Times,serif" font-size="14.00" fill="#000000">97</text>
</g>
<!-- n28&#45;&gt;n29 -->
<g id="edge19" class="edge">
<title>n28-&gt;n29</title>
<path fill="none" stroke="#000000" d="M1019.5,-188.6952C1019.5,-174.1046 1019.5,-155.9017 1019.5,-140.9356"/>
<polygon fill="#000000" stroke="#000000" points="1023.0001,-140.708 1019.5,-130.708 1016.0001,-140.708 1023.0001,-140.708"/>
<text text-anchor="middle" x="1032.4942" y="-160" font-family="Times,serif" font-size="12.00" fill="#000000">value</text>
</g>
<!-- n32 -->
<g id="node32" class="node">
<title>n32</title>
<polygon fill="none" stroke="#000000" points="1156.5,-112.4 1156.5,-134.4 1295.5,-134.4 1295.5,-112.4 1156.5,-112.4"/>
<text text-anchor="start" x="1181.6753" y="-118.8" font-family="Times,serif" font-size="14.00" fill="#000000">java.lang.String</text>
<polygon fill="none" stroke="#000000" points="1156.5,-90.4 1156.5,-112.4 1207.5,-112.4 1207.5,-90.4 1156.5,-90.4"/>
<text text-anchor="start" x="1159.2598" y="-96.8" font-family="Times,serif" font-size="14.00" fill="#000000">coder: 0</text>
<polygon fill="none" stroke="#000000" points="1207.5,-90.4 1207.5,-112.4 1295.5,-112.4 1295.5,-90.4 1207.5,-90.4"/>
<text text-anchor="start" x="1210.4751" y="-96.8" font-family="Times,serif" font-size="14.00" fill="#000000">hash: 2097185</text>
</g>
<!-- n31&#45;&gt;n32 -->
<g id="edge23" class="edge">
<title>n31-&gt;n32</title>
<path fill="none" stroke="#000000" d="M1304.4775,-188.6952C1290.8968,-175.5758 1274.2929,-159.5358 1259.82,-145.5544"/>
<polygon fill="#000000" stroke="#000000" points="1262.0971,-142.8878 1252.4732,-138.4571 1257.2336,-147.9223 1262.0971,-142.8878"/>
<text text-anchor="middle" x="1294.1634" y="-160" font-family="Times,serif" font-size="12.00" fill="#000000">key</text>
</g>
<!-- n34 -->
<g id="node34" class="node">
<title>n34</title>
<polygon fill="none" stroke="#000000" points="1329.5,-112.4 1329.5,-134.4 1429.5,-134.4 1429.5,-112.4 1329.5,-112.4"/>
<text text-anchor="start" x="1332.467" y="-118.8" font-family="Times,serif" font-size="14.00" fill="#000000">java.lang.Integer</text>
<polygon fill="none" stroke="#000000" points="1329.5,-90.4 1329.5,-112.4 1429.5,-112.4 1429.5,-90.4 1329.5,-90.4"/>
<text text-anchor="start" x="1357.1448" y="-96.8" font-family="Times,serif" font-size="14.00" fill="#000000">value: 7</text>
</g>
<!-- n31&#45;&gt;n34 -->
<g id="edge24" class="edge">
<title>n31-&gt;n34</title>
<path fill="none" stroke="#000000" d="M1343.7366,-188.6952C1349.5478,-176.2979 1356.5815,-161.2928 1362.8682,-147.8812"/>
<polygon fill="#000000" stroke="#000000" points="1366.2104,-148.9973 1367.2857,-138.4571 1359.8722,-146.0262 1366.2104,-148.9973"/>
<text text-anchor="middle" x="1371.4942" y="-160" font-family="Times,serif" font-size="12.00" fill="#000000">value</text>
</g>
<!-- n33 -->
<g id="node33" class="node">
<title>n33</title>
<polygon fill="none" stroke="#000000" points="1185.5,-7 1185.5,-29 1205.5,-29 1205.5,-7 1185.5,-7"/>
<text text-anchor="start" x="1188.5" y="-13.4" font-family="Times,serif" font-size="14.00" fill="#000000">68</text>
<polygon fill="none" stroke="#000000" points="1205.5,-7 1205.5,-29 1225.5,-29 1225.5,-7 1205.5,-7"/>
<text text-anchor="start" x="1208.5" y="-13.4" font-family="Times,serif" font-size="14.00" fill="#000000">72</text>
<polygon fill="none" stroke="#000000" points="1225.5,-7 1225.5,-29 1245.5,-29 1245.5,-7 1225.5,-7"/>
<text text-anchor="start" x="1228.5" y="-13.4" font-family="Times,serif" font-size="14.00" fill="#000000">69</text>
<polygon fill="none" stroke="#000000" points="1245.5,-7 1245.5,-29 1265.5,-29 1265.5,-7 1245.5,-7"/>
<text text-anchor="start" x="1248.5" y="-13.4" font-family="Times,serif" font-size="14.00" fill="#000000">66</text>
</g>
<!-- n32&#45;&gt;n33 -->
<g id="edge22" class="edge">
<title>n32-&gt;n33</title>
<path fill="none" stroke="#000000" d="M1225.5,-86.3549C1225.5,-73.9052 1225.5,-58.9798 1225.5,-46.2562"/>
<polygon fill="#000000" stroke="#000000" points="1229.0001,-46.189 1225.5,-36.189 1222.0001,-46.1891 1229.0001,-46.189"/>
<text text-anchor="middle" x="1238.4942" y="-57.6" font-family="Times,serif" font-size="12.00" fill="#000000">value</text>
</g>
</g>
</svg>