<?xml version="1.0" encoding="UTF-8" standalone="no"?><!DOCTYPE svg PUBLIC "-//W3C//DTD SVG 1.1//EN" "http://www.w3.org/Graphics/SVG/1.1/DTD/svg11.dtd"><!-- Generated by graphviz version 2.40.1 (20161225.0304)
 --><!-- Title: Java Pages: 1 --><svg xmlns="http://www.w3.org/2000/svg" xmlns:xlink="http://www.w3.org/1999/xlink" width="1732pt" height="796pt" viewBox="0.00 0.00 1731.50 796.40">
<g id="graph0" class="graph" transform="scale(1 1) rotate(0) translate(4 792.4)">
<title>Java</title>
<polygon fill="#ffffff" stroke="transparent" points="-4,4 -4,-792.4 1727.5,-792.4 1727.5,4 -4,4"/>
<!-- n1 -->
<g id="node1" class="node">
<title>n1</title>
<polygon fill="none" stroke="#000000" points="545,-674.4 545,-784.4 654,-784.4 654,-674.4 545,-674.4"/>
<text text-anchor="start" x="547.7917" y="-725.2" font-family="Times,serif" font-size="14.00" fill="#000000">java.util.HashMap</text>
<polygon fill="none" stroke="#000000" points="654,-762.4 654,-784.4 751,-784.4 751,-762.4 654,-762.4"/>
<text text-anchor="start" x="664.5873" y="-768.8" font-family="Times,serif" font-size="14.00" fill="#000000">entrySet: null</text>
<polygon fill="none" stroke="#000000" points="654,-740.4 654,-762.4 751,-762.4 751,-740.4 654,-740.4"/>
<text text-anchor="start" x="680.9225" y="-746.8" font-family="Times,serif" font-size="14.00" fill="#000000">size: 13</text>
<polygon fill="none" stroke="#000000" points="654,-718.4 654,-740.4 751,-740.4 751,-718.4 654,-718.4"/>
<text text-anchor="start" x="662.2458" y="-724.8" font-family="Times,serif" font-size="14.00" fill="#000000">modCount: 13</text>
<polygon fill="none" stroke="#000000" points="654,-696.4 654,-718.4 751,-718.4 751,-696.4 654,-696.4"/>
<text text-anchor="start" x="665.7542" y="-702.8" font-family="Times,serif" font-size="14.00" fill="#000000">threshold: 48</text>
<polygon fill="none" stroke="#000000" points="654,-674.4 654,-696.4 751,-696.4 751,-674.4 654,-674.4"/>
<text text-anchor="start" x="656.6206" y="-680.8" font-family="Times,serif" font-size="14.00" fill="#000000">loadFactor: 0.75</text>
</g>
<!-- n2 -->
<g id="node2" class="node">
<title>n2</title>
<polygon fill="none" stroke="#000000" points="8,-592 8,-612 28,-612 28,-592 8,-592"/>
<polygon fill="none" stroke="#000000" points="28,-592 28,-612 48,-612 48,-592 28,-592"/>
<polygon fill="none" stroke="#000000" points="48,-592 48,-612 68,-612 68,-592 48,-592"/>
<polygon fill="none" stroke="#000000" points="68,-592 68,-612 88,-612 88,-592 68,-592"/>
<polygon fill="none" stroke="#000000" points="88,-592 88,-612 108,-612 108,-592 88,-592"/>
<polygon fill="none" stroke="#000000" points="108,-592 108,-612 128,-612 128,-592 108,-592"/>
<polygon fill="none" stroke="#000000" points="128,-592 128,-612 148,-612 148,-592 128,-592"/>
<polygon fill="none" stroke="#000000" points="148,-592 148,-612 168,-612 168,-592 148,-592"/>
<polygon fill="none" stroke="#000000" points="168,-592 168,-612 188,-612 188,-592 168,-592"/>
<polygon fill="none" stroke="#000000" points="188,-592 188,-612 208,-612 208,-592 188,-592"/>
<polygon fill="none" stroke="#000000" points="208,-592 208,-612 228,-612 228,-592 208,-592"/>
<polygon fill="none" stroke="#000000" points="228,-592 228,-612 248,-612 248,-592 228,-592"/>
<polygon fill="none" stroke="#000000" points="248,-592 248,-612 268,-612 268,-592 248,-592"/>
<polygon fill="none" stroke="#000000" points="268,-592 268,-612 288,-612 288,-592 268,-592"/>
<polygon fill="none" stroke="#000000" points="288,-592 288,-612 308,-612 308,-592 288,-592"/>
<polygon fill="none" stroke="#000000" points="308,-592 308,-612 328,-612 328,-592 308,-592"/>
<polygon fill="none" stroke="#000000" points="328,-592 328,-612 348,-612 348,-592 328,-592"/>
<polygon fill="none" stroke="#000000" points="348,-592 348,-612 368,-612 368,-592 348,-592"/>
<polygon fill="none" stroke="#000000" points="368,-592 368,-612 388,-612 388,-592 368,-592"/>
<polygon fill="none" stroke="#000000" points="388,-592 388,-612 408,-612 408,-592 388,-592"/>
<polygon fill="none" stroke="#000000" points="408,-592 408,-612 428,-612 428,-592 408,-592"/>
<polygon fill="none" stroke="#000000" points="428,-592 428,-612 448,-612 448,-592 428,-592"/>
<polygon fill="none" stroke="#000000" points="448,-592 448,-612 468,-612 468,-592 448,-592"/>
<polygon fill="none" stroke="#000000" points="468,-592 468,-612 488,-612 488,-592 468,-592"/>
<polygon fill="none" stroke="#000000" points="488,-592 488,-612 508,-612 508,-592 488,-592"/>
<polygon fill="none" stroke="#000000" points="508,-592 508,-612 528,-612 528,-592 508,-592"/>
<polygon fill="none" stroke="#000000" points="528,-592 528,-612 548,-612 548,-592 528,-592"/>
<polygon fill="none" stroke="#000000" points="548,-592 548,-612 568,-612 568,-592 548,-592"/>
<polygon fill="none" stroke="#000000" points="568,-592 568,-612 588,-612 588,-592 568,-592"/>
<polygon fill="none" stroke="#000000" points="588,-592 588,-612 608,-612 608,-592 588,-592"/>
<polygon fill="none" stroke="#000000" points="608,-592 608,-612 628,-612 628,-592 608,-592"/>
<polygon fill="none" stroke="#000000" points="628,-592 628,-612 648,-612 648,-592 628,-592"/>
<polygon fill="none" stroke="#000000" points="648,-592 648,-612 668,-612 668,-592 648,-592"/>
<polygon fill="none" stroke="#000000" points="668,-592 668,-612 688,-612 688,-592 668,-592"/>
<polygon fill="none" stroke="#000000" points="688,-592 688,-612 708,-612 708,-592 688,-592"/>
<polygon fill="none" stroke="#000000" points="708,-592 708,-612 728,-612 728,-592 708,-592"/>
<polygon fill="none" stroke="#000000" points="728,-592 728,-612 748,-612 748,-592 728,-592"/>
<polygon fill="none" stroke="#000000" points="748,-592 748,-612 768,-612 768,-592 748,-592"/>
<polygon fill="none" stroke="#000000" points="768,-592 768,-612 788,-612 788,-592 768,-592"/>
<polygon fill="none" stroke="#000000" points="788,-592 788,-612 808,-612 808,-592 788,-592"/>
<polygon fill="none" stroke="#000000" points="808,-592 808,-612 828,-612 828,-592 808,-592"/>
<polygon fill="none" stroke="#000000" points="828,-592 828,-612 848,-612 848,-592 828,-592"/>
<polygon fill="none" stroke="#000000" points="848,-592 848,-612 868,-612 868,-592 848,-592"/>
<polygon fill="none" stroke="#000000" points="868,-592 868,-612 888,-612 888,-592 868,-592"/>
<polygon fill="none" stroke="#000000" points="888,-592 888,-612 908,-612 908,-592 888,-592"/>
<polygon fill="none" stroke="#000000" points="908,-592 908,-612 928,-612 928,-592 908,-592"/>
<polygon fill="none" stroke="#000000" points="928,-592 928,-612 948,-612 948,-592 928,-592"/>
<polygon fill="none" stroke="#000000" points="948,-592 948,-612 968,-612 968,-592 948,-592"/>
<polygon fill="none" stroke="#000000" points="968,-592 968,-612 988,-612 988,-592 968,-592"/>
<polygon fill="none" stroke="#000000" points="988,-592 988,-612 1008,-612 1008,-592 988,-592"/>
<polygon fill="none" stroke="#000000" points="1008,-592 1008,-612 1028,-612 1028,-592 1008,-592"/>
<polygon fill="none" stroke="#000000" points="1028,-592 1028,-612 1048,-612 1048,-592 1028,-592"/>
<polygon fill="none" stroke="#000000" points="1048,-592 1048,-612 1068,-612 1068,-592 1048,-592"/>
<polygon fill="none" stroke="#000000" points="1068,-592 1068,-612 1088,-612 1088,-592 1068,-592"/>
<polygon fill="none" stroke="#000000" points="1088,-592 1088,-612 1108,-612 1108,-592 1088,-592"/>
<polygon fill="none" stroke="#000000" points="1108,-592 1108,-612 1128,-612 1128,-592 1108,-592"/>
<polygon fill="none" stroke="#000000" points="1128,-592 1128,-612 1148,-612 1148,-592 1128,-592"/>
<polygon fill="none" stroke="#000000" points="1148,-592 1148,-612 1168,-612 1168,-592 1148,-592"/>
<polygon fill="none" stroke="#000000" points="1168,-592 1168,-612 1188,-612 1188,-592 1168,-592"/>
<polygon fill="none" stroke="#000000" points="1188,-592 1188,-612 1208,-612 1208,-592 1188,-592"/>
<polygon fill="none" stroke="#000000" points="1208,-592 1208,-612 1228,-612 1228,-592 1208,-592"/>
<polygon fill="none" stroke="#000000" points="1228,-592 1228,-612 1248,-612 1248,-592 1228,-592"/>
<polygon fill="none" stroke="#000000" points="1248,-592 1248,-612 1268,-612 1268,-592 1248,-592"/>
<polygon fill="none" stroke="#000000" points="1268,-592 1268,-612 1288,-612 1288,-592 1268,-592"/>
</g>
<!-- n1&#45;&gt;n2 -->
<g id="edge38" class="edge">
<title>n1-&gt;n2</title>
<path fill="none" stroke="#000000" d="M648,-670.1756C648,-656.2456 648,-642.0287 648,-630.2072"/>
<polygon fill="#000000" stroke="#000000" points="651.5001,-630.1011 648,-620.1011 644.5001,-630.1012 651.5001,-630.1011"/>
<text text-anchor="middle" x="659.6616" y="-641.6" font-family="Times,serif" font-size="12.00" fill="#000000">table</text>
</g>
<!-- n3 -->
<g id="node3" class="node">
<title>n3</title>
<polygon fill="none" stroke="#000000" points="437,-463.6 437,-529.6 609,-529.6 609,-463.6 437,-463.6"/>
<text text-anchor="start" x="439.8099" y="-492.4" font-family="Times,serif" font-size="14.00" fill="#000000">java.util.HashMap$TreeNode</text>
<polygon fill="none" stroke="#000000" points="609,-507.6 609,-529.6 679,-529.6 679,-507.6 609,-507.6"/>
<text text-anchor="start" x="611.9239" y="-514" font-family="Times,serif" font-size="14.00" fill="#000000">parent: null</text>
<polygon fill="none" stroke="#000000" points="609,-485.6 609,-507.6 679,-507.6 679,-485.6 609,-485.6"/>
<text text-anchor="start" x="616.9765" y="-492" font-family="Times,serif" font-size="14.00" fill="#000000">prev: null</text>
<polygon fill="none" stroke="#000000" points="609,-463.6 609,-485.6 679,-485.6 679,-463.6 609,-463.6"/>
<text text-anchor="start" x="618.1546" y="-470" font-family="Times,serif" font-size="14.00" fill="#000000">red: false</text>
</g>
<!-- n2&#45;&gt;n3 -->
<g id="edge37" class="edge">
<title>n2:f27-&gt;n3</title>
<path fill="none" stroke="#000000" d="M558,-592C558,-576.3898 558,-559.3429 558,-544.033"/>
<polygon fill="#000000" stroke="#000000" points="561.5001,-543.7503 558,-533.7504 554.5001,-543.7504 561.5001,-543.7503"/>
<text text-anchor="middle" x="564" y="-555.2" font-family="Times,serif" font-size="12.00" fill="#000000">27</text>
</g>
<!-- n4 -->
<g id="node4" class="node">
<title>n4</title>
<polygon fill="none" stroke="#000000" points="391,-380.2 391,-402.2 563,-402.2 563,-380.2 391,-380.2"/>
<text text-anchor="start" x="393.8099" y="-386.6" font-family="Times,serif" font-size="14.00" fill="#000000">java.util.HashMap$TreeNode</text>
<polygon fill="none" stroke="#000000" points="563,-380.2 563,-402.2 620,-402.2 620,-380.2 563,-380.2"/>
<text text-anchor="start" x="565.6546" y="-386.6" font-family="Times,serif" font-size="14.00" fill="#000000">red: false</text>
</g>
<!-- n3&#45;&gt;n4 -->
<g id="edge9" class="edge">
<title>n3-&gt;n4</title>
<path fill="none" stroke="#000000" d="M549.2373,-459.4323C545.9075,-448.6605 541.5428,-437.1338 536,-427.2 534.1639,-423.9093 531.9958,-420.6466 529.6727,-417.5066"/>
<polygon fill="#000000" stroke="#000000" points="532.2723,-415.154 523.2828,-409.5469 526.8136,-419.5361 532.2723,-415.154"/>
<text text-anchor="middle" x="550.9956" y="-430.8" font-family="Times,serif" font-size="12.00" fill="#000000">left</text>
</g>
<!-- n7 -->
<g id="node7" class="node">
<title>n7</title>
<polygon fill="none" stroke="#000000" points="891,-380.2 891,-402.2 1063,-402.2 1063,-380.2 891,-380.2"/>
<text text-anchor="start" x="893.8099" y="-386.6" font-family="Times,serif" font-size="14.00" fill="#000000">java.util.HashMap$TreeNode</text>
<polygon fill="none" stroke="#000000" points="1063,-380.2 1063,-402.2 1120,-402.2 1120,-380.2 1063,-380.2"/>
<text text-anchor="start" x="1065.6546" y="-386.6" font-family="Times,serif" font-size="14.00" fill="#000000">red: false</text>
</g>
<!-- n3&#45;&gt;n7 -->
<g id="edge36" class="edge">
<title>n3-&gt;n7</title>
<path fill="none" stroke="#000000" d="M687.1502,-481.1688C746.8246,-472.3738 818.2208,-459.473 881,-441.6 906.8142,-434.2508 934.5761,-423.2739 957.2735,-413.4387"/>
<polygon fill="#000000" stroke="#000000" points="958.9247,-416.5361 966.6705,-409.3074 956.1075,-410.128 958.9247,-416.5361"/>
<text text-anchor="middle" x="933.3322" y="-430.8" font-family="Times,serif" font-size="12.00" fill="#000000">right</text>
</g>
<!-- n4&#45;&gt;n3 -->
<g id="edge1" class="edge">
<title>n4-&gt;n3</title>
<path fill="none" stroke="#000000" d="M502.2519,-409.5707C501.537,-419.4187 501.9041,-431.5573 506.0168,-441.6 507.3519,-444.86 508.9775,-448.0405 510.8182,-451.1223"/>
<polygon fill="#000000" stroke="#000000" points="508.007,-453.2131 516.5124,-459.5304 513.803,-449.2879 508.007,-453.2131"/>
<text text-anchor="middle" x="521.9916" y="-430.8" font-family="Times,serif" font-size="12.00" fill="#000000">parent</text>
</g>
<!-- n5 -->
<g id="node5" class="node">
<title>n5</title>
<polygon fill="none" stroke="#000000" points="235,-252.8 235,-318.8 407,-318.8 407,-252.8 235,-252.8"/>
<text text-anchor="start" x="237.8099" y="-281.6" font-family="Times,serif" font-size="14.00" fill="#000000">java.util.HashMap$TreeNode</text>
<polygon fill="none" stroke="#000000" points="407,-296.8 407,-318.8 468,-318.8 468,-296.8 407,-296.8"/>
<text text-anchor="start" x="413.5859" y="-303.2" font-family="Times,serif" font-size="14.00" fill="#000000">left: null</text>
<polygon fill="none" stroke="#000000" points="407,-274.8 407,-296.8 468,-296.8 468,-274.8 407,-274.8"/>
<text text-anchor="start" x="409.6932" y="-281.2" font-family="Times,serif" font-size="14.00" fill="#000000">right: null</text>
<polygon fill="none" stroke="#000000" points="407,-252.8 407,-274.8 468,-274.8 468,-252.8 407,-252.8"/>
<text text-anchor="start" x="411.6546" y="-259.2" font-family="Times,serif" font-size="14.00" fill="#000000">red: false</text>
</g>
<!-- n4&#45;&gt;n5 -->
<g id="edge4" class="edge">
<title>n4-&gt;n5</title>
<path fill="none" stroke="#000000" d="M418.9734,-373.1682C400.3812,-367.891 384.1471,-361.76 377.0088,-355.2 370.3319,-349.064 365.3601,-341.0467 361.6606,-332.6489"/>
<polygon fill="#000000" stroke="#000000" points="364.844,-331.1747 358.0013,-323.0859 358.3063,-333.6764 364.844,-331.1747"/>
<text text-anchor="middle" x="385.9956" y="-344.4" font-family="Times,serif" font-size="12.00" fill="#000000">left</text>
</g>
<!-- n4&#45;&gt;n5 -->
<g id="edge8" class="edge">
<title>n4-&gt;n5</title>
<path fill="none" stroke="#000000" d="M445.0613,-373.0412C433.46,-368.1813 421.7824,-362.2658 411.6784,-355.2 401.8417,-348.3211 392.5606,-339.5162 384.3538,-330.5041"/>
<polygon fill="#000000" stroke="#000000" points="386.9419,-328.1467 377.7243,-322.9231 381.6725,-332.7548 386.9419,-328.1467"/>
<text text-anchor="middle" x="422.6608" y="-344.4" font-family="Times,serif" font-size="12.00" fill="#000000">prev</text>
</g>
<!-- n6 -->
<g id="node6" class="node">
<title>n6</title>
<polygon fill="none" stroke="#000000" points="453,-4 453,-70 625,-70 625,-4 453,-4"/>
<text text-anchor="start" x="455.8099" y="-32.8" font-family="Times,serif" font-size="14.00" fill="#000000">java.util.HashMap$TreeNode</text>
<polygon fill="none" stroke="#000000" points="625,-48 625,-70 686,-70 686,-48 625,-48"/>
<text text-anchor="start" x="631.5859" y="-54.4" font-family="Times,serif" font-size="14.00" fill="#000000">left: null</text>
<polygon fill="none" stroke="#000000" points="625,-26 625,-48 686,-48 686,-26 625,-26"/>
<text text-anchor="start" x="627.6932" y="-32.4" font-family="Times,serif" font-size="14.00" fill="#000000">right: null</text>
<polygon fill="none" stroke="#000000" points="625,-4 625,-26 686,-26 686,-4 625,-4"/>
<text text-anchor="start" x="629.6546" y="-10.4" font-family="Times,serif" font-size="14.00" fill="#000000">red: false</text>
</g>
<!-- n4&#45;&gt;n6 -->
<g id="edge7" class="edge">
<title>n4-&gt;n6</title>
<path fill="none" stroke="#000000" d="M505.1961,-373.186C505.804,-341.3225 508.2812,-273.0374 518.3356,-216.4 526.4537,-170.6701 541.3913,-119.8346 552.9516,-83.9881"/>
<polygon fill="#000000" stroke="#000000" points="556.3407,-84.8841 556.1141,-74.2917 549.6858,-82.7135 556.3407,-84.8841"/>
<text text-anchor="middle" x="530.3322" y="-220" font-family="Times,serif" font-size="12.00" fill="#000000">right</text>
</g>
<!-- n5&#45;&gt;n3 -->
<g id="edge3" class="edge">
<title>n5-&gt;n3</title>
<path fill="none" stroke="#000000" d="M341.1467,-322.9145C336.4227,-349.1807 334.9272,-384.0622 351.6784,-409.2 368.0553,-433.7762 392.8638,-451.4623 419.6628,-464.1837"/>
<polygon fill="#000000" stroke="#000000" points="418.2632,-467.3919 428.8181,-468.3103 421.1397,-461.0102 418.2632,-467.3919"/>
<text text-anchor="middle" x="362.6608" y="-387.6" font-family="Times,serif" font-size="12.00" fill="#000000">prev</text>
</g>
<!-- n5&#45;&gt;n4 -->
<g id="edge2" class="edge">
<title>n5-&gt;n4</title>
<path fill="none" stroke="#000000" d="M410.1058,-322.8413C419.1808,-328.7466 428.3901,-334.8665 437,-340.8 448.956,-349.0395 461.8133,-358.4272 473.0949,-366.8491"/>
<polygon fill="#000000" stroke="#000000" points="471.2757,-369.86 481.3738,-373.0662 475.4791,-364.2626 471.2757,-369.86"/>
<text text-anchor="middle" x="470.9916" y="-344.4" font-family="Times,serif" font-size="12.00" fill="#000000">parent</text>
</g>
<!-- n6&#45;&gt;n4 -->
<g id="edge5" class="edge">
<title>n6-&gt;n4</title>
<path fill="none" stroke="#000000" d="M565.3276,-74.2108C558.9081,-134.0941 543.8112,-255.2549 518,-355.2 517.3073,-357.8821 516.4955,-360.6454 515.6217,-363.3922"/>
<polygon fill="#000000" stroke="#000000" points="512.2277,-362.4996 512.2878,-373.0942 518.8477,-364.7745 512.2277,-362.4996"/>
<text text-anchor="middle" x="560.9916" y="-220" font-family="Times,serif" font-size="12.00" fill="#000000">parent</text>
</g>
<!-- n6&#45;&gt;n4 -->
<g id="edge6" class="edge">
<title>n6-&gt;n4</title>
<path fill="none" stroke="#000000" d="M575.153,-74.198C575.9209,-80.1368 576.5822,-86.2256 577,-92 581.4513,-153.5281 586.3821,-169.8287 577,-230.8 570.4797,-273.1735 562.9668,-282.6251 548,-322.8 542.5237,-337.4999 542.1054,-341.7695 534,-355.2 532.0613,-358.4123 529.8636,-361.652 527.5661,-364.8018"/>
<polygon fill="#000000" stroke="#000000" points="524.6954,-362.7931 521.3608,-372.8495 530.2388,-367.0674 524.6954,-362.7931"/>
<text text-anchor="middle" x="589.6608" y="-220" font-family="Times,serif" font-size="12.00" fill="#000000">prev</text>
</g>
<!-- n7&#45;&gt;n3 -->
<g id="edge10" class="edge">
<title>n7-&gt;n3</title>
<path fill="none" stroke="#000000" d="M928.4557,-409.2487C865.184,-424.1678 773.6903,-445.7415 697.4621,-463.7156"/>
<polygon fill="#000000" stroke="#000000" points="696.2207,-460.4123 687.2909,-466.114 697.8273,-467.2255 696.2207,-460.4123"/>
<text text-anchor="middle" x="861.9916" y="-430.8" font-family="Times,serif" font-size="12.00" fill="#000000">parent</text>
</g>
<!-- n8 -->
<g id="node8" class="node">
<title>n8</title>
<polygon fill="none" stroke="#000000" points="795,-274.8 795,-296.8 967,-296.8 967,-274.8 795,-274.8"/>
<text text-anchor="start" x="797.8099" y="-281.2" font-family="Times,serif" font-size="14.00" fill="#000000">java.util.HashMap$TreeNode</text>
<polygon fill="none" stroke="#000000" points="967,-274.8 967,-296.8 1020,-296.8 1020,-274.8 967,-274.8"/>
<text text-anchor="start" x="969.9842" y="-281.2" font-family="Times,serif" font-size="14.00" fill="#000000">red: true</text>
</g>
<!-- n7&#45;&gt;n8 -->
<g id="edge19" class="edge">
<title>n7-&gt;n8</title>
<path fill="none" stroke="#000000" d="M961.3045,-373.1344C952.8385,-368.2199 944.5713,-362.2593 938.0088,-355.2 927.0912,-343.4559 919.5517,-327.2256 914.643,-313.4135"/>
<polygon fill="#000000" stroke="#000000" points="917.9605,-312.2972 911.5231,-303.8823 911.3078,-314.4749 917.9605,-312.2972"/>
<text text-anchor="middle" x="945.9956" y="-344.4" font-family="Times,serif" font-size="12.00" fill="#000000">left</text>
</g>
<!-- n10 -->
<g id="node10" class="node">
<title>n10</title>
<polygon fill="none" stroke="#000000" points="895,-128.4 895,-194.4 1067,-194.4 1067,-128.4 895,-128.4"/>
<text text-anchor="start" x="897.8099" y="-157.2" font-family="Times,serif" font-size="14.00" fill="#000000">java.util.HashMap$TreeNode</text>
<polygon fill="none" stroke="#000000" points="1067,-172.4 1067,-194.4 1128,-194.4 1128,-172.4 1067,-172.4"/>
<text text-anchor="start" x="1073.5859" y="-178.8" font-family="Times,serif" font-size="14.00" fill="#000000">left: null</text>
<polygon fill="none" stroke="#000000" points="1067,-150.4 1067,-172.4 1128,-172.4 1128,-150.4 1067,-150.4"/>
<text text-anchor="start" x="1069.6932" y="-156.8" font-family="Times,serif" font-size="14.00" fill="#000000">right: null</text>
<polygon fill="none" stroke="#000000" points="1067,-128.4 1067,-150.4 1128,-150.4 1128,-128.4 1067,-128.4"/>
<text text-anchor="start" x="1071.6546" y="-134.8" font-family="Times,serif" font-size="14.00" fill="#000000">red: false</text>
</g>
<!-- n7&#45;&gt;n10 -->
<g id="edge35" class="edge">
<title>n7-&gt;n10</title>
<path fill="none" stroke="#000000" d="M1016.1419,-373.1164C1023.6877,-359.762 1032.9877,-340.8448 1037,-322.8 1045.5139,-284.5102 1037.2576,-240.5232 1027.8569,-208.1497"/>
<polygon fill="#000000" stroke="#000000" points="1031.1788,-207.0433 1024.92,-198.4948 1024.4817,-209.0806 1031.1788,-207.0433"/>
<text text-anchor="middle" x="1050.6608" y="-282.2" font-family="Times,serif" font-size="12.00" fill="#000000">prev</text>
</g>
<!-- n11 -->
<g id="node11" class="node">
<title>n11</title>
<polygon fill="none" stroke="#000000" points="1202,-274.8 1202,-296.8 1374,-296.8 1374,-274.8 1202,-274.8"/>
<text text-anchor="start" x="1204.8099" y="-281.2" font-family="Times,serif" font-size="14.00" fill="#000000">java.util.HashMap$TreeNode</text>
<polygon fill="none" stroke="#000000" points="1374,-274.8 1374,-296.8 1427,-296.8 1427,-274.8 1374,-274.8"/>
<text text-anchor="start" x="1376.9842" y="-281.2" font-family="Times,serif" font-size="14.00" fill="#000000">red: true</text>
</g>
<!-- n7&#45;&gt;n11 -->
<g id="edge34" class="edge">
<title>n7-&gt;n11</title>
<path fill="none" stroke="#000000" d="M1120.4703,-373.1394C1141.896,-368.3419 1163.86,-362.4244 1184,-355.2 1216.9223,-343.3904 1251.7558,-324.4023 1277.0704,-309.2706"/>
<polygon fill="#000000" stroke="#000000" points="1279.2079,-312.0677 1285.9449,-303.8907 1275.5791,-306.0817 1279.2079,-312.0677"/>
<text text-anchor="middle" x="1228.3322" y="-344.4" font-family="Times,serif" font-size="12.00" fill="#000000">right</text>
</g>
<!-- n8&#45;&gt;n7 -->
<g id="edge11" class="edge">
<title>n8-&gt;n7</title>
<path fill="none" stroke="#000000" d="M923.8747,-303.9489C939.6186,-320.8817 963.2739,-346.3232 980.9842,-365.3708"/>
<polygon fill="#000000" stroke="#000000" points="978.5571,-367.9005 987.9297,-372.8407 983.6836,-363.1339 978.5571,-367.9005"/>
<text text-anchor="middle" x="984.9916" y="-344.4" font-family="Times,serif" font-size="12.00" fill="#000000">parent</text>
</g>
<!-- n9 -->
<g id="node9" class="node">
<title>n9</title>
<polygon fill="none" stroke="#000000" points="628,-128.4 628,-194.4 800,-194.4 800,-128.4 628,-128.4"/>
<text text-anchor="start" x="630.8099" y="-157.2" font-family="Times,serif" font-size="14.00" fill="#000000">java.util.HashMap$TreeNode</text>
<polygon fill="none" stroke="#000000" points="800,-172.4 800,-194.4 861,-194.4 861,-172.4 800,-172.4"/>
<text text-anchor="start" x="806.5859" y="-178.8" font-family="Times,serif" font-size="14.00" fill="#000000">left: null</text>
<polygon fill="none" stroke="#000000" points="800,-150.4 800,-172.4 861,-172.4 861,-150.4 800,-150.4"/>
<text text-anchor="start" x="802.6932" y="-156.8" font-family="Times,serif" font-size="14.00" fill="#000000">right: null</text>
<polygon fill="none" stroke="#000000" points="800,-128.4 800,-150.4 861,-150.4 861,-128.4 800,-128.4"/>
<text text-anchor="start" x="804.6546" y="-134.8" font-family="Times,serif" font-size="14.00" fill="#000000">red: false</text>
</g>
<!-- n8&#45;&gt;n9 -->
<g id="edge14" class="edge">
<title>n8-&gt;n9</title>
<path fill="none" stroke="#000000" d="M895.122,-267.5303C884.6181,-252.4185 868.172,-231.1223 850,-216.4 844.6424,-212.0595 838.8879,-207.9185 832.9299,-203.9984"/>
<polygon fill="#000000" stroke="#000000" points="834.4033,-200.7897 824.0778,-198.4157 830.6691,-206.7106 834.4033,-200.7897"/>
<text text-anchor="middle" x="871.9956" y="-220" font-family="Times,serif" font-size="12.00" fill="#000000">left</text>
</g>
<!-- n8&#45;&gt;n9 -->
<g id="edge18" class="edge">
<title>n8-&gt;n9</title>
<path fill="none" stroke="#000000" d="M838.8529,-267.727C816.9696,-259.3119 793.9503,-247.3826 776.6784,-230.8 769.9057,-224.2976 764.385,-216.1133 759.9403,-207.6666"/>
<polygon fill="#000000" stroke="#000000" points="763.0089,-205.971 755.5313,-198.4653 756.6962,-208.9959 763.0089,-205.971"/>
<text text-anchor="middle" x="787.6608" y="-220" font-family="Times,serif" font-size="12.00" fill="#000000">prev</text>
</g>
<!-- n8&#45;&gt;n10 -->
<g id="edge17" class="edge">
<title>n8-&gt;n10</title>
<path fill="none" stroke="#000000" d="M920.7315,-267.5489C931.5178,-253.3891 947.0526,-233.3796 961.3356,-216.4 964.0841,-213.1326 966.9547,-209.788 969.8695,-206.4411"/>
<polygon fill="#000000" stroke="#000000" points="972.7354,-208.4823 976.7142,-198.663 967.4804,-203.8579 972.7354,-208.4823"/>
<text text-anchor="middle" x="972.3322" y="-220" font-family="Times,serif" font-size="12.00" fill="#000000">right</text>
</g>
<!-- n9&#45;&gt;n6 -->
<g id="edge13" class="edge">
<title>n9-&gt;n6</title>
<path fill="none" stroke="#000000" d="M691.4942,-124.0759C671.9386,-110.1747 649.591,-94.2887 629.3843,-79.9246"/>
<polygon fill="#000000" stroke="#000000" points="631.3454,-77.0245 621.167,-74.0833 627.2896,-82.7299 631.3454,-77.0245"/>
<text text-anchor="middle" x="672.6608" y="-95.6" font-family="Times,serif" font-size="12.00" fill="#000000">prev</text>
</g>
<!-- n9&#45;&gt;n8 -->
<g id="edge12" class="edge">
<title>n9-&gt;n8</title>
<path fill="none" stroke="#000000" d="M781.9189,-198.4314C793.7475,-209.3132 807.0896,-220.9343 820.0168,-230.8 834.7392,-242.0358 851.8001,-253.19 866.892,-262.4864"/>
<polygon fill="#000000" stroke="#000000" points="865.155,-265.5265 875.5178,-267.732 868.7922,-259.5456 865.155,-265.5265"/>
<text text-anchor="middle" x="834.9916" y="-220" font-family="Times,serif" font-size="12.00" fill="#000000">parent</text>
</g>
<!-- n10&#45;&gt;n8 -->
<g id="edge15" class="edge">
<title>n10-&gt;n8</title>
<path fill="none" stroke="#000000" d="M1003.5569,-198.5236C1000.0987,-209.6482 995.1172,-221.3823 988,-230.8 978.6739,-243.1405 965.7431,-253.6573 952.9487,-262.0877"/>
<polygon fill="#000000" stroke="#000000" points="950.7796,-259.3162 944.1588,-267.5876 954.4927,-265.2503 950.7796,-259.3162"/>
<text text-anchor="middle" x="1010.9916" y="-220" font-family="Times,serif" font-size="12.00" fill="#000000">parent</text>
</g>
<!-- n10&#45;&gt;n8 -->
<g id="edge16" class="edge">
<title>n10-&gt;n8</title>
<path fill="none" stroke="#000000" d="M935.9389,-198.6688C929.7839,-203.9534 924.2029,-209.8529 919.6784,-216.4 911.4368,-228.326 908.1059,-244.0591 906.9066,-257.5297"/>
<polygon fill="#000000" stroke="#000000" points="903.4001,-257.5556 906.3487,-267.7319 910.3896,-257.9379 903.4001,-257.5556"/>
<text text-anchor="middle" x="929.6608" y="-220" font-family="Times,serif" font-size="12.00" fill="#000000">prev</text>
</g>
<!-- n11&#45;&gt;n7 -->
<g id="edge20" class="edge">
<title>n11-&gt;n7</title>
<path fill="none" stroke="#000000" d="M1261.058,-303.8585C1207.4567,-322.1419 1124.5767,-350.4124 1067.7155,-369.8077"/>
<polygon fill="#000000" stroke="#000000" points="1066.4536,-366.5401 1058.119,-373.0811 1068.7135,-373.1653 1066.4536,-366.5401"/>
<text text-anchor="middle" x="1164.9916" y="-344.4" font-family="Times,serif" font-size="12.00" fill="#000000">parent</text>
</g>
<!-- n12 -->
<g id="node12" class="node">
<title>n12</title>
<polygon fill="none" stroke="#000000" points="1483,-128.4 1483,-194.4 1655,-194.4 1655,-128.4 1483,-128.4"/>
<text text-anchor="start" x="1485.8099" y="-157.2" font-family="Times,serif" font-size="14.00" fill="#000000">java.util.HashMap$TreeNode</text>
<polygon fill="none" stroke="#000000" points="1655,-172.4 1655,-194.4 1716,-194.4 1716,-172.4 1655,-172.4"/>
<text text-anchor="start" x="1661.5859" y="-178.8" font-family="Times,serif" font-size="14.00" fill="#000000">left: null</text>
<polygon fill="none" stroke="#000000" points="1655,-150.4 1655,-172.4 1716,-172.4 1716,-150.4 1655,-150.4"/>
<text text-anchor="start" x="1657.6932" y="-156.8" font-family="Times,serif" font-size="14.00" fill="#000000">right: null</text>
<polygon fill="none" stroke="#000000" points="1655,-128.4 1655,-150.4 1716,-150.4 1716,-128.4 1655,-128.4"/>
<text text-anchor="start" x="1659.6546" y="-134.8" font-family="Times,serif" font-size="14.00" fill="#000000">red: false</text>
</g>
<!-- n11&#45;&gt;n12 -->
<g id="edge23" class="edge">
<title>n11-&gt;n12</title>
<path fill="none" stroke="#000000" d="M1381.9554,-267.7202C1413.6148,-258.3161 1451.4027,-245.6685 1484,-230.8 1500.9167,-223.0839 1518.4515,-213.4419 1534.5785,-203.8222"/>
<polygon fill="#000000" stroke="#000000" points="1536.639,-206.6663 1543.3801,-198.4927 1533.0132,-200.6784 1536.639,-206.6663"/>
<text text-anchor="middle" x="1517.9956" y="-220" font-family="Times,serif" font-size="12.00" fill="#000000">left</text>
</g>
<!-- n11&#45;&gt;n12 -->
<g id="edge33" class="edge">
<title>n11-&gt;n12</title>
<path fill="none" stroke="#000000" d="M1432.2098,-267.7835C1465.2681,-259.5943 1500.26,-247.781 1530,-230.8 1541.5224,-224.2209 1552.4358,-215.1976 1562.0397,-205.8335"/>
<polygon fill="#000000" stroke="#000000" points="1564.5978,-208.2239 1569.1169,-198.6411 1559.6083,-203.3142 1564.5978,-208.2239"/>
<text text-anchor="middle" x="1559.6608" y="-220" font-family="Times,serif" font-size="12.00" fill="#000000">prev</text>
</g>
<!-- n13 -->
<g id="node13" class="node">
<title>n13</title>
<polygon fill="none" stroke="#000000" points="1220,-150.4 1220,-172.4 1392,-172.4 1392,-150.4 1220,-150.4"/>
<text text-anchor="start" x="1222.8099" y="-156.8" font-family="Times,serif" font-size="14.00" fill="#000000">java.util.HashMap$TreeNode</text>
<polygon fill="none" stroke="#000000" points="1392,-150.4 1392,-172.4 1449,-172.4 1449,-150.4 1392,-150.4"/>
<text text-anchor="start" x="1394.6546" y="-156.8" font-family="Times,serif" font-size="14.00" fill="#000000">red: false</text>
</g>
<!-- n11&#45;&gt;n13 -->
<g id="edge32" class="edge">
<title>n11-&gt;n13</title>
<path fill="none" stroke="#000000" d="M1303.91,-267.6851C1297.3793,-253.5986 1291.0042,-233.6211 1296.3356,-216.4 1299.4673,-206.2844 1305.1719,-196.3736 1311.2102,-187.8135"/>
<polygon fill="#000000" stroke="#000000" points="1314.0639,-189.842 1317.2768,-179.746 1308.4693,-185.6349 1314.0639,-189.842"/>
<text text-anchor="middle" x="1307.3322" y="-220" font-family="Times,serif" font-size="12.00" fill="#000000">right</text>
</g>
<!-- n12&#45;&gt;n7 -->
<g id="edge22" class="edge">
<title>n12-&gt;n7</title>
<path fill="none" stroke="#000000" d="M1590.2712,-198.4491C1586.4822,-209.5702 1581.2111,-221.3211 1574,-230.8 1531.144,-287.1342 1509.5148,-296.0047 1444,-322.8 1389.9118,-344.9219 1246.0621,-364.8186 1137.6539,-377.3745"/>
<polygon fill="#000000" stroke="#000000" points="1137.1433,-373.91 1127.6083,-378.5288 1137.9425,-380.8643 1137.1433,-373.91"/>
<text text-anchor="middle" x="1569.6608" y="-282.2" font-family="Times,serif" font-size="12.00" fill="#000000">prev</text>
</g>
<!-- n12&#45;&gt;n11 -->
<g id="edge21" class="edge">
<title>n12-&gt;n11</title>
<path fill="none" stroke="#000000" d="M1497.4859,-198.4643C1482.8079,-204.2414 1467.9582,-210.3178 1454.0168,-216.4 1420.9512,-230.8254 1384.4602,-248.9886 1357.0228,-263.1149"/>
<polygon fill="#000000" stroke="#000000" points="1355.3568,-260.0361 1348.0831,-267.7395 1358.5732,-266.2534 1355.3568,-260.0361"/>
<text text-anchor="middle" x="1468.9916" y="-220" font-family="Times,serif" font-size="12.00" fill="#000000">parent</text>
</g>
<!-- n13&#45;&gt;n11 -->
<g id="edge24" class="edge">
<title>n13-&gt;n11</title>
<path fill="none" stroke="#000000" d="M1331.0883,-179.5107C1327.7837,-200.0651 1322.3537,-233.8401 1318.5023,-257.7959"/>
<polygon fill="#000000" stroke="#000000" points="1315.04,-257.2824 1316.9082,-267.7112 1321.9512,-258.3936 1315.04,-257.2824"/>
<text text-anchor="middle" x="1338.9916" y="-220" font-family="Times,serif" font-size="12.00" fill="#000000">parent</text>
</g>
<!-- n14 -->
<g id="node14" class="node">
<title>n14</title>
<polygon fill="none" stroke="#000000" points="1056,-4 1056,-70 1228,-70 1228,-4 1056,-4"/>
<text text-anchor="start" x="1058.8099" y="-32.8" font-family="Times,serif" font-size="14.00" fill="#000000">java.util.HashMap$TreeNode</text>
<polygon fill="none" stroke="#000000" points="1228,-48 1228,-70 1289,-70 1289,-48 1228,-48"/>
<text text-anchor="start" x="1234.5859" y="-54.4" font-family="Times,serif" font-size="14.00" fill="#000000">left: null</text>
<polygon fill="none" stroke="#000000" points="1228,-26 1228,-48 1289,-48 1289,-26 1228,-26"/>
<text text-anchor="start" x="1230.6932" y="-32.4" font-family="Times,serif" font-size="14.00" fill="#000000">right: null</text>
<polygon fill="none" stroke="#000000" points="1228,-4 1228,-26 1289,-26 1289,-4 1228,-4"/>
<text text-anchor="start" x="1234.9842" y="-10.4" font-family="Times,serif" font-size="14.00" fill="#000000">red: true</text>
</g>
<!-- n13&#45;&gt;n14 -->
<g id="edge27" class="edge">
<title>n13-&gt;n14</title>
<path fill="none" stroke="#000000" d="M1308.8148,-143.3178C1294.1705,-132.707 1275.4227,-118.957 1259.0088,-106.4 1248.1416,-98.0863 1236.629,-89.0619 1225.6595,-80.3561"/>
<polygon fill="#000000" stroke="#000000" points="1227.7887,-77.5775 1217.785,-74.0879 1223.4292,-83.0542 1227.7887,-77.5775"/>
<text text-anchor="middle" x="1266.9956" y="-95.6" font-family="Times,serif" font-size="12.00" fill="#000000">left</text>
</g>
<!-- n13&#45;&gt;n14 -->
<g id="edge31" class="edge">
<title>n13-&gt;n14</title>
<path fill="none" stroke="#000000" d="M1321.5304,-143.2141C1310.5513,-128.1534 1293.4698,-106.8852 1275,-92 1269.6446,-87.684 1263.8995,-83.5459 1257.962,-79.6144"/>
<polygon fill="#000000" stroke="#000000" points="1259.4639,-76.4216 1249.1482,-74.0054 1255.7056,-82.3271 1259.4639,-76.4216"/>
<text text-anchor="middle" x="1299.6608" y="-95.6" font-family="Times,serif" font-size="12.00" fill="#000000">prev</text>
</g>
<!-- n15 -->
<g id="node15" class="node">
<title>n15</title>
<polygon fill="none" stroke="#000000" points="1323,-4 1323,-70 1495,-70 1495,-4 1323,-4"/>
<text text-anchor="start" x="1325.8099" y="-32.8" font-family="Times,serif" font-size="14.00" fill="#000000">java.util.HashMap$TreeNode</text>
<polygon fill="none" stroke="#000000" points="1495,-48 1495,-70 1556,-70 1556,-48 1495,-48"/>
<text text-anchor="start" x="1501.5859" y="-54.4" font-family="Times,serif" font-size="14.00" fill="#000000">left: null</text>
<polygon fill="none" stroke="#000000" points="1495,-26 1495,-48 1556,-48 1556,-26 1495,-26"/>
<text text-anchor="start" x="1497.6932" y="-32.4" font-family="Times,serif" font-size="14.00" fill="#000000">right: null</text>
<polygon fill="none" stroke="#000000" points="1495,-4 1495,-26 1556,-26 1556,-4 1495,-4"/>
<text text-anchor="start" x="1501.9842" y="-10.4" font-family="Times,serif" font-size="14.00" fill="#000000">red: true</text>
</g>
<!-- n13&#45;&gt;n15 -->
<g id="edge30" class="edge">
<title>n13-&gt;n15</title>
<path fill="none" stroke="#000000" d="M1370.1086,-143.2036C1385.4154,-133.9626 1402.3659,-121.4793 1414,-106.4 1419.2291,-99.6224 1423.4319,-91.6526 1426.7879,-83.5753"/>
<polygon fill="#000000" stroke="#000000" points="1430.1039,-84.7009 1430.3492,-74.1089 1423.5522,-82.2361 1430.1039,-84.7009"/>
<text text-anchor="middle" x="1433.3322" y="-95.6" font-family="Times,serif" font-size="12.00" fill="#000000">right</text>
</g>
<!-- n14&#45;&gt;n11 -->
<g id="edge26" class="edge">
<title>n14-&gt;n11</title>
<path fill="none" stroke="#000000" d="M1165.2558,-74.2812C1160.9821,-108.8358 1159.7874,-160.4733 1181.6784,-198.4 1198.5567,-227.6421 1229.6302,-248.9246 1257.4251,-263.163"/>
<polygon fill="#000000" stroke="#000000" points="1256.182,-266.4519 1266.7003,-267.7229 1259.2704,-260.17 1256.182,-266.4519"/>
<text text-anchor="middle" x="1191.6608" y="-157.8" font-family="Times,serif" font-size="12.00" fill="#000000">prev</text>
</g>
<!-- n14&#45;&gt;n13 -->
<g id="edge25" class="edge">
<title>n14-&gt;n13</title>
<path fill="none" stroke="#000000" d="M1184.3169,-74.0367C1189.5673,-85.5423 1196.6841,-97.5213 1206.0168,-106.4 1220.8562,-120.5174 1239.8843,-131.3135 1258.7055,-139.4408"/>
<polygon fill="#000000" stroke="#000000" points="1257.6258,-142.7807 1268.2062,-143.3347 1260.2805,-136.3036 1257.6258,-142.7807"/>
<text text-anchor="middle" x="1220.9916" y="-95.6" font-family="Times,serif" font-size="12.00" fill="#000000">parent</text>
</g>
<!-- n15&#45;&gt;n13 -->
<g id="edge28" class="edge">
<title>n15-&gt;n13</title>
<path fill="none" stroke="#000000" d="M1357.9554,-74.2187C1351.8649,-79.4754 1346.3989,-85.3834 1342.0168,-92 1334.0902,-103.9687 1331.7795,-119.705 1331.5862,-133.1667"/>
<polygon fill="#000000" stroke="#000000" points="1328.0915,-133.442 1331.8183,-143.3597 1335.0896,-133.2826 1328.0915,-133.442"/>
<text text-anchor="middle" x="1356.9916" y="-95.6" font-family="Times,serif" font-size="12.00" fill="#000000">parent</text>
</g>
<!-- n15&#45;&gt;n13 -->
<g id="edge29" class="edge">
<title>n15-&gt;n13</title>
<path fill="none" stroke="#000000" d="M1407.6721,-74.1161C1390.944,-93.9349 1370.7711,-117.835 1355.767,-135.6113"/>
<polygon fill="#000000" stroke="#000000" points="1353.0434,-133.4118 1349.2679,-143.3112 1358.3926,-137.9269 1353.0434,-133.4118"/>
<text text-anchor="middle" x="1399.6608" y="-95.6" font-family="Times,serif" font-size="12.00" fill="#000000">prev</text>
</g>
</g>
</svg>