<?xml version="1.0" encoding="UTF-8" standalone="no"?><!DOCTYPE svg PUBLIC "-//W3C//DTD SVG 1.1//EN" "http://www.w3.org/Graphics/SVG/1.1/DTD/svg11.dtd"><!-- Generated by graphviz version 2.40.1 (20161225.0304)
 --><!-- Title: Java Pages: 1 --><svg xmlns="http://www.w3.org/2000/svg" xmlns:xlink="http://www.w3.org/1999/xlink" width="395pt" height="390pt" viewBox="0.00 0.00 395.00 389.60">
<g id="graph0" class="graph" transform="scale(1 1) rotate(0) translate(4 385.6)">
<title>Java</title>
<polygon fill="#ffffff" stroke="transparent" points="-4,4 -4,-385.6 391,-385.6 391,4 -4,4"/>
<!-- n1 -->
<g id="node1" class="node">
<title>n1</title>
<polygon fill="none" stroke="#000000" points="91.5,-352.6 91.5,-374.6 240.5,-374.6 240.5,-352.6 91.5,-352.6"/>
<text text-anchor="start" x="94.4628" y="-359" font-family="Times,serif" font-size="14.00" fill="#000000">java.util.LinkedHashMap</text>
<polygon fill="none" stroke="#000000" points="240.5,-352.6 240.5,-374.6 348.5,-374.6 348.5,-352.6 240.5,-352.6"/>
<text text-anchor="start" x="243.3972" y="-359" font-family="Times,serif" font-size="14.00" fill="#000000">accessOrder: false</text>
</g>
<!-- n2 -->
<g id="node2" class="node">
<title>n2</title>
<polygon fill="none" stroke="#000000" points="8.5,-266.2 8.5,-288.2 195.5,-288.2 195.5,-266.2 8.5,-266.2"/>
<text text-anchor="start" x="11.4109" y="-272.6" font-family="Times,serif" font-size="14.00" fill="#000000">java.util.LinkedHashMap$Entry</text>
<polygon fill="none" stroke="#000000" points="195.5,-266.2 195.5,-288.2 265.5,-288.2 265.5,-266.2 195.5,-266.2"/>
<text text-anchor="start" x="198.0389" y="-272.6" font-family="Times,serif" font-size="14.00" fill="#000000">before: null</text>
</g>
<!-- n1&#45;&gt;n2 -->
<g id="edge7" class="edge">
<title>n1-&gt;n2</title>
<path fill="none" stroke="#000000" d="M201.8978,-345.2768C189.933,-332.8218 173.9479,-316.1819 160.7766,-302.4711"/>
<polygon fill="#000000" stroke="#000000" points="163.244,-299.9874 153.7922,-295.2005 158.1959,-304.8368 163.244,-299.9874"/>
<text text-anchor="middle" x="194.8268" y="-316.8" font-family="Times,serif" font-size="12.00" fill="#000000">head</text>
</g>
<!-- n5 -->
<g id="node5" class="node">
<title>n5</title>
<polygon fill="none" stroke="#000000" points="132.5,-7 132.5,-29 319.5,-29 319.5,-7 132.5,-7"/>
<text text-anchor="start" x="135.4109" y="-13.4" font-family="Times,serif" font-size="14.00" fill="#000000">java.util.LinkedHashMap$Entry</text>
<polygon fill="none" stroke="#000000" points="319.5,-7 319.5,-29 379.5,-29 379.5,-7 319.5,-7"/>
<text text-anchor="start" x="322.0936" y="-13.4" font-family="Times,serif" font-size="14.00" fill="#000000">after: null</text>
</g>
<!-- n1&#45;&gt;n5 -->
<g id="edge8" class="edge">
<title>n1-&gt;n5</title>
<path fill="none" stroke="#000000" d="M252.8525,-345.5577C275.5547,-330.5944 301.5,-306.9794 301.5,-277.2 301.5,-277.2 301.5,-277.2 301.5,-104.4 301.5,-82.4625 289.8026,-60.6792 278.2052,-44.4732"/>
<polygon fill="#000000" stroke="#000000" points="280.6749,-41.9369 271.8474,-36.078 275.0945,-46.163 280.6749,-41.9369"/>
<text text-anchor="middle" x="309.1656" y="-187.2" font-family="Times,serif" font-size="12.00" fill="#000000">tail</text>
</g>
<!-- n3 -->
<g id="node3" class="node">
<title>n3</title>
<polygon fill="none" stroke="#000000" points="149.5,-179.8 149.5,-201.8 190.5,-201.8 190.5,-179.8 149.5,-179.8"/>
<text text-anchor="start" x="152.0541" y="-186.2" font-family="Times,serif" font-size="14.00" fill="#000000">two=2</text>
</g>
<!-- n2&#45;&gt;n3 -->
<g id="edge6" class="edge">
<title>n2-&gt;n3</title>
<path fill="none" stroke="#000000" d="M126.962,-258.8234C123.1951,-248.9737 120.768,-236.8353 125.522,-226.8 127.5246,-222.5728 130.2935,-218.6767 133.4764,-215.134"/>
<polygon fill="#000000" stroke="#000000" points="136.1719,-217.3985 140.9685,-207.9516 131.3277,-212.3453 136.1719,-217.3985"/>
<text text-anchor="middle" x="137.489" y="-230.4" font-family="Times,serif" font-size="12.00" fill="#000000">after</text>
</g>
<!-- n3&#45;&gt;n2 -->
<g id="edge1" class="edge">
<title>n3-&gt;n2</title>
<path fill="none" stroke="#000000" d="M163.2274,-209.0802C159.8671,-218.6852 155.5875,-230.6272 151.5,-241.2 150.4471,-243.9235 149.3232,-246.751 148.1823,-249.5702"/>
<polygon fill="#000000" stroke="#000000" points="144.8871,-248.3805 144.3151,-258.9599 151.3596,-251.0462 144.8871,-248.3805"/>
<text text-anchor="middle" x="172.8216" y="-230.4" font-family="Times,serif" font-size="12.00" fill="#000000">before</text>
</g>
<!-- n4 -->
<g id="node4" class="node">
<title>n4</title>
<polygon fill="none" stroke="#000000" points="187.5,-93.4 187.5,-115.4 235.5,-115.4 235.5,-93.4 187.5,-93.4"/>
<text text-anchor="start" x="190.0625" y="-99.8" font-family="Times,serif" font-size="14.00" fill="#000000">three=3</text>
</g>
<!-- n3&#45;&gt;n4 -->
<g id="edge5" class="edge">
<title>n3-&gt;n4</title>
<path fill="none" stroke="#000000" d="M163.1595,-172.695C160.7482,-162.6991 159.6189,-150.3346 164.522,-140.4 166.4149,-136.5646 168.9343,-133.0247 171.8263,-129.7856"/>
<polygon fill="#000000" stroke="#000000" points="174.3391,-132.2251 179.1313,-122.776 169.4925,-127.1743 174.3391,-132.2251"/>
<text text-anchor="middle" x="176.489" y="-144" font-family="Times,serif" font-size="12.00" fill="#000000">after</text>
</g>
<!-- n4&#45;&gt;n3 -->
<g id="edge2" class="edge">
<title>n4-&gt;n3</title>
<path fill="none" stroke="#000000" d="M204.4945,-122.8591C200.6596,-132.5131 195.6489,-144.4449 190.5,-154.8 189.0181,-157.7803 187.3907,-160.8519 185.718,-163.8858"/>
<polygon fill="#000000" stroke="#000000" points="182.579,-162.3249 180.6638,-172.7452 188.6592,-165.7935 182.579,-162.3249"/>
<text text-anchor="middle" x="212.8216" y="-144" font-family="Times,serif" font-size="12.00" fill="#000000">before</text>
</g>
<!-- n4&#45;&gt;n5 -->
<g id="edge4" class="edge">
<title>n4-&gt;n5</title>
<path fill="none" stroke="#000000" d="M205.639,-86.2623C203.4636,-76.2562 202.5772,-63.8923 207.522,-54 209.4601,-50.1227 212.0364,-46.5546 214.9921,-43.2975"/>
<polygon fill="#000000" stroke="#000000" points="217.5789,-45.669 222.4555,-36.2632 212.7777,-40.575 217.5789,-45.669"/>
<text text-anchor="middle" x="218.489" y="-57.6" font-family="Times,serif" font-size="12.00" fill="#000000">after</text>
</g>
<!-- n5&#45;&gt;n4 -->
<g id="edge3" class="edge">
<title>n5-&gt;n4</title>
<path fill="none" stroke="#000000" d="M248.3455,-36.0056C244.3,-45.7466 238.9675,-57.8995 233.5,-68.4 231.9439,-71.3885 230.2367,-74.4653 228.483,-77.5023"/>
<polygon fill="#000000" stroke="#000000" points="225.3119,-75.9859 223.1866,-86.3653 231.3207,-79.5767 225.3119,-75.9859"/>
<text text-anchor="middle" x="254.8216" y="-57.6" font-family="Times,serif" font-size="12.00" fill="#000000">before</text>
</g>
</g>
</svg>