<?xml version="1.0" encoding="UTF-8" standalone="no"?>
<!DOCTYPE svg PUBLIC "-//W3C//DTD SVG 1.1//EN" "http://www.w3.org/Graphics/SVG/1.1/DTD/svg11.dtd">
<!-- Generated by graphviz version 2.40.1 (20161225.0304)
 -->
<!-- Title: Java Pages: 1 -->
<svg width="295pt" height="438pt" viewBox="0.00 0.00 295.00 437.60" xmlns="http://www.w3.org/2000/svg" xmlns:xlink="http://www.w3.org/1999/xlink">
<g id="graph0" class="graph" transform="scale(1 1) rotate(0) translate(4 433.6)">
<title>Java</title>
<polygon fill="#ffffff" stroke="transparent" points="-4,4 -4,-433.6 291,-433.6 291,4 -4,4"/>
<!-- n1 -->
<g id="node1" class="node">
<title>n1</title>
<polygon fill="none" stroke="#000000" points="92.5,-403.6 92.5,-425.6 241.5,-425.6 241.5,-403.6 92.5,-403.6"/>
<text text-anchor="start" x="95.4628" y="-410" font-family="Times,serif" font-size="14.00" fill="#000000">java.util.LinkedHashMap</text>
<polygon fill="none" stroke="#000000" points="92.5,-381.6 92.5,-403.6 241.5,-403.6 241.5,-381.6 92.5,-381.6"/>
<text text-anchor="start" x="115.8972" y="-388" font-family="Times,serif" font-size="14.00" fill="#000000">accessOrder: false</text>
</g>
<!-- n2 -->
<g id="node2" class="node">
<title>n2</title>
<polygon fill="none" stroke="#000000" points="8.5,-301.2 8.5,-323.2 195.5,-323.2 195.5,-301.2 8.5,-301.2"/>
<text text-anchor="start" x="11.4109" y="-307.6" font-family="Times,serif" font-size="14.00" fill="#000000">java.util.LinkedHashMap$Entry</text>
<polygon fill="none" stroke="#000000" points="8.5,-279.2 8.5,-301.2 195.5,-301.2 195.5,-279.2 8.5,-279.2"/>
<text text-anchor="start" x="69.5389" y="-285.6" font-family="Times,serif" font-size="14.00" fill="#000000">before: null</text>
</g>
<!-- n1&#45;&gt;n2 -->
<g id="edge7" class="edge">
<title>n1-&gt;n2</title>
<path fill="none" stroke="#000000" d="M149.9296,-377.4952C141.9074,-364.8572 132.165,-349.5091 123.5275,-335.9017"/>
<polygon fill="#000000" stroke="#000000" points="126.3543,-333.8241 118.0402,-327.2571 120.4444,-337.5756 126.3543,-333.8241"/>
<text text-anchor="middle" x="149.8268" y="-348.8" font-family="Times,serif" font-size="12.00" fill="#000000">head</text>
</g>
<!-- n5 -->
<g id="node5" class="node">
<title>n5</title>
<polygon fill="none" stroke="#000000" points="92.5,-26 92.5,-48 279.5,-48 279.5,-26 92.5,-26"/>
<text text-anchor="start" x="95.4109" y="-32.4" font-family="Times,serif" font-size="14.00" fill="#000000">java.util.LinkedHashMap$Entry</text>
<polygon fill="none" stroke="#000000" points="92.5,-4 92.5,-26 279.5,-26 279.5,-4 92.5,-4"/>
<text text-anchor="start" x="158.5936" y="-10.4" font-family="Times,serif" font-size="14.00" fill="#000000">after: null</text>
</g>
<!-- n1&#45;&gt;n5 -->
<g id="edge8" class="edge">
<title>n1-&gt;n5</title>
<path fill="none" stroke="#000000" d="M194.8209,-377.3247C212.337,-358.1429 231.5,-330.4691 231.5,-301.2 231.5,-301.2 231.5,-301.2 231.5,-120.4 231.5,-99.1308 221.9467,-77.6422 211.5474,-60.5514"/>
<polygon fill="#000000" stroke="#000000" points="214.4284,-58.5604 206.0782,-52.0392 208.5392,-62.3443 214.4284,-58.5604"/>
<text text-anchor="middle" x="239.1656" y="-203.2" font-family="Times,serif" font-size="12.00" fill="#000000">tail</text>
</g>
<!-- n3 -->
<g id="node3" class="node">
<title>n3</title>
<polygon fill="none" stroke="#000000" points="106.5,-195.8 106.5,-217.8 147.5,-217.8 147.5,-195.8 106.5,-195.8"/>
<text text-anchor="start" x="109.0541" y="-202.2" font-family="Times,serif" font-size="14.00" fill="#000000">two=2</text>
</g>
<!-- n2&#45;&gt;n3 -->
<g id="edge6" class="edge">
<title>n2-&gt;n3</title>
<path fill="none" stroke="#000000" d="M93.8774,-274.9782C92.143,-264.6821 91.764,-252.9287 95.522,-242.8 96.7643,-239.4517 98.4729,-236.206 100.4546,-233.1238"/>
<polygon fill="#000000" stroke="#000000" points="103.4052,-235.0229 106.6018,-224.9217 97.8038,-230.8247 103.4052,-235.0229"/>
<text text-anchor="middle" x="107.489" y="-246.4" font-family="Times,serif" font-size="12.00" fill="#000000">after</text>
</g>
<!-- n3&#45;&gt;n2 -->
<g id="edge1" class="edge">
<title>n3-&gt;n2</title>
<path fill="none" stroke="#000000" d="M126.1146,-225.2557C125.5525,-234.9088 124.2864,-246.8408 121.5,-257.2 120.744,-260.0107 119.8257,-262.8676 118.8029,-265.7065"/>
<polygon fill="#000000" stroke="#000000" points="115.4713,-264.6114 115.0072,-275.1961 121.9707,-267.2111 115.4713,-264.6114"/>
<text text-anchor="middle" x="139.8216" y="-246.4" font-family="Times,serif" font-size="12.00" fill="#000000">before</text>
</g>
<!-- n4 -->
<g id="node4" class="node">
<title>n4</title>
<polygon fill="none" stroke="#000000" points="131.5,-109.4 131.5,-131.4 179.5,-131.4 179.5,-109.4 131.5,-109.4"/>
<text text-anchor="start" x="134.0625" y="-115.8" font-family="Times,serif" font-size="14.00" fill="#000000">three=3</text>
</g>
<!-- n3&#45;&gt;n4 -->
<g id="edge5" class="edge">
<title>n3-&gt;n4</title>
<path fill="none" stroke="#000000" d="M121.2721,-188.5101C119.3881,-178.6858 118.5781,-166.544 122.522,-156.4 123.8206,-153.0598 125.5899,-149.841 127.6389,-146.7945"/>
<polygon fill="#000000" stroke="#000000" points="130.5674,-148.7324 133.9956,-138.7075 125.0641,-144.4065 130.5674,-148.7324"/>
<text text-anchor="middle" x="134.489" y="-160" font-family="Times,serif" font-size="12.00" fill="#000000">after</text>
</g>
<!-- n4&#45;&gt;n3 -->
<g id="edge2" class="edge">
<title>n4-&gt;n3</title>
<path fill="none" stroke="#000000" d="M154.7767,-138.5535C153.9444,-148.3378 152.1869,-160.485 148.5,-170.8 147.4492,-173.74 146.1383,-176.699 144.6833,-179.5891"/>
<polygon fill="#000000" stroke="#000000" points="141.5351,-178.0469 139.6855,-188.4791 147.637,-181.4773 141.5351,-178.0469"/>
<text text-anchor="middle" x="167.8216" y="-160" font-family="Times,serif" font-size="12.00" fill="#000000">before</text>
</g>
<!-- n4&#45;&gt;n5 -->
<g id="edge4" class="edge">
<title>n4-&gt;n5</title>
<path fill="none" stroke="#000000" d="M144.7478,-102.3167C140.3594,-92.5529 137.2145,-80.403 141.522,-70 142.8855,-66.707 144.6283,-63.5319 146.6298,-60.4989"/>
<polygon fill="#000000" stroke="#000000" points="149.5671,-62.4194 152.856,-52.348 144.0043,-58.1702 149.5671,-62.4194"/>
<text text-anchor="middle" x="153.489" y="-73.6" font-family="Times,serif" font-size="12.00" fill="#000000">after</text>
</g>
<!-- n5&#45;&gt;n4 -->
<g id="edge3" class="edge">
<title>n5-&gt;n4</title>
<path fill="none" stroke="#000000" d="M177.1234,-52.3584C173.1415,-64.888 168.3805,-79.8693 164.3408,-92.581"/>
<polygon fill="#000000" stroke="#000000" points="160.9775,-91.6083 161.2843,-102.1987 167.6487,-93.7285 160.9775,-91.6083"/>
<text text-anchor="middle" x="185.8216" y="-73.6" font-family="Times,serif" font-size="12.00" fill="#000000">before</text>
</g>
</g>
</svg>