<?xml version="1.0" encoding="UTF-8" standalone="no"?><!DOCTYPE svg PUBLIC "-//W3C//DTD SVG 1.1//EN" "http://www.w3.org/Graphics/SVG/1.1/DTD/svg11.dtd"><!-- Generated by graphviz version 2.40.1 (20161225.0304)
 --><!-- Title: Java Pages: 1 --><svg xmlns="http://www.w3.org/2000/svg" xmlns:xlink="http://www.w3.org/1999/xlink" width="285pt" height="335pt" viewBox="0.00 0.00 284.50 335.20">
<g id="graph0" class="graph" transform="scale(1 1) rotate(0) translate(4 331.2)">
<title>Java</title>
<polygon fill="#ffffff" stroke="transparent" points="-4,4 -4,-331.2 280.5,-331.2 280.5,4 -4,4"/>
<!-- n1 -->
<g id="node1" class="node">
<title>n1</title>
<polygon fill="none" stroke="#000000" points="107.5,-298.2 107.5,-320.2 223.5,-320.2 223.5,-298.2 107.5,-298.2"/>
<text text-anchor="start" x="110.2861" y="-304.6" font-family="Times,serif" font-size="14.00" fill="#000000">java.util.LinkedList</text>
<polygon fill="none" stroke="#000000" points="223.5,-298.2 223.5,-320.2 265.5,-320.2 265.5,-298.2 223.5,-298.2"/>
<text text-anchor="start" x="226.4225" y="-304.6" font-family="Times,serif" font-size="14.00" fill="#000000">size: 3</text>
</g>
<!-- n2 -->
<g id="node2" class="node">
<title>n2</title>
<polygon fill="none" stroke="#000000" points="8.5,-192.8 8.5,-236.8 161.5,-236.8 161.5,-192.8 8.5,-192.8"/>
<text text-anchor="start" x="11.1255" y="-210.6" font-family="Times,serif" font-size="14.00" fill="#000000">java.util.LinkedList$Node</text>
<polygon fill="none" stroke="#000000" points="161.5,-214.8 161.5,-236.8 221.5,-236.8 221.5,-214.8 161.5,-214.8"/>
<text text-anchor="start" x="171.8615" y="-221.2" font-family="Times,serif" font-size="14.00" fill="#000000">item: 1</text>
<polygon fill="none" stroke="#000000" points="161.5,-192.8 161.5,-214.8 221.5,-214.8 221.5,-192.8 161.5,-192.8"/>
<text text-anchor="start" x="164.4765" y="-199.2" font-family="Times,serif" font-size="14.00" fill="#000000">prev: null</text>
</g>
<!-- n1&#45;&gt;n2 -->
<g id="edge5" class="edge">
<title>n1-&gt;n2</title>
<path fill="none" stroke="#ff0000" d="M172.6177,-290.9987C163.5995,-279.1749 151.558,-263.3872 140.775,-249.2494"/>
<polygon fill="#ff0000" stroke="#ff0000" points="143.4513,-246.9871 134.6039,-241.1584 137.8855,-251.2322 143.4513,-246.9871"/>
<text text-anchor="middle" x="166.163" y="-262.4" font-family="Times,serif" font-size="12.00" fill="#ff0000">first</text>
</g>
<!-- n4 -->
<g id="node4" class="node">
<title>n4</title>
<polygon fill="none" stroke="#000000" points="56.5,-4 56.5,-48 209.5,-48 209.5,-4 56.5,-4"/>
<text text-anchor="start" x="59.1255" y="-21.8" font-family="Times,serif" font-size="14.00" fill="#000000">java.util.LinkedList$Node</text>
<polygon fill="none" stroke="#000000" points="209.5,-26 209.5,-48 268.5,-48 268.5,-26 209.5,-26"/>
<text text-anchor="start" x="215.8615" y="-32.4" font-family="Times,serif" font-size="14.00" fill="#000000">item: 21</text>
<polygon fill="none" stroke="#000000" points="209.5,-4 209.5,-26 268.5,-26 268.5,-4 209.5,-4"/>
<text text-anchor="start" x="212.3615" y="-10.4" font-family="Times,serif" font-size="14.00" fill="#000000">next: null</text>
</g>
<!-- n1&#45;&gt;n4 -->
<g id="edge6" class="edge">
<title>n1-&gt;n4</title>
<path fill="none" stroke="#ff0000" d="M205.5321,-291.1551C217.5408,-278.3939 231.9743,-260.1664 238.5,-240.8 243.4903,-225.9902 244.1913,-118.5012 237.5,-102.4 230.643,-85.9 218.3597,-71.0186 205.6926,-58.8669"/>
<polygon fill="#ff0000" stroke="#ff0000" points="207.9682,-56.2051 198.228,-52.0361 203.2424,-61.3692 207.9682,-56.2051"/>
<text text-anchor="middle" x="249.8316" y="-160" font-family="Times,serif" font-size="12.00" fill="#ff0000">last</text>
</g>
<!-- n3 -->
<g id="node3" class="node">
<title>n3</title>
<polygon fill="none" stroke="#000000" points="16.5,-109.4 16.5,-131.4 169.5,-131.4 169.5,-109.4 16.5,-109.4"/>
<text text-anchor="start" x="19.1255" y="-115.8" font-family="Times,serif" font-size="14.00" fill="#000000">java.util.LinkedList$Node</text>
<polygon fill="none" stroke="#000000" points="169.5,-109.4 169.5,-131.4 221.5,-131.4 221.5,-109.4 169.5,-109.4"/>
<text text-anchor="start" x="172.3615" y="-115.8" font-family="Times,serif" font-size="14.00" fill="#000000">item: 42</text>
</g>
<!-- n2&#45;&gt;n3 -->
<g id="edge4" class="edge">
<title>n2-&gt;n3</title>
<path fill="none" stroke="#ff0000" d="M96.1304,-188.5531C91.3111,-178.569 88.3282,-167.0376 91.8384,-156.4 92.8864,-153.2242 94.3345,-150.0995 96.0188,-147.0985"/>
<polygon fill="#ff0000" stroke="#ff0000" points="99.0726,-148.8235 101.6162,-138.5385 93.214,-144.9925 99.0726,-148.8235"/>
<text text-anchor="middle" x="102.8308" y="-160" font-family="Times,serif" font-size="12.00" fill="#ff0000">next</text>
</g>
<!-- n3&#45;&gt;n2 -->
<g id="edge3" class="edge">
<title>n3-&gt;n2</title>
<path fill="none" stroke="#0000ff" d="M117.8032,-138.5972C117.4299,-148.1795 116.9544,-160.1263 116.5,-170.8 116.3919,-173.3403 116.2781,-175.9629 116.1619,-178.6037"/>
<polygon fill="#0000ff" stroke="#0000ff" points="112.6589,-178.5967 115.7093,-188.7429 119.6519,-178.909 112.6589,-178.5967"/>
<text text-anchor="middle" x="128.1608" y="-160" font-family="Times,serif" font-size="12.00" fill="#0000ff">prev</text>
</g>
<!-- n3&#45;&gt;n4 -->
<g id="edge2" class="edge">
<title>n3-&gt;n4</title>
<path fill="none" stroke="#ff0000" d="M113.6733,-101.976C112.0236,-92.1125 111.5336,-79.976 115.8384,-70 117.3383,-66.5241 119.2629,-63.1953 121.4728,-60.0359"/>
<polygon fill="#ff0000" stroke="#ff0000" points="124.3346,-62.063 127.8937,-52.0838 118.8884,-57.6654 124.3346,-62.063"/>
<text text-anchor="middle" x="126.8308" y="-73.6" font-family="Times,serif" font-size="12.00" fill="#ff0000">next</text>
</g>
<!-- n4&#45;&gt;n3 -->
<g id="edge1" class="edge">
<title>n4-&gt;n3</title>
<path fill="none" stroke="#0000ff" d="M153.884,-52.0257C150.1792,-62.2948 145.5409,-74.0809 140.5,-84.4 139.0532,-87.3616 137.4353,-90.3944 135.7511,-93.3818"/>
<polygon fill="#0000ff" stroke="#0000ff" points="132.6786,-91.7016 130.6046,-102.0915 138.7051,-95.2627 132.6786,-91.7016"/>
<text text-anchor="middle" x="158.1608" y="-73.6" font-family="Times,serif" font-size="12.00" fill="#0000ff">prev</text>
</g>
</g>
</svg>