<?xml version="1.0" encoding="UTF-8" standalone="no"?><!DOCTYPE svg PUBLIC "-//W3C//DTD SVG 1.1//EN" "http://www.w3.org/Graphics/SVG/1.1/DTD/svg11.dtd"><!-- Generated by graphviz version 2.40.1 (20161225.0304)
 --><!-- Title: Java Pages: 1 --><svg xmlns="http://www.w3.org/2000/svg" xmlns:xlink="http://www.w3.org/1999/xlink" width="702pt" height="212pt" viewBox="0.00 0.00 701.64 212.40">
<g id="graph0" class="graph" transform="scale(1 1) rotate(0) translate(4 208.4)">
<title>Java</title>
<polygon fill="#ffffff" stroke="transparent" points="-4,4 -4,-208.4 697.636,-208.4 697.636,4 -4,4"/>
<!-- n1 -->
<g id="node1" class="node">
<title>n1</title>
<polygon fill="none" stroke="#000000" points="8.5,-96 8.5,-118 117.5,-118 117.5,-96 8.5,-96"/>
<text text-anchor="start" x="11.2938" y="-102.4" font-family="Times,serif" font-size="14.00" fill="#000000">java.util.ArrayList</text>
<polygon fill="none" stroke="#000000" points="8.5,-74 8.5,-96 117.5,-96 117.5,-74 8.5,-74"/>
<text text-anchor="start" x="44.9225" y="-80.4" font-family="Times,serif" font-size="14.00" fill="#000000">size: 3</text>
</g>
<!-- n2 -->
<g id="node2" class="node">
<title>n2</title>
<polygon fill="none" stroke="#000000" points="229.636,-86 229.636,-106 249.636,-106 249.636,-86 229.636,-86"/>
<polygon fill="none" stroke="#000000" points="249.636,-86 249.636,-106 269.636,-106 269.636,-86 249.636,-86"/>
<polygon fill="none" stroke="#000000" points="269.636,-86 269.636,-106 289.636,-106 289.636,-86 269.636,-86"/>
<polygon fill="none" stroke="#000000" points="289.636,-86 289.636,-106 309.636,-106 309.636,-86 289.636,-86"/>
<polygon fill="none" stroke="#000000" points="309.636,-86 309.636,-106 329.636,-106 329.636,-86 309.636,-86"/>
<polygon fill="none" stroke="#000000" points="329.636,-86 329.636,-106 349.636,-106 349.636,-86 329.636,-86"/>
<polygon fill="none" stroke="#000000" points="349.636,-86 349.636,-106 369.636,-106 369.636,-86 349.636,-86"/>
<polygon fill="none" stroke="#000000" points="369.636,-86 369.636,-106 389.636,-106 389.636,-86 369.636,-86"/>
<polygon fill="none" stroke="#000000" points="389.636,-86 389.636,-106 409.636,-106 409.636,-86 389.636,-86"/>
<polygon fill="none" stroke="#000000" points="409.636,-86 409.636,-106 429.636,-106 429.636,-86 409.636,-86"/>
</g>
<!-- n1&#45;&gt;n2 -->
<g id="edge4" class="edge">
<title>n1-&gt;n2</title>
<path fill="none" stroke="#000000" d="M125.1315,-96C150.9021,-96 181.6357,-96 211.3474,-96"/>
<polygon fill="#000000" stroke="#000000" points="211.3757,-99.5001 221.3757,-96 211.3757,-92.5001 211.3757,-99.5001"/>
<text text-anchor="middle" x="173.318" y="-99.6" font-family="Times,serif" font-size="12.00" fill="#000000">elementData</text>
</g>
<!-- n3 -->
<g id="node3" class="node">
<title>n3</title>
<polygon fill="none" stroke="#000000" points="487.636,-166 487.636,-188 685.636,-188 685.636,-166 487.636,-166"/>
<text text-anchor="start" x="567.5848" y="-172.4" font-family="Times,serif" font-size="14.00" fill="#000000">Person</text>
<polygon fill="none" stroke="#000000" points="487.636,-144 487.636,-166 566.636,-166 566.636,-144 487.636,-144"/>
<text text-anchor="start" x="490.3993" y="-150.4" font-family="Times,serif" font-size="14.00" fill="#000000">name: Albert</text>
<polygon fill="none" stroke="#000000" points="566.636,-144 566.636,-166 639.636,-166 639.636,-144 566.636,-144"/>
<text text-anchor="start" x="569.508" y="-150.4" font-family="Times,serif" font-size="14.00" fill="#000000">isMale: true</text>
<polygon fill="none" stroke="#000000" points="639.636,-144 639.636,-166 685.636,-166 685.636,-144 639.636,-144"/>
<text text-anchor="start" x="642.2261" y="-150.4" font-family="Times,serif" font-size="14.00" fill="#000000">age: 35</text>
</g>
<!-- n2&#45;&gt;n3 -->
<g id="edge1" class="edge">
<title>n2:f0-&gt;n3</title>
<path fill="none" stroke="#000000" d="M239.636,-106C239.636,-201.4064 368.5786,-202.792 469.2611,-189.3315"/>
<polygon fill="#000000" stroke="#000000" points="469.7998,-192.7904 479.2194,-187.9404 468.8313,-185.8577 469.7998,-192.7904"/>
<text text-anchor="middle" x="458.636" y="-193.6" font-family="Times,serif" font-size="12.00" fill="#000000">0</text>
</g>
<!-- n4 -->
<g id="node4" class="node">
<title>n4</title>
<polygon fill="none" stroke="#000000" points="488.636,-96 488.636,-118 685.636,-118 685.636,-96 488.636,-96"/>
<text text-anchor="start" x="568.0848" y="-102.4" font-family="Times,serif" font-size="14.00" fill="#000000">Person</text>
<polygon fill="none" stroke="#000000" points="488.636,-74 488.636,-96 562.636,-96 562.636,-74 488.636,-74"/>
<text text-anchor="start" x="491.6146" y="-80.4" font-family="Times,serif" font-size="14.00" fill="#000000">name: Betty</text>
<polygon fill="none" stroke="#000000" points="562.636,-74 562.636,-96 639.636,-96 639.636,-74 562.636,-74"/>
<text text-anchor="start" x="565.1784" y="-80.4" font-family="Times,serif" font-size="14.00" fill="#000000">isMale: false</text>
<polygon fill="none" stroke="#000000" points="639.636,-74 639.636,-96 685.636,-96 685.636,-74 639.636,-74"/>
<text text-anchor="start" x="642.2261" y="-80.4" font-family="Times,serif" font-size="14.00" fill="#000000">age: 20</text>
</g>
<!-- n2&#45;&gt;n4 -->
<g id="edge2" class="edge">
<title>n2:f1-&gt;n4</title>
<path fill="none" stroke="#000000" d="M259.636,-86C259.636,-42.5951 376.1956,-54.5833 470.1343,-71.293"/>
<polygon fill="#000000" stroke="#000000" points="469.5528,-74.7445 480.0164,-73.0825 470.8002,-67.8565 469.5528,-74.7445"/>
<text text-anchor="middle" x="458.636" y="-72.6" font-family="Times,serif" font-size="12.00" fill="#000000">1</text>
</g>
<!-- n5 -->
<g id="node5" class="node">
<title>n5</title>
<polygon fill="none" stroke="#000000" points="543.636,-26 543.636,-48 630.636,-48 630.636,-26 543.636,-26"/>
<text text-anchor="start" x="547.0883" y="-32.4" font-family="Times,serif" font-size="14.00" fill="#000000">java.awt.Point</text>
<polygon fill="none" stroke="#000000" points="543.636,-4 543.636,-26 584.636,-26 584.636,-4 543.636,-4"/>
<text text-anchor="start" x="546.4407" y="-10.4" font-family="Times,serif" font-size="14.00" fill="#000000">x: 100</text>
<polygon fill="none" stroke="#000000" points="584.636,-4 584.636,-26 630.636,-26 630.636,-4 584.636,-4"/>
<text text-anchor="start" x="587.6104" y="-10.4" font-family="Times,serif" font-size="14.00" fill="#000000">y: -100</text>
</g>
<!-- n2&#45;&gt;n5 -->
<g id="edge3" class="edge">
<title>n2:f2-&gt;n5</title>
<path fill="none" stroke="#000000" d="M279.636,-86C279.636,12.962 435.1911,1.4385 524.8454,-13.4214"/>
<polygon fill="#000000" stroke="#000000" points="524.4568,-16.9058 534.9048,-15.1482 525.6411,-10.0067 524.4568,-16.9058"/>
<text text-anchor="middle" x="458.636" y="-9.6" font-family="Times,serif" font-size="12.00" fill="#000000">2</text>
</g>
</g>
</svg>