<?xml version="1.0" encoding="UTF-8" standalone="no"?>
<!DOCTYPE svg PUBLIC "-//W3C//DTD SVG 1.1//EN" "http://www.w3.org/Graphics/SVG/1.1/DTD/svg11.dtd">
<!-- Generated by graphviz version 2.40.1 (20161225.0304)
 -->
<!-- Title: Java Pages: 1 -->
<svg width="1399pt" height="1036pt" viewBox="0.00 0.00 1399.00 1036.00" xmlns="http://www.w3.org/2000/svg" xmlns:xlink="http://www.w3.org/1999/xlink">
<g id="graph0" class="graph" transform="scale(1 1) rotate(0) translate(4 1032)">
<title>Java</title>
<polygon fill="#ffffff" stroke="transparent" points="-4,4 -4,-1032 1395,-1032 1395,4 -4,4"/>
<!-- n1 -->
<g id="node1" class="node">
<title>n1</title>
<polygon fill="none" stroke="#000000" points="938.5,-1002 938.5,-1024 1383.5,-1024 1383.5,-1002 938.5,-1002"/>
<text text-anchor="start" x="1036.7822" y="-1008.4" font-family="Times,serif" font-size="14.00" fill="#000000">java.util.concurrent.ConcurrentSkipListMap</text>
<polygon fill="none" stroke="#000000" points="938.5,-980 938.5,-1002 1036.5,-1002 1036.5,-980 938.5,-980"/>
<text text-anchor="start" x="941.041" y="-986.4" font-family="Times,serif" font-size="14.00" fill="#000000">comparator: null</text>
<polygon fill="none" stroke="#000000" points="1036.5,-980 1036.5,-1002 1109.5,-1002 1109.5,-980 1036.5,-980"/>
<text text-anchor="start" x="1039.3629" y="-986.4" font-family="Times,serif" font-size="14.00" fill="#000000">keySet: null</text>
<polygon fill="none" stroke="#000000" points="1109.5,-980 1109.5,-1002 1179.5,-1002 1179.5,-980 1109.5,-980"/>
<text text-anchor="start" x="1112.0319" y="-986.4" font-family="Times,serif" font-size="14.00" fill="#000000">values: null</text>
<polygon fill="none" stroke="#000000" points="1179.5,-980 1179.5,-1002 1260.5,-1002 1260.5,-980 1179.5,-980"/>
<text text-anchor="start" x="1182.0873" y="-986.4" font-family="Times,serif" font-size="14.00" fill="#000000">entrySet: null</text>
<polygon fill="none" stroke="#000000" points="1260.5,-980 1260.5,-1002 1383.5,-1002 1383.5,-980 1260.5,-980"/>
<text text-anchor="start" x="1263.095" y="-986.4" font-family="Times,serif" font-size="14.00" fill="#000000">descendingMap: null</text>
</g>
<!-- n2 -->
<g id="node2" class="node">
<title>n2</title>
<polygon fill="none" stroke="#000000" points="914.5,-896.6 914.5,-918.6 1207.5,-918.6 1207.5,-896.6 914.5,-896.6"/>
<text text-anchor="start" x="917.3446" y="-903" font-family="Times,serif" font-size="14.00" fill="#000000">java.util.concurrent.ConcurrentSkipListMap$Index</text>
</g>
<!-- n1&#45;&gt;n2 -->
<g id="edge40" class="edge">
<title>n1-&gt;n2</title>
<path fill="none" stroke="#000000" d="M1132.9098,-975.9549C1118.6666,-962.5092 1101.3642,-946.1758 1087.245,-932.8473"/>
<polygon fill="#000000" stroke="#000000" points="1089.4424,-930.1085 1079.7681,-925.789 1084.6372,-935.1987 1089.4424,-930.1085"/>
<text text-anchor="middle" x="1124.8268" y="-947.2" font-family="Times,serif" font-size="12.00" fill="#000000">head</text>
</g>
<!-- n29 -->
<g id="node29" class="node">
<title>n29</title>
<polygon fill="none" stroke="#000000" points="1253.5,-896.6 1253.5,-918.6 1266.5,-918.6 1266.5,-896.6 1253.5,-896.6"/>
<text text-anchor="start" x="1256.5" y="-903" font-family="Times,serif" font-size="14.00" fill="#000000">4</text>
</g>
<!-- n1&#45;&gt;n29 -->
<g id="edge41" class="edge">
<title>n1-&gt;n29</title>
<path fill="none" stroke="#000000" d="M1187.8143,-975.9549C1201.9151,-962.5092 1219.0444,-946.1758 1233.0225,-932.8473"/>
<polygon fill="#000000" stroke="#000000" points="1235.6027,-935.223 1240.4246,-925.789 1230.7721,-930.157 1235.6027,-935.223"/>
<text text-anchor="middle" x="1232.8242" y="-947.2" font-family="Times,serif" font-size="12.00" fill="#000000">adder</text>
</g>
<!-- n3 -->
<g id="node3" class="node">
<title>n3</title>
<polygon fill="none" stroke="#000000" points="1013.5,-608.4 1013.5,-630.4 1304.5,-630.4 1304.5,-608.4 1013.5,-608.4"/>
<text text-anchor="start" x="1016.1216" y="-614.8" font-family="Times,serif" font-size="14.00" fill="#000000">java.util.concurrent.ConcurrentSkipListMap$Node</text>
<polygon fill="none" stroke="#000000" points="1013.5,-586.4 1013.5,-608.4 1160.5,-608.4 1160.5,-586.4 1013.5,-586.4"/>
<text text-anchor="start" x="1062.3068" y="-592.8" font-family="Times,serif" font-size="14.00" fill="#000000">key: null</text>
<polygon fill="none" stroke="#000000" points="1160.5,-586.4 1160.5,-608.4 1304.5,-608.4 1304.5,-586.4 1160.5,-586.4"/>
<text text-anchor="start" x="1209.3615" y="-592.8" font-family="Times,serif" font-size="14.00" fill="#000000">val: null</text>
</g>
<!-- n2&#45;&gt;n3 -->
<g id="edge17" class="edge">
<title>n2-&gt;n3</title>
<path fill="none" stroke="#000000" d="M1152.8108,-889.5932C1180.1888,-879.4865 1207.1886,-863.7342 1223.5,-839.2 1261.4927,-782.0549 1243.6645,-750.3927 1223.5,-684.8 1218.5842,-668.8095 1208.2051,-654.0619 1197.155,-641.876"/>
<polygon fill="#000000" stroke="#000000" points="1199.6706,-639.4424 1190.231,-634.6315 1194.6101,-644.2789 1199.6706,-639.4424"/>
<text text-anchor="middle" x="1258.1634" y="-758.4" font-family="Times,serif" font-size="12.00" fill="#000000">node</text>
</g>
<!-- n20 -->
<g id="node20" class="node">
<title>n20</title>
<polygon fill="none" stroke="#000000" points="914.5,-802.2 914.5,-824.2 1207.5,-824.2 1207.5,-802.2 914.5,-802.2"/>
<text text-anchor="start" x="917.3446" y="-808.6" font-family="Times,serif" font-size="14.00" fill="#000000">java.util.concurrent.ConcurrentSkipListMap$Index</text>
</g>
<!-- n2&#45;&gt;n20 -->
<g id="edge36" class="edge">
<title>n2-&gt;n20</title>
<path fill="none" stroke="#000000" d="M1060.5,-889.3987C1060.5,-875.8169 1060.5,-857.0048 1060.5,-841.4711"/>
<polygon fill="#000000" stroke="#000000" points="1064.0001,-841.3454 1060.5,-831.3454 1057.0001,-841.3454 1064.0001,-841.3454"/>
<text text-anchor="middle" x="1073.8314" y="-860.8" font-family="Times,serif" font-size="12.00" fill="#000000">down</text>
</g>
<!-- n28 -->
<g id="node28" class="node">
<title>n28</title>
<polygon fill="none" stroke="#000000" points="587.5,-813.2 587.5,-835.2 880.5,-835.2 880.5,-813.2 587.5,-813.2"/>
<text text-anchor="start" x="590.3446" y="-819.6" font-family="Times,serif" font-size="14.00" fill="#000000">java.util.concurrent.ConcurrentSkipListMap$Index</text>
<polygon fill="none" stroke="#000000" points="587.5,-791.2 587.5,-813.2 880.5,-813.2 880.5,-791.2 587.5,-791.2"/>
<text text-anchor="start" x="706.1932" y="-797.6" font-family="Times,serif" font-size="14.00" fill="#000000">right: null</text>
</g>
<!-- n2&#45;&gt;n28 -->
<g id="edge39" class="edge">
<title>n2-&gt;n28</title>
<path fill="none" stroke="#000000" d="M997.838,-889.5104C951.399,-876.1042 887.1536,-857.5575 833.6284,-842.1056"/>
<polygon fill="#000000" stroke="#000000" points="834.344,-838.6693 823.7655,-839.2583 832.4024,-845.3946 834.344,-838.6693"/>
<text text-anchor="middle" x="937.8322" y="-860.8" font-family="Times,serif" font-size="12.00" fill="#000000">right</text>
</g>
<!-- n4 -->
<g id="node4" class="node">
<title>n4</title>
<polygon fill="none" stroke="#000000" points="721.5,-503 721.5,-525 1012.5,-525 1012.5,-503 721.5,-503"/>
<text text-anchor="start" x="724.1216" y="-509.4" font-family="Times,serif" font-size="14.00" fill="#000000">java.util.concurrent.ConcurrentSkipListMap$Node</text>
</g>
<!-- n3&#45;&gt;n4 -->
<g id="edge16" class="edge">
<title>n3-&gt;n4</title>
<path fill="none" stroke="#000000" d="M1077.9367,-582.3549C1031.9534,-567.489 975.0509,-549.0932 931.8636,-535.1313"/>
<polygon fill="#000000" stroke="#000000" points="932.9026,-531.7889 922.3109,-532.043 930.7493,-538.4494 932.9026,-531.7889"/>
<text text-anchor="middle" x="1031.8308" y="-553.6" font-family="Times,serif" font-size="12.00" fill="#000000">next</text>
</g>
<!-- n5 -->
<g id="node5" class="node">
<title>n5</title>
<polygon fill="none" stroke="#000000" points="1046.5,-419.6 1046.5,-441.6 1143.5,-441.6 1143.5,-419.6 1046.5,-419.6"/>
<text text-anchor="start" x="1050.6753" y="-426" font-family="Times,serif" font-size="14.00" fill="#000000">java.lang.String</text>
<polygon fill="none" stroke="#000000" points="1046.5,-397.6 1046.5,-419.6 1097.5,-419.6 1097.5,-397.6 1046.5,-397.6"/>
<text text-anchor="start" x="1049.2598" y="-404" font-family="Times,serif" font-size="14.00" fill="#000000">coder: 0</text>
<polygon fill="none" stroke="#000000" points="1097.5,-397.6 1097.5,-419.6 1143.5,-419.6 1143.5,-397.6 1097.5,-397.6"/>
<text text-anchor="start" x="1100.4751" y="-404" font-family="Times,serif" font-size="14.00" fill="#000000">hash: 0</text>
</g>
<!-- n4&#45;&gt;n5 -->
<g id="edge2" class="edge">
<title>n4-&gt;n5</title>
<path fill="none" stroke="#000000" d="M910.1909,-495.9104C943.6867,-482.042 990.4687,-462.6726 1028.518,-446.9189"/>
<polygon fill="#000000" stroke="#000000" points="1030.0896,-450.0564 1037.99,-442.9971 1027.4117,-443.5888 1030.0896,-450.0564"/>
<text text-anchor="middle" x="996.1634" y="-467.2" font-family="Times,serif" font-size="12.00" fill="#000000">key</text>
</g>
<!-- n7 -->
<g id="node7" class="node">
<title>n7</title>
<polygon fill="none" stroke="#000000" points="1177.5,-419.6 1177.5,-441.6 1277.5,-441.6 1277.5,-419.6 1177.5,-419.6"/>
<text text-anchor="start" x="1180.467" y="-426" font-family="Times,serif" font-size="14.00" fill="#000000">java.lang.Integer</text>
<polygon fill="none" stroke="#000000" points="1177.5,-397.6 1177.5,-419.6 1277.5,-419.6 1277.5,-397.6 1177.5,-397.6"/>
<text text-anchor="start" x="1205.1448" y="-404" font-family="Times,serif" font-size="14.00" fill="#000000">value: 4</text>
</g>
<!-- n4&#45;&gt;n7 -->
<g id="edge3" class="edge">
<title>n4-&gt;n7</title>
<path fill="none" stroke="#000000" d="M958.0889,-495.9652C1016.2963,-483.6831 1092.9487,-465.9879 1159.5,-445.6 1159.602,-445.5688 1159.704,-445.5374 1159.8061,-445.5061"/>
<polygon fill="#000000" stroke="#000000" points="1161.0021,-448.7979 1169.4424,-442.3938 1158.8507,-442.1367 1161.0021,-448.7979"/>
<text text-anchor="middle" x="1095.8308" y="-467.2" font-family="Times,serif" font-size="12.00" fill="#000000">val</text>
</g>
<!-- n8 -->
<g id="node8" class="node">
<title>n8</title>
<polygon fill="none" stroke="#000000" points="721.5,-408.6 721.5,-430.6 1012.5,-430.6 1012.5,-408.6 721.5,-408.6"/>
<text text-anchor="start" x="724.1216" y="-415" font-family="Times,serif" font-size="14.00" fill="#000000">java.util.concurrent.ConcurrentSkipListMap$Node</text>
</g>
<!-- n4&#45;&gt;n8 -->
<g id="edge15" class="edge">
<title>n4-&gt;n8</title>
<path fill="none" stroke="#000000" d="M866.5,-495.7987C866.5,-482.2169 866.5,-463.4048 866.5,-447.8711"/>
<polygon fill="#000000" stroke="#000000" points="870.0001,-447.7454 866.5,-437.7454 863.0001,-447.7454 870.0001,-447.7454"/>
<text text-anchor="middle" x="876.8308" y="-467.2" font-family="Times,serif" font-size="12.00" fill="#000000">next</text>
</g>
<!-- n6 -->
<g id="node6" class="node">
<title>n6</title>
<polygon fill="none" stroke="#000000" points="1040.5,-306.2 1040.5,-328.2 1067.5,-328.2 1067.5,-306.2 1040.5,-306.2"/>
<text text-anchor="start" x="1043.5" y="-312.6" font-family="Times,serif" font-size="14.00" fill="#000000">102</text>
<polygon fill="none" stroke="#000000" points="1067.5,-306.2 1067.5,-328.2 1094.5,-328.2 1094.5,-306.2 1067.5,-306.2"/>
<text text-anchor="start" x="1070.5" y="-312.6" font-family="Times,serif" font-size="14.00" fill="#000000">111</text>
<polygon fill="none" stroke="#000000" points="1094.5,-306.2 1094.5,-328.2 1121.5,-328.2 1121.5,-306.2 1094.5,-306.2"/>
<text text-anchor="start" x="1097.5" y="-312.6" font-family="Times,serif" font-size="14.00" fill="#000000">117</text>
<polygon fill="none" stroke="#000000" points="1121.5,-306.2 1121.5,-328.2 1148.5,-328.2 1148.5,-306.2 1121.5,-306.2"/>
<text text-anchor="start" x="1124.5" y="-312.6" font-family="Times,serif" font-size="14.00" fill="#000000">114</text>
</g>
<!-- n5&#45;&gt;n6 -->
<g id="edge1" class="edge">
<title>n5-&gt;n6</title>
<path fill="none" stroke="#000000" d="M1094.5,-393.4952C1094.5,-378.9046 1094.5,-360.7017 1094.5,-345.7356"/>
<polygon fill="#000000" stroke="#000000" points="1098.0001,-345.508 1094.5,-335.508 1091.0001,-345.508 1098.0001,-345.508"/>
<text text-anchor="middle" x="1107.4942" y="-364.8" font-family="Times,serif" font-size="12.00" fill="#000000">value</text>
</g>
<!-- n9 -->
<g id="node9" class="node">
<title>n9</title>
<polygon fill="none" stroke="#000000" points="761.5,-317.2 761.5,-339.2 858.5,-339.2 858.5,-317.2 761.5,-317.2"/>
<text text-anchor="start" x="765.6753" y="-323.6" font-family="Times,serif" font-size="14.00" fill="#000000">java.lang.String</text>
<polygon fill="none" stroke="#000000" points="761.5,-295.2 761.5,-317.2 812.5,-317.2 812.5,-295.2 761.5,-295.2"/>
<text text-anchor="start" x="764.2598" y="-301.6" font-family="Times,serif" font-size="14.00" fill="#000000">coder: 0</text>
<polygon fill="none" stroke="#000000" points="812.5,-295.2 812.5,-317.2 858.5,-317.2 858.5,-295.2 812.5,-295.2"/>
<text text-anchor="start" x="815.4751" y="-301.6" font-family="Times,serif" font-size="14.00" fill="#000000">hash: 0</text>
</g>
<!-- n8&#45;&gt;n9 -->
<g id="edge5" class="edge">
<title>n8-&gt;n9</title>
<path fill="none" stroke="#000000" d="M856.3095,-401.2929C848.7444,-387.7022 838.1943,-368.7491 829.0247,-352.276"/>
<polygon fill="#000000" stroke="#000000" points="832.0221,-350.4645 824.1003,-343.4293 825.9059,-353.8691 832.0221,-350.4645"/>
<text text-anchor="middle" x="850.1634" y="-364.8" font-family="Times,serif" font-size="12.00" fill="#000000">key</text>
</g>
<!-- n11 -->
<g id="node11" class="node">
<title>n11</title>
<polygon fill="none" stroke="#000000" points="892.5,-317.2 892.5,-339.2 992.5,-339.2 992.5,-317.2 892.5,-317.2"/>
<text text-anchor="start" x="895.467" y="-323.6" font-family="Times,serif" font-size="14.00" fill="#000000">java.lang.Integer</text>
<polygon fill="none" stroke="#000000" points="892.5,-295.2 892.5,-317.2 992.5,-317.2 992.5,-295.2 892.5,-295.2"/>
<text text-anchor="start" x="920.1448" y="-301.6" font-family="Times,serif" font-size="14.00" fill="#000000">value: 1</text>
</g>
<!-- n8&#45;&gt;n11 -->
<g id="edge6" class="edge">
<title>n8-&gt;n11</title>
<path fill="none" stroke="#000000" d="M880.0873,-401.2929C890.2676,-387.5763 904.5017,-368.3977 916.8061,-351.8191"/>
<polygon fill="#000000" stroke="#000000" points="919.8837,-353.5452 923.033,-343.4293 914.2626,-349.3734 919.8837,-353.5452"/>
<text text-anchor="middle" x="916.8308" y="-364.8" font-family="Times,serif" font-size="12.00" fill="#000000">val</text>
</g>
<!-- n12 -->
<g id="node12" class="node">
<title>n12</title>
<polygon fill="none" stroke="#000000" points="409.5,-306.2 409.5,-328.2 700.5,-328.2 700.5,-306.2 409.5,-306.2"/>
<text text-anchor="start" x="412.1216" y="-312.6" font-family="Times,serif" font-size="14.00" fill="#000000">java.util.concurrent.ConcurrentSkipListMap$Node</text>
</g>
<!-- n8&#45;&gt;n12 -->
<g id="edge14" class="edge">
<title>n8-&gt;n12</title>
<path fill="none" stroke="#000000" d="M811.4389,-401.5287C757.6928,-383.8889 675.9336,-357.0551 619.1319,-338.4125"/>
<polygon fill="#000000" stroke="#000000" points="620.1274,-335.0556 609.5346,-335.2626 617.9444,-341.7066 620.1274,-335.0556"/>
<text text-anchor="middle" x="739.8308" y="-364.8" font-family="Times,serif" font-size="12.00" fill="#000000">next</text>
</g>
<!-- n10 -->
<g id="node10" class="node">
<title>n10</title>
<polygon fill="none" stroke="#000000" points="769.5,-203.8 769.5,-225.8 796.5,-225.8 796.5,-203.8 769.5,-203.8"/>
<text text-anchor="start" x="772.5" y="-210.2" font-family="Times,serif" font-size="14.00" fill="#000000">111</text>
<polygon fill="none" stroke="#000000" points="796.5,-203.8 796.5,-225.8 823.5,-225.8 823.5,-203.8 796.5,-203.8"/>
<text text-anchor="start" x="799.5" y="-210.2" font-family="Times,serif" font-size="14.00" fill="#000000">110</text>
<polygon fill="none" stroke="#000000" points="823.5,-203.8 823.5,-225.8 850.5,-225.8 850.5,-203.8 823.5,-203.8"/>
<text text-anchor="start" x="826.5" y="-210.2" font-family="Times,serif" font-size="14.00" fill="#000000">101</text>
</g>
<!-- n9&#45;&gt;n10 -->
<g id="edge4" class="edge">
<title>n9-&gt;n10</title>
<path fill="none" stroke="#000000" d="M809.5,-291.0952C809.5,-276.5046 809.5,-258.3017 809.5,-243.3356"/>
<polygon fill="#000000" stroke="#000000" points="813.0001,-243.108 809.5,-233.108 806.0001,-243.108 813.0001,-243.108"/>
<text text-anchor="middle" x="822.4942" y="-262.4" font-family="Times,serif" font-size="12.00" fill="#000000">value</text>
</g>
<!-- n13 -->
<g id="node13" class="node">
<title>n13</title>
<polygon fill="none" stroke="#000000" points="469.5,-214.8 469.5,-236.8 566.5,-236.8 566.5,-214.8 469.5,-214.8"/>
<text text-anchor="start" x="473.6753" y="-221.2" font-family="Times,serif" font-size="14.00" fill="#000000">java.lang.String</text>
<polygon fill="none" stroke="#000000" points="469.5,-192.8 469.5,-214.8 520.5,-214.8 520.5,-192.8 469.5,-192.8"/>
<text text-anchor="start" x="472.2598" y="-199.2" font-family="Times,serif" font-size="14.00" fill="#000000">coder: 0</text>
<polygon fill="none" stroke="#000000" points="520.5,-192.8 520.5,-214.8 566.5,-214.8 566.5,-192.8 520.5,-192.8"/>
<text text-anchor="start" x="523.4751" y="-199.2" font-family="Times,serif" font-size="14.00" fill="#000000">hash: 0</text>
</g>
<!-- n12&#45;&gt;n13 -->
<g id="edge8" class="edge">
<title>n12-&gt;n13</title>
<path fill="none" stroke="#000000" d="M547.8851,-298.8929C543.0654,-285.5538 536.3791,-267.0492 530.5055,-250.7937"/>
<polygon fill="#000000" stroke="#000000" points="533.6674,-249.2447 526.9774,-241.0293 527.084,-251.6236 533.6674,-249.2447"/>
<text text-anchor="middle" x="547.1634" y="-262.4" font-family="Times,serif" font-size="12.00" fill="#000000">key</text>
</g>
<!-- n15 -->
<g id="node15" class="node">
<title>n15</title>
<polygon fill="none" stroke="#000000" points="600.5,-214.8 600.5,-236.8 700.5,-236.8 700.5,-214.8 600.5,-214.8"/>
<text text-anchor="start" x="603.467" y="-221.2" font-family="Times,serif" font-size="14.00" fill="#000000">java.lang.Integer</text>
<polygon fill="none" stroke="#000000" points="600.5,-192.8 600.5,-214.8 700.5,-214.8 700.5,-192.8 600.5,-192.8"/>
<text text-anchor="start" x="628.1448" y="-199.2" font-family="Times,serif" font-size="14.00" fill="#000000">value: 3</text>
</g>
<!-- n12&#45;&gt;n15 -->
<g id="edge9" class="edge">
<title>n12-&gt;n15</title>
<path fill="none" stroke="#000000" d="M571.6629,-298.8929C584.7582,-284.9246 603.1637,-265.292 618.8976,-248.5092"/>
<polygon fill="#000000" stroke="#000000" points="621.624,-250.7185 625.9101,-241.0293 616.5172,-245.9309 621.624,-250.7185"/>
<text text-anchor="middle" x="615.8308" y="-262.4" font-family="Times,serif" font-size="12.00" fill="#000000">val</text>
</g>
<!-- n16 -->
<g id="node16" class="node">
<title>n16</title>
<polygon fill="none" stroke="#000000" points="83.5,-214.8 83.5,-236.8 374.5,-236.8 374.5,-214.8 83.5,-214.8"/>
<text text-anchor="start" x="86.1216" y="-221.2" font-family="Times,serif" font-size="14.00" fill="#000000">java.util.concurrent.ConcurrentSkipListMap$Node</text>
<polygon fill="none" stroke="#000000" points="83.5,-192.8 83.5,-214.8 374.5,-214.8 374.5,-192.8 83.5,-192.8"/>
<text text-anchor="start" x="202.3615" y="-199.2" font-family="Times,serif" font-size="14.00" fill="#000000">next: null</text>
</g>
<!-- n12&#45;&gt;n16 -->
<g id="edge13" class="edge">
<title>n12-&gt;n16</title>
<path fill="none" stroke="#000000" d="M496.9682,-299.1287C448.3269,-283.8499 377.7266,-261.6736 321.1323,-243.8968"/>
<polygon fill="#000000" stroke="#000000" points="322.0471,-240.5156 311.4578,-240.8579 319.9493,-247.1939 322.0471,-240.5156"/>
<text text-anchor="middle" x="421.8308" y="-262.4" font-family="Times,serif" font-size="12.00" fill="#000000">next</text>
</g>
<!-- n14 -->
<g id="node14" class="node">
<title>n14</title>
<polygon fill="none" stroke="#000000" points="450.5,-101.4 450.5,-123.4 477.5,-123.4 477.5,-101.4 450.5,-101.4"/>
<text text-anchor="start" x="453.5" y="-107.8" font-family="Times,serif" font-size="14.00" fill="#000000">116</text>
<polygon fill="none" stroke="#000000" points="477.5,-101.4 477.5,-123.4 504.5,-123.4 504.5,-101.4 477.5,-101.4"/>
<text text-anchor="start" x="480.5" y="-107.8" font-family="Times,serif" font-size="14.00" fill="#000000">104</text>
<polygon fill="none" stroke="#000000" points="504.5,-101.4 504.5,-123.4 531.5,-123.4 531.5,-101.4 504.5,-101.4"/>
<text text-anchor="start" x="507.5" y="-107.8" font-family="Times,serif" font-size="14.00" fill="#000000">114</text>
<polygon fill="none" stroke="#000000" points="531.5,-101.4 531.5,-123.4 558.5,-123.4 558.5,-101.4 531.5,-101.4"/>
<text text-anchor="start" x="534.5" y="-107.8" font-family="Times,serif" font-size="14.00" fill="#000000">101</text>
<polygon fill="none" stroke="#000000" points="558.5,-101.4 558.5,-123.4 585.5,-123.4 585.5,-101.4 558.5,-101.4"/>
<text text-anchor="start" x="561.5" y="-107.8" font-family="Times,serif" font-size="14.00" fill="#000000">101</text>
</g>
<!-- n13&#45;&gt;n14 -->
<g id="edge7" class="edge">
<title>n13-&gt;n14</title>
<path fill="none" stroke="#000000" d="M517.5,-188.6952C517.5,-174.1046 517.5,-155.9017 517.5,-140.9356"/>
<polygon fill="#000000" stroke="#000000" points="521.0001,-140.708 517.5,-130.708 514.0001,-140.708 521.0001,-140.708"/>
<text text-anchor="middle" x="530.4942" y="-160" font-family="Times,serif" font-size="12.00" fill="#000000">value</text>
</g>
<!-- n17 -->
<g id="node17" class="node">
<title>n17</title>
<polygon fill="none" stroke="#000000" points="247.5,-112.4 247.5,-134.4 344.5,-134.4 344.5,-112.4 247.5,-112.4"/>
<text text-anchor="start" x="251.6753" y="-118.8" font-family="Times,serif" font-size="14.00" fill="#000000">java.lang.String</text>
<polygon fill="none" stroke="#000000" points="247.5,-90.4 247.5,-112.4 298.5,-112.4 298.5,-90.4 247.5,-90.4"/>
<text text-anchor="start" x="250.2598" y="-96.8" font-family="Times,serif" font-size="14.00" fill="#000000">coder: 0</text>
<polygon fill="none" stroke="#000000" points="298.5,-90.4 298.5,-112.4 344.5,-112.4 344.5,-90.4 298.5,-90.4"/>
<text text-anchor="start" x="301.4751" y="-96.8" font-family="Times,serif" font-size="14.00" fill="#000000">hash: 0</text>
</g>
<!-- n16&#45;&gt;n17 -->
<g id="edge11" class="edge">
<title>n16-&gt;n17</title>
<path fill="none" stroke="#000000" d="M245.5803,-188.6952C253.8493,-176.0572 263.8915,-160.7091 272.7948,-147.1017"/>
<polygon fill="#000000" stroke="#000000" points="275.9045,-148.7414 278.4509,-138.4571 270.0469,-144.9088 275.9045,-148.7414"/>
<text text-anchor="middle" x="275.1634" y="-160" font-family="Times,serif" font-size="12.00" fill="#000000">key</text>
</g>
<!-- n19 -->
<g id="node19" class="node">
<title>n19</title>
<polygon fill="none" stroke="#000000" points="112.5,-112.4 112.5,-134.4 212.5,-134.4 212.5,-112.4 112.5,-112.4"/>
<text text-anchor="start" x="115.467" y="-118.8" font-family="Times,serif" font-size="14.00" fill="#000000">java.lang.Integer</text>
<polygon fill="none" stroke="#000000" points="112.5,-90.4 112.5,-112.4 212.5,-112.4 212.5,-90.4 112.5,-90.4"/>
<text text-anchor="start" x="140.1448" y="-96.8" font-family="Times,serif" font-size="14.00" fill="#000000">value: 2</text>
</g>
<!-- n16&#45;&gt;n19 -->
<g id="edge12" class="edge">
<title>n16-&gt;n19</title>
<path fill="none" stroke="#000000" d="M211.6746,-188.6952C203.5291,-176.0572 193.6367,-160.7091 184.8664,-147.1017"/>
<polygon fill="#000000" stroke="#000000" points="187.6541,-144.9664 179.2946,-138.4571 181.7703,-148.7587 187.6541,-144.9664"/>
<text text-anchor="middle" x="206.8308" y="-160" font-family="Times,serif" font-size="12.00" fill="#000000">val</text>
</g>
<!-- n18 -->
<g id="node18" class="node">
<title>n18</title>
<polygon fill="none" stroke="#000000" points="255.5,-7 255.5,-29 282.5,-29 282.5,-7 255.5,-7"/>
<text text-anchor="start" x="258.5" y="-13.4" font-family="Times,serif" font-size="14.00" fill="#000000">116</text>
<polygon fill="none" stroke="#000000" points="282.5,-7 282.5,-29 309.5,-29 309.5,-7 282.5,-7"/>
<text text-anchor="start" x="285.5" y="-13.4" font-family="Times,serif" font-size="14.00" fill="#000000">119</text>
<polygon fill="none" stroke="#000000" points="309.5,-7 309.5,-29 336.5,-29 336.5,-7 309.5,-7"/>
<text text-anchor="start" x="312.5" y="-13.4" font-family="Times,serif" font-size="14.00" fill="#000000">111</text>
</g>
<!-- n17&#45;&gt;n18 -->
<g id="edge10" class="edge">
<title>n17-&gt;n18</title>
<path fill="none" stroke="#000000" d="M295.5,-86.3549C295.5,-73.9052 295.5,-58.9798 295.5,-46.2562"/>
<polygon fill="#000000" stroke="#000000" points="299.0001,-46.189 295.5,-36.189 292.0001,-46.1891 299.0001,-46.189"/>
<text text-anchor="middle" x="308.4942" y="-57.6" font-family="Times,serif" font-size="12.00" fill="#000000">value</text>
</g>
<!-- n20&#45;&gt;n3 -->
<g id="edge18" class="edge">
<title>n20-&gt;n3</title>
<path fill="none" stroke="#000000" d="M1115.5227,-795.1781C1142.6218,-783.2004 1172.7845,-764.4821 1188.5,-736.8 1204.8779,-707.951 1193.1006,-670.6192 1179.7957,-643.6525"/>
<polygon fill="#000000" stroke="#000000" points="1182.7928,-641.83 1175.0696,-634.5773 1176.5843,-645.0633 1182.7928,-641.83"/>
<text text-anchor="middle" x="1208.1634" y="-707.2" font-family="Times,serif" font-size="12.00" fill="#000000">node</text>
</g>
<!-- n21 -->
<g id="node21" class="node">
<title>n21</title>
<polygon fill="none" stroke="#000000" points="879.5,-710.8 879.5,-732.8 1172.5,-732.8 1172.5,-710.8 879.5,-710.8"/>
<text text-anchor="start" x="882.3446" y="-717.2" font-family="Times,serif" font-size="14.00" fill="#000000">java.util.concurrent.ConcurrentSkipListMap$Index</text>
<polygon fill="none" stroke="#000000" points="879.5,-688.8 879.5,-710.8 1172.5,-710.8 1172.5,-688.8 879.5,-688.8"/>
<text text-anchor="start" x="995.8608" y="-695.2" font-family="Times,serif" font-size="14.00" fill="#000000">down: null</text>
</g>
<!-- n20&#45;&gt;n21 -->
<g id="edge26" class="edge">
<title>n20-&gt;n21</title>
<path fill="none" stroke="#000000" d="M1054.2427,-794.8929C1049.6834,-781.5538 1043.3586,-763.0492 1037.8025,-746.7937"/>
<polygon fill="#000000" stroke="#000000" points="1041.0113,-745.3598 1034.4651,-737.0293 1034.3875,-747.6238 1041.0113,-745.3598"/>
<text text-anchor="middle" x="1058.8314" y="-758.4" font-family="Times,serif" font-size="12.00" fill="#000000">down</text>
</g>
<!-- n25 -->
<g id="node25" class="node">
<title>n25</title>
<polygon fill="none" stroke="#000000" points="515.5,-699.8 515.5,-721.8 808.5,-721.8 808.5,-699.8 515.5,-699.8"/>
<text text-anchor="start" x="518.3446" y="-706.2" font-family="Times,serif" font-size="14.00" fill="#000000">java.util.concurrent.ConcurrentSkipListMap$Index</text>
</g>
<!-- n20&#45;&gt;n25 -->
<g id="edge35" class="edge">
<title>n20-&gt;n25</title>
<path fill="none" stroke="#000000" d="M990.0853,-795.1287C920.6423,-777.3067 814.6308,-750.0997 741.9132,-731.4374"/>
<polygon fill="#000000" stroke="#000000" points="742.4369,-727.9584 731.8807,-728.8626 740.6968,-734.7387 742.4369,-727.9584"/>
<text text-anchor="middle" x="896.8322" y="-758.4" font-family="Times,serif" font-size="12.00" fill="#000000">right</text>
</g>
<!-- n21&#45;&gt;n3 -->
<g id="edge19" class="edge">
<title>n21-&gt;n3</title>
<path fill="none" stroke="#000000" d="M1059.4056,-684.6952C1076.7582,-671.3351 1098.0445,-654.9462 1116.4349,-640.7869"/>
<polygon fill="#000000" stroke="#000000" points="1118.8679,-643.331 1124.6563,-634.4571 1114.5975,-637.7845 1118.8679,-643.331"/>
<text text-anchor="middle" x="1112.1634" y="-656" font-family="Times,serif" font-size="12.00" fill="#000000">node</text>
</g>
<!-- n22 -->
<g id="node22" class="node">
<title>n22</title>
<polygon fill="none" stroke="#000000" points="515.5,-608.4 515.5,-630.4 808.5,-630.4 808.5,-608.4 515.5,-608.4"/>
<text text-anchor="start" x="518.3446" y="-614.8" font-family="Times,serif" font-size="14.00" fill="#000000">java.util.concurrent.ConcurrentSkipListMap$Index</text>
<polygon fill="none" stroke="#000000" points="515.5,-586.4 515.5,-608.4 808.5,-608.4 808.5,-586.4 515.5,-586.4"/>
<text text-anchor="start" x="631.8608" y="-592.8" font-family="Times,serif" font-size="14.00" fill="#000000">down: null</text>
</g>
<!-- n21&#45;&gt;n22 -->
<g id="edge25" class="edge">
<title>n21-&gt;n22</title>
<path fill="none" stroke="#000000" d="M962.8922,-684.717C934.9505,-673.7274 901.4178,-661.4216 870.5,-652.4 851.0753,-646.732 830.4351,-641.4811 809.9803,-636.7271"/>
<polygon fill="#000000" stroke="#000000" points="810.4887,-633.253 799.9599,-634.4335 808.9268,-640.0765 810.4887,-633.253"/>
<text text-anchor="middle" x="925.8322" y="-656" font-family="Times,serif" font-size="12.00" fill="#000000">right</text>
</g>
<!-- n22&#45;&gt;n4 -->
<g id="edge20" class="edge">
<title>n22-&gt;n4</title>
<path fill="none" stroke="#000000" d="M718.0598,-582.3549C749.3931,-567.9263 787.948,-550.1722 817.9113,-536.3745"/>
<polygon fill="#000000" stroke="#000000" points="819.6985,-539.4049 827.3177,-532.043 816.7705,-533.0466 819.6985,-539.4049"/>
<text text-anchor="middle" x="794.1634" y="-553.6" font-family="Times,serif" font-size="12.00" fill="#000000">node</text>
</g>
<!-- n23 -->
<g id="node23" class="node">
<title>n23</title>
<polygon fill="none" stroke="#000000" points="394.5,-419.6 394.5,-441.6 687.5,-441.6 687.5,-419.6 394.5,-419.6"/>
<text text-anchor="start" x="397.3446" y="-426" font-family="Times,serif" font-size="14.00" fill="#000000">java.util.concurrent.ConcurrentSkipListMap$Index</text>
<polygon fill="none" stroke="#000000" points="394.5,-397.6 394.5,-419.6 687.5,-419.6 687.5,-397.6 394.5,-397.6"/>
<text text-anchor="start" x="510.8608" y="-404" font-family="Times,serif" font-size="14.00" fill="#000000">down: null</text>
</g>
<!-- n22&#45;&gt;n23 -->
<g id="edge24" class="edge">
<title>n22-&gt;n23</title>
<path fill="none" stroke="#000000" d="M644.6755,-582.1482C623.2738,-548.7545 586.2589,-490.999 562.5995,-454.0825"/>
<polygon fill="#000000" stroke="#000000" points="565.5243,-452.1596 557.1816,-445.6289 559.6308,-455.9368 565.5243,-452.1596"/>
<text text-anchor="middle" x="622.8322" y="-510.4" font-family="Times,serif" font-size="12.00" fill="#000000">right</text>
</g>
<!-- n23&#45;&gt;n12 -->
<g id="edge21" class="edge">
<title>n23-&gt;n12</title>
<path fill="none" stroke="#000000" d="M544.069,-393.4952C546.0638,-378.9046 548.5525,-360.7017 550.5986,-345.7356"/>
<polygon fill="#000000" stroke="#000000" points="554.11,-345.89 551.997,-335.508 547.1745,-344.9417 554.11,-345.89"/>
<text text-anchor="middle" x="560.1634" y="-364.8" font-family="Times,serif" font-size="12.00" fill="#000000">node</text>
</g>
<!-- n24 -->
<g id="node24" class="node">
<title>n24</title>
<polygon fill="none" stroke="#000000" points="82.5,-317.2 82.5,-339.2 375.5,-339.2 375.5,-317.2 82.5,-317.2"/>
<text text-anchor="start" x="85.3446" y="-323.6" font-family="Times,serif" font-size="14.00" fill="#000000">java.util.concurrent.ConcurrentSkipListMap$Index</text>
<polygon fill="none" stroke="#000000" points="82.5,-295.2 82.5,-317.2 231.5,-317.2 231.5,-295.2 82.5,-295.2"/>
<text text-anchor="start" x="126.8608" y="-301.6" font-family="Times,serif" font-size="14.00" fill="#000000">down: null</text>
<polygon fill="none" stroke="#000000" points="231.5,-295.2 231.5,-317.2 375.5,-317.2 375.5,-295.2 231.5,-295.2"/>
<text text-anchor="start" x="275.6932" y="-301.6" font-family="Times,serif" font-size="14.00" fill="#000000">right: null</text>
</g>
<!-- n23&#45;&gt;n24 -->
<g id="edge23" class="edge">
<title>n23-&gt;n24</title>
<path fill="none" stroke="#000000" d="M460.962,-393.4952C417.1381,-379.112 362.6186,-361.2184 317.3948,-346.3757"/>
<polygon fill="#000000" stroke="#000000" points="318.4856,-343.0501 307.8928,-343.2571 316.3027,-349.7011 318.4856,-343.0501"/>
<text text-anchor="middle" x="414.8322" y="-364.8" font-family="Times,serif" font-size="12.00" fill="#000000">right</text>
</g>
<!-- n24&#45;&gt;n16 -->
<g id="edge22" class="edge">
<title>n24-&gt;n16</title>
<path fill="none" stroke="#000000" d="M228.5,-291.0952C228.5,-278.9387 228.5,-264.2745 228.5,-251.0642"/>
<polygon fill="#000000" stroke="#000000" points="232.0001,-250.8571 228.5,-240.8571 225.0001,-250.8572 232.0001,-250.8571"/>
<text text-anchor="middle" x="240.1634" y="-262.4" font-family="Times,serif" font-size="12.00" fill="#000000">node</text>
</g>
<!-- n25&#45;&gt;n4 -->
<g id="edge27" class="edge">
<title>n25-&gt;n4</title>
<path fill="none" stroke="#000000" d="M559.42,-692.7394C526.6356,-681.5846 493.7659,-663.5503 474.1732,-634.4 461.281,-615.2189 459.3006,-600.0898 474.1732,-582.4 489.513,-564.1544 602.1789,-545.717 702.8596,-532.5893"/>
<polygon fill="#000000" stroke="#000000" points="703.4045,-536.0481 712.8736,-531.2957 702.5076,-529.1058 703.4045,-536.0481"/>
<text text-anchor="middle" x="486.1634" y="-604.8" font-family="Times,serif" font-size="12.00" fill="#000000">node</text>
</g>
<!-- n25&#45;&gt;n22 -->
<g id="edge28" class="edge">
<title>n25-&gt;n22</title>
<path fill="none" stroke="#000000" d="M661.5,-692.4929C661.5,-679.2797 661.5,-660.9979 661.5,-644.8544"/>
<polygon fill="#000000" stroke="#000000" points="665.0001,-644.6292 661.5,-634.6293 658.0001,-644.6293 665.0001,-644.6292"/>
<text text-anchor="middle" x="674.8314" y="-656" font-family="Times,serif" font-size="12.00" fill="#000000">down</text>
</g>
<!-- n26 -->
<g id="node26" class="node">
<title>n26</title>
<polygon fill="none" stroke="#000000" points="211.5,-503 211.5,-525 504.5,-525 504.5,-503 211.5,-503"/>
<text text-anchor="start" x="214.3446" y="-509.4" font-family="Times,serif" font-size="14.00" fill="#000000">java.util.concurrent.ConcurrentSkipListMap$Index</text>
</g>
<!-- n25&#45;&gt;n26 -->
<g id="edge34" class="edge">
<title>n25-&gt;n26</title>
<path fill="none" stroke="#000000" d="M545.7419,-692.7276C507.1737,-681.5717 466.7255,-663.5397 437.8356,-634.4 409.9458,-606.2691 385.9418,-567.1289 371.6134,-541.205"/>
<polygon fill="#000000" stroke="#000000" points="374.6267,-539.4193 366.783,-532.2969 368.4731,-542.7561 374.6267,-539.4193"/>
<text text-anchor="middle" x="449.8322" y="-604.8" font-family="Times,serif" font-size="12.00" fill="#000000">right</text>
</g>
<!-- n26&#45;&gt;n12 -->
<g id="edge29" class="edge">
<title>n26-&gt;n12</title>
<path fill="none" stroke="#000000" d="M351.1024,-495.9358C340.9395,-463.5977 325.7772,-395.9563 362.5,-361.2 372.5095,-351.7265 395.2491,-343.8567 421.7104,-337.5199"/>
<polygon fill="#000000" stroke="#000000" points="422.6436,-340.8969 431.611,-335.2545 421.0822,-334.0732 422.6436,-340.8969"/>
<text text-anchor="middle" x="355.1634" y="-416" font-family="Times,serif" font-size="12.00" fill="#000000">node</text>
</g>
<!-- n26&#45;&gt;n23 -->
<g id="edge30" class="edge">
<title>n26-&gt;n23</title>
<path fill="none" stroke="#000000" d="M392.7842,-495.7987C417.62,-482.9873 451.4773,-465.5221 480.5122,-450.5445"/>
<polygon fill="#000000" stroke="#000000" points="482.4695,-453.4732 489.7521,-445.7781 479.2603,-447.2521 482.4695,-453.4732"/>
<text text-anchor="middle" x="467.8314" y="-467.2" font-family="Times,serif" font-size="12.00" fill="#000000">down</text>
</g>
<!-- n27 -->
<g id="node27" class="node">
<title>n27</title>
<polygon fill="none" stroke="#000000" points="8.5,-419.6 8.5,-441.6 301.5,-441.6 301.5,-419.6 8.5,-419.6"/>
<text text-anchor="start" x="11.3446" y="-426" font-family="Times,serif" font-size="14.00" fill="#000000">java.util.concurrent.ConcurrentSkipListMap$Index</text>
<polygon fill="none" stroke="#000000" points="8.5,-397.6 8.5,-419.6 301.5,-419.6 301.5,-397.6 8.5,-397.6"/>
<text text-anchor="start" x="127.1932" y="-404" font-family="Times,serif" font-size="14.00" fill="#000000">right: null</text>
</g>
<!-- n26&#45;&gt;n27 -->
<g id="edge33" class="edge">
<title>n26-&gt;n27</title>
<path fill="none" stroke="#000000" d="M318.3596,-495.7987C290.571,-482.8764 252.6009,-465.2193 220.2085,-450.1561"/>
<polygon fill="#000000" stroke="#000000" points="221.3375,-446.8212 210.7941,-445.7781 218.3858,-453.1684 221.3375,-446.8212"/>
<text text-anchor="middle" x="285.8322" y="-467.2" font-family="Times,serif" font-size="12.00" fill="#000000">right</text>
</g>
<!-- n27&#45;&gt;n16 -->
<g id="edge31" class="edge">
<title>n27-&gt;n16</title>
<path fill="none" stroke="#000000" d="M93.7451,-393.4733C73.2366,-381.36 52.6497,-364.7779 41.1732,-343.2 30.3207,-322.7954 28.281,-310.3811 41.1732,-291.2 54.7771,-270.9599 74.7819,-256.0789 96.7147,-245.1387"/>
<polygon fill="#000000" stroke="#000000" points="98.3131,-248.2549 105.8783,-240.8375 95.3387,-241.9182 98.3131,-248.2549"/>
<text text-anchor="middle" x="53.1634" y="-313.6" font-family="Times,serif" font-size="12.00" fill="#000000">node</text>
</g>
<!-- n27&#45;&gt;n24 -->
<g id="edge32" class="edge">
<title>n27-&gt;n24</title>
<path fill="none" stroke="#000000" d="M173.3648,-393.4952C182.5847,-380.7369 193.8006,-365.2165 203.7032,-351.5134"/>
<polygon fill="#000000" stroke="#000000" points="206.6492,-353.4123 209.6697,-343.2571 200.9756,-349.3122 206.6492,-353.4123"/>
<text text-anchor="middle" x="209.8314" y="-364.8" font-family="Times,serif" font-size="12.00" fill="#000000">down</text>
</g>
<!-- n28&#45;&gt;n4 -->
<g id="edge37" class="edge">
<title>n28-&gt;n4</title>
<path fill="none" stroke="#000000" d="M775.9428,-787.1494C793.6191,-774.1631 812.7289,-756.9196 824.5,-736.8 829.412,-728.4043 851.7848,-600.1054 861.721,-542.1"/>
<polygon fill="#000000" stroke="#000000" points="865.1898,-542.5787 863.4245,-532.132 858.2899,-541.3994 865.1898,-542.5787"/>
<text text-anchor="middle" x="854.1634" y="-656" font-family="Times,serif" font-size="12.00" fill="#000000">node</text>
</g>
<!-- n28&#45;&gt;n25 -->
<g id="edge38" class="edge">
<title>n28-&gt;n25</title>
<path fill="none" stroke="#000000" d="M715.1451,-787.0952C704.4876,-771.938 691.0892,-752.8824 680.3487,-737.607"/>
<polygon fill="#000000" stroke="#000000" points="682.9877,-735.2752 674.3728,-729.108 677.2615,-739.3014 682.9877,-735.2752"/>
<text text-anchor="middle" x="715.8314" y="-758.4" font-family="Times,serif" font-size="12.00" fill="#000000">down</text>
</g>
</g>
</svg>