<?xml version="1.0" encoding="UTF-8" standalone="no"?><!DOCTYPE svg PUBLIC "-//W3C//DTD SVG 1.1//EN" "http://www.w3.org/Graphics/SVG/1.1/DTD/svg11.dtd"><!-- Generated by graphviz version 2.40.1 (20161225.0304)
 --><!-- Title: Java Pages: 1 --><svg xmlns="http://www.w3.org/2000/svg" xmlns:xlink="http://www.w3.org/1999/xlink" width="977pt" height="833pt" viewBox="0.00 0.00 977.00 832.80">
<g id="graph0" class="graph" transform="scale(1 1) rotate(0) translate(4 828.8)">
<title>Java</title>
<polygon fill="#ffffff" stroke="transparent" points="-4,4 -4,-828.8 973,-828.8 973,4 -4,4"/>
<!-- n1 -->
<g id="node1" class="node">
<title>n1</title>
<polygon fill="none" stroke="#000000" points="305,-710.8 305,-820.8 559,-820.8 559,-710.8 305,-710.8"/>
<text text-anchor="start" x="307.7822" y="-761.6" font-family="Times,serif" font-size="14.00" fill="#000000">java.util.concurrent.ConcurrentSkipListMap</text>
<polygon fill="none" stroke="#000000" points="559,-798.8 559,-820.8 682,-820.8 682,-798.8 559,-798.8"/>
<text text-anchor="start" x="574.041" y="-805.2" font-family="Times,serif" font-size="14.00" fill="#000000">comparator: null</text>
<polygon fill="none" stroke="#000000" points="559,-776.8 559,-798.8 682,-798.8 682,-776.8 559,-776.8"/>
<text text-anchor="start" x="586.8629" y="-783.2" font-family="Times,serif" font-size="14.00" fill="#000000">keySet: null</text>
<polygon fill="none" stroke="#000000" points="559,-754.8 559,-776.8 682,-776.8 682,-754.8 559,-754.8"/>
<text text-anchor="start" x="588.0319" y="-761.2" font-family="Times,serif" font-size="14.00" fill="#000000">values: null</text>
<polygon fill="none" stroke="#000000" points="559,-732.8 559,-754.8 682,-754.8 682,-732.8 559,-732.8"/>
<text text-anchor="start" x="582.5873" y="-739.2" font-family="Times,serif" font-size="14.00" fill="#000000">entrySet: null</text>
<polygon fill="none" stroke="#000000" points="559,-710.8 559,-732.8 682,-732.8 682,-710.8 559,-710.8"/>
<text text-anchor="start" x="561.595" y="-717.2" font-family="Times,serif" font-size="14.00" fill="#000000">descendingMap: null</text>
</g>
<!-- n2 -->
<g id="node2" class="node">
<title>n2</title>
<polygon fill="none" stroke="#000000" points="247,-627.4 247,-649.4 540,-649.4 540,-627.4 247,-627.4"/>
<text text-anchor="start" x="249.8446" y="-633.8" font-family="Times,serif" font-size="14.00" fill="#000000">java.util.concurrent.ConcurrentSkipListMap$Index</text>
</g>
<!-- n1&#45;&gt;n2 -->
<g id="edge13" class="edge">
<title>n1-&gt;n2</title>
<path fill="none" stroke="#000000" d="M446.5131,-706.5756C434.9095,-691.7927 423.0524,-676.6867 413.458,-664.4635"/>
<polygon fill="#000000" stroke="#000000" points="416.1357,-662.2063 407.2081,-656.5011 410.6294,-666.5284 416.1357,-662.2063"/>
<text text-anchor="middle" x="443.3268" y="-678" font-family="Times,serif" font-size="12.00" fill="#000000">head</text>
</g>
<!-- n11 -->
<g id="node11" class="node">
<title>n11</title>
<polygon fill="none" stroke="#000000" points="586,-627.4 586,-649.4 599,-649.4 599,-627.4 586,-627.4"/>
<text text-anchor="start" x="589" y="-633.8" font-family="Times,serif" font-size="14.00" fill="#000000">4</text>
</g>
<!-- n1&#45;&gt;n11 -->
<g id="edge14" class="edge">
<title>n1-&gt;n11</title>
<path fill="none" stroke="#000000" d="M539.0221,-706.5756C550.5096,-691.7927 562.2481,-676.6867 571.7466,-664.4635"/>
<polygon fill="#000000" stroke="#000000" points="574.5616,-666.5449 577.934,-656.5011 569.0343,-662.2497 574.5616,-666.5449"/>
<text text-anchor="middle" x="576.3242" y="-678" font-family="Times,serif" font-size="12.00" fill="#000000">adder</text>
</g>
<!-- n3 -->
<g id="node3" class="node">
<title>n3</title>
<polygon fill="none" stroke="#000000" points="8,-435.6 8,-479.6 299,-479.6 299,-435.6 8,-435.6"/>
<text text-anchor="start" x="10.6216" y="-453.4" font-family="Times,serif" font-size="14.00" fill="#000000">java.util.concurrent.ConcurrentSkipListMap$Node</text>
<polygon fill="none" stroke="#000000" points="299,-457.6 299,-479.6 354,-479.6 354,-457.6 299,-457.6"/>
<text text-anchor="start" x="301.8068" y="-464" font-family="Times,serif" font-size="14.00" fill="#000000">key: null</text>
<polygon fill="none" stroke="#000000" points="299,-435.6 299,-457.6 354,-457.6 354,-435.6 299,-435.6"/>
<text text-anchor="start" x="303.3615" y="-442" font-family="Times,serif" font-size="14.00" fill="#000000">val: null</text>
</g>
<!-- n2&#45;&gt;n3 -->
<g id="edge5" class="edge">
<title>n2-&gt;n3</title>
<path fill="none" stroke="#000000" d="M297.2388,-620.3725C245.1246,-608.4049 188.173,-591.0414 172.6732,-570 156.7306,-548.3574 160.296,-517.5756 167.0236,-493.6954"/>
<polygon fill="#000000" stroke="#000000" points="170.4328,-494.5184 170.0527,-483.9304 163.747,-492.4444 170.4328,-494.5184"/>
<text text-anchor="middle" x="184.6634" y="-548.4" font-family="Times,serif" font-size="12.00" fill="#000000">node</text>
</g>
<!-- n8 -->
<g id="node8" class="node">
<title>n8</title>
<polygon fill="none" stroke="#000000" points="214,-541 214,-563 507,-563 507,-541 214,-541"/>
<text text-anchor="start" x="216.8446" y="-547.4" font-family="Times,serif" font-size="14.00" fill="#000000">java.util.concurrent.ConcurrentSkipListMap$Index</text>
<polygon fill="none" stroke="#000000" points="507,-541 507,-563 573,-563 573,-541 507,-541"/>
<text text-anchor="start" x="509.8608" y="-547.4" font-family="Times,serif" font-size="14.00" fill="#000000">down: null</text>
</g>
<!-- n2&#45;&gt;n8 -->
<g id="edge9" class="edge">
<title>n2-&gt;n8</title>
<path fill="none" stroke="#000000" d="M393,-620.0768C393,-608.5444 393,-593.4241 393,-580.3633"/>
<polygon fill="#000000" stroke="#000000" points="396.5001,-580.0005 393,-570.0005 389.5001,-580.0006 396.5001,-580.0005"/>
<text text-anchor="middle" x="406.3314" y="-591.6" font-family="Times,serif" font-size="12.00" fill="#000000">down</text>
</g>
<!-- n10 -->
<g id="node10" class="node">
<title>n10</title>
<polygon fill="none" stroke="#000000" points="607,-541 607,-563 900,-563 900,-541 607,-541"/>
<text text-anchor="start" x="609.8446" y="-547.4" font-family="Times,serif" font-size="14.00" fill="#000000">java.util.concurrent.ConcurrentSkipListMap$Index</text>
<polygon fill="none" stroke="#000000" points="900,-541 900,-563 961,-563 961,-541 900,-541"/>
<text text-anchor="start" x="902.6932" y="-547.4" font-family="Times,serif" font-size="14.00" fill="#000000">right: null</text>
</g>
<!-- n2&#45;&gt;n10 -->
<g id="edge12" class="edge">
<title>n2-&gt;n10</title>
<path fill="none" stroke="#000000" d="M474.4905,-620.3929C538.0358,-606.3512 626.2831,-586.851 692.2947,-572.2643"/>
<polygon fill="#000000" stroke="#000000" points="693.2694,-575.6334 702.2786,-570.0581 691.759,-568.7983 693.2694,-575.6334"/>
<text text-anchor="middle" x="623.3322" y="-591.6" font-family="Times,serif" font-size="12.00" fill="#000000">right</text>
</g>
<!-- n4 -->
<g id="node4" class="node">
<title>n4</title>
<polygon fill="none" stroke="#000000" points="136,-333.2 136,-377.2 427,-377.2 427,-333.2 136,-333.2"/>
<text text-anchor="start" x="138.6216" y="-351" font-family="Times,serif" font-size="14.00" fill="#000000">java.util.concurrent.ConcurrentSkipListMap$Node</text>
<polygon fill="none" stroke="#000000" points="427,-355.2 427,-377.2 483,-377.2 483,-355.2 427,-355.2"/>
<text text-anchor="start" x="429.5368" y="-361.6" font-family="Times,serif" font-size="14.00" fill="#000000">key: four</text>
<polygon fill="none" stroke="#000000" points="427,-333.2 427,-355.2 483,-355.2 483,-333.2 427,-333.2"/>
<text text-anchor="start" x="439.2521" y="-339.6" font-family="Times,serif" font-size="14.00" fill="#000000">val: 4</text>
</g>
<!-- n3&#45;&gt;n4 -->
<g id="edge4" class="edge">
<title>n3-&gt;n4</title>
<path fill="none" stroke="#000000" d="M213.631,-431.4952C230.3312,-418.1351 250.8173,-401.7462 268.5163,-387.5869"/>
<polygon fill="#000000" stroke="#000000" points="270.8063,-390.2372 276.4286,-381.2571 266.4334,-384.7711 270.8063,-390.2372"/>
<text text-anchor="middle" x="263.3308" y="-402.8" font-family="Times,serif" font-size="12.00" fill="#000000">next</text>
</g>
<!-- n5 -->
<g id="node5" class="node">
<title>n5</title>
<polygon fill="none" stroke="#000000" points="396,-230.8 396,-274.8 687,-274.8 687,-230.8 396,-230.8"/>
<text text-anchor="start" x="398.6216" y="-248.6" font-family="Times,serif" font-size="14.00" fill="#000000">java.util.concurrent.ConcurrentSkipListMap$Node</text>
<polygon fill="none" stroke="#000000" points="687,-252.8 687,-274.8 740,-274.8 740,-252.8 687,-252.8"/>
<text text-anchor="start" x="689.5901" y="-259.2" font-family="Times,serif" font-size="14.00" fill="#000000">key: one</text>
<polygon fill="none" stroke="#000000" points="687,-230.8 687,-252.8 740,-252.8 740,-230.8 687,-230.8"/>
<text text-anchor="start" x="697.7521" y="-237.2" font-family="Times,serif" font-size="14.00" fill="#000000">val: 1</text>
</g>
<!-- n4&#45;&gt;n5 -->
<g id="edge3" class="edge">
<title>n4-&gt;n5</title>
<path fill="none" stroke="#000000" d="M375.0268,-329.0952C410.9496,-314.8925 455.5296,-297.2671 492.7886,-282.5361"/>
<polygon fill="#000000" stroke="#000000" points="494.0811,-285.7888 502.0938,-278.8571 491.5074,-279.2791 494.0811,-285.7888"/>
<text text-anchor="middle" x="465.3308" y="-300.4" font-family="Times,serif" font-size="12.00" fill="#000000">next</text>
</g>
<!-- n6 -->
<g id="node6" class="node">
<title>n6</title>
<polygon fill="none" stroke="#000000" points="392,-128.4 392,-172.4 683,-172.4 683,-128.4 392,-128.4"/>
<text text-anchor="start" x="394.6216" y="-146.2" font-family="Times,serif" font-size="14.00" fill="#000000">java.util.concurrent.ConcurrentSkipListMap$Node</text>
<polygon fill="none" stroke="#000000" points="683,-150.4 683,-172.4 744,-172.4 744,-150.4 683,-150.4"/>
<text text-anchor="start" x="685.7072" y="-156.8" font-family="Times,serif" font-size="14.00" fill="#000000">key: three</text>
<polygon fill="none" stroke="#000000" points="683,-128.4 683,-150.4 744,-150.4 744,-128.4 683,-128.4"/>
<text text-anchor="start" x="697.7521" y="-134.8" font-family="Times,serif" font-size="14.00" fill="#000000">val: 3</text>
</g>
<!-- n5&#45;&gt;n6 -->
<g id="edge2" class="edge">
<title>n5-&gt;n6</title>
<path fill="none" stroke="#000000" d="M568,-226.6952C568,-214.5387 568,-199.8745 568,-186.6642"/>
<polygon fill="#000000" stroke="#000000" points="571.5001,-186.4571 568,-176.4571 564.5001,-186.4572 571.5001,-186.4571"/>
<text text-anchor="middle" x="578.3308" y="-198" font-family="Times,serif" font-size="12.00" fill="#000000">next</text>
</g>
<!-- n7 -->
<g id="node7" class="node">
<title>n7</title>
<polygon fill="none" stroke="#000000" points="393,-4 393,-70 684,-70 684,-4 393,-4"/>
<text text-anchor="start" x="395.6216" y="-32.8" font-family="Times,serif" font-size="14.00" fill="#000000">java.util.concurrent.ConcurrentSkipListMap$Node</text>
<polygon fill="none" stroke="#000000" points="684,-48 684,-70 743,-70 743,-48 684,-48"/>
<text text-anchor="start" x="689.1988" y="-54.4" font-family="Times,serif" font-size="14.00" fill="#000000">key: two</text>
<polygon fill="none" stroke="#000000" points="684,-26 684,-48 743,-48 743,-26 684,-26"/>
<text text-anchor="start" x="697.7521" y="-32.4" font-family="Times,serif" font-size="14.00" fill="#000000">val: 2</text>
<polygon fill="none" stroke="#000000" points="684,-4 684,-26 743,-26 743,-4 684,-4"/>
<text text-anchor="start" x="686.8615" y="-10.4" font-family="Times,serif" font-size="14.00" fill="#000000">next: null</text>
</g>
<!-- n6&#45;&gt;n7 -->
<g id="edge1" class="edge">
<title>n6-&gt;n7</title>
<path fill="none" stroke="#000000" d="M568,-124.3837C568,-112.5032 568,-98.0508 568,-84.3478"/>
<polygon fill="#000000" stroke="#000000" points="571.5001,-84.0701 568,-74.0701 564.5001,-84.0701 571.5001,-84.0701"/>
<text text-anchor="middle" x="578.3308" y="-95.6" font-family="Times,serif" font-size="12.00" fill="#000000">next</text>
</g>
<!-- n8&#45;&gt;n3 -->
<g id="edge6" class="edge">
<title>n8-&gt;n3</title>
<path fill="none" stroke="#000000" d="M352.1243,-533.7987C322.9791,-520.8209 283.1096,-503.0677 249.1864,-487.9623"/>
<polygon fill="#000000" stroke="#000000" points="250.3489,-484.6486 239.7899,-483.7781 247.5014,-491.0433 250.3489,-484.6486"/>
<text text-anchor="middle" x="317.6634" y="-505.2" font-family="Times,serif" font-size="12.00" fill="#000000">node</text>
</g>
<!-- n9 -->
<g id="node9" class="node">
<title>n9</title>
<polygon fill="none" stroke="#000000" points="389,-435.6 389,-479.6 682,-479.6 682,-435.6 389,-435.6"/>
<text text-anchor="start" x="391.8446" y="-453.4" font-family="Times,serif" font-size="14.00" fill="#000000">java.util.concurrent.ConcurrentSkipListMap$Index</text>
<polygon fill="none" stroke="#000000" points="682,-457.6 682,-479.6 748,-479.6 748,-457.6 682,-457.6"/>
<text text-anchor="start" x="684.8608" y="-464" font-family="Times,serif" font-size="14.00" fill="#000000">down: null</text>
<polygon fill="none" stroke="#000000" points="682,-435.6 682,-457.6 748,-457.6 748,-435.6 682,-435.6"/>
<text text-anchor="start" x="687.1932" y="-442" font-family="Times,serif" font-size="14.00" fill="#000000">right: null</text>
</g>
<!-- n8&#45;&gt;n9 -->
<g id="edge8" class="edge">
<title>n8-&gt;n9</title>
<path fill="none" stroke="#000000" d="M426.7418,-533.7987C450.4918,-520.9873 482.869,-503.5221 510.6346,-488.5445"/>
<polygon fill="#000000" stroke="#000000" points="512.3311,-491.6062 519.4706,-483.7781 509.0078,-485.4454 512.3311,-491.6062"/>
<text text-anchor="middle" x="497.3322" y="-505.2" font-family="Times,serif" font-size="12.00" fill="#000000">right</text>
</g>
<!-- n9&#45;&gt;n5 -->
<g id="edge7" class="edge">
<title>n9-&gt;n5</title>
<path fill="none" stroke="#000000" d="M568,-431.2452C568,-395.07 568,-329.887 568,-289.1118"/>
<polygon fill="#000000" stroke="#000000" points="571.5001,-289.0536 568,-279.0536 564.5001,-289.0536 571.5001,-289.0536"/>
<text text-anchor="middle" x="579.6634" y="-351.6" font-family="Times,serif" font-size="12.00" fill="#000000">node</text>
</g>
<!-- n10&#45;&gt;n5 -->
<g id="edge10" class="edge">
<title>n10-&gt;n5</title>
<path fill="none" stroke="#000000" d="M784.778,-533.6761C785.0412,-508.9897 782.6972,-464.371 765,-431.6 730.8061,-368.281 665.2646,-315.807 619.1975,-284.4307"/>
<polygon fill="#000000" stroke="#000000" points="621.0886,-281.4848 610.8344,-278.8198 617.1886,-287.2977 621.0886,-281.4848"/>
<text text-anchor="middle" x="764.6634" y="-402.8" font-family="Times,serif" font-size="12.00" fill="#000000">node</text>
</g>
<!-- n10&#45;&gt;n9 -->
<g id="edge11" class="edge">
<title>n10-&gt;n9</title>
<path fill="none" stroke="#000000" d="M742.6086,-533.9104C712.697,-520.8379 671.6017,-502.8778 636.7934,-487.6653"/>
<polygon fill="#000000" stroke="#000000" points="638.1897,-484.4559 627.6249,-483.6583 635.3864,-490.8701 638.1897,-484.4559"/>
<text text-anchor="middle" x="708.3314" y="-505.2" font-family="Times,serif" font-size="12.00" fill="#000000">down</text>
</g>
</g>
</svg>