<?xml version="1.0" encoding="UTF-8" standalone="no"?><!DOCTYPE svg PUBLIC "-//W3C//DTD SVG 1.1//EN" "http://www.w3.org/Graphics/SVG/1.1/DTD/svg11.dtd"><!-- Generated by graphviz version 2.40.1 (20161225.0304)
 --><!-- Title: Java Pages: 1 --><svg xmlns="http://www.w3.org/2000/svg" xmlns:xlink="http://www.w3.org/1999/xlink" width="609pt" height="784pt" viewBox="0.00 0.00 609.00 784.00">
<g id="graph0" class="graph" transform="scale(1 1) rotate(0) translate(4 780)">
<title>Java</title>
<polygon fill="#ffffff" stroke="transparent" points="-4,4 -4,-780 605,-780 605,4 -4,4"/>
<!-- n1 -->
<g id="node1" class="node">
<title>n1</title>
<polygon fill="none" stroke="#000000" points="216.5,-662 216.5,-772 470.5,-772 470.5,-662 216.5,-662"/>
<text text-anchor="start" x="219.2822" y="-712.8" font-family="Times,serif" font-size="14.00" fill="#000000">java.util.concurrent.ConcurrentSkipListMap</text>
<polygon fill="none" stroke="#000000" points="470.5,-750 470.5,-772 593.5,-772 593.5,-750 470.5,-750"/>
<text text-anchor="start" x="485.541" y="-756.4" font-family="Times,serif" font-size="14.00" fill="#000000">comparator: null</text>
<polygon fill="none" stroke="#000000" points="470.5,-728 470.5,-750 593.5,-750 593.5,-728 470.5,-728"/>
<text text-anchor="start" x="498.3629" y="-734.4" font-family="Times,serif" font-size="14.00" fill="#000000">keySet: null</text>
<polygon fill="none" stroke="#000000" points="470.5,-706 470.5,-728 593.5,-728 593.5,-706 470.5,-706"/>
<text text-anchor="start" x="499.5319" y="-712.4" font-family="Times,serif" font-size="14.00" fill="#000000">values: null</text>
<polygon fill="none" stroke="#000000" points="470.5,-684 470.5,-706 593.5,-706 593.5,-684 470.5,-684"/>
<text text-anchor="start" x="494.0873" y="-690.4" font-family="Times,serif" font-size="14.00" fill="#000000">entrySet: null</text>
<polygon fill="none" stroke="#000000" points="470.5,-662 470.5,-684 593.5,-684 593.5,-662 470.5,-662"/>
<text text-anchor="start" x="473.095" y="-668.4" font-family="Times,serif" font-size="14.00" fill="#000000">descendingMap: null</text>
</g>
<!-- n2 -->
<g id="node2" class="node">
<title>n2</title>
<polygon fill="none" stroke="#000000" points="108.5,-578.6 108.5,-600.6 401.5,-600.6 401.5,-578.6 108.5,-578.6"/>
<text text-anchor="start" x="111.3446" y="-585" font-family="Times,serif" font-size="14.00" fill="#000000">java.util.concurrent.ConcurrentSkipListMap$Index</text>
<polygon fill="none" stroke="#000000" points="401.5,-578.6 401.5,-600.6 467.5,-600.6 467.5,-578.6 401.5,-578.6"/>
<text text-anchor="start" x="404.3608" y="-585" font-family="Times,serif" font-size="14.00" fill="#000000">down: null</text>
</g>
<!-- n1&#45;&gt;n2 -->
<g id="edge8" class="edge">
<title>n1-&gt;n2</title>
<path fill="none" stroke="#000000" d="M350.1103,-657.7756C336.4036,-642.8506 322.3945,-627.5962 311.1127,-615.3117"/>
<polygon fill="#000000" stroke="#000000" points="313.4654,-612.699 304.1235,-607.7011 308.3097,-617.4339 313.4654,-612.699"/>
<text text-anchor="middle" x="343.8268" y="-629.2" font-family="Times,serif" font-size="12.00" fill="#000000">head</text>
</g>
<!-- n9 -->
<g id="node9" class="node">
<title>n9</title>
<polygon fill="none" stroke="#000000" points="514.5,-578.6 514.5,-600.6 527.5,-600.6 527.5,-578.6 514.5,-578.6"/>
<text text-anchor="start" x="517.5" y="-585" font-family="Times,serif" font-size="14.00" fill="#000000">4</text>
</g>
<!-- n1&#45;&gt;n9 -->
<g id="edge9" class="edge">
<title>n1-&gt;n9</title>
<path fill="none" stroke="#000000" d="M458.4249,-657.7756C472.0144,-642.8506 485.9038,-627.5962 497.0891,-615.3117"/>
<polygon fill="#000000" stroke="#000000" points="499.874,-617.4517 504.0186,-607.7011 494.6981,-612.7389 499.874,-617.4517"/>
<text text-anchor="middle" x="499.8242" y="-629.2" font-family="Times,serif" font-size="12.00" fill="#000000">adder</text>
</g>
<!-- n3 -->
<g id="node3" class="node">
<title>n3</title>
<polygon fill="none" stroke="#000000" points="8.5,-473.2 8.5,-517.2 299.5,-517.2 299.5,-473.2 8.5,-473.2"/>
<text text-anchor="start" x="11.1216" y="-491" font-family="Times,serif" font-size="14.00" fill="#000000">java.util.concurrent.ConcurrentSkipListMap$Node</text>
<polygon fill="none" stroke="#000000" points="299.5,-495.2 299.5,-517.2 354.5,-517.2 354.5,-495.2 299.5,-495.2"/>
<text text-anchor="start" x="302.3068" y="-501.6" font-family="Times,serif" font-size="14.00" fill="#000000">key: null</text>
<polygon fill="none" stroke="#000000" points="299.5,-473.2 299.5,-495.2 354.5,-495.2 354.5,-473.2 299.5,-473.2"/>
<text text-anchor="start" x="303.8615" y="-479.6" font-family="Times,serif" font-size="14.00" fill="#000000">val: null</text>
</g>
<!-- n2&#45;&gt;n3 -->
<g id="edge5" class="edge">
<title>n2-&gt;n3</title>
<path fill="none" stroke="#000000" d="M267.0621,-571.3987C253.4131,-559.2434 235.0601,-542.8988 218.8518,-528.4643"/>
<polygon fill="#000000" stroke="#000000" points="220.893,-525.5953 211.0974,-521.5584 216.2375,-530.8228 220.893,-525.5953"/>
<text text-anchor="middle" x="256.1634" y="-542.8" font-family="Times,serif" font-size="12.00" fill="#000000">node</text>
</g>
<!-- n8 -->
<g id="node8" class="node">
<title>n8</title>
<polygon fill="none" stroke="#000000" points="213.5,-403.2 213.5,-447.2 506.5,-447.2 506.5,-403.2 213.5,-403.2"/>
<text text-anchor="start" x="216.3446" y="-421" font-family="Times,serif" font-size="14.00" fill="#000000">java.util.concurrent.ConcurrentSkipListMap$Index</text>
<polygon fill="none" stroke="#000000" points="506.5,-425.2 506.5,-447.2 572.5,-447.2 572.5,-425.2 506.5,-425.2"/>
<text text-anchor="start" x="509.3608" y="-431.6" font-family="Times,serif" font-size="14.00" fill="#000000">down: null</text>
<polygon fill="none" stroke="#000000" points="506.5,-403.2 506.5,-425.2 572.5,-425.2 572.5,-403.2 506.5,-403.2"/>
<text text-anchor="start" x="511.6932" y="-409.6" font-family="Times,serif" font-size="14.00" fill="#000000">right: null</text>
</g>
<!-- n2&#45;&gt;n8 -->
<g id="edge7" class="edge">
<title>n2-&gt;n8</title>
<path fill="none" stroke="#000000" d="M319.2077,-571.3362C337.231,-559.3385 358.6922,-542.0254 371.5,-521.2 382.5099,-503.2979 387.7865,-480.3956 390.2981,-461.4506"/>
<polygon fill="#000000" stroke="#000000" points="393.7901,-461.7177 391.4279,-451.3896 386.8338,-460.9366 393.7901,-461.7177"/>
<text text-anchor="middle" x="368.8322" y="-542.8" font-family="Times,serif" font-size="12.00" fill="#000000">right</text>
</g>
<!-- n4 -->
<g id="node4" class="node">
<title>n4</title>
<polygon fill="none" stroke="#000000" points="8.5,-333.2 8.5,-377.2 299.5,-377.2 299.5,-333.2 8.5,-333.2"/>
<text text-anchor="start" x="11.1216" y="-351" font-family="Times,serif" font-size="14.00" fill="#000000">java.util.concurrent.ConcurrentSkipListMap$Node</text>
<polygon fill="none" stroke="#000000" points="299.5,-355.2 299.5,-377.2 355.5,-377.2 355.5,-355.2 299.5,-355.2"/>
<text text-anchor="start" x="302.0368" y="-361.6" font-family="Times,serif" font-size="14.00" fill="#000000">key: four</text>
<polygon fill="none" stroke="#000000" points="299.5,-333.2 299.5,-355.2 355.5,-355.2 355.5,-333.2 299.5,-333.2"/>
<text text-anchor="start" x="311.7521" y="-339.6" font-family="Times,serif" font-size="14.00" fill="#000000">val: 4</text>
</g>
<!-- n3&#45;&gt;n4 -->
<g id="edge4" class="edge">
<title>n3-&gt;n4</title>
<path fill="none" stroke="#000000" d="M176.8372,-468.7486C176.0052,-462.9827 175.2675,-456.9011 174.8384,-451.2 173.1037,-428.1541 173.1037,-422.2459 174.8384,-399.2 175.0194,-396.7949 175.2554,-394.322 175.5302,-391.8337"/>
<polygon fill="#000000" stroke="#000000" points="179.0354,-392.0157 176.8372,-381.6514 172.0924,-391.1244 179.0354,-392.0157"/>
<text text-anchor="middle" x="185.8308" y="-421.6" font-family="Times,serif" font-size="12.00" fill="#000000">next</text>
</g>
<!-- n5 -->
<g id="node5" class="node">
<title>n5</title>
<polygon fill="none" stroke="#000000" points="10.5,-230.8 10.5,-274.8 301.5,-274.8 301.5,-230.8 10.5,-230.8"/>
<text text-anchor="start" x="13.1216" y="-248.6" font-family="Times,serif" font-size="14.00" fill="#000000">java.util.concurrent.ConcurrentSkipListMap$Node</text>
<polygon fill="none" stroke="#000000" points="301.5,-252.8 301.5,-274.8 354.5,-274.8 354.5,-252.8 301.5,-252.8"/>
<text text-anchor="start" x="304.0901" y="-259.2" font-family="Times,serif" font-size="14.00" fill="#000000">key: one</text>
<polygon fill="none" stroke="#000000" points="301.5,-230.8 301.5,-252.8 354.5,-252.8 354.5,-230.8 301.5,-230.8"/>
<text text-anchor="start" x="312.2521" y="-237.2" font-family="Times,serif" font-size="14.00" fill="#000000">val: 1</text>
</g>
<!-- n4&#45;&gt;n5 -->
<g id="edge3" class="edge">
<title>n4-&gt;n5</title>
<path fill="none" stroke="#000000" d="M181.7549,-329.0952C181.8736,-316.9387 182.0169,-302.2745 182.1459,-289.0642"/>
<polygon fill="#000000" stroke="#000000" points="185.6476,-288.8909 182.2455,-278.8571 178.648,-288.8224 185.6476,-288.8909"/>
<text text-anchor="middle" x="192.8308" y="-300.4" font-family="Times,serif" font-size="12.00" fill="#000000">next</text>
</g>
<!-- n6 -->
<g id="node6" class="node">
<title>n6</title>
<polygon fill="none" stroke="#000000" points="111.5,-128.4 111.5,-172.4 402.5,-172.4 402.5,-128.4 111.5,-128.4"/>
<text text-anchor="start" x="114.1216" y="-146.2" font-family="Times,serif" font-size="14.00" fill="#000000">java.util.concurrent.ConcurrentSkipListMap$Node</text>
<polygon fill="none" stroke="#000000" points="402.5,-150.4 402.5,-172.4 463.5,-172.4 463.5,-150.4 402.5,-150.4"/>
<text text-anchor="start" x="405.2072" y="-156.8" font-family="Times,serif" font-size="14.00" fill="#000000">key: three</text>
<polygon fill="none" stroke="#000000" points="402.5,-128.4 402.5,-150.4 463.5,-150.4 463.5,-128.4 402.5,-128.4"/>
<text text-anchor="start" x="417.2521" y="-134.8" font-family="Times,serif" font-size="14.00" fill="#000000">val: 3</text>
</g>
<!-- n5&#45;&gt;n6 -->
<g id="edge2" class="edge">
<title>n5-&gt;n6</title>
<path fill="none" stroke="#000000" d="M209.2676,-226.6952C222.7202,-213.5758 239.1674,-197.5358 253.5037,-183.5544"/>
<polygon fill="#000000" stroke="#000000" points="256.0658,-185.9447 260.7813,-176.4571 251.1784,-180.9333 256.0658,-185.9447"/>
<text text-anchor="middle" x="251.8308" y="-198" font-family="Times,serif" font-size="12.00" fill="#000000">next</text>
</g>
<!-- n7 -->
<g id="node7" class="node">
<title>n7</title>
<polygon fill="none" stroke="#000000" points="112.5,-4 112.5,-70 403.5,-70 403.5,-4 112.5,-4"/>
<text text-anchor="start" x="115.1216" y="-32.8" font-family="Times,serif" font-size="14.00" fill="#000000">java.util.concurrent.ConcurrentSkipListMap$Node</text>
<polygon fill="none" stroke="#000000" points="403.5,-48 403.5,-70 462.5,-70 462.5,-48 403.5,-48"/>
<text text-anchor="start" x="408.6988" y="-54.4" font-family="Times,serif" font-size="14.00" fill="#000000">key: two</text>
<polygon fill="none" stroke="#000000" points="403.5,-26 403.5,-48 462.5,-48 462.5,-26 403.5,-26"/>
<text text-anchor="start" x="417.2521" y="-32.4" font-family="Times,serif" font-size="14.00" fill="#000000">val: 2</text>
<polygon fill="none" stroke="#000000" points="403.5,-4 403.5,-26 462.5,-26 462.5,-4 403.5,-4"/>
<text text-anchor="start" x="406.3615" y="-10.4" font-family="Times,serif" font-size="14.00" fill="#000000">next: null</text>
</g>
<!-- n6&#45;&gt;n7 -->
<g id="edge1" class="edge">
<title>n6-&gt;n7</title>
<path fill="none" stroke="#000000" d="M287.5,-124.3837C287.5,-112.5032 287.5,-98.0508 287.5,-84.3478"/>
<polygon fill="#000000" stroke="#000000" points="291.0001,-84.0701 287.5,-74.0701 284.0001,-84.0701 291.0001,-84.0701"/>
<text text-anchor="middle" x="297.8308" y="-95.6" font-family="Times,serif" font-size="12.00" fill="#000000">next</text>
</g>
<!-- n8&#45;&gt;n6 -->
<g id="edge6" class="edge">
<title>n8-&gt;n6</title>
<path fill="none" stroke="#000000" d="M395.3942,-399.1459C398.59,-359.5853 399.9989,-283.0293 371.5,-226.8 363.003,-210.0352 349.1837,-195.1606 335.185,-183.0938"/>
<polygon fill="#000000" stroke="#000000" points="337.362,-180.3524 327.4222,-176.6847 332.9053,-185.7504 337.362,-180.3524"/>
<text text-anchor="middle" x="406.1634" y="-300.4" font-family="Times,serif" font-size="12.00" fill="#000000">node</text>
</g>
</g>
</svg>