<?xml version="1.0" encoding="UTF-8" standalone="no"?>
<!DOCTYPE svg PUBLIC "-//W3C//DTD SVG 1.1//EN" "http://www.w3.org/Graphics/SVG/1.1/DTD/svg11.dtd">
<!-- Generated by graphviz version 2.40.1 (20161225.0304)
 -->
<!-- Title: Java Pages: 1 -->
<svg width="1099pt" height="934pt" viewBox="0.00 0.00 1099.00 933.60" xmlns="http://www.w3.org/2000/svg" xmlns:xlink="http://www.w3.org/1999/xlink">
<g id="graph0" class="graph" transform="scale(1 1) rotate(0) translate(4 929.6)">
<title>Java</title>
<polygon fill="#ffffff" stroke="transparent" points="-4,4 -4,-929.6 1095,-929.6 1095,4 -4,4"/>
<!-- n1 -->
<g id="node1" class="node">
<title>n1</title>
<polygon fill="none" stroke="#000000" points="212.5,-899.6 212.5,-921.6 657.5,-921.6 657.5,-899.6 212.5,-899.6"/>
<text text-anchor="start" x="310.7822" y="-906" font-family="Times,serif" font-size="14.00" fill="#000000">java.util.concurrent.ConcurrentSkipListMap</text>
<polygon fill="none" stroke="#000000" points="212.5,-877.6 212.5,-899.6 310.5,-899.6 310.5,-877.6 212.5,-877.6"/>
<text text-anchor="start" x="215.041" y="-884" font-family="Times,serif" font-size="14.00" fill="#000000">comparator: null</text>
<polygon fill="none" stroke="#000000" points="310.5,-877.6 310.5,-899.6 383.5,-899.6 383.5,-877.6 310.5,-877.6"/>
<text text-anchor="start" x="313.3629" y="-884" font-family="Times,serif" font-size="14.00" fill="#000000">keySet: null</text>
<polygon fill="none" stroke="#000000" points="383.5,-877.6 383.5,-899.6 453.5,-899.6 453.5,-877.6 383.5,-877.6"/>
<text text-anchor="start" x="386.0319" y="-884" font-family="Times,serif" font-size="14.00" fill="#000000">values: null</text>
<polygon fill="none" stroke="#000000" points="453.5,-877.6 453.5,-899.6 534.5,-899.6 534.5,-877.6 453.5,-877.6"/>
<text text-anchor="start" x="456.0873" y="-884" font-family="Times,serif" font-size="14.00" fill="#000000">entrySet: null</text>
<polygon fill="none" stroke="#000000" points="534.5,-877.6 534.5,-899.6 657.5,-899.6 657.5,-877.6 534.5,-877.6"/>
<text text-anchor="start" x="537.095" y="-884" font-family="Times,serif" font-size="14.00" fill="#000000">descendingMap: null</text>
</g>
<!-- n2 -->
<g id="node2" class="node">
<title>n2</title>
<polygon fill="none" stroke="#000000" points="188.5,-794.2 188.5,-816.2 481.5,-816.2 481.5,-794.2 188.5,-794.2"/>
<text text-anchor="start" x="191.3446" y="-800.6" font-family="Times,serif" font-size="14.00" fill="#000000">java.util.concurrent.ConcurrentSkipListMap$Index</text>
</g>
<!-- n1&#45;&gt;n2 -->
<g id="edge25" class="edge">
<title>n1-&gt;n2</title>
<path fill="none" stroke="#000000" d="M406.9098,-873.5549C392.6666,-860.1092 375.3642,-843.7758 361.245,-830.4473"/>
<polygon fill="#000000" stroke="#000000" points="363.4424,-827.7085 353.7681,-823.389 358.6372,-832.7987 363.4424,-827.7085"/>
<text text-anchor="middle" x="398.8268" y="-844.8" font-family="Times,serif" font-size="12.00" fill="#000000">head</text>
</g>
<!-- n23 -->
<g id="node23" class="node">
<title>n23</title>
<polygon fill="none" stroke="#000000" points="527.5,-794.2 527.5,-816.2 540.5,-816.2 540.5,-794.2 527.5,-794.2"/>
<text text-anchor="start" x="530.5" y="-800.6" font-family="Times,serif" font-size="14.00" fill="#000000">4</text>
</g>
<!-- n1&#45;&gt;n23 -->
<g id="edge26" class="edge">
<title>n1-&gt;n23</title>
<path fill="none" stroke="#000000" d="M461.8143,-873.5549C475.9151,-860.1092 493.0444,-843.7758 507.0225,-830.4473"/>
<polygon fill="#000000" stroke="#000000" points="509.6027,-832.823 514.4246,-823.389 504.7721,-827.757 509.6027,-832.823"/>
<text text-anchor="middle" x="506.8242" y="-844.8" font-family="Times,serif" font-size="12.00" fill="#000000">adder</text>
</g>
<!-- n3 -->
<g id="node3" class="node">
<title>n3</title>
<polygon fill="none" stroke="#000000" points="8.5,-608.4 8.5,-630.4 299.5,-630.4 299.5,-608.4 8.5,-608.4"/>
<text text-anchor="start" x="11.1216" y="-614.8" font-family="Times,serif" font-size="14.00" fill="#000000">java.util.concurrent.ConcurrentSkipListMap$Node</text>
<polygon fill="none" stroke="#000000" points="8.5,-586.4 8.5,-608.4 155.5,-608.4 155.5,-586.4 8.5,-586.4"/>
<text text-anchor="start" x="57.3068" y="-592.8" font-family="Times,serif" font-size="14.00" fill="#000000">key: null</text>
<polygon fill="none" stroke="#000000" points="155.5,-586.4 155.5,-608.4 299.5,-608.4 299.5,-586.4 155.5,-586.4"/>
<text text-anchor="start" x="204.3615" y="-592.8" font-family="Times,serif" font-size="14.00" fill="#000000">val: null</text>
</g>
<!-- n2&#45;&gt;n3 -->
<g id="edge17" class="edge">
<title>n2-&gt;n3</title>
<path fill="none" stroke="#000000" d="M259.5104,-787.1991C213.4594,-774.4569 160.7663,-756.2342 147.1732,-736.8 128.4888,-710.0866 133.185,-672.0576 140.6643,-644.3214"/>
<polygon fill="#000000" stroke="#000000" points="144.0571,-645.1891 143.5076,-634.6086 137.3391,-643.2225 144.0571,-645.1891"/>
<text text-anchor="middle" x="159.1634" y="-707.2" font-family="Times,serif" font-size="12.00" fill="#000000">node</text>
</g>
<!-- n20 -->
<g id="node20" class="node">
<title>n20</title>
<polygon fill="none" stroke="#000000" points="188.5,-710.8 188.5,-732.8 481.5,-732.8 481.5,-710.8 188.5,-710.8"/>
<text text-anchor="start" x="191.3446" y="-717.2" font-family="Times,serif" font-size="14.00" fill="#000000">java.util.concurrent.ConcurrentSkipListMap$Index</text>
<polygon fill="none" stroke="#000000" points="188.5,-688.8 188.5,-710.8 481.5,-710.8 481.5,-688.8 188.5,-688.8"/>
<text text-anchor="start" x="304.8608" y="-695.2" font-family="Times,serif" font-size="14.00" fill="#000000">down: null</text>
</g>
<!-- n2&#45;&gt;n20 -->
<g id="edge21" class="edge">
<title>n2-&gt;n20</title>
<path fill="none" stroke="#000000" d="M334.5,-786.9987C334.5,-775.7274 334.5,-760.854 334.5,-747.2416"/>
<polygon fill="#000000" stroke="#000000" points="338.0001,-747.1584 334.5,-737.1584 331.0001,-747.1584 338.0001,-747.1584"/>
<text text-anchor="middle" x="347.8314" y="-758.4" font-family="Times,serif" font-size="12.00" fill="#000000">down</text>
</g>
<!-- n22 -->
<g id="node22" class="node">
<title>n22</title>
<polygon fill="none" stroke="#000000" points="515.5,-710.8 515.5,-732.8 808.5,-732.8 808.5,-710.8 515.5,-710.8"/>
<text text-anchor="start" x="518.3446" y="-717.2" font-family="Times,serif" font-size="14.00" fill="#000000">java.util.concurrent.ConcurrentSkipListMap$Index</text>
<polygon fill="none" stroke="#000000" points="515.5,-688.8 515.5,-710.8 808.5,-710.8 808.5,-688.8 515.5,-688.8"/>
<text text-anchor="start" x="634.1932" y="-695.2" font-family="Times,serif" font-size="14.00" fill="#000000">right: null</text>
</g>
<!-- n2&#45;&gt;n22 -->
<g id="edge24" class="edge">
<title>n2-&gt;n22</title>
<path fill="none" stroke="#000000" d="M397.162,-787.1104C443.601,-773.7042 507.8464,-755.1575 561.3716,-739.7056"/>
<polygon fill="#000000" stroke="#000000" points="562.5976,-742.9946 571.2345,-736.8583 560.656,-736.2693 562.5976,-742.9946"/>
<text text-anchor="middle" x="519.8322" y="-758.4" font-family="Times,serif" font-size="12.00" fill="#000000">right</text>
</g>
<!-- n4 -->
<g id="node4" class="node">
<title>n4</title>
<polygon fill="none" stroke="#000000" points="80.5,-503 80.5,-525 371.5,-525 371.5,-503 80.5,-503"/>
<text text-anchor="start" x="83.1216" y="-509.4" font-family="Times,serif" font-size="14.00" fill="#000000">java.util.concurrent.ConcurrentSkipListMap$Node</text>
</g>
<!-- n3&#45;&gt;n4 -->
<g id="edge16" class="edge">
<title>n3-&gt;n4</title>
<path fill="none" stroke="#000000" d="M173.3649,-582.3549C183.3352,-569.2827 195.3874,-553.481 205.3913,-540.3648"/>
<polygon fill="#000000" stroke="#000000" points="208.3454,-542.2629 211.627,-532.189 202.7795,-538.0177 208.3454,-542.2629"/>
<text text-anchor="middle" x="206.8308" y="-553.6" font-family="Times,serif" font-size="12.00" fill="#000000">next</text>
</g>
<!-- n5 -->
<g id="node5" class="node">
<title>n5</title>
<polygon fill="none" stroke="#000000" points="57.5,-419.6 57.5,-441.6 154.5,-441.6 154.5,-419.6 57.5,-419.6"/>
<text text-anchor="start" x="61.6753" y="-426" font-family="Times,serif" font-size="14.00" fill="#000000">java.lang.String</text>
<polygon fill="none" stroke="#000000" points="57.5,-397.6 57.5,-419.6 108.5,-419.6 108.5,-397.6 57.5,-397.6"/>
<text text-anchor="start" x="60.2598" y="-404" font-family="Times,serif" font-size="14.00" fill="#000000">coder: 0</text>
<polygon fill="none" stroke="#000000" points="108.5,-397.6 108.5,-419.6 154.5,-419.6 154.5,-397.6 108.5,-397.6"/>
<text text-anchor="start" x="111.4751" y="-404" font-family="Times,serif" font-size="14.00" fill="#000000">hash: 0</text>
</g>
<!-- n4&#45;&gt;n5 -->
<g id="edge2" class="edge">
<title>n4-&gt;n5</title>
<path fill="none" stroke="#000000" d="M202.3628,-495.7987C186.7706,-483.5329 165.7558,-467.0013 147.2853,-452.4711"/>
<polygon fill="#000000" stroke="#000000" points="149.03,-449.3904 139.0064,-445.9584 144.702,-454.8921 149.03,-449.3904"/>
<text text-anchor="middle" x="185.1634" y="-467.2" font-family="Times,serif" font-size="12.00" fill="#000000">key</text>
</g>
<!-- n7 -->
<g id="node7" class="node">
<title>n7</title>
<polygon fill="none" stroke="#000000" points="188.5,-419.6 188.5,-441.6 288.5,-441.6 288.5,-419.6 188.5,-419.6"/>
<text text-anchor="start" x="191.467" y="-426" font-family="Times,serif" font-size="14.00" fill="#000000">java.lang.Integer</text>
<polygon fill="none" stroke="#000000" points="188.5,-397.6 188.5,-419.6 288.5,-419.6 288.5,-397.6 188.5,-397.6"/>
<text text-anchor="start" x="216.1448" y="-404" font-family="Times,serif" font-size="14.00" fill="#000000">value: 4</text>
</g>
<!-- n4&#45;&gt;n7 -->
<g id="edge3" class="edge">
<title>n4-&gt;n7</title>
<path fill="none" stroke="#000000" d="M228.0065,-495.7987C229.5587,-484.5274 231.607,-469.654 233.4816,-456.0416"/>
<polygon fill="#000000" stroke="#000000" points="236.9731,-456.3424 234.8701,-445.9584 230.0385,-455.3874 236.9731,-456.3424"/>
<text text-anchor="middle" x="239.8308" y="-467.2" font-family="Times,serif" font-size="12.00" fill="#000000">val</text>
</g>
<!-- n8 -->
<g id="node8" class="node">
<title>n8</title>
<polygon fill="none" stroke="#000000" points="334.5,-408.6 334.5,-430.6 625.5,-430.6 625.5,-408.6 334.5,-408.6"/>
<text text-anchor="start" x="337.1216" y="-415" font-family="Times,serif" font-size="14.00" fill="#000000">java.util.concurrent.ConcurrentSkipListMap$Node</text>
</g>
<!-- n4&#45;&gt;n8 -->
<g id="edge15" class="edge">
<title>n4-&gt;n8</title>
<path fill="none" stroke="#000000" d="M274.1732,-495.9104C316.1785,-480.299 376.9391,-457.7171 421.466,-441.1686"/>
<polygon fill="#000000" stroke="#000000" points="422.8372,-444.3929 430.9915,-437.6284 420.3986,-437.8314 422.8372,-444.3929"/>
<text text-anchor="middle" x="370.8308" y="-467.2" font-family="Times,serif" font-size="12.00" fill="#000000">next</text>
</g>
<!-- n6 -->
<g id="node6" class="node">
<title>n6</title>
<polygon fill="none" stroke="#000000" points="51.5,-306.2 51.5,-328.2 78.5,-328.2 78.5,-306.2 51.5,-306.2"/>
<text text-anchor="start" x="54.5" y="-312.6" font-family="Times,serif" font-size="14.00" fill="#000000">102</text>
<polygon fill="none" stroke="#000000" points="78.5,-306.2 78.5,-328.2 105.5,-328.2 105.5,-306.2 78.5,-306.2"/>
<text text-anchor="start" x="81.5" y="-312.6" font-family="Times,serif" font-size="14.00" fill="#000000">111</text>
<polygon fill="none" stroke="#000000" points="105.5,-306.2 105.5,-328.2 132.5,-328.2 132.5,-306.2 105.5,-306.2"/>
<text text-anchor="start" x="108.5" y="-312.6" font-family="Times,serif" font-size="14.00" fill="#000000">117</text>
<polygon fill="none" stroke="#000000" points="132.5,-306.2 132.5,-328.2 159.5,-328.2 159.5,-306.2 132.5,-306.2"/>
<text text-anchor="start" x="135.5" y="-312.6" font-family="Times,serif" font-size="14.00" fill="#000000">114</text>
</g>
<!-- n5&#45;&gt;n6 -->
<g id="edge1" class="edge">
<title>n5-&gt;n6</title>
<path fill="none" stroke="#000000" d="M105.5,-393.4952C105.5,-378.9046 105.5,-360.7017 105.5,-345.7356"/>
<polygon fill="#000000" stroke="#000000" points="109.0001,-345.508 105.5,-335.508 102.0001,-345.508 109.0001,-345.508"/>
<text text-anchor="middle" x="118.4942" y="-364.8" font-family="Times,serif" font-size="12.00" fill="#000000">value</text>
</g>
<!-- n9 -->
<g id="node9" class="node">
<title>n9</title>
<polygon fill="none" stroke="#000000" points="298.5,-317.2 298.5,-339.2 395.5,-339.2 395.5,-317.2 298.5,-317.2"/>
<text text-anchor="start" x="302.6753" y="-323.6" font-family="Times,serif" font-size="14.00" fill="#000000">java.lang.String</text>
<polygon fill="none" stroke="#000000" points="298.5,-295.2 298.5,-317.2 349.5,-317.2 349.5,-295.2 298.5,-295.2"/>
<text text-anchor="start" x="301.2598" y="-301.6" font-family="Times,serif" font-size="14.00" fill="#000000">coder: 0</text>
<polygon fill="none" stroke="#000000" points="349.5,-295.2 349.5,-317.2 395.5,-317.2 395.5,-295.2 349.5,-295.2"/>
<text text-anchor="start" x="352.4751" y="-301.6" font-family="Times,serif" font-size="14.00" fill="#000000">hash: 0</text>
</g>
<!-- n8&#45;&gt;n9 -->
<g id="edge5" class="edge">
<title>n8-&gt;n9</title>
<path fill="none" stroke="#000000" d="M456.0284,-401.5287C437.3652,-387.1594 410.778,-366.6893 388.4725,-349.5156"/>
<polygon fill="#000000" stroke="#000000" points="390.5298,-346.6824 380.471,-343.3551 386.2593,-352.2289 390.5298,-346.6824"/>
<text text-anchor="middle" x="430.1634" y="-364.8" font-family="Times,serif" font-size="12.00" fill="#000000">key</text>
</g>
<!-- n11 -->
<g id="node11" class="node">
<title>n11</title>
<polygon fill="none" stroke="#000000" points="429.5,-317.2 429.5,-339.2 529.5,-339.2 529.5,-317.2 429.5,-317.2"/>
<text text-anchor="start" x="432.467" y="-323.6" font-family="Times,serif" font-size="14.00" fill="#000000">java.lang.Integer</text>
<polygon fill="none" stroke="#000000" points="429.5,-295.2 429.5,-317.2 529.5,-317.2 529.5,-295.2 429.5,-295.2"/>
<text text-anchor="start" x="457.1448" y="-301.6" font-family="Times,serif" font-size="14.00" fill="#000000">value: 1</text>
</g>
<!-- n8&#45;&gt;n11 -->
<g id="edge6" class="edge">
<title>n8-&gt;n11</title>
<path fill="none" stroke="#000000" d="M479.5,-401.2929C479.5,-388.0797 479.5,-369.7979 479.5,-353.6544"/>
<polygon fill="#000000" stroke="#000000" points="483.0001,-353.4292 479.5,-343.4293 476.0001,-353.4293 483.0001,-353.4292"/>
<text text-anchor="middle" x="486.8308" y="-364.8" font-family="Times,serif" font-size="12.00" fill="#000000">val</text>
</g>
<!-- n12 -->
<g id="node12" class="node">
<title>n12</title>
<polygon fill="none" stroke="#000000" points="563.5,-306.2 563.5,-328.2 854.5,-328.2 854.5,-306.2 563.5,-306.2"/>
<text text-anchor="start" x="566.1216" y="-312.6" font-family="Times,serif" font-size="14.00" fill="#000000">java.util.concurrent.ConcurrentSkipListMap$Node</text>
</g>
<!-- n8&#45;&gt;n12 -->
<g id="edge14" class="edge">
<title>n8-&gt;n12</title>
<path fill="none" stroke="#000000" d="M519.9135,-401.5287C558.6282,-384.2169 617.1462,-358.0499 658.7174,-339.4609"/>
<polygon fill="#000000" stroke="#000000" points="660.4059,-342.5399 668.1061,-335.2626 657.5484,-336.1497 660.4059,-342.5399"/>
<text text-anchor="middle" x="617.8308" y="-364.8" font-family="Times,serif" font-size="12.00" fill="#000000">next</text>
</g>
<!-- n10 -->
<g id="node10" class="node">
<title>n10</title>
<polygon fill="none" stroke="#000000" points="306.5,-203.8 306.5,-225.8 333.5,-225.8 333.5,-203.8 306.5,-203.8"/>
<text text-anchor="start" x="309.5" y="-210.2" font-family="Times,serif" font-size="14.00" fill="#000000">111</text>
<polygon fill="none" stroke="#000000" points="333.5,-203.8 333.5,-225.8 360.5,-225.8 360.5,-203.8 333.5,-203.8"/>
<text text-anchor="start" x="336.5" y="-210.2" font-family="Times,serif" font-size="14.00" fill="#000000">110</text>
<polygon fill="none" stroke="#000000" points="360.5,-203.8 360.5,-225.8 387.5,-225.8 387.5,-203.8 360.5,-203.8"/>
<text text-anchor="start" x="363.5" y="-210.2" font-family="Times,serif" font-size="14.00" fill="#000000">101</text>
</g>
<!-- n9&#45;&gt;n10 -->
<g id="edge4" class="edge">
<title>n9-&gt;n10</title>
<path fill="none" stroke="#000000" d="M346.5,-291.0952C346.5,-276.5046 346.5,-258.3017 346.5,-243.3356"/>
<polygon fill="#000000" stroke="#000000" points="350.0001,-243.108 346.5,-233.108 343.0001,-243.108 350.0001,-243.108"/>
<text text-anchor="middle" x="359.4942" y="-262.4" font-family="Times,serif" font-size="12.00" fill="#000000">value</text>
</g>
<!-- n13 -->
<g id="node13" class="node">
<title>n13</title>
<polygon fill="none" stroke="#000000" points="527.5,-214.8 527.5,-236.8 624.5,-236.8 624.5,-214.8 527.5,-214.8"/>
<text text-anchor="start" x="531.6753" y="-221.2" font-family="Times,serif" font-size="14.00" fill="#000000">java.lang.String</text>
<polygon fill="none" stroke="#000000" points="527.5,-192.8 527.5,-214.8 578.5,-214.8 578.5,-192.8 527.5,-192.8"/>
<text text-anchor="start" x="530.2598" y="-199.2" font-family="Times,serif" font-size="14.00" fill="#000000">coder: 0</text>
<polygon fill="none" stroke="#000000" points="578.5,-192.8 578.5,-214.8 624.5,-214.8 624.5,-192.8 578.5,-192.8"/>
<text text-anchor="start" x="581.4751" y="-199.2" font-family="Times,serif" font-size="14.00" fill="#000000">hash: 0</text>
</g>
<!-- n12&#45;&gt;n13 -->
<g id="edge8" class="edge">
<title>n12-&gt;n13</title>
<path fill="none" stroke="#000000" d="M685.0284,-299.1287C666.3652,-284.7594 639.778,-264.2893 617.4725,-247.1156"/>
<polygon fill="#000000" stroke="#000000" points="619.5298,-244.2824 609.471,-240.9551 615.2593,-249.8289 619.5298,-244.2824"/>
<text text-anchor="middle" x="658.1634" y="-262.4" font-family="Times,serif" font-size="12.00" fill="#000000">key</text>
</g>
<!-- n15 -->
<g id="node15" class="node">
<title>n15</title>
<polygon fill="none" stroke="#000000" points="658.5,-214.8 658.5,-236.8 758.5,-236.8 758.5,-214.8 658.5,-214.8"/>
<text text-anchor="start" x="661.467" y="-221.2" font-family="Times,serif" font-size="14.00" fill="#000000">java.lang.Integer</text>
<polygon fill="none" stroke="#000000" points="658.5,-192.8 658.5,-214.8 758.5,-214.8 758.5,-192.8 658.5,-192.8"/>
<text text-anchor="start" x="686.1448" y="-199.2" font-family="Times,serif" font-size="14.00" fill="#000000">value: 3</text>
</g>
<!-- n12&#45;&gt;n15 -->
<g id="edge9" class="edge">
<title>n12-&gt;n15</title>
<path fill="none" stroke="#000000" d="M708.5,-298.8929C708.5,-285.6797 708.5,-267.3979 708.5,-251.2544"/>
<polygon fill="#000000" stroke="#000000" points="712.0001,-251.0292 708.5,-241.0293 705.0001,-251.0293 712.0001,-251.0292"/>
<text text-anchor="middle" x="715.8308" y="-262.4" font-family="Times,serif" font-size="12.00" fill="#000000">val</text>
</g>
<!-- n16 -->
<g id="node16" class="node">
<title>n16</title>
<polygon fill="none" stroke="#000000" points="792.5,-214.8 792.5,-236.8 1083.5,-236.8 1083.5,-214.8 792.5,-214.8"/>
<text text-anchor="start" x="795.1216" y="-221.2" font-family="Times,serif" font-size="14.00" fill="#000000">java.util.concurrent.ConcurrentSkipListMap$Node</text>
<polygon fill="none" stroke="#000000" points="792.5,-192.8 792.5,-214.8 1083.5,-214.8 1083.5,-192.8 792.5,-192.8"/>
<text text-anchor="start" x="911.3615" y="-199.2" font-family="Times,serif" font-size="14.00" fill="#000000">next: null</text>
</g>
<!-- n12&#45;&gt;n16 -->
<g id="edge13" class="edge">
<title>n12-&gt;n16</title>
<path fill="none" stroke="#000000" d="M748.9135,-299.1287C782.3163,-284.1922 830.4611,-262.6637 869.7439,-245.0979"/>
<polygon fill="#000000" stroke="#000000" points="871.3085,-248.2323 879.0087,-240.9551 868.451,-241.8421 871.3085,-248.2323"/>
<text text-anchor="middle" x="846.8308" y="-262.4" font-family="Times,serif" font-size="12.00" fill="#000000">next</text>
</g>
<!-- n14 -->
<g id="node14" class="node">
<title>n14</title>
<polygon fill="none" stroke="#000000" points="508.5,-101.4 508.5,-123.4 535.5,-123.4 535.5,-101.4 508.5,-101.4"/>
<text text-anchor="start" x="511.5" y="-107.8" font-family="Times,serif" font-size="14.00" fill="#000000">116</text>
<polygon fill="none" stroke="#000000" points="535.5,-101.4 535.5,-123.4 562.5,-123.4 562.5,-101.4 535.5,-101.4"/>
<text text-anchor="start" x="538.5" y="-107.8" font-family="Times,serif" font-size="14.00" fill="#000000">104</text>
<polygon fill="none" stroke="#000000" points="562.5,-101.4 562.5,-123.4 589.5,-123.4 589.5,-101.4 562.5,-101.4"/>
<text text-anchor="start" x="565.5" y="-107.8" font-family="Times,serif" font-size="14.00" fill="#000000">114</text>
<polygon fill="none" stroke="#000000" points="589.5,-101.4 589.5,-123.4 616.5,-123.4 616.5,-101.4 589.5,-101.4"/>
<text text-anchor="start" x="592.5" y="-107.8" font-family="Times,serif" font-size="14.00" fill="#000000">101</text>
<polygon fill="none" stroke="#000000" points="616.5,-101.4 616.5,-123.4 643.5,-123.4 643.5,-101.4 616.5,-101.4"/>
<text text-anchor="start" x="619.5" y="-107.8" font-family="Times,serif" font-size="14.00" fill="#000000">101</text>
</g>
<!-- n13&#45;&gt;n14 -->
<g id="edge7" class="edge">
<title>n13-&gt;n14</title>
<path fill="none" stroke="#000000" d="M575.5,-188.6952C575.5,-174.1046 575.5,-155.9017 575.5,-140.9356"/>
<polygon fill="#000000" stroke="#000000" points="579.0001,-140.708 575.5,-130.708 572.0001,-140.708 579.0001,-140.708"/>
<text text-anchor="middle" x="588.4942" y="-160" font-family="Times,serif" font-size="12.00" fill="#000000">value</text>
</g>
<!-- n17 -->
<g id="node17" class="node">
<title>n17</title>
<polygon fill="none" stroke="#000000" points="799.5,-112.4 799.5,-134.4 896.5,-134.4 896.5,-112.4 799.5,-112.4"/>
<text text-anchor="start" x="803.6753" y="-118.8" font-family="Times,serif" font-size="14.00" fill="#000000">java.lang.String</text>
<polygon fill="none" stroke="#000000" points="799.5,-90.4 799.5,-112.4 850.5,-112.4 850.5,-90.4 799.5,-90.4"/>
<text text-anchor="start" x="802.2598" y="-96.8" font-family="Times,serif" font-size="14.00" fill="#000000">coder: 0</text>
<polygon fill="none" stroke="#000000" points="850.5,-90.4 850.5,-112.4 896.5,-112.4 896.5,-90.4 850.5,-90.4"/>
<text text-anchor="start" x="853.4751" y="-96.8" font-family="Times,serif" font-size="14.00" fill="#000000">hash: 0</text>
</g>
<!-- n16&#45;&gt;n17 -->
<g id="edge11" class="edge">
<title>n16-&gt;n17</title>
<path fill="none" stroke="#000000" d="M914.5563,-188.6952C903.2372,-175.8165 889.4444,-160.1234 877.3179,-146.3261"/>
<polygon fill="#000000" stroke="#000000" points="879.6324,-143.6578 870.4018,-138.4571 874.3745,-148.2789 879.6324,-143.6578"/>
<text text-anchor="middle" x="906.1634" y="-160" font-family="Times,serif" font-size="12.00" fill="#000000">key</text>
</g>
<!-- n19 -->
<g id="node19" class="node">
<title>n19</title>
<polygon fill="none" stroke="#000000" points="930.5,-112.4 930.5,-134.4 1030.5,-134.4 1030.5,-112.4 930.5,-112.4"/>
<text text-anchor="start" x="933.467" y="-118.8" font-family="Times,serif" font-size="14.00" fill="#000000">java.lang.Integer</text>
<polygon fill="none" stroke="#000000" points="930.5,-90.4 930.5,-112.4 1030.5,-112.4 1030.5,-90.4 930.5,-90.4"/>
<text text-anchor="start" x="958.1448" y="-96.8" font-family="Times,serif" font-size="14.00" fill="#000000">value: 2</text>
</g>
<!-- n16&#45;&gt;n19 -->
<g id="edge12" class="edge">
<title>n16-&gt;n19</title>
<path fill="none" stroke="#000000" d="M948.462,-188.6952C953.6679,-176.2979 959.9688,-161.2928 965.6007,-147.8812"/>
<polygon fill="#000000" stroke="#000000" points="968.9133,-149.0323 969.558,-138.4571 962.4592,-146.3221 968.9133,-149.0323"/>
<text text-anchor="middle" x="968.8308" y="-160" font-family="Times,serif" font-size="12.00" fill="#000000">val</text>
</g>
<!-- n18 -->
<g id="node18" class="node">
<title>n18</title>
<polygon fill="none" stroke="#000000" points="807.5,-7 807.5,-29 834.5,-29 834.5,-7 807.5,-7"/>
<text text-anchor="start" x="810.5" y="-13.4" font-family="Times,serif" font-size="14.00" fill="#000000">116</text>
<polygon fill="none" stroke="#000000" points="834.5,-7 834.5,-29 861.5,-29 861.5,-7 834.5,-7"/>
<text text-anchor="start" x="837.5" y="-13.4" font-family="Times,serif" font-size="14.00" fill="#000000">119</text>
<polygon fill="none" stroke="#000000" points="861.5,-7 861.5,-29 888.5,-29 888.5,-7 861.5,-7"/>
<text text-anchor="start" x="864.5" y="-13.4" font-family="Times,serif" font-size="14.00" fill="#000000">111</text>
</g>
<!-- n17&#45;&gt;n18 -->
<g id="edge10" class="edge">
<title>n17-&gt;n18</title>
<path fill="none" stroke="#000000" d="M847.5,-86.3549C847.5,-73.9052 847.5,-58.9798 847.5,-46.2562"/>
<polygon fill="#000000" stroke="#000000" points="851.0001,-46.189 847.5,-36.189 844.0001,-46.1891 851.0001,-46.189"/>
<text text-anchor="middle" x="860.4942" y="-57.6" font-family="Times,serif" font-size="12.00" fill="#000000">value</text>
</g>
<!-- n20&#45;&gt;n3 -->
<g id="edge18" class="edge">
<title>n20-&gt;n3</title>
<path fill="none" stroke="#000000" d="M288.3577,-684.6952C263.998,-670.9138 233.9418,-653.9096 208.391,-639.4544"/>
<polygon fill="#000000" stroke="#000000" points="209.9851,-636.335 199.558,-634.4571 206.5382,-642.4275 209.9851,-636.335"/>
<text text-anchor="middle" x="267.1634" y="-656" font-family="Times,serif" font-size="12.00" fill="#000000">node</text>
</g>
<!-- n21 -->
<g id="node21" class="node">
<title>n21</title>
<polygon fill="none" stroke="#000000" points="333.5,-608.4 333.5,-630.4 626.5,-630.4 626.5,-608.4 333.5,-608.4"/>
<text text-anchor="start" x="336.3446" y="-614.8" font-family="Times,serif" font-size="14.00" fill="#000000">java.util.concurrent.ConcurrentSkipListMap$Index</text>
<polygon fill="none" stroke="#000000" points="333.5,-586.4 333.5,-608.4 482.5,-608.4 482.5,-586.4 333.5,-586.4"/>
<text text-anchor="start" x="377.8608" y="-592.8" font-family="Times,serif" font-size="14.00" fill="#000000">down: null</text>
<polygon fill="none" stroke="#000000" points="482.5,-586.4 482.5,-608.4 626.5,-608.4 626.5,-586.4 482.5,-586.4"/>
<text text-anchor="start" x="526.6932" y="-592.8" font-family="Times,serif" font-size="14.00" fill="#000000">right: null</text>
</g>
<!-- n20&#45;&gt;n21 -->
<g id="edge20" class="edge">
<title>n20-&gt;n21</title>
<path fill="none" stroke="#000000" d="M371.4648,-684.6952C390.5534,-671.2147 414.0084,-654.6506 434.1807,-640.4048"/>
<polygon fill="#000000" stroke="#000000" points="436.4533,-643.0847 442.6027,-634.4571 432.4152,-637.3668 436.4533,-643.0847"/>
<text text-anchor="middle" x="427.8322" y="-656" font-family="Times,serif" font-size="12.00" fill="#000000">right</text>
</g>
<!-- n21&#45;&gt;n8 -->
<g id="edge19" class="edge">
<title>n21-&gt;n8</title>
<path fill="none" stroke="#000000" d="M479.5,-582.1482C479.5,-546.888 479.5,-484.4664 479.5,-448.0953"/>
<polygon fill="#000000" stroke="#000000" points="483.0001,-447.7029 479.5,-437.7029 476.0001,-447.703 483.0001,-447.7029"/>
<text text-anchor="middle" x="491.1634" y="-510.4" font-family="Times,serif" font-size="12.00" fill="#000000">node</text>
</g>
<!-- n22&#45;&gt;n8 -->
<g id="edge22" class="edge">
<title>n22-&gt;n8</title>
<path fill="none" stroke="#000000" d="M662.3367,-684.7664C662.1653,-657.7628 658.9176,-615.0057 642.5,-582.4 612.6504,-523.1183 553.0053,-472.2832 514.7371,-443.8549"/>
<polygon fill="#000000" stroke="#000000" points="516.5827,-440.8686 506.4434,-437.7953 512.4531,-446.5208 516.5827,-440.8686"/>
<text text-anchor="middle" x="643.1634" y="-553.6" font-family="Times,serif" font-size="12.00" fill="#000000">node</text>
</g>
<!-- n22&#45;&gt;n21 -->
<g id="edge23" class="edge">
<title>n22-&gt;n21</title>
<path fill="none" stroke="#000000" d="M615.1028,-684.6952C590.6085,-670.9138 560.3863,-653.9096 534.6943,-639.4544"/>
<polygon fill="#000000" stroke="#000000" points="536.244,-636.3104 525.8125,-634.4571 532.8115,-642.411 536.244,-636.3104"/>
<text text-anchor="middle" x="593.8314" y="-656" font-family="Times,serif" font-size="12.00" fill="#000000">down</text>
</g>
</g>
</svg>