<?xml version="1.0" encoding="UTF-8" standalone="no"?><!DOCTYPE svg PUBLIC "-//W3C//DTD SVG 1.1//EN" "http://www.w3.org/Graphics/SVG/1.1/DTD/svg11.dtd"><!-- Generated by graphviz version 2.40.1 (20161225.0304)
 --><!-- Title: Java Pages: 1 --><svg xmlns="http://www.w3.org/2000/svg" xmlns:xlink="http://www.w3.org/1999/xlink" width="152pt" height="146pt" viewBox="0.00 0.00 152.00 146.40">
<g id="graph0" class="graph" transform="scale(1 1) rotate(0) translate(4 142.4)">
<title>Java</title>
<polygon fill="#ffffff" stroke="transparent" points="-4,4 -4,-142.4 148,-142.4 148,4 -4,4"/>
<!-- n1 -->
<g id="node1" class="node">
<title>n1</title>
<polygon fill="none" stroke="#000000" points="24,-112.4 24,-134.4 121,-134.4 121,-112.4 24,-112.4"/>
<text text-anchor="start" x="28.1753" y="-118.8" font-family="Times,serif" font-size="14.00" fill="#000000">java.lang.String</text>
<polygon fill="none" stroke="#000000" points="24,-90.4 24,-112.4 75,-112.4 75,-90.4 24,-90.4"/>
<text text-anchor="start" x="26.7598" y="-96.8" font-family="Times,serif" font-size="14.00" fill="#000000">coder: 0</text>
<polygon fill="none" stroke="#000000" points="75,-90.4 75,-112.4 121,-112.4 121,-90.4 75,-90.4"/>
<text text-anchor="start" x="77.9751" y="-96.8" font-family="Times,serif" font-size="14.00" fill="#000000">hash: 0</text>
</g>
<!-- n2 -->
<g id="node2" class="node">
<title>n2</title>
<polygon fill="none" stroke="#000000" points="8,-7 8,-29 28,-29 28,-7 8,-7"/>
<text text-anchor="start" x="11" y="-13.4" font-family="Times,serif" font-size="14.00" fill="#000000">72</text>
<polygon fill="none" stroke="#000000" points="28,-7 28,-29 55,-29 55,-7 28,-7"/>
<text text-anchor="start" x="31" y="-13.4" font-family="Times,serif" font-size="14.00" fill="#000000">101</text>
<polygon fill="none" stroke="#000000" points="55,-7 55,-29 82,-29 82,-7 55,-7"/>
<text text-anchor="start" x="58" y="-13.4" font-family="Times,serif" font-size="14.00" fill="#000000">108</text>
<polygon fill="none" stroke="#000000" points="82,-7 82,-29 109,-29 109,-7 82,-7"/>
<text text-anchor="start" x="85" y="-13.4" font-family="Times,serif" font-size="14.00" fill="#000000">108</text>
<polygon fill="none" stroke="#000000" points="109,-7 109,-29 136,-29 136,-7 109,-7"/>
<text text-anchor="start" x="112" y="-13.4" font-family="Times,serif" font-size="14.00" fill="#000000">111</text>
</g>
<!-- n1&#45;&gt;n2 -->
<g id="edge1" class="edge">
<title>n1-&gt;n2</title>
<path fill="none" stroke="#000000" d="M72,-86.3549C72,-73.9052 72,-58.9798 72,-46.2562"/>
<polygon fill="#000000" stroke="#000000" points="75.5001,-46.189 72,-36.189 68.5001,-46.1891 75.5001,-46.189"/>
<text text-anchor="middle" x="84.9942" y="-57.6" font-family="Times,serif" font-size="12.00" fill="#000000">value</text>
</g>
</g>
</svg>