<?xml version="1.0" encoding="UTF-8" standalone="no"?><!DOCTYPE svg PUBLIC "-//W3C//DTD SVG 1.1//EN" "http://www.w3.org/Graphics/SVG/1.1/DTD/svg11.dtd"><!-- Generated by graphviz version 2.40.1 (20161225.0304)
 --><!-- Title: Java Pages: 1 --><svg xmlns="http://www.w3.org/2000/svg" xmlns:xlink="http://www.w3.org/1999/xlink" width="152pt" height="233pt" viewBox="0.00 0.00 152.00 232.80">
<g id="graph0" class="graph" transform="scale(1 1) rotate(0) translate(4 228.8)">
<title>Java</title>
<polygon fill="#ffffff" stroke="transparent" points="-4,4 -4,-228.8 148,-228.8 148,4 -4,4"/>
<!-- n1 -->
<g id="node1" class="node">
<title>n1</title>
<polygon fill="none" stroke="#000000" points="52,-196.8 52,-216.8 72,-216.8 72,-196.8 52,-196.8"/>
<polygon fill="none" stroke="#000000" points="72,-196.8 72,-216.8 92,-216.8 92,-196.8 72,-196.8"/>
</g>
<!-- n2 -->
<g id="node2" class="node">
<title>n2</title>
<polygon fill="none" stroke="#000000" points="24,-112.4 24,-134.4 121,-134.4 121,-112.4 24,-112.4"/>
<text text-anchor="start" x="28.1753" y="-118.8" font-family="Times,serif" font-size="14.00" fill="#000000">java.lang.String</text>
<polygon fill="none" stroke="#000000" points="24,-90.4 24,-112.4 75,-112.4 75,-90.4 24,-90.4"/>
<text text-anchor="start" x="26.7598" y="-96.8" font-family="Times,serif" font-size="14.00" fill="#000000">coder: 0</text>
<polygon fill="none" stroke="#000000" points="75,-90.4 75,-112.4 121,-112.4 121,-90.4 75,-90.4"/>
<text text-anchor="start" x="77.9751" y="-96.8" font-family="Times,serif" font-size="14.00" fill="#000000">hash: 0</text>
</g>
<!-- n1&#45;&gt;n2 -->
<g id="edge2" class="edge">
<title>n1:f0-&gt;n2</title>
<path fill="none" stroke="#000000" d="M62,-196.8C62,-178.8444 59.9978,-174.2436 62,-156.4 62.2828,-153.8797 62.654,-151.2931 63.0867,-148.6973"/>
<polygon fill="#000000" stroke="#000000" points="66.5459,-149.2429 65.0038,-138.7609 59.6727,-147.9168 66.5459,-149.2429"/>
<text text-anchor="middle" x="65" y="-160" font-family="Times,serif" font-size="12.00" fill="#000000">0</text>
</g>
<!-- n1&#45;&gt;n2 -->
<g id="edge3" class="edge">
<title>n1:f1-&gt;n2</title>
<path fill="none" stroke="#000000" d="M82,-196.8C82,-181.0084 80.2523,-163.6695 78.2181,-148.837"/>
<polygon fill="#000000" stroke="#000000" points="81.6217,-147.9237 76.7072,-138.5376 74.6958,-148.9398 81.6217,-147.9237"/>
<text text-anchor="middle" x="84" y="-160" font-family="Times,serif" font-size="12.00" fill="#000000">1</text>
</g>
<!-- n3 -->
<g id="node3" class="node">
<title>n3</title>
<polygon fill="none" stroke="#000000" points="8,-7 8,-29 28,-29 28,-7 8,-7"/>
<text text-anchor="start" x="11" y="-13.4" font-family="Times,serif" font-size="14.00" fill="#000000">72</text>
<polygon fill="none" stroke="#000000" points="28,-7 28,-29 55,-29 55,-7 28,-7"/>
<text text-anchor="start" x="31" y="-13.4" font-family="Times,serif" font-size="14.00" fill="#000000">101</text>
<polygon fill="none" stroke="#000000" points="55,-7 55,-29 82,-29 82,-7 55,-7"/>
<text text-anchor="start" x="58" y="-13.4" font-family="Times,serif" font-size="14.00" fill="#000000">108</text>
<polygon fill="none" stroke="#000000" points="82,-7 82,-29 109,-29 109,-7 82,-7"/>
<text text-anchor="start" x="85" y="-13.4" font-family="Times,serif" font-size="14.00" fill="#000000">108</text>
<polygon fill="none" stroke="#000000" points="109,-7 109,-29 136,-29 136,-7 109,-7"/>
<text text-anchor="start" x="112" y="-13.4" font-family="Times,serif" font-size="14.00" fill="#000000">111</text>
</g>
<!-- n2&#45;&gt;n3 -->
<g id="edge1" class="edge">
<title>n2-&gt;n3</title>
<path fill="none" stroke="#000000" d="M72,-86.3549C72,-73.9052 72,-58.9798 72,-46.2562"/>
<polygon fill="#000000" stroke="#000000" points="75.5001,-46.189 72,-36.189 68.5001,-46.1891 75.5001,-46.189"/>
<text text-anchor="middle" x="84.9942" y="-57.6" font-family="Times,serif" font-size="12.00" fill="#000000">value</text>
</g>
</g>
</svg>