<?xml version="1.0" encoding="UTF-8" standalone="no"?><!DOCTYPE svg PUBLIC "-//W3C//DTD SVG 1.1//EN" "http://www.w3.org/Graphics/SVG/1.1/DTD/svg11.dtd"><!-- Generated by graphviz version 2.40.1 (20161225.0304)
 --><!-- Title: Java Pages: 1 --><svg xmlns="http://www.w3.org/2000/svg" xmlns:xlink="http://www.w3.org/1999/xlink" width="252pt" height="233pt" viewBox="0.00 0.00 252.00 232.80">
<g id="graph0" class="graph" transform="scale(1 1) rotate(0) translate(4 228.8)">
<title>Java</title>
<polygon fill="#ffffff" stroke="transparent" points="-4,4 -4,-228.8 248,-228.8 248,4 -4,4"/>
<!-- n1 -->
<g id="node1" class="node">
<title>n1</title>
<polygon fill="none" stroke="#000000" points="101.5,-196.8 101.5,-216.8 121.5,-216.8 121.5,-196.8 101.5,-196.8"/>
<polygon fill="none" stroke="#000000" points="121.5,-196.8 121.5,-216.8 141.5,-216.8 141.5,-196.8 121.5,-196.8"/>
</g>
<!-- n2 -->
<g id="node2" class="node">
<title>n2</title>
<polygon fill="none" stroke="#000000" points="8.5,-112.4 8.5,-134.4 105.5,-134.4 105.5,-112.4 8.5,-112.4"/>
<text text-anchor="start" x="12.6753" y="-118.8" font-family="Times,serif" font-size="14.00" fill="#000000">java.lang.String</text>
<polygon fill="none" stroke="#000000" points="8.5,-90.4 8.5,-112.4 59.5,-112.4 59.5,-90.4 8.5,-90.4"/>
<text text-anchor="start" x="11.2598" y="-96.8" font-family="Times,serif" font-size="14.00" fill="#000000">coder: 0</text>
<polygon fill="none" stroke="#000000" points="59.5,-90.4 59.5,-112.4 105.5,-112.4 105.5,-90.4 59.5,-90.4"/>
<text text-anchor="start" x="62.4751" y="-96.8" font-family="Times,serif" font-size="14.00" fill="#000000">hash: 0</text>
</g>
<!-- n1&#45;&gt;n2 -->
<g id="edge2" class="edge">
<title>n1:f0-&gt;n2</title>
<path fill="none" stroke="#000000" d="M111.5,-196.8C111.5,-178.3787 102.1895,-160.8285 91.23,-146.551"/>
<polygon fill="#000000" stroke="#000000" points="93.6988,-144.0427 84.6445,-138.541 88.2917,-148.4883 93.6988,-144.0427"/>
<text text-anchor="middle" x="108.5" y="-160" font-family="Times,serif" font-size="12.00" fill="#000000">0</text>
</g>
<!-- n4 -->
<g id="node4" class="node">
<title>n4</title>
<polygon fill="none" stroke="#000000" points="139.5,-112.4 139.5,-134.4 236.5,-134.4 236.5,-112.4 139.5,-112.4"/>
<text text-anchor="start" x="143.6753" y="-118.8" font-family="Times,serif" font-size="14.00" fill="#000000">java.lang.String</text>
<polygon fill="none" stroke="#000000" points="139.5,-90.4 139.5,-112.4 190.5,-112.4 190.5,-90.4 139.5,-90.4"/>
<text text-anchor="start" x="142.2598" y="-96.8" font-family="Times,serif" font-size="14.00" fill="#000000">coder: 0</text>
<polygon fill="none" stroke="#000000" points="190.5,-90.4 190.5,-112.4 236.5,-112.4 236.5,-90.4 190.5,-90.4"/>
<text text-anchor="start" x="193.4751" y="-96.8" font-family="Times,serif" font-size="14.00" fill="#000000">hash: 0</text>
</g>
<!-- n1&#45;&gt;n4 -->
<g id="edge4" class="edge">
<title>n1:f1-&gt;n4</title>
<path fill="none" stroke="#000000" d="M131.5,-196.8C131.5,-178.2783 140.9797,-160.7103 152.1386,-146.4466"/>
<polygon fill="#000000" stroke="#000000" points="155.1017,-148.36 158.8438,-138.448 149.7373,-143.863 155.1017,-148.36"/>
<text text-anchor="middle" x="148.5" y="-160" font-family="Times,serif" font-size="12.00" fill="#000000">1</text>
</g>
<!-- n3 -->
<g id="node3" class="node">
<title>n3</title>
<polygon fill="none" stroke="#000000" points="57.5,-7 57.5,-29 77.5,-29 77.5,-7 57.5,-7"/>
<text text-anchor="start" x="60.5" y="-13.4" font-family="Times,serif" font-size="14.00" fill="#000000">72</text>
<polygon fill="none" stroke="#000000" points="77.5,-7 77.5,-29 104.5,-29 104.5,-7 77.5,-7"/>
<text text-anchor="start" x="80.5" y="-13.4" font-family="Times,serif" font-size="14.00" fill="#000000">101</text>
<polygon fill="none" stroke="#000000" points="104.5,-7 104.5,-29 131.5,-29 131.5,-7 104.5,-7"/>
<text text-anchor="start" x="107.5" y="-13.4" font-family="Times,serif" font-size="14.00" fill="#000000">108</text>
<polygon fill="none" stroke="#000000" points="131.5,-7 131.5,-29 158.5,-29 158.5,-7 131.5,-7"/>
<text text-anchor="start" x="134.5" y="-13.4" font-family="Times,serif" font-size="14.00" fill="#000000">108</text>
<polygon fill="none" stroke="#000000" points="158.5,-7 158.5,-29 185.5,-29 185.5,-7 158.5,-7"/>
<text text-anchor="start" x="161.5" y="-13.4" font-family="Times,serif" font-size="14.00" fill="#000000">111</text>
</g>
<!-- n2&#45;&gt;n3 -->
<g id="edge1" class="edge">
<title>n2-&gt;n3</title>
<path fill="none" stroke="#000000" d="M74.4336,-86.3549C83.3488,-73.4072 94.1079,-57.7818 103.0877,-44.7403"/>
<polygon fill="#000000" stroke="#000000" points="106.1872,-46.4103 108.9758,-36.189 100.4218,-42.4405 106.1872,-46.4103"/>
<text text-anchor="middle" x="108.4942" y="-57.6" font-family="Times,serif" font-size="12.00" fill="#000000">value</text>
</g>
<!-- n4&#45;&gt;n3 -->
<g id="edge3" class="edge">
<title>n4-&gt;n3</title>
<path fill="none" stroke="#000000" d="M169.2905,-86.3549C160.2381,-73.4072 149.3135,-57.7818 140.1955,-44.7403"/>
<polygon fill="#000000" stroke="#000000" points="142.8154,-42.3791 134.2169,-36.189 137.0785,-46.3901 142.8154,-42.3791"/>
<text text-anchor="middle" x="169.4942" y="-57.6" font-family="Times,serif" font-size="12.00" fill="#000000">value</text>
</g>
</g>
</svg>