<?xml version="1.0" encoding="UTF-8" standalone="no"?><!DOCTYPE svg PUBLIC "-//W3C//DTD SVG 1.1//EN" "http://www.w3.org/Graphics/SVG/1.1/DTD/svg11.dtd"><!-- Generated by graphviz version 2.40.1 (20161225.0304)
 --><!-- Title: Java Pages: 1 --><svg xmlns="http://www.w3.org/2000/svg" xmlns:xlink="http://www.w3.org/1999/xlink" width="260pt" height="485pt" viewBox="0.00 0.00 260.00 484.80">
<g id="graph0" class="graph" transform="scale(1 1) rotate(0) translate(4 480.8)">
<title>Java</title>
<polygon fill="#ffffff" stroke="transparent" points="-4,4 -4,-480.8 256,-480.8 256,4 -4,4"/>
<!-- n1 -->
<g id="node1" class="node">
<title>n1</title>
<polygon fill="none" stroke="#000000" points="8,-340.8 8,-472.8 114,-472.8 114,-340.8 8,-340.8"/>
<text text-anchor="start" x="10.8534" y="-402.6" font-family="Times,serif" font-size="14.00" fill="#000000">java.util.TreeMap</text>
<polygon fill="none" stroke="#000000" points="114,-450.8 114,-472.8 244,-472.8 244,-450.8 114,-450.8"/>
<text text-anchor="start" x="132.541" y="-457.2" font-family="Times,serif" font-size="14.00" fill="#000000">comparator: null</text>
<polygon fill="none" stroke="#000000" points="114,-428.8 114,-450.8 244,-450.8 244,-428.8 114,-428.8"/>
<text text-anchor="start" x="160.9225" y="-435.2" font-family="Times,serif" font-size="14.00" fill="#000000">size: 2</text>
<polygon fill="none" stroke="#000000" points="114,-406.8 114,-428.8 244,-428.8 244,-406.8 114,-406.8"/>
<text text-anchor="start" x="142.2458" y="-413.2" font-family="Times,serif" font-size="14.00" fill="#000000">modCount: 2</text>
<polygon fill="none" stroke="#000000" points="114,-384.8 114,-406.8 244,-406.8 244,-384.8 114,-384.8"/>
<text text-anchor="start" x="141.0873" y="-391.2" font-family="Times,serif" font-size="14.00" fill="#000000">entrySet: null</text>
<polygon fill="none" stroke="#000000" points="114,-362.8 114,-384.8 244,-384.8 244,-362.8 114,-362.8"/>
<text text-anchor="start" x="116.5971" y="-369.2" font-family="Times,serif" font-size="14.00" fill="#000000">navigableKeySet: null</text>
<polygon fill="none" stroke="#000000" points="114,-340.8 114,-362.8 244,-362.8 244,-340.8 114,-340.8"/>
<text text-anchor="start" x="120.095" y="-347.2" font-family="Times,serif" font-size="14.00" fill="#000000">descendingMap: null</text>
</g>
<!-- n2 -->
<g id="node2" class="node">
<title>n2</title>
<polygon fill="none" stroke="#000000" points="19,-172.4 19,-282.4 163,-282.4 163,-172.4 19,-172.4"/>
<text text-anchor="start" x="21.8015" y="-223.2" font-family="Times,serif" font-size="14.00" fill="#000000">java.util.TreeMap$Entry</text>
<polygon fill="none" stroke="#000000" points="163,-260.4 163,-282.4 233,-282.4 233,-260.4 163,-260.4"/>
<text text-anchor="start" x="174.0901" y="-266.8" font-family="Times,serif" font-size="14.00" fill="#000000">key: one</text>
<polygon fill="none" stroke="#000000" points="163,-238.4 163,-260.4 233,-260.4 233,-238.4 163,-238.4"/>
<text text-anchor="start" x="175.6448" y="-244.8" font-family="Times,serif" font-size="14.00" fill="#000000">value: 1</text>
<polygon fill="none" stroke="#000000" points="163,-216.4 163,-238.4 233,-238.4 233,-216.4 163,-216.4"/>
<text text-anchor="start" x="174.0859" y="-222.8" font-family="Times,serif" font-size="14.00" fill="#000000">left: null</text>
<polygon fill="none" stroke="#000000" points="163,-194.4 163,-216.4 233,-216.4 233,-194.4 163,-194.4"/>
<text text-anchor="start" x="165.9239" y="-200.8" font-family="Times,serif" font-size="14.00" fill="#000000">parent: null</text>
<polygon fill="none" stroke="#000000" points="163,-172.4 163,-194.4 233,-194.4 233,-172.4 163,-172.4"/>
<text text-anchor="start" x="169.0389" y="-178.8" font-family="Times,serif" font-size="14.00" fill="#000000">color: true</text>
</g>
<!-- n1&#45;&gt;n2 -->
<g id="edge3" class="edge">
<title>n1-&gt;n2</title>
<path fill="none" stroke="#000000" d="M126,-336.6685C126,-323.5635 126,-309.8726 126,-296.7901"/>
<polygon fill="#000000" stroke="#000000" points="129.5001,-296.4514 126,-286.4514 122.5001,-296.4515 129.5001,-296.4514"/>
<text text-anchor="middle" x="135.6648" y="-308" font-family="Times,serif" font-size="12.00" fill="#000000">root</text>
</g>
<!-- n3 -->
<g id="node3" class="node">
<title>n3</title>
<polygon fill="none" stroke="#000000" points="20,-4 20,-114 164,-114 164,-4 20,-4"/>
<text text-anchor="start" x="22.8015" y="-54.8" font-family="Times,serif" font-size="14.00" fill="#000000">java.util.TreeMap$Entry</text>
<polygon fill="none" stroke="#000000" points="164,-92 164,-114 232,-114 232,-92 164,-92"/>
<text text-anchor="start" x="173.6988" y="-98.4" font-family="Times,serif" font-size="14.00" fill="#000000">key: two</text>
<polygon fill="none" stroke="#000000" points="164,-70 164,-92 232,-92 232,-70 164,-70"/>
<text text-anchor="start" x="175.6448" y="-76.4" font-family="Times,serif" font-size="14.00" fill="#000000">value: 2</text>
<polygon fill="none" stroke="#000000" points="164,-48 164,-70 232,-70 232,-48 164,-48"/>
<text text-anchor="start" x="174.0859" y="-54.4" font-family="Times,serif" font-size="14.00" fill="#000000">left: null</text>
<polygon fill="none" stroke="#000000" points="164,-26 164,-48 232,-48 232,-26 164,-26"/>
<text text-anchor="start" x="170.1932" y="-32.4" font-family="Times,serif" font-size="14.00" fill="#000000">right: null</text>
<polygon fill="none" stroke="#000000" points="164,-4 164,-26 232,-26 232,-4 164,-4"/>
<text text-anchor="start" x="166.7093" y="-10.4" font-family="Times,serif" font-size="14.00" fill="#000000">color: false</text>
</g>
<!-- n2&#45;&gt;n3 -->
<g id="edge2" class="edge">
<title>n2-&gt;n3</title>
<path fill="none" stroke="#000000" d="M104.1685,-168.1843C102.6112,-162.2394 101.2835,-156.2418 100.3356,-150.4 99.1559,-143.1298 99.1701,-135.6127 99.9973,-128.1564"/>
<polygon fill="#000000" stroke="#000000" points="103.4897,-128.4792 101.5935,-118.0554 96.5755,-127.3865 103.4897,-128.4792"/>
<text text-anchor="middle" x="112.3322" y="-139.6" font-family="Times,serif" font-size="12.00" fill="#000000">right</text>
</g>
<!-- n3&#45;&gt;n2 -->
<g id="edge1" class="edge">
<title>n3-&gt;n2</title>
<path fill="none" stroke="#000000" d="M126.9512,-118.4899C127.0355,-129.1162 127.067,-140.0854 127,-150.4 126.9837,-152.915 126.9643,-155.4762 126.9425,-158.0632"/>
<polygon fill="#000000" stroke="#000000" points="123.4422,-158.0937 126.8473,-168.1264 130.4419,-158.16 123.4422,-158.0937"/>
<text text-anchor="middle" x="141.9916" y="-139.6" font-family="Times,serif" font-size="12.00" fill="#000000">parent</text>
</g>
</g>
</svg>