<?xml version="1.0" encoding="UTF-8" standalone="no"?>
<!DOCTYPE svg PUBLIC "-//W3C//DTD SVG 1.1//EN" "http://www.w3.org/Graphics/SVG/1.1/DTD/svg11.dtd">
<!-- Generated by graphviz version 2.40.1 (20161225.0304)
 -->
<!-- Title: Java Pages: 1 -->
<svg width="577pt" height="454pt" viewBox="0.00 0.00 577.00 453.60" xmlns="http://www.w3.org/2000/svg" xmlns:xlink="http://www.w3.org/1999/xlink">
<g id="graph0" class="graph" transform="scale(1 1) rotate(0) translate(4 449.6)">
<title>Java</title>
<polygon fill="#ffffff" stroke="transparent" points="-4,4 -4,-449.6 573,-449.6 573,4 -4,4"/>
<!-- n1 -->
<g id="node1" class="node">
<title>n1</title>
<polygon fill="none" stroke="#000000" points="8.5,-419.6 8.5,-441.6 561.5,-441.6 561.5,-419.6 8.5,-419.6"/>
<text text-anchor="start" x="234.8534" y="-426" font-family="Times,serif" font-size="14.00" fill="#000000">java.util.TreeMap</text>
<polygon fill="none" stroke="#000000" points="8.5,-397.6 8.5,-419.6 106.5,-419.6 106.5,-397.6 8.5,-397.6"/>
<text text-anchor="start" x="11.041" y="-404" font-family="Times,serif" font-size="14.00" fill="#000000">comparator: null</text>
<polygon fill="none" stroke="#000000" points="106.5,-397.6 106.5,-419.6 148.5,-419.6 148.5,-397.6 106.5,-397.6"/>
<text text-anchor="start" x="109.4225" y="-404" font-family="Times,serif" font-size="14.00" fill="#000000">size: 2</text>
<polygon fill="none" stroke="#000000" points="148.5,-397.6 148.5,-419.6 227.5,-419.6 227.5,-397.6 148.5,-397.6"/>
<text text-anchor="start" x="151.2458" y="-404" font-family="Times,serif" font-size="14.00" fill="#000000">modCount: 2</text>
<polygon fill="none" stroke="#000000" points="227.5,-397.6 227.5,-419.6 308.5,-419.6 308.5,-397.6 227.5,-397.6"/>
<text text-anchor="start" x="230.0873" y="-404" font-family="Times,serif" font-size="14.00" fill="#000000">entrySet: null</text>
<polygon fill="none" stroke="#000000" points="308.5,-397.6 308.5,-419.6 438.5,-419.6 438.5,-397.6 308.5,-397.6"/>
<text text-anchor="start" x="311.0971" y="-404" font-family="Times,serif" font-size="14.00" fill="#000000">navigableKeySet: null</text>
<polygon fill="none" stroke="#000000" points="438.5,-397.6 438.5,-419.6 561.5,-419.6 561.5,-397.6 438.5,-397.6"/>
<text text-anchor="start" x="441.095" y="-404" font-family="Times,serif" font-size="14.00" fill="#000000">descendingMap: null</text>
</g>
<!-- n2 -->
<g id="node2" class="node">
<title>n2</title>
<polygon fill="none" stroke="#000000" points="191.5,-317.2 191.5,-339.2 377.5,-339.2 377.5,-317.2 191.5,-317.2"/>
<text text-anchor="start" x="215.3015" y="-323.6" font-family="Times,serif" font-size="14.00" fill="#000000">java.util.TreeMap$Entry</text>
<polygon fill="none" stroke="#000000" points="191.5,-295.2 191.5,-317.2 244.5,-317.2 244.5,-295.2 191.5,-295.2"/>
<text text-anchor="start" x="194.0859" y="-301.6" font-family="Times,serif" font-size="14.00" fill="#000000">left: null</text>
<polygon fill="none" stroke="#000000" points="244.5,-295.2 244.5,-317.2 314.5,-317.2 314.5,-295.2 244.5,-295.2"/>
<text text-anchor="start" x="247.4239" y="-301.6" font-family="Times,serif" font-size="14.00" fill="#000000">parent: null</text>
<polygon fill="none" stroke="#000000" points="314.5,-295.2 314.5,-317.2 377.5,-317.2 377.5,-295.2 314.5,-295.2"/>
<text text-anchor="start" x="317.0389" y="-301.6" font-family="Times,serif" font-size="14.00" fill="#000000">color: true</text>
</g>
<!-- n1&#45;&gt;n2 -->
<g id="edge9" class="edge">
<title>n1-&gt;n2</title>
<path fill="none" stroke="#000000" d="M284.5,-393.4952C284.5,-381.3387 284.5,-366.6745 284.5,-353.4642"/>
<polygon fill="#000000" stroke="#000000" points="288.0001,-353.2571 284.5,-343.2571 281.0001,-353.2572 288.0001,-353.2571"/>
<text text-anchor="middle" x="294.1648" y="-364.8" font-family="Times,serif" font-size="12.00" fill="#000000">root</text>
</g>
<!-- n3 -->
<g id="node3" class="node">
<title>n3</title>
<polygon fill="none" stroke="#000000" points="79.5,-214.8 79.5,-236.8 176.5,-236.8 176.5,-214.8 79.5,-214.8"/>
<text text-anchor="start" x="83.6753" y="-221.2" font-family="Times,serif" font-size="14.00" fill="#000000">java.lang.String</text>
<polygon fill="none" stroke="#000000" points="79.5,-192.8 79.5,-214.8 130.5,-214.8 130.5,-192.8 79.5,-192.8"/>
<text text-anchor="start" x="82.2598" y="-199.2" font-family="Times,serif" font-size="14.00" fill="#000000">coder: 0</text>
<polygon fill="none" stroke="#000000" points="130.5,-192.8 130.5,-214.8 176.5,-214.8 176.5,-192.8 130.5,-192.8"/>
<text text-anchor="start" x="133.4751" y="-199.2" font-family="Times,serif" font-size="14.00" fill="#000000">hash: 0</text>
</g>
<!-- n2&#45;&gt;n3 -->
<g id="edge2" class="edge">
<title>n2-&gt;n3</title>
<path fill="none" stroke="#000000" d="M244.476,-291.0952C223.6231,-277.4943 197.9577,-260.7546 175.9857,-246.4238"/>
<polygon fill="#000000" stroke="#000000" points="177.7388,-243.3886 167.4509,-240.8571 173.9147,-249.2517 177.7388,-243.3886"/>
<text text-anchor="middle" x="224.1634" y="-262.4" font-family="Times,serif" font-size="12.00" fill="#000000">key</text>
</g>
<!-- n5 -->
<g id="node5" class="node">
<title>n5</title>
<polygon fill="none" stroke="#000000" points="210.5,-214.8 210.5,-236.8 310.5,-236.8 310.5,-214.8 210.5,-214.8"/>
<text text-anchor="start" x="213.467" y="-221.2" font-family="Times,serif" font-size="14.00" fill="#000000">java.lang.Integer</text>
<polygon fill="none" stroke="#000000" points="210.5,-192.8 210.5,-214.8 310.5,-214.8 310.5,-192.8 210.5,-192.8"/>
<text text-anchor="start" x="238.1448" y="-199.2" font-family="Times,serif" font-size="14.00" fill="#000000">value: 1</text>
</g>
<!-- n2&#45;&gt;n5 -->
<g id="edge3" class="edge">
<title>n2-&gt;n5</title>
<path fill="none" stroke="#000000" d="M278.3817,-291.0952C275.5043,-278.8183 272.0275,-263.9839 268.9076,-250.6722"/>
<polygon fill="#000000" stroke="#000000" points="272.2968,-249.7946 266.6071,-240.8571 265.4815,-251.392 272.2968,-249.7946"/>
<text text-anchor="middle" x="287.4942" y="-262.4" font-family="Times,serif" font-size="12.00" fill="#000000">value</text>
</g>
<!-- n6 -->
<g id="node6" class="node">
<title>n6</title>
<polygon fill="none" stroke="#000000" points="344.5,-214.8 344.5,-236.8 526.5,-236.8 526.5,-214.8 344.5,-214.8"/>
<text text-anchor="start" x="366.3015" y="-221.2" font-family="Times,serif" font-size="14.00" fill="#000000">java.util.TreeMap$Entry</text>
<polygon fill="none" stroke="#000000" points="344.5,-192.8 344.5,-214.8 397.5,-214.8 397.5,-192.8 344.5,-192.8"/>
<text text-anchor="start" x="347.0859" y="-199.2" font-family="Times,serif" font-size="14.00" fill="#000000">left: null</text>
<polygon fill="none" stroke="#000000" points="397.5,-192.8 397.5,-214.8 458.5,-214.8 458.5,-192.8 397.5,-192.8"/>
<text text-anchor="start" x="400.1932" y="-199.2" font-family="Times,serif" font-size="14.00" fill="#000000">right: null</text>
<polygon fill="none" stroke="#000000" points="458.5,-192.8 458.5,-214.8 526.5,-214.8 526.5,-192.8 458.5,-192.8"/>
<text text-anchor="start" x="461.2093" y="-199.2" font-family="Times,serif" font-size="14.00" fill="#000000">color: false</text>
</g>
<!-- n2&#45;&gt;n6 -->
<g id="edge8" class="edge">
<title>n2-&gt;n6</title>
<path fill="none" stroke="#000000" d="M310.5538,-291.1279C322.0391,-280.3914 336.0419,-268.2763 349.8356,-258.8 356.3276,-254.34 363.3312,-250.0314 370.4382,-245.9697"/>
<polygon fill="#000000" stroke="#000000" points="372.4171,-248.8744 379.4651,-240.9639 369.0223,-242.7527 372.4171,-248.8744"/>
<text text-anchor="middle" x="361.8322" y="-262.4" font-family="Times,serif" font-size="12.00" fill="#000000">right</text>
</g>
<!-- n4 -->
<g id="node4" class="node">
<title>n4</title>
<polygon fill="none" stroke="#000000" points="87.5,-101.4 87.5,-123.4 114.5,-123.4 114.5,-101.4 87.5,-101.4"/>
<text text-anchor="start" x="90.5" y="-107.8" font-family="Times,serif" font-size="14.00" fill="#000000">111</text>
<polygon fill="none" stroke="#000000" points="114.5,-101.4 114.5,-123.4 141.5,-123.4 141.5,-101.4 114.5,-101.4"/>
<text text-anchor="start" x="117.5" y="-107.8" font-family="Times,serif" font-size="14.00" fill="#000000">110</text>
<polygon fill="none" stroke="#000000" points="141.5,-101.4 141.5,-123.4 168.5,-123.4 168.5,-101.4 141.5,-101.4"/>
<text text-anchor="start" x="144.5" y="-107.8" font-family="Times,serif" font-size="14.00" fill="#000000">101</text>
</g>
<!-- n3&#45;&gt;n4 -->
<g id="edge1" class="edge">
<title>n3-&gt;n4</title>
<path fill="none" stroke="#000000" d="M127.5,-188.6952C127.5,-174.1046 127.5,-155.9017 127.5,-140.9356"/>
<polygon fill="#000000" stroke="#000000" points="131.0001,-140.708 127.5,-130.708 124.0001,-140.708 131.0001,-140.708"/>
<text text-anchor="middle" x="140.4942" y="-160" font-family="Times,serif" font-size="12.00" fill="#000000">value</text>
</g>
<!-- n6&#45;&gt;n2 -->
<g id="edge7" class="edge">
<title>n6-&gt;n2</title>
<path fill="none" stroke="#000000" d="M412.7495,-240.9222C402.413,-251.7914 389.5832,-263.9935 376.5,-273.2 369.9843,-277.785 362.9166,-282.1177 355.6922,-286.145"/>
<polygon fill="#000000" stroke="#000000" points="353.6475,-283.2699 346.4873,-291.079 356.9546,-289.4394 353.6475,-283.2699"/>
<text text-anchor="middle" x="408.4916" y="-262.4" font-family="Times,serif" font-size="12.00" fill="#000000">parent</text>
</g>
<!-- n7 -->
<g id="node7" class="node">
<title>n7</title>
<polygon fill="none" stroke="#000000" points="297.5,-112.4 297.5,-134.4 394.5,-134.4 394.5,-112.4 297.5,-112.4"/>
<text text-anchor="start" x="301.6753" y="-118.8" font-family="Times,serif" font-size="14.00" fill="#000000">java.lang.String</text>
<polygon fill="none" stroke="#000000" points="297.5,-90.4 297.5,-112.4 348.5,-112.4 348.5,-90.4 297.5,-90.4"/>
<text text-anchor="start" x="300.2598" y="-96.8" font-family="Times,serif" font-size="14.00" fill="#000000">coder: 0</text>
<polygon fill="none" stroke="#000000" points="348.5,-90.4 348.5,-112.4 394.5,-112.4 394.5,-90.4 348.5,-90.4"/>
<text text-anchor="start" x="351.4751" y="-96.8" font-family="Times,serif" font-size="14.00" fill="#000000">hash: 0</text>
</g>
<!-- n6&#45;&gt;n7 -->
<g id="edge5" class="edge">
<title>n6-&gt;n7</title>
<path fill="none" stroke="#000000" d="M412.5563,-188.6952C401.2372,-175.8165 387.4444,-160.1234 375.3179,-146.3261"/>
<polygon fill="#000000" stroke="#000000" points="377.6324,-143.6578 368.4018,-138.4571 372.3745,-148.2789 377.6324,-143.6578"/>
<text text-anchor="middle" x="404.1634" y="-160" font-family="Times,serif" font-size="12.00" fill="#000000">key</text>
</g>
<!-- n9 -->
<g id="node9" class="node">
<title>n9</title>
<polygon fill="none" stroke="#000000" points="428.5,-112.4 428.5,-134.4 528.5,-134.4 528.5,-112.4 428.5,-112.4"/>
<text text-anchor="start" x="431.467" y="-118.8" font-family="Times,serif" font-size="14.00" fill="#000000">java.lang.Integer</text>
<polygon fill="none" stroke="#000000" points="428.5,-90.4 428.5,-112.4 528.5,-112.4 528.5,-90.4 428.5,-90.4"/>
<text text-anchor="start" x="456.1448" y="-96.8" font-family="Times,serif" font-size="14.00" fill="#000000">value: 2</text>
</g>
<!-- n6&#45;&gt;n9 -->
<g id="edge6" class="edge">
<title>n6-&gt;n9</title>
<path fill="none" stroke="#000000" d="M446.462,-188.6952C451.6679,-176.2979 457.9688,-161.2928 463.6007,-147.8812"/>
<polygon fill="#000000" stroke="#000000" points="466.9133,-149.0323 467.558,-138.4571 460.4592,-146.3221 466.9133,-149.0323"/>
<text text-anchor="middle" x="472.4942" y="-160" font-family="Times,serif" font-size="12.00" fill="#000000">value</text>
</g>
<!-- n8 -->
<g id="node8" class="node">
<title>n8</title>
<polygon fill="none" stroke="#000000" points="305.5,-7 305.5,-29 332.5,-29 332.5,-7 305.5,-7"/>
<text text-anchor="start" x="308.5" y="-13.4" font-family="Times,serif" font-size="14.00" fill="#000000">116</text>
<polygon fill="none" stroke="#000000" points="332.5,-7 332.5,-29 359.5,-29 359.5,-7 332.5,-7"/>
<text text-anchor="start" x="335.5" y="-13.4" font-family="Times,serif" font-size="14.00" fill="#000000">119</text>
<polygon fill="none" stroke="#000000" points="359.5,-7 359.5,-29 386.5,-29 386.5,-7 359.5,-7"/>
<text text-anchor="start" x="362.5" y="-13.4" font-family="Times,serif" font-size="14.00" fill="#000000">111</text>
</g>
<!-- n7&#45;&gt;n8 -->
<g id="edge4" class="edge">
<title>n7-&gt;n8</title>
<path fill="none" stroke="#000000" d="M345.5,-86.3549C345.5,-73.9052 345.5,-58.9798 345.5,-46.2562"/>
<polygon fill="#000000" stroke="#000000" points="349.0001,-46.189 345.5,-36.189 342.0001,-46.1891 349.0001,-46.189"/>
<text text-anchor="middle" x="358.4942" y="-57.6" font-family="Times,serif" font-size="12.00" fill="#000000">value</text>
</g>
</g>
</svg>