<?xml version="1.0" encoding="UTF-8" standalone="no"?><!DOCTYPE svg PUBLIC "-//W3C//DTD SVG 1.1//EN" "http://www.w3.org/Graphics/SVG/1.1/DTD/svg11.dtd"><!-- Generated by graphviz version 2.40.1 (20161225.0304)
 --><!-- Title: Java Pages: 1 --><svg xmlns="http://www.w3.org/2000/svg" xmlns:xlink="http://www.w3.org/1999/xlink" width="591pt" height="130pt" viewBox="0.00 0.00 591.00 130.40">
<g id="graph0" class="graph" transform="scale(1 1) rotate(0) translate(4 126.4)">
<title>Java</title>
<polygon fill="#ffffff" stroke="transparent" points="-4,4 -4,-126.4 587,-126.4 587,4 -4,4"/>
<!-- n1 -->
<g id="node1" class="node">
<title>n1</title>
<polygon fill="none" stroke="#000000" points="232.5,-93.4 232.5,-115.4 287.5,-115.4 287.5,-93.4 232.5,-93.4"/>
<text text-anchor="start" x="235.1185" y="-99.8" font-family="Times,serif" font-size="14.00" fill="#000000">Example</text>
</g>
<!-- n2 -->
<g id="node2" class="node">
<title>n2</title>
<polygon fill="none" stroke="#000000" points="8.5,-7 8.5,-29 108.5,-29 108.5,-7 8.5,-7"/>
<text text-anchor="start" x="11.467" y="-13.4" font-family="Times,serif" font-size="14.00" fill="#000000">java.lang.Integer</text>
<polygon fill="none" stroke="#000000" points="108.5,-7 108.5,-29 165.5,-29 165.5,-7 108.5,-7"/>
<text text-anchor="start" x="111.1448" y="-13.4" font-family="Times,serif" font-size="14.00" fill="#000000">value: 42</text>
</g>
<!-- n1&#45;&gt;n2 -->
<g id="edge1" class="edge">
<title>n1-&gt;n2</title>
<path fill="none" stroke="#000000" d="M223.6333,-89.0324C209.6454,-82.8559 193.5467,-75.5202 179.1652,-68.4 162.016,-59.9095 143.428,-49.9532 127.4329,-41.1424"/>
<polygon fill="#000000" stroke="#000000" points="128.7886,-37.8923 118.3453,-36.1068 125.3958,-44.0151 128.7886,-37.8923"/>
<text text-anchor="middle" x="184.1674" y="-57.6" font-family="Times,serif" font-size="12.00" fill="#000000">i1</text>
</g>
<!-- n1&#45;&gt;n2 -->
<g id="edge2" class="edge">
<title>n1-&gt;n2</title>
<path fill="none" stroke="#000000" d="M237.5107,-86.3639C223.9823,-75.9004 205.9459,-63.0449 188.5,-54 178.3135,-48.7187 167.1789,-43.9077 156.1291,-39.6433"/>
<polygon fill="#000000" stroke="#000000" points="157.0591,-36.2546 146.4665,-36.0384 154.6123,-42.8131 157.0591,-36.2546"/>
<text text-anchor="middle" x="216.1674" y="-57.6" font-family="Times,serif" font-size="12.00" fill="#000000">i2</text>
</g>
<!-- n3 -->
<g id="node3" class="node">
<title>n3</title>
<polygon fill="none" stroke="#000000" points="199.5,-7 199.5,-29 299.5,-29 299.5,-7 199.5,-7"/>
<text text-anchor="start" x="202.467" y="-13.4" font-family="Times,serif" font-size="14.00" fill="#000000">java.lang.Integer</text>
<polygon fill="none" stroke="#000000" points="299.5,-7 299.5,-29 370.5,-29 370.5,-7 299.5,-7"/>
<text text-anchor="start" x="302.1448" y="-13.4" font-family="Times,serif" font-size="14.00" fill="#000000">value: 2020</text>
</g>
<!-- n1&#45;&gt;n3 -->
<g id="edge3" class="edge">
<title>n1-&gt;n3</title>
<path fill="none" stroke="#000000" d="M264.8019,-86.0768C268.1721,-74.4291 272.6015,-59.1213 276.4062,-45.9721"/>
<polygon fill="#000000" stroke="#000000" points="279.874,-46.5793 279.2915,-36.0005 273.1499,-44.6336 279.874,-46.5793"/>
<text text-anchor="middle" x="278.1674" y="-57.6" font-family="Times,serif" font-size="12.00" fill="#000000">i3</text>
</g>
<!-- n4 -->
<g id="node4" class="node">
<title>n4</title>
<polygon fill="none" stroke="#000000" points="404.5,-7 404.5,-29 504.5,-29 504.5,-7 404.5,-7"/>
<text text-anchor="start" x="407.467" y="-13.4" font-family="Times,serif" font-size="14.00" fill="#000000">java.lang.Integer</text>
<polygon fill="none" stroke="#000000" points="504.5,-7 504.5,-29 575.5,-29 575.5,-7 504.5,-7"/>
<text text-anchor="start" x="507.1448" y="-13.4" font-family="Times,serif" font-size="14.00" fill="#000000">value: 2020</text>
</g>
<!-- n1&#45;&gt;n4 -->
<g id="edge4" class="edge">
<title>n1-&gt;n4</title>
<path fill="none" stroke="#000000" d="M295.1851,-90.9948C331.6671,-77.2903 388.9125,-55.7859 431.8364,-39.6614"/>
<polygon fill="#000000" stroke="#000000" points="433.1841,-42.8941 441.3146,-36.101 430.7224,-36.3412 433.1841,-42.8941"/>
<text text-anchor="middle" x="393.1674" y="-57.6" font-family="Times,serif" font-size="12.00" fill="#000000">i4</text>
</g>
</g>
</svg>