<?xml version="1.0" encoding="UTF-8" standalone="no"?><!DOCTYPE svg PUBLIC "-//W3C//DTD SVG 1.1//EN" "http://www.w3.org/Graphics/SVG/1.1/DTD/svg11.dtd"><!-- Generated by graphviz version 2.40.1 (20161225.0304)
 --><!-- Title: Java Pages: 1 --><svg xmlns="http://www.w3.org/2000/svg" xmlns:xlink="http://www.w3.org/1999/xlink" width="392pt" height="146pt" viewBox="0.00 0.00 392.00 146.40">
<g id="graph0" class="graph" transform="scale(1 1) rotate(0) translate(4 142.4)">
<title>Java</title>
<polygon fill="#ffffff" stroke="transparent" points="-4,4 -4,-142.4 388,-142.4 388,4 -4,4"/>
<!-- n1 -->
<g id="node1" class="node">
<title>n1</title>
<polygon fill="none" stroke="#000000" points="148,-109.4 148,-131.4 203,-131.4 203,-109.4 148,-109.4"/>
<text text-anchor="start" x="150.6185" y="-115.8" font-family="Times,serif" font-size="14.00" fill="#000000">Example</text>
</g>
<!-- n2 -->
<g id="node2" class="node">
<title>n2</title>
<polygon fill="none" stroke="#000000" points="8,-26 8,-48 108,-48 108,-26 8,-26"/>
<text text-anchor="start" x="10.967" y="-32.4" font-family="Times,serif" font-size="14.00" fill="#000000">java.lang.Integer</text>
<polygon fill="none" stroke="#000000" points="8,-4 8,-26 108,-26 108,-4 8,-4"/>
<text text-anchor="start" x="32.1448" y="-10.4" font-family="Times,serif" font-size="14.00" fill="#000000">value: 42</text>
</g>
<!-- n1&#45;&gt;n2 -->
<g id="edge1" class="edge">
<title>n1-&gt;n2</title>
<path fill="none" stroke="#000000" d="M139.2844,-103.1286C129.5864,-97.7286 119.3684,-91.3459 110.6652,-84.4 101.6783,-77.2276 92.9046,-68.4539 85.1764,-59.9087"/>
<polygon fill="#000000" stroke="#000000" points="87.6217,-57.3887 78.3969,-52.1778 82.3587,-62.004 87.6217,-57.3887"/>
<text text-anchor="middle" x="115.6674" y="-73.6" font-family="Times,serif" font-size="12.00" fill="#000000">i1</text>
</g>
<!-- n1&#45;&gt;n2 -->
<g id="edge2" class="edge">
<title>n1-&gt;n2</title>
<path fill="none" stroke="#000000" d="M156.4265,-102.306C146.0017,-92.428 132.5935,-80.1732 120,-70 115.0813,-66.0266 109.8322,-61.9994 104.5488,-58.0778"/>
<polygon fill="#000000" stroke="#000000" points="106.4005,-55.0961 96.2606,-52.0251 102.2722,-60.7492 106.4005,-55.0961"/>
<text text-anchor="middle" x="140.6674" y="-73.6" font-family="Times,serif" font-size="12.00" fill="#000000">i2</text>
</g>
<!-- n3 -->
<g id="node3" class="node">
<title>n3</title>
<polygon fill="none" stroke="#000000" points="142,-26 142,-48 242,-48 242,-26 142,-26"/>
<text text-anchor="start" x="144.967" y="-32.4" font-family="Times,serif" font-size="14.00" fill="#000000">java.lang.Integer</text>
<polygon fill="none" stroke="#000000" points="142,-4 142,-26 242,-26 242,-4 142,-4"/>
<text text-anchor="start" x="159.1448" y="-10.4" font-family="Times,serif" font-size="14.00" fill="#000000">value: 2020</text>
</g>
<!-- n1&#45;&gt;n3 -->
<g id="edge3" class="edge">
<title>n1-&gt;n3</title>
<path fill="none" stroke="#000000" d="M178.2778,-102.1987C180.3076,-90.9274 182.986,-76.054 185.4374,-62.4416"/>
<polygon fill="#000000" stroke="#000000" points="188.9254,-62.8204 187.2533,-52.3584 182.0362,-61.5797 188.9254,-62.8204"/>
<text text-anchor="middle" x="189.6674" y="-73.6" font-family="Times,serif" font-size="12.00" fill="#000000">i3</text>
</g>
<!-- n4 -->
<g id="node4" class="node">
<title>n4</title>
<polygon fill="none" stroke="#000000" points="276,-26 276,-48 376,-48 376,-26 276,-26"/>
<text text-anchor="start" x="278.967" y="-32.4" font-family="Times,serif" font-size="14.00" fill="#000000">java.lang.Integer</text>
<polygon fill="none" stroke="#000000" points="276,-4 276,-26 376,-26 376,-4 276,-4"/>
<text text-anchor="start" x="293.1448" y="-10.4" font-family="Times,serif" font-size="14.00" fill="#000000">value: 2020</text>
</g>
<!-- n1&#45;&gt;n4 -->
<g id="edge4" class="edge">
<title>n1-&gt;n4</title>
<path fill="none" stroke="#000000" d="M204.1143,-102.1987C224.3411,-89.5537 251.8197,-72.375 275.5665,-57.5293"/>
<polygon fill="#000000" stroke="#000000" points="277.5021,-60.447 284.1261,-52.1781 273.7913,-54.5114 277.5021,-60.447"/>
<text text-anchor="middle" x="259.6674" y="-73.6" font-family="Times,serif" font-size="12.00" fill="#000000">i4</text>
</g>
</g>
</svg>